G04 #@! TF.GenerationSoftware,KiCad,Pcbnew,(5.0.1)-rc2*
G04 #@! TF.CreationDate,2019-05-10T17:14:01-07:00*
G04 #@! TF.ProjectId,bullercounter,62756C6C6572636F756E7465722E6B69,rev?*
G04 #@! TF.SameCoordinates,Original*
G04 #@! TF.FileFunction,Copper,L2,Bot,Signal*
G04 #@! TF.FilePolarity,Positive*
%FSLAX46Y46*%
G04 Gerber Fmt 4.6, Leading zero omitted, Abs format (unit mm)*
G04 Created by KiCad (PCBNEW (5.0.1)-rc2) date 5/10/2019 5:14:01 PM*
%MOMM*%
%LPD*%
G01*
G04 APERTURE LIST*
G04 #@! TA.AperFunction,ComponentPad*
%ADD10C,1.000000*%
G04 #@! TD*
G04 #@! TA.AperFunction,WasherPad*
%ADD11C,1.500000*%
G04 #@! TD*
G04 #@! TA.AperFunction,ComponentPad*
%ADD12C,2.000000*%
G04 #@! TD*
G04 #@! TA.AperFunction,ComponentPad*
%ADD13O,1.350000X1.500000*%
G04 #@! TD*
G04 #@! TA.AperFunction,ComponentPad*
%ADD14O,1.500000X1.350000*%
G04 #@! TD*
G04 #@! TA.AperFunction,Conductor*
%ADD15C,0.100000*%
G04 #@! TD*
G04 #@! TA.AperFunction,SMDPad,CuDef*
%ADD16C,0.975000*%
G04 #@! TD*
G04 #@! TA.AperFunction,SMDPad,CuDef*
%ADD17R,1.000000X1.000000*%
G04 #@! TD*
G04 #@! TA.AperFunction,SMDPad,CuDef*
%ADD18C,0.875000*%
G04 #@! TD*
G04 #@! TA.AperFunction,SMDPad,CuDef*
%ADD19R,1.250000X0.350000*%
G04 #@! TD*
G04 #@! TA.AperFunction,SMDPad,CuDef*
%ADD20R,0.350000X1.250000*%
G04 #@! TD*
G04 #@! TA.AperFunction,SMDPad,CuDef*
%ADD21C,0.400000*%
G04 #@! TD*
G04 #@! TA.AperFunction,SMDPad,CuDef*
%ADD22R,0.675000X0.400000*%
G04 #@! TD*
G04 #@! TA.AperFunction,SMDPad,CuDef*
%ADD23R,0.400000X0.675000*%
G04 #@! TD*
G04 #@! TA.AperFunction,SMDPad,CuDef*
%ADD24R,1.800000X1.300000*%
G04 #@! TD*
G04 #@! TA.AperFunction,ComponentPad*
%ADD25C,1.700000*%
G04 #@! TD*
G04 #@! TA.AperFunction,ComponentPad*
%ADD26O,1.700000X2.000000*%
G04 #@! TD*
G04 #@! TA.AperFunction,ComponentPad*
%ADD27C,1.524000*%
G04 #@! TD*
G04 #@! TA.AperFunction,ComponentPad*
%ADD28R,1.700000X1.700000*%
G04 #@! TD*
G04 #@! TA.AperFunction,ComponentPad*
%ADD29O,1.700000X1.700000*%
G04 #@! TD*
G04 #@! TA.AperFunction,ViaPad*
%ADD30C,0.400000*%
G04 #@! TD*
G04 #@! TA.AperFunction,ViaPad*
%ADD31C,0.800000*%
G04 #@! TD*
G04 #@! TA.AperFunction,Conductor*
%ADD32C,0.152400*%
G04 #@! TD*
G04 #@! TA.AperFunction,Conductor*
%ADD33C,0.250000*%
G04 #@! TD*
G04 #@! TA.AperFunction,Conductor*
%ADD34C,0.254000*%
G04 #@! TD*
G04 APERTURE END LIST*
D10*
G04 #@! TO.P,U5,1*
G04 #@! TO.N,Net-(C1-Pad2)*
X198120000Y-119166000D03*
G04 #@! TO.P,U5,2*
G04 #@! TO.N,BattRtn*
X198120000Y-121666000D03*
G04 #@! TD*
D11*
G04 #@! TO.P,SW4,*
G04 #@! TO.N,*
X200684000Y-126615820D03*
X193604000Y-126615820D03*
D12*
G04 #@! TO.P,SW4,2*
G04 #@! TO.N,Fun_Btn_2*
X199644000Y-129115820D03*
G04 #@! TO.P,SW4,1*
G04 #@! TO.N,Vdd*
X194644000Y-129115820D03*
G04 #@! TD*
D11*
G04 #@! TO.P,SW5,*
G04 #@! TO.N,*
X203240000Y-118872000D03*
X203240000Y-125952000D03*
D12*
G04 #@! TO.P,SW5,2*
G04 #@! TO.N,Fun_Btn_3*
X205740000Y-119912000D03*
G04 #@! TO.P,SW5,1*
G04 #@! TO.N,Vdd*
X205740000Y-124912000D03*
G04 #@! TD*
D11*
G04 #@! TO.P,SW3,*
G04 #@! TO.N,*
X203240000Y-108839000D03*
X203240000Y-115919000D03*
D12*
G04 #@! TO.P,SW3,2*
G04 #@! TO.N,Fun_Btn_1*
X205740000Y-109879000D03*
G04 #@! TO.P,SW3,1*
G04 #@! TO.N,Vdd*
X205740000Y-114879000D03*
G04 #@! TD*
D13*
G04 #@! TO.P,J1,*
G04 #@! TO.N,*
X185073000Y-115352000D03*
X185073000Y-108752000D03*
D14*
X182273000Y-115697000D03*
X182273000Y-108497000D03*
G04 #@! TD*
D15*
G04 #@! TO.N,BattRtn*
G04 #@! TO.C,C16*
G36*
X196198642Y-107251174D02*
X196222303Y-107254684D01*
X196245507Y-107260496D01*
X196268029Y-107268554D01*
X196289653Y-107278782D01*
X196310170Y-107291079D01*
X196329383Y-107305329D01*
X196347107Y-107321393D01*
X196363171Y-107339117D01*
X196377421Y-107358330D01*
X196389718Y-107378847D01*
X196399946Y-107400471D01*
X196408004Y-107422993D01*
X196413816Y-107446197D01*
X196417326Y-107469858D01*
X196418500Y-107493750D01*
X196418500Y-108406250D01*
X196417326Y-108430142D01*
X196413816Y-108453803D01*
X196408004Y-108477007D01*
X196399946Y-108499529D01*
X196389718Y-108521153D01*
X196377421Y-108541670D01*
X196363171Y-108560883D01*
X196347107Y-108578607D01*
X196329383Y-108594671D01*
X196310170Y-108608921D01*
X196289653Y-108621218D01*
X196268029Y-108631446D01*
X196245507Y-108639504D01*
X196222303Y-108645316D01*
X196198642Y-108648826D01*
X196174750Y-108650000D01*
X195687250Y-108650000D01*
X195663358Y-108648826D01*
X195639697Y-108645316D01*
X195616493Y-108639504D01*
X195593971Y-108631446D01*
X195572347Y-108621218D01*
X195551830Y-108608921D01*
X195532617Y-108594671D01*
X195514893Y-108578607D01*
X195498829Y-108560883D01*
X195484579Y-108541670D01*
X195472282Y-108521153D01*
X195462054Y-108499529D01*
X195453996Y-108477007D01*
X195448184Y-108453803D01*
X195444674Y-108430142D01*
X195443500Y-108406250D01*
X195443500Y-107493750D01*
X195444674Y-107469858D01*
X195448184Y-107446197D01*
X195453996Y-107422993D01*
X195462054Y-107400471D01*
X195472282Y-107378847D01*
X195484579Y-107358330D01*
X195498829Y-107339117D01*
X195514893Y-107321393D01*
X195532617Y-107305329D01*
X195551830Y-107291079D01*
X195572347Y-107278782D01*
X195593971Y-107268554D01*
X195616493Y-107260496D01*
X195639697Y-107254684D01*
X195663358Y-107251174D01*
X195687250Y-107250000D01*
X196174750Y-107250000D01*
X196198642Y-107251174D01*
X196198642Y-107251174D01*
G37*
D16*
G04 #@! TD*
G04 #@! TO.P,C16,2*
G04 #@! TO.N,BattRtn*
X195931000Y-107950000D03*
D15*
G04 #@! TO.N,/VDDCORE*
G04 #@! TO.C,C16*
G36*
X194323642Y-107251174D02*
X194347303Y-107254684D01*
X194370507Y-107260496D01*
X194393029Y-107268554D01*
X194414653Y-107278782D01*
X194435170Y-107291079D01*
X194454383Y-107305329D01*
X194472107Y-107321393D01*
X194488171Y-107339117D01*
X194502421Y-107358330D01*
X194514718Y-107378847D01*
X194524946Y-107400471D01*
X194533004Y-107422993D01*
X194538816Y-107446197D01*
X194542326Y-107469858D01*
X194543500Y-107493750D01*
X194543500Y-108406250D01*
X194542326Y-108430142D01*
X194538816Y-108453803D01*
X194533004Y-108477007D01*
X194524946Y-108499529D01*
X194514718Y-108521153D01*
X194502421Y-108541670D01*
X194488171Y-108560883D01*
X194472107Y-108578607D01*
X194454383Y-108594671D01*
X194435170Y-108608921D01*
X194414653Y-108621218D01*
X194393029Y-108631446D01*
X194370507Y-108639504D01*
X194347303Y-108645316D01*
X194323642Y-108648826D01*
X194299750Y-108650000D01*
X193812250Y-108650000D01*
X193788358Y-108648826D01*
X193764697Y-108645316D01*
X193741493Y-108639504D01*
X193718971Y-108631446D01*
X193697347Y-108621218D01*
X193676830Y-108608921D01*
X193657617Y-108594671D01*
X193639893Y-108578607D01*
X193623829Y-108560883D01*
X193609579Y-108541670D01*
X193597282Y-108521153D01*
X193587054Y-108499529D01*
X193578996Y-108477007D01*
X193573184Y-108453803D01*
X193569674Y-108430142D01*
X193568500Y-108406250D01*
X193568500Y-107493750D01*
X193569674Y-107469858D01*
X193573184Y-107446197D01*
X193578996Y-107422993D01*
X193587054Y-107400471D01*
X193597282Y-107378847D01*
X193609579Y-107358330D01*
X193623829Y-107339117D01*
X193639893Y-107321393D01*
X193657617Y-107305329D01*
X193676830Y-107291079D01*
X193697347Y-107278782D01*
X193718971Y-107268554D01*
X193741493Y-107260496D01*
X193764697Y-107254684D01*
X193788358Y-107251174D01*
X193812250Y-107250000D01*
X194299750Y-107250000D01*
X194323642Y-107251174D01*
X194323642Y-107251174D01*
G37*
D16*
G04 #@! TD*
G04 #@! TO.P,C16,1*
G04 #@! TO.N,/VDDCORE*
X194056000Y-107950000D03*
D15*
G04 #@! TO.N,Net-(C1-Pad2)*
G04 #@! TO.C,C1*
G36*
X201680142Y-103438674D02*
X201703803Y-103442184D01*
X201727007Y-103447996D01*
X201749529Y-103456054D01*
X201771153Y-103466282D01*
X201791670Y-103478579D01*
X201810883Y-103492829D01*
X201828607Y-103508893D01*
X201844671Y-103526617D01*
X201858921Y-103545830D01*
X201871218Y-103566347D01*
X201881446Y-103587971D01*
X201889504Y-103610493D01*
X201895316Y-103633697D01*
X201898826Y-103657358D01*
X201900000Y-103681250D01*
X201900000Y-104168750D01*
X201898826Y-104192642D01*
X201895316Y-104216303D01*
X201889504Y-104239507D01*
X201881446Y-104262029D01*
X201871218Y-104283653D01*
X201858921Y-104304170D01*
X201844671Y-104323383D01*
X201828607Y-104341107D01*
X201810883Y-104357171D01*
X201791670Y-104371421D01*
X201771153Y-104383718D01*
X201749529Y-104393946D01*
X201727007Y-104402004D01*
X201703803Y-104407816D01*
X201680142Y-104411326D01*
X201656250Y-104412500D01*
X200743750Y-104412500D01*
X200719858Y-104411326D01*
X200696197Y-104407816D01*
X200672993Y-104402004D01*
X200650471Y-104393946D01*
X200628847Y-104383718D01*
X200608330Y-104371421D01*
X200589117Y-104357171D01*
X200571393Y-104341107D01*
X200555329Y-104323383D01*
X200541079Y-104304170D01*
X200528782Y-104283653D01*
X200518554Y-104262029D01*
X200510496Y-104239507D01*
X200504684Y-104216303D01*
X200501174Y-104192642D01*
X200500000Y-104168750D01*
X200500000Y-103681250D01*
X200501174Y-103657358D01*
X200504684Y-103633697D01*
X200510496Y-103610493D01*
X200518554Y-103587971D01*
X200528782Y-103566347D01*
X200541079Y-103545830D01*
X200555329Y-103526617D01*
X200571393Y-103508893D01*
X200589117Y-103492829D01*
X200608330Y-103478579D01*
X200628847Y-103466282D01*
X200650471Y-103456054D01*
X200672993Y-103447996D01*
X200696197Y-103442184D01*
X200719858Y-103438674D01*
X200743750Y-103437500D01*
X201656250Y-103437500D01*
X201680142Y-103438674D01*
X201680142Y-103438674D01*
G37*
D16*
G04 #@! TD*
G04 #@! TO.P,C1,2*
G04 #@! TO.N,Net-(C1-Pad2)*
X201200000Y-103925000D03*
D15*
G04 #@! TO.N,Net-(C1-Pad1)*
G04 #@! TO.C,C1*
G36*
X201680142Y-105313674D02*
X201703803Y-105317184D01*
X201727007Y-105322996D01*
X201749529Y-105331054D01*
X201771153Y-105341282D01*
X201791670Y-105353579D01*
X201810883Y-105367829D01*
X201828607Y-105383893D01*
X201844671Y-105401617D01*
X201858921Y-105420830D01*
X201871218Y-105441347D01*
X201881446Y-105462971D01*
X201889504Y-105485493D01*
X201895316Y-105508697D01*
X201898826Y-105532358D01*
X201900000Y-105556250D01*
X201900000Y-106043750D01*
X201898826Y-106067642D01*
X201895316Y-106091303D01*
X201889504Y-106114507D01*
X201881446Y-106137029D01*
X201871218Y-106158653D01*
X201858921Y-106179170D01*
X201844671Y-106198383D01*
X201828607Y-106216107D01*
X201810883Y-106232171D01*
X201791670Y-106246421D01*
X201771153Y-106258718D01*
X201749529Y-106268946D01*
X201727007Y-106277004D01*
X201703803Y-106282816D01*
X201680142Y-106286326D01*
X201656250Y-106287500D01*
X200743750Y-106287500D01*
X200719858Y-106286326D01*
X200696197Y-106282816D01*
X200672993Y-106277004D01*
X200650471Y-106268946D01*
X200628847Y-106258718D01*
X200608330Y-106246421D01*
X200589117Y-106232171D01*
X200571393Y-106216107D01*
X200555329Y-106198383D01*
X200541079Y-106179170D01*
X200528782Y-106158653D01*
X200518554Y-106137029D01*
X200510496Y-106114507D01*
X200504684Y-106091303D01*
X200501174Y-106067642D01*
X200500000Y-106043750D01*
X200500000Y-105556250D01*
X200501174Y-105532358D01*
X200504684Y-105508697D01*
X200510496Y-105485493D01*
X200518554Y-105462971D01*
X200528782Y-105441347D01*
X200541079Y-105420830D01*
X200555329Y-105401617D01*
X200571393Y-105383893D01*
X200589117Y-105367829D01*
X200608330Y-105353579D01*
X200628847Y-105341282D01*
X200650471Y-105331054D01*
X200672993Y-105322996D01*
X200696197Y-105317184D01*
X200719858Y-105313674D01*
X200743750Y-105312500D01*
X201656250Y-105312500D01*
X201680142Y-105313674D01*
X201680142Y-105313674D01*
G37*
D16*
G04 #@! TD*
G04 #@! TO.P,C1,1*
G04 #@! TO.N,Net-(C1-Pad1)*
X201200000Y-105800000D03*
D15*
G04 #@! TO.N,BattRtn*
G04 #@! TO.C,C2*
G36*
X185798542Y-105655674D02*
X185822203Y-105659184D01*
X185845407Y-105664996D01*
X185867929Y-105673054D01*
X185889553Y-105683282D01*
X185910070Y-105695579D01*
X185929283Y-105709829D01*
X185947007Y-105725893D01*
X185963071Y-105743617D01*
X185977321Y-105762830D01*
X185989618Y-105783347D01*
X185999846Y-105804971D01*
X186007904Y-105827493D01*
X186013716Y-105850697D01*
X186017226Y-105874358D01*
X186018400Y-105898250D01*
X186018400Y-106385750D01*
X186017226Y-106409642D01*
X186013716Y-106433303D01*
X186007904Y-106456507D01*
X185999846Y-106479029D01*
X185989618Y-106500653D01*
X185977321Y-106521170D01*
X185963071Y-106540383D01*
X185947007Y-106558107D01*
X185929283Y-106574171D01*
X185910070Y-106588421D01*
X185889553Y-106600718D01*
X185867929Y-106610946D01*
X185845407Y-106619004D01*
X185822203Y-106624816D01*
X185798542Y-106628326D01*
X185774650Y-106629500D01*
X184862150Y-106629500D01*
X184838258Y-106628326D01*
X184814597Y-106624816D01*
X184791393Y-106619004D01*
X184768871Y-106610946D01*
X184747247Y-106600718D01*
X184726730Y-106588421D01*
X184707517Y-106574171D01*
X184689793Y-106558107D01*
X184673729Y-106540383D01*
X184659479Y-106521170D01*
X184647182Y-106500653D01*
X184636954Y-106479029D01*
X184628896Y-106456507D01*
X184623084Y-106433303D01*
X184619574Y-106409642D01*
X184618400Y-106385750D01*
X184618400Y-105898250D01*
X184619574Y-105874358D01*
X184623084Y-105850697D01*
X184628896Y-105827493D01*
X184636954Y-105804971D01*
X184647182Y-105783347D01*
X184659479Y-105762830D01*
X184673729Y-105743617D01*
X184689793Y-105725893D01*
X184707517Y-105709829D01*
X184726730Y-105695579D01*
X184747247Y-105683282D01*
X184768871Y-105673054D01*
X184791393Y-105664996D01*
X184814597Y-105659184D01*
X184838258Y-105655674D01*
X184862150Y-105654500D01*
X185774650Y-105654500D01*
X185798542Y-105655674D01*
X185798542Y-105655674D01*
G37*
D16*
G04 #@! TD*
G04 #@! TO.P,C2,2*
G04 #@! TO.N,BattRtn*
X185318400Y-106142000D03*
D15*
G04 #@! TO.N,Net-(C2-Pad1)*
G04 #@! TO.C,C2*
G36*
X185798542Y-103780674D02*
X185822203Y-103784184D01*
X185845407Y-103789996D01*
X185867929Y-103798054D01*
X185889553Y-103808282D01*
X185910070Y-103820579D01*
X185929283Y-103834829D01*
X185947007Y-103850893D01*
X185963071Y-103868617D01*
X185977321Y-103887830D01*
X185989618Y-103908347D01*
X185999846Y-103929971D01*
X186007904Y-103952493D01*
X186013716Y-103975697D01*
X186017226Y-103999358D01*
X186018400Y-104023250D01*
X186018400Y-104510750D01*
X186017226Y-104534642D01*
X186013716Y-104558303D01*
X186007904Y-104581507D01*
X185999846Y-104604029D01*
X185989618Y-104625653D01*
X185977321Y-104646170D01*
X185963071Y-104665383D01*
X185947007Y-104683107D01*
X185929283Y-104699171D01*
X185910070Y-104713421D01*
X185889553Y-104725718D01*
X185867929Y-104735946D01*
X185845407Y-104744004D01*
X185822203Y-104749816D01*
X185798542Y-104753326D01*
X185774650Y-104754500D01*
X184862150Y-104754500D01*
X184838258Y-104753326D01*
X184814597Y-104749816D01*
X184791393Y-104744004D01*
X184768871Y-104735946D01*
X184747247Y-104725718D01*
X184726730Y-104713421D01*
X184707517Y-104699171D01*
X184689793Y-104683107D01*
X184673729Y-104665383D01*
X184659479Y-104646170D01*
X184647182Y-104625653D01*
X184636954Y-104604029D01*
X184628896Y-104581507D01*
X184623084Y-104558303D01*
X184619574Y-104534642D01*
X184618400Y-104510750D01*
X184618400Y-104023250D01*
X184619574Y-103999358D01*
X184623084Y-103975697D01*
X184628896Y-103952493D01*
X184636954Y-103929971D01*
X184647182Y-103908347D01*
X184659479Y-103887830D01*
X184673729Y-103868617D01*
X184689793Y-103850893D01*
X184707517Y-103834829D01*
X184726730Y-103820579D01*
X184747247Y-103808282D01*
X184768871Y-103798054D01*
X184791393Y-103789996D01*
X184814597Y-103784184D01*
X184838258Y-103780674D01*
X184862150Y-103779500D01*
X185774650Y-103779500D01*
X185798542Y-103780674D01*
X185798542Y-103780674D01*
G37*
D16*
G04 #@! TD*
G04 #@! TO.P,C2,1*
G04 #@! TO.N,Net-(C2-Pad1)*
X185318400Y-104267000D03*
D15*
G04 #@! TO.N,/VDDANA*
G04 #@! TO.C,C15*
G36*
X200530142Y-120063674D02*
X200553803Y-120067184D01*
X200577007Y-120072996D01*
X200599529Y-120081054D01*
X200621153Y-120091282D01*
X200641670Y-120103579D01*
X200660883Y-120117829D01*
X200678607Y-120133893D01*
X200694671Y-120151617D01*
X200708921Y-120170830D01*
X200721218Y-120191347D01*
X200731446Y-120212971D01*
X200739504Y-120235493D01*
X200745316Y-120258697D01*
X200748826Y-120282358D01*
X200750000Y-120306250D01*
X200750000Y-120793750D01*
X200748826Y-120817642D01*
X200745316Y-120841303D01*
X200739504Y-120864507D01*
X200731446Y-120887029D01*
X200721218Y-120908653D01*
X200708921Y-120929170D01*
X200694671Y-120948383D01*
X200678607Y-120966107D01*
X200660883Y-120982171D01*
X200641670Y-120996421D01*
X200621153Y-121008718D01*
X200599529Y-121018946D01*
X200577007Y-121027004D01*
X200553803Y-121032816D01*
X200530142Y-121036326D01*
X200506250Y-121037500D01*
X199593750Y-121037500D01*
X199569858Y-121036326D01*
X199546197Y-121032816D01*
X199522993Y-121027004D01*
X199500471Y-121018946D01*
X199478847Y-121008718D01*
X199458330Y-120996421D01*
X199439117Y-120982171D01*
X199421393Y-120966107D01*
X199405329Y-120948383D01*
X199391079Y-120929170D01*
X199378782Y-120908653D01*
X199368554Y-120887029D01*
X199360496Y-120864507D01*
X199354684Y-120841303D01*
X199351174Y-120817642D01*
X199350000Y-120793750D01*
X199350000Y-120306250D01*
X199351174Y-120282358D01*
X199354684Y-120258697D01*
X199360496Y-120235493D01*
X199368554Y-120212971D01*
X199378782Y-120191347D01*
X199391079Y-120170830D01*
X199405329Y-120151617D01*
X199421393Y-120133893D01*
X199439117Y-120117829D01*
X199458330Y-120103579D01*
X199478847Y-120091282D01*
X199500471Y-120081054D01*
X199522993Y-120072996D01*
X199546197Y-120067184D01*
X199569858Y-120063674D01*
X199593750Y-120062500D01*
X200506250Y-120062500D01*
X200530142Y-120063674D01*
X200530142Y-120063674D01*
G37*
D16*
G04 #@! TD*
G04 #@! TO.P,C15,1*
G04 #@! TO.N,/VDDANA*
X200050000Y-120550000D03*
D15*
G04 #@! TO.N,BattRtn*
G04 #@! TO.C,C15*
G36*
X200530142Y-121938674D02*
X200553803Y-121942184D01*
X200577007Y-121947996D01*
X200599529Y-121956054D01*
X200621153Y-121966282D01*
X200641670Y-121978579D01*
X200660883Y-121992829D01*
X200678607Y-122008893D01*
X200694671Y-122026617D01*
X200708921Y-122045830D01*
X200721218Y-122066347D01*
X200731446Y-122087971D01*
X200739504Y-122110493D01*
X200745316Y-122133697D01*
X200748826Y-122157358D01*
X200750000Y-122181250D01*
X200750000Y-122668750D01*
X200748826Y-122692642D01*
X200745316Y-122716303D01*
X200739504Y-122739507D01*
X200731446Y-122762029D01*
X200721218Y-122783653D01*
X200708921Y-122804170D01*
X200694671Y-122823383D01*
X200678607Y-122841107D01*
X200660883Y-122857171D01*
X200641670Y-122871421D01*
X200621153Y-122883718D01*
X200599529Y-122893946D01*
X200577007Y-122902004D01*
X200553803Y-122907816D01*
X200530142Y-122911326D01*
X200506250Y-122912500D01*
X199593750Y-122912500D01*
X199569858Y-122911326D01*
X199546197Y-122907816D01*
X199522993Y-122902004D01*
X199500471Y-122893946D01*
X199478847Y-122883718D01*
X199458330Y-122871421D01*
X199439117Y-122857171D01*
X199421393Y-122841107D01*
X199405329Y-122823383D01*
X199391079Y-122804170D01*
X199378782Y-122783653D01*
X199368554Y-122762029D01*
X199360496Y-122739507D01*
X199354684Y-122716303D01*
X199351174Y-122692642D01*
X199350000Y-122668750D01*
X199350000Y-122181250D01*
X199351174Y-122157358D01*
X199354684Y-122133697D01*
X199360496Y-122110493D01*
X199368554Y-122087971D01*
X199378782Y-122066347D01*
X199391079Y-122045830D01*
X199405329Y-122026617D01*
X199421393Y-122008893D01*
X199439117Y-121992829D01*
X199458330Y-121978579D01*
X199478847Y-121966282D01*
X199500471Y-121956054D01*
X199522993Y-121947996D01*
X199546197Y-121942184D01*
X199569858Y-121938674D01*
X199593750Y-121937500D01*
X200506250Y-121937500D01*
X200530142Y-121938674D01*
X200530142Y-121938674D01*
G37*
D16*
G04 #@! TD*
G04 #@! TO.P,C15,2*
G04 #@! TO.N,BattRtn*
X200050000Y-122425000D03*
D15*
G04 #@! TO.N,/BatteryManagement/Batt-*
G04 #@! TO.C,C19*
G36*
X188998942Y-120953374D02*
X189022603Y-120956884D01*
X189045807Y-120962696D01*
X189068329Y-120970754D01*
X189089953Y-120980982D01*
X189110470Y-120993279D01*
X189129683Y-121007529D01*
X189147407Y-121023593D01*
X189163471Y-121041317D01*
X189177721Y-121060530D01*
X189190018Y-121081047D01*
X189200246Y-121102671D01*
X189208304Y-121125193D01*
X189214116Y-121148397D01*
X189217626Y-121172058D01*
X189218800Y-121195950D01*
X189218800Y-121683450D01*
X189217626Y-121707342D01*
X189214116Y-121731003D01*
X189208304Y-121754207D01*
X189200246Y-121776729D01*
X189190018Y-121798353D01*
X189177721Y-121818870D01*
X189163471Y-121838083D01*
X189147407Y-121855807D01*
X189129683Y-121871871D01*
X189110470Y-121886121D01*
X189089953Y-121898418D01*
X189068329Y-121908646D01*
X189045807Y-121916704D01*
X189022603Y-121922516D01*
X188998942Y-121926026D01*
X188975050Y-121927200D01*
X188062550Y-121927200D01*
X188038658Y-121926026D01*
X188014997Y-121922516D01*
X187991793Y-121916704D01*
X187969271Y-121908646D01*
X187947647Y-121898418D01*
X187927130Y-121886121D01*
X187907917Y-121871871D01*
X187890193Y-121855807D01*
X187874129Y-121838083D01*
X187859879Y-121818870D01*
X187847582Y-121798353D01*
X187837354Y-121776729D01*
X187829296Y-121754207D01*
X187823484Y-121731003D01*
X187819974Y-121707342D01*
X187818800Y-121683450D01*
X187818800Y-121195950D01*
X187819974Y-121172058D01*
X187823484Y-121148397D01*
X187829296Y-121125193D01*
X187837354Y-121102671D01*
X187847582Y-121081047D01*
X187859879Y-121060530D01*
X187874129Y-121041317D01*
X187890193Y-121023593D01*
X187907917Y-121007529D01*
X187927130Y-120993279D01*
X187947647Y-120980982D01*
X187969271Y-120970754D01*
X187991793Y-120962696D01*
X188014997Y-120956884D01*
X188038658Y-120953374D01*
X188062550Y-120952200D01*
X188975050Y-120952200D01*
X188998942Y-120953374D01*
X188998942Y-120953374D01*
G37*
D16*
G04 #@! TD*
G04 #@! TO.P,C19,2*
G04 #@! TO.N,/BatteryManagement/Batt-*
X188518800Y-121439700D03*
D15*
G04 #@! TO.N,BattPwr*
G04 #@! TO.C,C19*
G36*
X188998942Y-122828374D02*
X189022603Y-122831884D01*
X189045807Y-122837696D01*
X189068329Y-122845754D01*
X189089953Y-122855982D01*
X189110470Y-122868279D01*
X189129683Y-122882529D01*
X189147407Y-122898593D01*
X189163471Y-122916317D01*
X189177721Y-122935530D01*
X189190018Y-122956047D01*
X189200246Y-122977671D01*
X189208304Y-123000193D01*
X189214116Y-123023397D01*
X189217626Y-123047058D01*
X189218800Y-123070950D01*
X189218800Y-123558450D01*
X189217626Y-123582342D01*
X189214116Y-123606003D01*
X189208304Y-123629207D01*
X189200246Y-123651729D01*
X189190018Y-123673353D01*
X189177721Y-123693870D01*
X189163471Y-123713083D01*
X189147407Y-123730807D01*
X189129683Y-123746871D01*
X189110470Y-123761121D01*
X189089953Y-123773418D01*
X189068329Y-123783646D01*
X189045807Y-123791704D01*
X189022603Y-123797516D01*
X188998942Y-123801026D01*
X188975050Y-123802200D01*
X188062550Y-123802200D01*
X188038658Y-123801026D01*
X188014997Y-123797516D01*
X187991793Y-123791704D01*
X187969271Y-123783646D01*
X187947647Y-123773418D01*
X187927130Y-123761121D01*
X187907917Y-123746871D01*
X187890193Y-123730807D01*
X187874129Y-123713083D01*
X187859879Y-123693870D01*
X187847582Y-123673353D01*
X187837354Y-123651729D01*
X187829296Y-123629207D01*
X187823484Y-123606003D01*
X187819974Y-123582342D01*
X187818800Y-123558450D01*
X187818800Y-123070950D01*
X187819974Y-123047058D01*
X187823484Y-123023397D01*
X187829296Y-123000193D01*
X187837354Y-122977671D01*
X187847582Y-122956047D01*
X187859879Y-122935530D01*
X187874129Y-122916317D01*
X187890193Y-122898593D01*
X187907917Y-122882529D01*
X187927130Y-122868279D01*
X187947647Y-122855982D01*
X187969271Y-122845754D01*
X187991793Y-122837696D01*
X188014997Y-122831884D01*
X188038658Y-122828374D01*
X188062550Y-122827200D01*
X188975050Y-122827200D01*
X188998942Y-122828374D01*
X188998942Y-122828374D01*
G37*
D16*
G04 #@! TD*
G04 #@! TO.P,C19,1*
G04 #@! TO.N,BattPwr*
X188518800Y-123314700D03*
D15*
G04 #@! TO.N,Vdd*
G04 #@! TO.C,C21*
G36*
X182892642Y-122351174D02*
X182916303Y-122354684D01*
X182939507Y-122360496D01*
X182962029Y-122368554D01*
X182983653Y-122378782D01*
X183004170Y-122391079D01*
X183023383Y-122405329D01*
X183041107Y-122421393D01*
X183057171Y-122439117D01*
X183071421Y-122458330D01*
X183083718Y-122478847D01*
X183093946Y-122500471D01*
X183102004Y-122522993D01*
X183107816Y-122546197D01*
X183111326Y-122569858D01*
X183112500Y-122593750D01*
X183112500Y-123506250D01*
X183111326Y-123530142D01*
X183107816Y-123553803D01*
X183102004Y-123577007D01*
X183093946Y-123599529D01*
X183083718Y-123621153D01*
X183071421Y-123641670D01*
X183057171Y-123660883D01*
X183041107Y-123678607D01*
X183023383Y-123694671D01*
X183004170Y-123708921D01*
X182983653Y-123721218D01*
X182962029Y-123731446D01*
X182939507Y-123739504D01*
X182916303Y-123745316D01*
X182892642Y-123748826D01*
X182868750Y-123750000D01*
X182381250Y-123750000D01*
X182357358Y-123748826D01*
X182333697Y-123745316D01*
X182310493Y-123739504D01*
X182287971Y-123731446D01*
X182266347Y-123721218D01*
X182245830Y-123708921D01*
X182226617Y-123694671D01*
X182208893Y-123678607D01*
X182192829Y-123660883D01*
X182178579Y-123641670D01*
X182166282Y-123621153D01*
X182156054Y-123599529D01*
X182147996Y-123577007D01*
X182142184Y-123553803D01*
X182138674Y-123530142D01*
X182137500Y-123506250D01*
X182137500Y-122593750D01*
X182138674Y-122569858D01*
X182142184Y-122546197D01*
X182147996Y-122522993D01*
X182156054Y-122500471D01*
X182166282Y-122478847D01*
X182178579Y-122458330D01*
X182192829Y-122439117D01*
X182208893Y-122421393D01*
X182226617Y-122405329D01*
X182245830Y-122391079D01*
X182266347Y-122378782D01*
X182287971Y-122368554D01*
X182310493Y-122360496D01*
X182333697Y-122354684D01*
X182357358Y-122351174D01*
X182381250Y-122350000D01*
X182868750Y-122350000D01*
X182892642Y-122351174D01*
X182892642Y-122351174D01*
G37*
D16*
G04 #@! TD*
G04 #@! TO.P,C21,1*
G04 #@! TO.N,Vdd*
X182625000Y-123050000D03*
D15*
G04 #@! TO.N,/BatteryManagement/Batt-*
G04 #@! TO.C,C21*
G36*
X184767642Y-122351174D02*
X184791303Y-122354684D01*
X184814507Y-122360496D01*
X184837029Y-122368554D01*
X184858653Y-122378782D01*
X184879170Y-122391079D01*
X184898383Y-122405329D01*
X184916107Y-122421393D01*
X184932171Y-122439117D01*
X184946421Y-122458330D01*
X184958718Y-122478847D01*
X184968946Y-122500471D01*
X184977004Y-122522993D01*
X184982816Y-122546197D01*
X184986326Y-122569858D01*
X184987500Y-122593750D01*
X184987500Y-123506250D01*
X184986326Y-123530142D01*
X184982816Y-123553803D01*
X184977004Y-123577007D01*
X184968946Y-123599529D01*
X184958718Y-123621153D01*
X184946421Y-123641670D01*
X184932171Y-123660883D01*
X184916107Y-123678607D01*
X184898383Y-123694671D01*
X184879170Y-123708921D01*
X184858653Y-123721218D01*
X184837029Y-123731446D01*
X184814507Y-123739504D01*
X184791303Y-123745316D01*
X184767642Y-123748826D01*
X184743750Y-123750000D01*
X184256250Y-123750000D01*
X184232358Y-123748826D01*
X184208697Y-123745316D01*
X184185493Y-123739504D01*
X184162971Y-123731446D01*
X184141347Y-123721218D01*
X184120830Y-123708921D01*
X184101617Y-123694671D01*
X184083893Y-123678607D01*
X184067829Y-123660883D01*
X184053579Y-123641670D01*
X184041282Y-123621153D01*
X184031054Y-123599529D01*
X184022996Y-123577007D01*
X184017184Y-123553803D01*
X184013674Y-123530142D01*
X184012500Y-123506250D01*
X184012500Y-122593750D01*
X184013674Y-122569858D01*
X184017184Y-122546197D01*
X184022996Y-122522993D01*
X184031054Y-122500471D01*
X184041282Y-122478847D01*
X184053579Y-122458330D01*
X184067829Y-122439117D01*
X184083893Y-122421393D01*
X184101617Y-122405329D01*
X184120830Y-122391079D01*
X184141347Y-122378782D01*
X184162971Y-122368554D01*
X184185493Y-122360496D01*
X184208697Y-122354684D01*
X184232358Y-122351174D01*
X184256250Y-122350000D01*
X184743750Y-122350000D01*
X184767642Y-122351174D01*
X184767642Y-122351174D01*
G37*
D16*
G04 #@! TD*
G04 #@! TO.P,C21,2*
G04 #@! TO.N,/BatteryManagement/Batt-*
X184500000Y-123050000D03*
D17*
G04 #@! TO.P,D3,1*
G04 #@! TO.N,BattPwr*
X188289560Y-128516380D03*
G04 #@! TO.P,D3,2*
G04 #@! TO.N,Net-(D3-Pad2)*
X190789560Y-128516380D03*
G04 #@! TD*
D15*
G04 #@! TO.N,Net-(D1-Pad1)*
G04 #@! TO.C,R1*
G36*
X190943191Y-107730053D02*
X190964426Y-107733203D01*
X190985250Y-107738419D01*
X191005462Y-107745651D01*
X191024868Y-107754830D01*
X191043281Y-107765866D01*
X191060524Y-107778654D01*
X191076430Y-107793070D01*
X191090846Y-107808976D01*
X191103634Y-107826219D01*
X191114670Y-107844632D01*
X191123849Y-107864038D01*
X191131081Y-107884250D01*
X191136297Y-107905074D01*
X191139447Y-107926309D01*
X191140500Y-107947750D01*
X191140500Y-108460250D01*
X191139447Y-108481691D01*
X191136297Y-108502926D01*
X191131081Y-108523750D01*
X191123849Y-108543962D01*
X191114670Y-108563368D01*
X191103634Y-108581781D01*
X191090846Y-108599024D01*
X191076430Y-108614930D01*
X191060524Y-108629346D01*
X191043281Y-108642134D01*
X191024868Y-108653170D01*
X191005462Y-108662349D01*
X190985250Y-108669581D01*
X190964426Y-108674797D01*
X190943191Y-108677947D01*
X190921750Y-108679000D01*
X190484250Y-108679000D01*
X190462809Y-108677947D01*
X190441574Y-108674797D01*
X190420750Y-108669581D01*
X190400538Y-108662349D01*
X190381132Y-108653170D01*
X190362719Y-108642134D01*
X190345476Y-108629346D01*
X190329570Y-108614930D01*
X190315154Y-108599024D01*
X190302366Y-108581781D01*
X190291330Y-108563368D01*
X190282151Y-108543962D01*
X190274919Y-108523750D01*
X190269703Y-108502926D01*
X190266553Y-108481691D01*
X190265500Y-108460250D01*
X190265500Y-107947750D01*
X190266553Y-107926309D01*
X190269703Y-107905074D01*
X190274919Y-107884250D01*
X190282151Y-107864038D01*
X190291330Y-107844632D01*
X190302366Y-107826219D01*
X190315154Y-107808976D01*
X190329570Y-107793070D01*
X190345476Y-107778654D01*
X190362719Y-107765866D01*
X190381132Y-107754830D01*
X190400538Y-107745651D01*
X190420750Y-107738419D01*
X190441574Y-107733203D01*
X190462809Y-107730053D01*
X190484250Y-107729000D01*
X190921750Y-107729000D01*
X190943191Y-107730053D01*
X190943191Y-107730053D01*
G37*
D18*
G04 #@! TD*
G04 #@! TO.P,R1,1*
G04 #@! TO.N,Net-(D1-Pad1)*
X190703000Y-108204000D03*
D15*
G04 #@! TO.N,Vdd*
G04 #@! TO.C,R1*
G36*
X192518191Y-107730053D02*
X192539426Y-107733203D01*
X192560250Y-107738419D01*
X192580462Y-107745651D01*
X192599868Y-107754830D01*
X192618281Y-107765866D01*
X192635524Y-107778654D01*
X192651430Y-107793070D01*
X192665846Y-107808976D01*
X192678634Y-107826219D01*
X192689670Y-107844632D01*
X192698849Y-107864038D01*
X192706081Y-107884250D01*
X192711297Y-107905074D01*
X192714447Y-107926309D01*
X192715500Y-107947750D01*
X192715500Y-108460250D01*
X192714447Y-108481691D01*
X192711297Y-108502926D01*
X192706081Y-108523750D01*
X192698849Y-108543962D01*
X192689670Y-108563368D01*
X192678634Y-108581781D01*
X192665846Y-108599024D01*
X192651430Y-108614930D01*
X192635524Y-108629346D01*
X192618281Y-108642134D01*
X192599868Y-108653170D01*
X192580462Y-108662349D01*
X192560250Y-108669581D01*
X192539426Y-108674797D01*
X192518191Y-108677947D01*
X192496750Y-108679000D01*
X192059250Y-108679000D01*
X192037809Y-108677947D01*
X192016574Y-108674797D01*
X191995750Y-108669581D01*
X191975538Y-108662349D01*
X191956132Y-108653170D01*
X191937719Y-108642134D01*
X191920476Y-108629346D01*
X191904570Y-108614930D01*
X191890154Y-108599024D01*
X191877366Y-108581781D01*
X191866330Y-108563368D01*
X191857151Y-108543962D01*
X191849919Y-108523750D01*
X191844703Y-108502926D01*
X191841553Y-108481691D01*
X191840500Y-108460250D01*
X191840500Y-107947750D01*
X191841553Y-107926309D01*
X191844703Y-107905074D01*
X191849919Y-107884250D01*
X191857151Y-107864038D01*
X191866330Y-107844632D01*
X191877366Y-107826219D01*
X191890154Y-107808976D01*
X191904570Y-107793070D01*
X191920476Y-107778654D01*
X191937719Y-107765866D01*
X191956132Y-107754830D01*
X191975538Y-107745651D01*
X191995750Y-107738419D01*
X192016574Y-107733203D01*
X192037809Y-107730053D01*
X192059250Y-107729000D01*
X192496750Y-107729000D01*
X192518191Y-107730053D01*
X192518191Y-107730053D01*
G37*
D18*
G04 #@! TD*
G04 #@! TO.P,R1,2*
G04 #@! TO.N,Vdd*
X192278000Y-108204000D03*
D15*
G04 #@! TO.N,Net-(C1-Pad2)*
G04 #@! TO.C,R6*
G36*
X191539691Y-120721553D02*
X191560926Y-120724703D01*
X191581750Y-120729919D01*
X191601962Y-120737151D01*
X191621368Y-120746330D01*
X191639781Y-120757366D01*
X191657024Y-120770154D01*
X191672930Y-120784570D01*
X191687346Y-120800476D01*
X191700134Y-120817719D01*
X191711170Y-120836132D01*
X191720349Y-120855538D01*
X191727581Y-120875750D01*
X191732797Y-120896574D01*
X191735947Y-120917809D01*
X191737000Y-120939250D01*
X191737000Y-121376750D01*
X191735947Y-121398191D01*
X191732797Y-121419426D01*
X191727581Y-121440250D01*
X191720349Y-121460462D01*
X191711170Y-121479868D01*
X191700134Y-121498281D01*
X191687346Y-121515524D01*
X191672930Y-121531430D01*
X191657024Y-121545846D01*
X191639781Y-121558634D01*
X191621368Y-121569670D01*
X191601962Y-121578849D01*
X191581750Y-121586081D01*
X191560926Y-121591297D01*
X191539691Y-121594447D01*
X191518250Y-121595500D01*
X191005750Y-121595500D01*
X190984309Y-121594447D01*
X190963074Y-121591297D01*
X190942250Y-121586081D01*
X190922038Y-121578849D01*
X190902632Y-121569670D01*
X190884219Y-121558634D01*
X190866976Y-121545846D01*
X190851070Y-121531430D01*
X190836654Y-121515524D01*
X190823866Y-121498281D01*
X190812830Y-121479868D01*
X190803651Y-121460462D01*
X190796419Y-121440250D01*
X190791203Y-121419426D01*
X190788053Y-121398191D01*
X190787000Y-121376750D01*
X190787000Y-120939250D01*
X190788053Y-120917809D01*
X190791203Y-120896574D01*
X190796419Y-120875750D01*
X190803651Y-120855538D01*
X190812830Y-120836132D01*
X190823866Y-120817719D01*
X190836654Y-120800476D01*
X190851070Y-120784570D01*
X190866976Y-120770154D01*
X190884219Y-120757366D01*
X190902632Y-120746330D01*
X190922038Y-120737151D01*
X190942250Y-120729919D01*
X190963074Y-120724703D01*
X190984309Y-120721553D01*
X191005750Y-120720500D01*
X191518250Y-120720500D01*
X191539691Y-120721553D01*
X191539691Y-120721553D01*
G37*
D18*
G04 #@! TD*
G04 #@! TO.P,R6,1*
G04 #@! TO.N,Net-(C1-Pad2)*
X191262000Y-121158000D03*
D15*
G04 #@! TO.N,Vdd*
G04 #@! TO.C,R6*
G36*
X191539691Y-119146553D02*
X191560926Y-119149703D01*
X191581750Y-119154919D01*
X191601962Y-119162151D01*
X191621368Y-119171330D01*
X191639781Y-119182366D01*
X191657024Y-119195154D01*
X191672930Y-119209570D01*
X191687346Y-119225476D01*
X191700134Y-119242719D01*
X191711170Y-119261132D01*
X191720349Y-119280538D01*
X191727581Y-119300750D01*
X191732797Y-119321574D01*
X191735947Y-119342809D01*
X191737000Y-119364250D01*
X191737000Y-119801750D01*
X191735947Y-119823191D01*
X191732797Y-119844426D01*
X191727581Y-119865250D01*
X191720349Y-119885462D01*
X191711170Y-119904868D01*
X191700134Y-119923281D01*
X191687346Y-119940524D01*
X191672930Y-119956430D01*
X191657024Y-119970846D01*
X191639781Y-119983634D01*
X191621368Y-119994670D01*
X191601962Y-120003849D01*
X191581750Y-120011081D01*
X191560926Y-120016297D01*
X191539691Y-120019447D01*
X191518250Y-120020500D01*
X191005750Y-120020500D01*
X190984309Y-120019447D01*
X190963074Y-120016297D01*
X190942250Y-120011081D01*
X190922038Y-120003849D01*
X190902632Y-119994670D01*
X190884219Y-119983634D01*
X190866976Y-119970846D01*
X190851070Y-119956430D01*
X190836654Y-119940524D01*
X190823866Y-119923281D01*
X190812830Y-119904868D01*
X190803651Y-119885462D01*
X190796419Y-119865250D01*
X190791203Y-119844426D01*
X190788053Y-119823191D01*
X190787000Y-119801750D01*
X190787000Y-119364250D01*
X190788053Y-119342809D01*
X190791203Y-119321574D01*
X190796419Y-119300750D01*
X190803651Y-119280538D01*
X190812830Y-119261132D01*
X190823866Y-119242719D01*
X190836654Y-119225476D01*
X190851070Y-119209570D01*
X190866976Y-119195154D01*
X190884219Y-119182366D01*
X190902632Y-119171330D01*
X190922038Y-119162151D01*
X190942250Y-119154919D01*
X190963074Y-119149703D01*
X190984309Y-119146553D01*
X191005750Y-119145500D01*
X191518250Y-119145500D01*
X191539691Y-119146553D01*
X191539691Y-119146553D01*
G37*
D18*
G04 #@! TD*
G04 #@! TO.P,R6,2*
G04 #@! TO.N,Vdd*
X191262000Y-119583000D03*
D15*
G04 #@! TO.N,Vdd*
G04 #@! TO.C,R8*
G36*
X199527991Y-105415513D02*
X199549226Y-105418663D01*
X199570050Y-105423879D01*
X199590262Y-105431111D01*
X199609668Y-105440290D01*
X199628081Y-105451326D01*
X199645324Y-105464114D01*
X199661230Y-105478530D01*
X199675646Y-105494436D01*
X199688434Y-105511679D01*
X199699470Y-105530092D01*
X199708649Y-105549498D01*
X199715881Y-105569710D01*
X199721097Y-105590534D01*
X199724247Y-105611769D01*
X199725300Y-105633210D01*
X199725300Y-106070710D01*
X199724247Y-106092151D01*
X199721097Y-106113386D01*
X199715881Y-106134210D01*
X199708649Y-106154422D01*
X199699470Y-106173828D01*
X199688434Y-106192241D01*
X199675646Y-106209484D01*
X199661230Y-106225390D01*
X199645324Y-106239806D01*
X199628081Y-106252594D01*
X199609668Y-106263630D01*
X199590262Y-106272809D01*
X199570050Y-106280041D01*
X199549226Y-106285257D01*
X199527991Y-106288407D01*
X199506550Y-106289460D01*
X198994050Y-106289460D01*
X198972609Y-106288407D01*
X198951374Y-106285257D01*
X198930550Y-106280041D01*
X198910338Y-106272809D01*
X198890932Y-106263630D01*
X198872519Y-106252594D01*
X198855276Y-106239806D01*
X198839370Y-106225390D01*
X198824954Y-106209484D01*
X198812166Y-106192241D01*
X198801130Y-106173828D01*
X198791951Y-106154422D01*
X198784719Y-106134210D01*
X198779503Y-106113386D01*
X198776353Y-106092151D01*
X198775300Y-106070710D01*
X198775300Y-105633210D01*
X198776353Y-105611769D01*
X198779503Y-105590534D01*
X198784719Y-105569710D01*
X198791951Y-105549498D01*
X198801130Y-105530092D01*
X198812166Y-105511679D01*
X198824954Y-105494436D01*
X198839370Y-105478530D01*
X198855276Y-105464114D01*
X198872519Y-105451326D01*
X198890932Y-105440290D01*
X198910338Y-105431111D01*
X198930550Y-105423879D01*
X198951374Y-105418663D01*
X198972609Y-105415513D01*
X198994050Y-105414460D01*
X199506550Y-105414460D01*
X199527991Y-105415513D01*
X199527991Y-105415513D01*
G37*
D18*
G04 #@! TD*
G04 #@! TO.P,R8,2*
G04 #@! TO.N,Vdd*
X199250300Y-105851960D03*
D15*
G04 #@! TO.N,Net-(C2-Pad1)*
G04 #@! TO.C,R8*
G36*
X199527991Y-103840513D02*
X199549226Y-103843663D01*
X199570050Y-103848879D01*
X199590262Y-103856111D01*
X199609668Y-103865290D01*
X199628081Y-103876326D01*
X199645324Y-103889114D01*
X199661230Y-103903530D01*
X199675646Y-103919436D01*
X199688434Y-103936679D01*
X199699470Y-103955092D01*
X199708649Y-103974498D01*
X199715881Y-103994710D01*
X199721097Y-104015534D01*
X199724247Y-104036769D01*
X199725300Y-104058210D01*
X199725300Y-104495710D01*
X199724247Y-104517151D01*
X199721097Y-104538386D01*
X199715881Y-104559210D01*
X199708649Y-104579422D01*
X199699470Y-104598828D01*
X199688434Y-104617241D01*
X199675646Y-104634484D01*
X199661230Y-104650390D01*
X199645324Y-104664806D01*
X199628081Y-104677594D01*
X199609668Y-104688630D01*
X199590262Y-104697809D01*
X199570050Y-104705041D01*
X199549226Y-104710257D01*
X199527991Y-104713407D01*
X199506550Y-104714460D01*
X198994050Y-104714460D01*
X198972609Y-104713407D01*
X198951374Y-104710257D01*
X198930550Y-104705041D01*
X198910338Y-104697809D01*
X198890932Y-104688630D01*
X198872519Y-104677594D01*
X198855276Y-104664806D01*
X198839370Y-104650390D01*
X198824954Y-104634484D01*
X198812166Y-104617241D01*
X198801130Y-104598828D01*
X198791951Y-104579422D01*
X198784719Y-104559210D01*
X198779503Y-104538386D01*
X198776353Y-104517151D01*
X198775300Y-104495710D01*
X198775300Y-104058210D01*
X198776353Y-104036769D01*
X198779503Y-104015534D01*
X198784719Y-103994710D01*
X198791951Y-103974498D01*
X198801130Y-103955092D01*
X198812166Y-103936679D01*
X198824954Y-103919436D01*
X198839370Y-103903530D01*
X198855276Y-103889114D01*
X198872519Y-103876326D01*
X198890932Y-103865290D01*
X198910338Y-103856111D01*
X198930550Y-103848879D01*
X198951374Y-103843663D01*
X198972609Y-103840513D01*
X198994050Y-103839460D01*
X199506550Y-103839460D01*
X199527991Y-103840513D01*
X199527991Y-103840513D01*
G37*
D18*
G04 #@! TD*
G04 #@! TO.P,R8,1*
G04 #@! TO.N,Net-(C2-Pad1)*
X199250300Y-104276960D03*
D15*
G04 #@! TO.N,BattRtn*
G04 #@! TO.C,R9*
G36*
X199858691Y-106968053D02*
X199879926Y-106971203D01*
X199900750Y-106976419D01*
X199920962Y-106983651D01*
X199940368Y-106992830D01*
X199958781Y-107003866D01*
X199976024Y-107016654D01*
X199991930Y-107031070D01*
X200006346Y-107046976D01*
X200019134Y-107064219D01*
X200030170Y-107082632D01*
X200039349Y-107102038D01*
X200046581Y-107122250D01*
X200051797Y-107143074D01*
X200054947Y-107164309D01*
X200056000Y-107185750D01*
X200056000Y-107698250D01*
X200054947Y-107719691D01*
X200051797Y-107740926D01*
X200046581Y-107761750D01*
X200039349Y-107781962D01*
X200030170Y-107801368D01*
X200019134Y-107819781D01*
X200006346Y-107837024D01*
X199991930Y-107852930D01*
X199976024Y-107867346D01*
X199958781Y-107880134D01*
X199940368Y-107891170D01*
X199920962Y-107900349D01*
X199900750Y-107907581D01*
X199879926Y-107912797D01*
X199858691Y-107915947D01*
X199837250Y-107917000D01*
X199399750Y-107917000D01*
X199378309Y-107915947D01*
X199357074Y-107912797D01*
X199336250Y-107907581D01*
X199316038Y-107900349D01*
X199296632Y-107891170D01*
X199278219Y-107880134D01*
X199260976Y-107867346D01*
X199245070Y-107852930D01*
X199230654Y-107837024D01*
X199217866Y-107819781D01*
X199206830Y-107801368D01*
X199197651Y-107781962D01*
X199190419Y-107761750D01*
X199185203Y-107740926D01*
X199182053Y-107719691D01*
X199181000Y-107698250D01*
X199181000Y-107185750D01*
X199182053Y-107164309D01*
X199185203Y-107143074D01*
X199190419Y-107122250D01*
X199197651Y-107102038D01*
X199206830Y-107082632D01*
X199217866Y-107064219D01*
X199230654Y-107046976D01*
X199245070Y-107031070D01*
X199260976Y-107016654D01*
X199278219Y-107003866D01*
X199296632Y-106992830D01*
X199316038Y-106983651D01*
X199336250Y-106976419D01*
X199357074Y-106971203D01*
X199378309Y-106968053D01*
X199399750Y-106967000D01*
X199837250Y-106967000D01*
X199858691Y-106968053D01*
X199858691Y-106968053D01*
G37*
D18*
G04 #@! TD*
G04 #@! TO.P,R9,1*
G04 #@! TO.N,BattRtn*
X199618500Y-107442000D03*
D15*
G04 #@! TO.N,Net-(C2-Pad1)*
G04 #@! TO.C,R9*
G36*
X201433691Y-106968053D02*
X201454926Y-106971203D01*
X201475750Y-106976419D01*
X201495962Y-106983651D01*
X201515368Y-106992830D01*
X201533781Y-107003866D01*
X201551024Y-107016654D01*
X201566930Y-107031070D01*
X201581346Y-107046976D01*
X201594134Y-107064219D01*
X201605170Y-107082632D01*
X201614349Y-107102038D01*
X201621581Y-107122250D01*
X201626797Y-107143074D01*
X201629947Y-107164309D01*
X201631000Y-107185750D01*
X201631000Y-107698250D01*
X201629947Y-107719691D01*
X201626797Y-107740926D01*
X201621581Y-107761750D01*
X201614349Y-107781962D01*
X201605170Y-107801368D01*
X201594134Y-107819781D01*
X201581346Y-107837024D01*
X201566930Y-107852930D01*
X201551024Y-107867346D01*
X201533781Y-107880134D01*
X201515368Y-107891170D01*
X201495962Y-107900349D01*
X201475750Y-107907581D01*
X201454926Y-107912797D01*
X201433691Y-107915947D01*
X201412250Y-107917000D01*
X200974750Y-107917000D01*
X200953309Y-107915947D01*
X200932074Y-107912797D01*
X200911250Y-107907581D01*
X200891038Y-107900349D01*
X200871632Y-107891170D01*
X200853219Y-107880134D01*
X200835976Y-107867346D01*
X200820070Y-107852930D01*
X200805654Y-107837024D01*
X200792866Y-107819781D01*
X200781830Y-107801368D01*
X200772651Y-107781962D01*
X200765419Y-107761750D01*
X200760203Y-107740926D01*
X200757053Y-107719691D01*
X200756000Y-107698250D01*
X200756000Y-107185750D01*
X200757053Y-107164309D01*
X200760203Y-107143074D01*
X200765419Y-107122250D01*
X200772651Y-107102038D01*
X200781830Y-107082632D01*
X200792866Y-107064219D01*
X200805654Y-107046976D01*
X200820070Y-107031070D01*
X200835976Y-107016654D01*
X200853219Y-107003866D01*
X200871632Y-106992830D01*
X200891038Y-106983651D01*
X200911250Y-106976419D01*
X200932074Y-106971203D01*
X200953309Y-106968053D01*
X200974750Y-106967000D01*
X201412250Y-106967000D01*
X201433691Y-106968053D01*
X201433691Y-106968053D01*
G37*
D18*
G04 #@! TD*
G04 #@! TO.P,R9,2*
G04 #@! TO.N,Net-(C2-Pad1)*
X201193500Y-107442000D03*
D19*
G04 #@! TO.P,U2,6*
G04 #@! TO.N,/VDDANA*
X197675000Y-113550000D03*
G04 #@! TO.P,U2,5*
G04 #@! TO.N,BattRtn*
X197675000Y-113050000D03*
G04 #@! TO.P,U2,4*
G04 #@! TO.N,Net-(U2-Pad4)*
X197675000Y-112550000D03*
G04 #@! TO.P,U2,3*
G04 #@! TO.N,Audio_out*
X197675000Y-112050000D03*
G04 #@! TO.P,U2,2*
G04 #@! TO.N,Net-(C5-Pad2)*
X197675000Y-111550000D03*
G04 #@! TO.P,U2,1*
G04 #@! TO.N,Net-(C4-Pad2)*
X197675000Y-111050000D03*
G04 #@! TO.P,U2,7*
G04 #@! TO.N,Net-(U2-Pad7)*
X197675000Y-114050000D03*
G04 #@! TO.P,U2,8*
G04 #@! TO.N,Net-(U2-Pad8)*
X197675000Y-114550000D03*
G04 #@! TO.P,U2,9*
G04 #@! TO.N,Audio_out*
X197675000Y-115050000D03*
G04 #@! TO.P,U2,10*
X197675000Y-115550000D03*
G04 #@! TO.P,U2,11*
G04 #@! TO.N,Fun_Btn_1*
X197675000Y-116050000D03*
G04 #@! TO.P,U2,12*
G04 #@! TO.N,BattADC*
X197675000Y-116550000D03*
D20*
G04 #@! TO.P,U2,18*
G04 #@! TO.N,BattRtn*
X194050000Y-117675000D03*
G04 #@! TO.P,U2,17*
G04 #@! TO.N,Vdd*
X194550000Y-117675000D03*
G04 #@! TO.P,U2,16*
G04 #@! TO.N,Net-(U2-Pad16)*
X195050000Y-117675000D03*
G04 #@! TO.P,U2,15*
G04 #@! TO.N,Net-(J3-Pad2)*
X195550000Y-117675000D03*
G04 #@! TO.P,U2,14*
G04 #@! TO.N,BattADC*
X196050000Y-117675000D03*
G04 #@! TO.P,U2,13*
X196550000Y-117675000D03*
G04 #@! TO.P,U2,19*
G04 #@! TO.N,Net-(U2-Pad19)*
X193550000Y-117675000D03*
G04 #@! TO.P,U2,20*
G04 #@! TO.N,Net-(U2-Pad20)*
X193050000Y-117675000D03*
G04 #@! TO.P,U2,21*
G04 #@! TO.N,Net-(U2-Pad21)*
X192550000Y-117675000D03*
G04 #@! TO.P,U2,22*
G04 #@! TO.N,Fun_Btn_2*
X192050000Y-117675000D03*
G04 #@! TO.P,U2,23*
G04 #@! TO.N,Net-(U2-Pad23)*
X191550000Y-117675000D03*
G04 #@! TO.P,U2,24*
G04 #@! TO.N,Fun_Btn_3*
X191050000Y-117675000D03*
D19*
G04 #@! TO.P,U2,25*
G04 #@! TO.N,IMU_INT2*
X189925000Y-116550000D03*
G04 #@! TO.P,U2,26*
X189925000Y-116050000D03*
G04 #@! TO.P,U2,27*
X189925000Y-115550000D03*
G04 #@! TO.P,U2,28*
G04 #@! TO.N,IMU_INT*
X189925000Y-115050000D03*
G04 #@! TO.P,U2,29*
X189925000Y-114550000D03*
G04 #@! TO.P,U2,30*
X189925000Y-114050000D03*
G04 #@! TO.P,U2,31*
G04 #@! TO.N,SDA*
X189925000Y-113550000D03*
G04 #@! TO.P,U2,32*
G04 #@! TO.N,SCL*
X189925000Y-113050000D03*
G04 #@! TO.P,U2,33*
G04 #@! TO.N,/USB_DM*
X189925000Y-112550000D03*
G04 #@! TO.P,U2,34*
G04 #@! TO.N,/USB_DP*
X189925000Y-112050000D03*
G04 #@! TO.P,U2,35*
G04 #@! TO.N,BattRtn*
X189925000Y-111550000D03*
G04 #@! TO.P,U2,36*
G04 #@! TO.N,Vdd*
X189925000Y-111050000D03*
D20*
G04 #@! TO.P,U2,37*
G04 #@! TO.N,LED1_P2*
X191050000Y-109925000D03*
G04 #@! TO.P,U2,38*
G04 #@! TO.N,Net-(U2-Pad38)*
X191550000Y-109925000D03*
G04 #@! TO.P,U2,39*
G04 #@! TO.N,Net-(U2-Pad39)*
X192050000Y-109925000D03*
G04 #@! TO.P,U2,40*
G04 #@! TO.N,/RESET*
X192550000Y-109925000D03*
G04 #@! TO.P,U2,41*
G04 #@! TO.N,Net-(U2-Pad41)*
X193050000Y-109925000D03*
G04 #@! TO.P,U2,42*
G04 #@! TO.N,BattRtn*
X193550000Y-109925000D03*
G04 #@! TO.P,U2,43*
G04 #@! TO.N,/VDDCORE*
X194050000Y-109925000D03*
G04 #@! TO.P,U2,44*
G04 #@! TO.N,Vdd*
X194550000Y-109925000D03*
G04 #@! TO.P,U2,45*
G04 #@! TO.N,/SWDCLK*
X195050000Y-109925000D03*
G04 #@! TO.P,U2,46*
G04 #@! TO.N,/SWDIO*
X195550000Y-109925000D03*
G04 #@! TO.P,U2,47*
G04 #@! TO.N,Net-(U2-Pad47)*
X196050000Y-109925000D03*
G04 #@! TO.P,U2,48*
G04 #@! TO.N,Net-(U2-Pad48)*
X196550000Y-109925000D03*
G04 #@! TD*
D21*
G04 #@! TO.P,U3,1*
G04 #@! TO.N,Vdd*
X180462500Y-112350000D03*
D15*
G04 #@! TD*
G04 #@! TO.N,Vdd*
G04 #@! TO.C,U3*
G36*
X180800000Y-112300000D02*
X180550000Y-112550000D01*
X180125000Y-112550000D01*
X180125000Y-112150000D01*
X180800000Y-112150000D01*
X180800000Y-112300000D01*
X180800000Y-112300000D01*
G37*
D22*
G04 #@! TO.P,U3,2*
G04 #@! TO.N,Vdd*
X180462500Y-111850000D03*
G04 #@! TO.P,U3,3*
X180462500Y-111350000D03*
D21*
G04 #@! TO.P,U3,4*
G04 #@! TO.N,IMU_INT2*
X180462500Y-110850000D03*
D15*
G04 #@! TD*
G04 #@! TO.N,IMU_INT2*
G04 #@! TO.C,U3*
G36*
X180800000Y-110900000D02*
X180800000Y-111050000D01*
X180125000Y-111050000D01*
X180125000Y-110650000D01*
X180550000Y-110650000D01*
X180800000Y-110900000D01*
X180800000Y-110900000D01*
G37*
D21*
G04 #@! TO.P,U3,5*
G04 #@! TO.N,Vdd*
X181100000Y-110712500D03*
D15*
G04 #@! TD*
G04 #@! TO.N,Vdd*
G04 #@! TO.C,U3*
G36*
X181300000Y-111050000D02*
X181150000Y-111050000D01*
X180900000Y-110800000D01*
X180900000Y-110375000D01*
X181300000Y-110375000D01*
X181300000Y-111050000D01*
X181300000Y-111050000D01*
G37*
D23*
G04 #@! TO.P,U3,6*
G04 #@! TO.N,BattRtn*
X181600000Y-110712500D03*
D21*
G04 #@! TO.P,U3,7*
X182100000Y-110712500D03*
D15*
G04 #@! TD*
G04 #@! TO.N,BattRtn*
G04 #@! TO.C,U3*
G36*
X182300000Y-110800000D02*
X182050000Y-111050000D01*
X181900000Y-111050000D01*
X181900000Y-110375000D01*
X182300000Y-110375000D01*
X182300000Y-110800000D01*
X182300000Y-110800000D01*
G37*
D21*
G04 #@! TO.P,U3,8*
G04 #@! TO.N,Net-(C9-Pad1)*
X182737500Y-110850000D03*
D15*
G04 #@! TD*
G04 #@! TO.N,Net-(C9-Pad1)*
G04 #@! TO.C,U3*
G36*
X183075000Y-111050000D02*
X182400000Y-111050000D01*
X182400000Y-110900000D01*
X182650000Y-110650000D01*
X183075000Y-110650000D01*
X183075000Y-111050000D01*
X183075000Y-111050000D01*
G37*
D22*
G04 #@! TO.P,U3,9*
G04 #@! TO.N,IMU_INT*
X182737500Y-111350000D03*
G04 #@! TO.P,U3,10*
G04 #@! TO.N,Net-(U3-Pad10)*
X182737500Y-111850000D03*
D21*
G04 #@! TO.P,U3,11*
G04 #@! TO.N,Net-(U3-Pad11)*
X182737500Y-112350000D03*
D15*
G04 #@! TD*
G04 #@! TO.N,Net-(U3-Pad11)*
G04 #@! TO.C,U3*
G36*
X183075000Y-112550000D02*
X182650000Y-112550000D01*
X182400000Y-112300000D01*
X182400000Y-112150000D01*
X183075000Y-112150000D01*
X183075000Y-112550000D01*
X183075000Y-112550000D01*
G37*
D21*
G04 #@! TO.P,U3,12*
G04 #@! TO.N,Net-(R13-Pad1)*
X182100000Y-112487500D03*
D15*
G04 #@! TD*
G04 #@! TO.N,Net-(R13-Pad1)*
G04 #@! TO.C,U3*
G36*
X182300000Y-112400000D02*
X182300000Y-112825000D01*
X181900000Y-112825000D01*
X181900000Y-112150000D01*
X182050000Y-112150000D01*
X182300000Y-112400000D01*
X182300000Y-112400000D01*
G37*
D23*
G04 #@! TO.P,U3,13*
G04 #@! TO.N,SCL*
X181600000Y-112487500D03*
D21*
G04 #@! TO.P,U3,14*
G04 #@! TO.N,SDA*
X181100000Y-112487500D03*
D15*
G04 #@! TD*
G04 #@! TO.N,SDA*
G04 #@! TO.C,U3*
G36*
X181300000Y-112825000D02*
X180900000Y-112825000D01*
X180900000Y-112400000D01*
X181150000Y-112150000D01*
X181300000Y-112150000D01*
X181300000Y-112825000D01*
X181300000Y-112825000D01*
G37*
D24*
G04 #@! TO.P,Y1,1*
G04 #@! TO.N,Net-(C4-Pad2)*
X200200000Y-109976000D03*
G04 #@! TO.P,Y1,2*
G04 #@! TO.N,Net-(C5-Pad2)*
X200200000Y-112776000D03*
G04 #@! TD*
D15*
G04 #@! TO.N,Vdd*
G04 #@! TO.C,L3*
G36*
X200880142Y-117788674D02*
X200903803Y-117792184D01*
X200927007Y-117797996D01*
X200949529Y-117806054D01*
X200971153Y-117816282D01*
X200991670Y-117828579D01*
X201010883Y-117842829D01*
X201028607Y-117858893D01*
X201044671Y-117876617D01*
X201058921Y-117895830D01*
X201071218Y-117916347D01*
X201081446Y-117937971D01*
X201089504Y-117960493D01*
X201095316Y-117983697D01*
X201098826Y-118007358D01*
X201100000Y-118031250D01*
X201100000Y-118518750D01*
X201098826Y-118542642D01*
X201095316Y-118566303D01*
X201089504Y-118589507D01*
X201081446Y-118612029D01*
X201071218Y-118633653D01*
X201058921Y-118654170D01*
X201044671Y-118673383D01*
X201028607Y-118691107D01*
X201010883Y-118707171D01*
X200991670Y-118721421D01*
X200971153Y-118733718D01*
X200949529Y-118743946D01*
X200927007Y-118752004D01*
X200903803Y-118757816D01*
X200880142Y-118761326D01*
X200856250Y-118762500D01*
X199943750Y-118762500D01*
X199919858Y-118761326D01*
X199896197Y-118757816D01*
X199872993Y-118752004D01*
X199850471Y-118743946D01*
X199828847Y-118733718D01*
X199808330Y-118721421D01*
X199789117Y-118707171D01*
X199771393Y-118691107D01*
X199755329Y-118673383D01*
X199741079Y-118654170D01*
X199728782Y-118633653D01*
X199718554Y-118612029D01*
X199710496Y-118589507D01*
X199704684Y-118566303D01*
X199701174Y-118542642D01*
X199700000Y-118518750D01*
X199700000Y-118031250D01*
X199701174Y-118007358D01*
X199704684Y-117983697D01*
X199710496Y-117960493D01*
X199718554Y-117937971D01*
X199728782Y-117916347D01*
X199741079Y-117895830D01*
X199755329Y-117876617D01*
X199771393Y-117858893D01*
X199789117Y-117842829D01*
X199808330Y-117828579D01*
X199828847Y-117816282D01*
X199850471Y-117806054D01*
X199872993Y-117797996D01*
X199896197Y-117792184D01*
X199919858Y-117788674D01*
X199943750Y-117787500D01*
X200856250Y-117787500D01*
X200880142Y-117788674D01*
X200880142Y-117788674D01*
G37*
D16*
G04 #@! TD*
G04 #@! TO.P,L3,1*
G04 #@! TO.N,Vdd*
X200400000Y-118275000D03*
D15*
G04 #@! TO.N,/VDDANA*
G04 #@! TO.C,L3*
G36*
X200880142Y-115913674D02*
X200903803Y-115917184D01*
X200927007Y-115922996D01*
X200949529Y-115931054D01*
X200971153Y-115941282D01*
X200991670Y-115953579D01*
X201010883Y-115967829D01*
X201028607Y-115983893D01*
X201044671Y-116001617D01*
X201058921Y-116020830D01*
X201071218Y-116041347D01*
X201081446Y-116062971D01*
X201089504Y-116085493D01*
X201095316Y-116108697D01*
X201098826Y-116132358D01*
X201100000Y-116156250D01*
X201100000Y-116643750D01*
X201098826Y-116667642D01*
X201095316Y-116691303D01*
X201089504Y-116714507D01*
X201081446Y-116737029D01*
X201071218Y-116758653D01*
X201058921Y-116779170D01*
X201044671Y-116798383D01*
X201028607Y-116816107D01*
X201010883Y-116832171D01*
X200991670Y-116846421D01*
X200971153Y-116858718D01*
X200949529Y-116868946D01*
X200927007Y-116877004D01*
X200903803Y-116882816D01*
X200880142Y-116886326D01*
X200856250Y-116887500D01*
X199943750Y-116887500D01*
X199919858Y-116886326D01*
X199896197Y-116882816D01*
X199872993Y-116877004D01*
X199850471Y-116868946D01*
X199828847Y-116858718D01*
X199808330Y-116846421D01*
X199789117Y-116832171D01*
X199771393Y-116816107D01*
X199755329Y-116798383D01*
X199741079Y-116779170D01*
X199728782Y-116758653D01*
X199718554Y-116737029D01*
X199710496Y-116714507D01*
X199704684Y-116691303D01*
X199701174Y-116667642D01*
X199700000Y-116643750D01*
X199700000Y-116156250D01*
X199701174Y-116132358D01*
X199704684Y-116108697D01*
X199710496Y-116085493D01*
X199718554Y-116062971D01*
X199728782Y-116041347D01*
X199741079Y-116020830D01*
X199755329Y-116001617D01*
X199771393Y-115983893D01*
X199789117Y-115967829D01*
X199808330Y-115953579D01*
X199828847Y-115941282D01*
X199850471Y-115931054D01*
X199872993Y-115922996D01*
X199896197Y-115917184D01*
X199919858Y-115913674D01*
X199943750Y-115912500D01*
X200856250Y-115912500D01*
X200880142Y-115913674D01*
X200880142Y-115913674D01*
G37*
D16*
G04 #@! TD*
G04 #@! TO.P,L3,2*
G04 #@! TO.N,/VDDANA*
X200400000Y-116400000D03*
D15*
G04 #@! TO.N,/BatteryManagement/Batt-*
G04 #@! TO.C,J4*
G36*
X184012504Y-119397204D02*
X184036773Y-119400804D01*
X184060571Y-119406765D01*
X184083671Y-119415030D01*
X184105849Y-119425520D01*
X184126893Y-119438133D01*
X184146598Y-119452747D01*
X184164777Y-119469223D01*
X184181253Y-119487402D01*
X184195867Y-119507107D01*
X184208480Y-119528151D01*
X184218970Y-119550329D01*
X184227235Y-119573429D01*
X184233196Y-119597227D01*
X184236796Y-119621496D01*
X184238000Y-119646000D01*
X184238000Y-121146000D01*
X184236796Y-121170504D01*
X184233196Y-121194773D01*
X184227235Y-121218571D01*
X184218970Y-121241671D01*
X184208480Y-121263849D01*
X184195867Y-121284893D01*
X184181253Y-121304598D01*
X184164777Y-121322777D01*
X184146598Y-121339253D01*
X184126893Y-121353867D01*
X184105849Y-121366480D01*
X184083671Y-121376970D01*
X184060571Y-121385235D01*
X184036773Y-121391196D01*
X184012504Y-121394796D01*
X183988000Y-121396000D01*
X182788000Y-121396000D01*
X182763496Y-121394796D01*
X182739227Y-121391196D01*
X182715429Y-121385235D01*
X182692329Y-121376970D01*
X182670151Y-121366480D01*
X182649107Y-121353867D01*
X182629402Y-121339253D01*
X182611223Y-121322777D01*
X182594747Y-121304598D01*
X182580133Y-121284893D01*
X182567520Y-121263849D01*
X182557030Y-121241671D01*
X182548765Y-121218571D01*
X182542804Y-121194773D01*
X182539204Y-121170504D01*
X182538000Y-121146000D01*
X182538000Y-119646000D01*
X182539204Y-119621496D01*
X182542804Y-119597227D01*
X182548765Y-119573429D01*
X182557030Y-119550329D01*
X182567520Y-119528151D01*
X182580133Y-119507107D01*
X182594747Y-119487402D01*
X182611223Y-119469223D01*
X182629402Y-119452747D01*
X182649107Y-119438133D01*
X182670151Y-119425520D01*
X182692329Y-119415030D01*
X182715429Y-119406765D01*
X182739227Y-119400804D01*
X182763496Y-119397204D01*
X182788000Y-119396000D01*
X183988000Y-119396000D01*
X184012504Y-119397204D01*
X184012504Y-119397204D01*
G37*
D25*
G04 #@! TD*
G04 #@! TO.P,J4,1*
G04 #@! TO.N,/BatteryManagement/Batt-*
X183388000Y-120396000D03*
D26*
G04 #@! TO.P,J4,2*
G04 #@! TO.N,/BatteryManagement/Batt_int*
X185888000Y-120396000D03*
G04 #@! TD*
D15*
G04 #@! TO.N,Net-(C4-Pad2)*
G04 #@! TO.C,C4*
G36*
X198480142Y-109338674D02*
X198503803Y-109342184D01*
X198527007Y-109347996D01*
X198549529Y-109356054D01*
X198571153Y-109366282D01*
X198591670Y-109378579D01*
X198610883Y-109392829D01*
X198628607Y-109408893D01*
X198644671Y-109426617D01*
X198658921Y-109445830D01*
X198671218Y-109466347D01*
X198681446Y-109487971D01*
X198689504Y-109510493D01*
X198695316Y-109533697D01*
X198698826Y-109557358D01*
X198700000Y-109581250D01*
X198700000Y-110068750D01*
X198698826Y-110092642D01*
X198695316Y-110116303D01*
X198689504Y-110139507D01*
X198681446Y-110162029D01*
X198671218Y-110183653D01*
X198658921Y-110204170D01*
X198644671Y-110223383D01*
X198628607Y-110241107D01*
X198610883Y-110257171D01*
X198591670Y-110271421D01*
X198571153Y-110283718D01*
X198549529Y-110293946D01*
X198527007Y-110302004D01*
X198503803Y-110307816D01*
X198480142Y-110311326D01*
X198456250Y-110312500D01*
X197543750Y-110312500D01*
X197519858Y-110311326D01*
X197496197Y-110307816D01*
X197472993Y-110302004D01*
X197450471Y-110293946D01*
X197428847Y-110283718D01*
X197408330Y-110271421D01*
X197389117Y-110257171D01*
X197371393Y-110241107D01*
X197355329Y-110223383D01*
X197341079Y-110204170D01*
X197328782Y-110183653D01*
X197318554Y-110162029D01*
X197310496Y-110139507D01*
X197304684Y-110116303D01*
X197301174Y-110092642D01*
X197300000Y-110068750D01*
X197300000Y-109581250D01*
X197301174Y-109557358D01*
X197304684Y-109533697D01*
X197310496Y-109510493D01*
X197318554Y-109487971D01*
X197328782Y-109466347D01*
X197341079Y-109445830D01*
X197355329Y-109426617D01*
X197371393Y-109408893D01*
X197389117Y-109392829D01*
X197408330Y-109378579D01*
X197428847Y-109366282D01*
X197450471Y-109356054D01*
X197472993Y-109347996D01*
X197496197Y-109342184D01*
X197519858Y-109338674D01*
X197543750Y-109337500D01*
X198456250Y-109337500D01*
X198480142Y-109338674D01*
X198480142Y-109338674D01*
G37*
D16*
G04 #@! TD*
G04 #@! TO.P,C4,2*
G04 #@! TO.N,Net-(C4-Pad2)*
X198000000Y-109825000D03*
D15*
G04 #@! TO.N,BattRtn*
G04 #@! TO.C,C4*
G36*
X198480142Y-107463674D02*
X198503803Y-107467184D01*
X198527007Y-107472996D01*
X198549529Y-107481054D01*
X198571153Y-107491282D01*
X198591670Y-107503579D01*
X198610883Y-107517829D01*
X198628607Y-107533893D01*
X198644671Y-107551617D01*
X198658921Y-107570830D01*
X198671218Y-107591347D01*
X198681446Y-107612971D01*
X198689504Y-107635493D01*
X198695316Y-107658697D01*
X198698826Y-107682358D01*
X198700000Y-107706250D01*
X198700000Y-108193750D01*
X198698826Y-108217642D01*
X198695316Y-108241303D01*
X198689504Y-108264507D01*
X198681446Y-108287029D01*
X198671218Y-108308653D01*
X198658921Y-108329170D01*
X198644671Y-108348383D01*
X198628607Y-108366107D01*
X198610883Y-108382171D01*
X198591670Y-108396421D01*
X198571153Y-108408718D01*
X198549529Y-108418946D01*
X198527007Y-108427004D01*
X198503803Y-108432816D01*
X198480142Y-108436326D01*
X198456250Y-108437500D01*
X197543750Y-108437500D01*
X197519858Y-108436326D01*
X197496197Y-108432816D01*
X197472993Y-108427004D01*
X197450471Y-108418946D01*
X197428847Y-108408718D01*
X197408330Y-108396421D01*
X197389117Y-108382171D01*
X197371393Y-108366107D01*
X197355329Y-108348383D01*
X197341079Y-108329170D01*
X197328782Y-108308653D01*
X197318554Y-108287029D01*
X197310496Y-108264507D01*
X197304684Y-108241303D01*
X197301174Y-108217642D01*
X197300000Y-108193750D01*
X197300000Y-107706250D01*
X197301174Y-107682358D01*
X197304684Y-107658697D01*
X197310496Y-107635493D01*
X197318554Y-107612971D01*
X197328782Y-107591347D01*
X197341079Y-107570830D01*
X197355329Y-107551617D01*
X197371393Y-107533893D01*
X197389117Y-107517829D01*
X197408330Y-107503579D01*
X197428847Y-107491282D01*
X197450471Y-107481054D01*
X197472993Y-107472996D01*
X197496197Y-107467184D01*
X197519858Y-107463674D01*
X197543750Y-107462500D01*
X198456250Y-107462500D01*
X198480142Y-107463674D01*
X198480142Y-107463674D01*
G37*
D16*
G04 #@! TD*
G04 #@! TO.P,C4,1*
G04 #@! TO.N,BattRtn*
X198000000Y-107950000D03*
D15*
G04 #@! TO.N,Net-(C5-Pad2)*
G04 #@! TO.C,C5*
G36*
X203172142Y-110922674D02*
X203195803Y-110926184D01*
X203219007Y-110931996D01*
X203241529Y-110940054D01*
X203263153Y-110950282D01*
X203283670Y-110962579D01*
X203302883Y-110976829D01*
X203320607Y-110992893D01*
X203336671Y-111010617D01*
X203350921Y-111029830D01*
X203363218Y-111050347D01*
X203373446Y-111071971D01*
X203381504Y-111094493D01*
X203387316Y-111117697D01*
X203390826Y-111141358D01*
X203392000Y-111165250D01*
X203392000Y-111652750D01*
X203390826Y-111676642D01*
X203387316Y-111700303D01*
X203381504Y-111723507D01*
X203373446Y-111746029D01*
X203363218Y-111767653D01*
X203350921Y-111788170D01*
X203336671Y-111807383D01*
X203320607Y-111825107D01*
X203302883Y-111841171D01*
X203283670Y-111855421D01*
X203263153Y-111867718D01*
X203241529Y-111877946D01*
X203219007Y-111886004D01*
X203195803Y-111891816D01*
X203172142Y-111895326D01*
X203148250Y-111896500D01*
X202235750Y-111896500D01*
X202211858Y-111895326D01*
X202188197Y-111891816D01*
X202164993Y-111886004D01*
X202142471Y-111877946D01*
X202120847Y-111867718D01*
X202100330Y-111855421D01*
X202081117Y-111841171D01*
X202063393Y-111825107D01*
X202047329Y-111807383D01*
X202033079Y-111788170D01*
X202020782Y-111767653D01*
X202010554Y-111746029D01*
X202002496Y-111723507D01*
X201996684Y-111700303D01*
X201993174Y-111676642D01*
X201992000Y-111652750D01*
X201992000Y-111165250D01*
X201993174Y-111141358D01*
X201996684Y-111117697D01*
X202002496Y-111094493D01*
X202010554Y-111071971D01*
X202020782Y-111050347D01*
X202033079Y-111029830D01*
X202047329Y-111010617D01*
X202063393Y-110992893D01*
X202081117Y-110976829D01*
X202100330Y-110962579D01*
X202120847Y-110950282D01*
X202142471Y-110940054D01*
X202164993Y-110931996D01*
X202188197Y-110926184D01*
X202211858Y-110922674D01*
X202235750Y-110921500D01*
X203148250Y-110921500D01*
X203172142Y-110922674D01*
X203172142Y-110922674D01*
G37*
D16*
G04 #@! TD*
G04 #@! TO.P,C5,2*
G04 #@! TO.N,Net-(C5-Pad2)*
X202692000Y-111409000D03*
D15*
G04 #@! TO.N,BattRtn*
G04 #@! TO.C,C5*
G36*
X203172142Y-112797674D02*
X203195803Y-112801184D01*
X203219007Y-112806996D01*
X203241529Y-112815054D01*
X203263153Y-112825282D01*
X203283670Y-112837579D01*
X203302883Y-112851829D01*
X203320607Y-112867893D01*
X203336671Y-112885617D01*
X203350921Y-112904830D01*
X203363218Y-112925347D01*
X203373446Y-112946971D01*
X203381504Y-112969493D01*
X203387316Y-112992697D01*
X203390826Y-113016358D01*
X203392000Y-113040250D01*
X203392000Y-113527750D01*
X203390826Y-113551642D01*
X203387316Y-113575303D01*
X203381504Y-113598507D01*
X203373446Y-113621029D01*
X203363218Y-113642653D01*
X203350921Y-113663170D01*
X203336671Y-113682383D01*
X203320607Y-113700107D01*
X203302883Y-113716171D01*
X203283670Y-113730421D01*
X203263153Y-113742718D01*
X203241529Y-113752946D01*
X203219007Y-113761004D01*
X203195803Y-113766816D01*
X203172142Y-113770326D01*
X203148250Y-113771500D01*
X202235750Y-113771500D01*
X202211858Y-113770326D01*
X202188197Y-113766816D01*
X202164993Y-113761004D01*
X202142471Y-113752946D01*
X202120847Y-113742718D01*
X202100330Y-113730421D01*
X202081117Y-113716171D01*
X202063393Y-113700107D01*
X202047329Y-113682383D01*
X202033079Y-113663170D01*
X202020782Y-113642653D01*
X202010554Y-113621029D01*
X202002496Y-113598507D01*
X201996684Y-113575303D01*
X201993174Y-113551642D01*
X201992000Y-113527750D01*
X201992000Y-113040250D01*
X201993174Y-113016358D01*
X201996684Y-112992697D01*
X202002496Y-112969493D01*
X202010554Y-112946971D01*
X202020782Y-112925347D01*
X202033079Y-112904830D01*
X202047329Y-112885617D01*
X202063393Y-112867893D01*
X202081117Y-112851829D01*
X202100330Y-112837579D01*
X202120847Y-112825282D01*
X202142471Y-112815054D01*
X202164993Y-112806996D01*
X202188197Y-112801184D01*
X202211858Y-112797674D01*
X202235750Y-112796500D01*
X203148250Y-112796500D01*
X203172142Y-112797674D01*
X203172142Y-112797674D01*
G37*
D16*
G04 #@! TD*
G04 #@! TO.P,C5,1*
G04 #@! TO.N,BattRtn*
X202692000Y-113284000D03*
D15*
G04 #@! TO.N,BattRtn*
G04 #@! TO.C,C8*
G36*
X183617642Y-117051174D02*
X183641303Y-117054684D01*
X183664507Y-117060496D01*
X183687029Y-117068554D01*
X183708653Y-117078782D01*
X183729170Y-117091079D01*
X183748383Y-117105329D01*
X183766107Y-117121393D01*
X183782171Y-117139117D01*
X183796421Y-117158330D01*
X183808718Y-117178847D01*
X183818946Y-117200471D01*
X183827004Y-117222993D01*
X183832816Y-117246197D01*
X183836326Y-117269858D01*
X183837500Y-117293750D01*
X183837500Y-118206250D01*
X183836326Y-118230142D01*
X183832816Y-118253803D01*
X183827004Y-118277007D01*
X183818946Y-118299529D01*
X183808718Y-118321153D01*
X183796421Y-118341670D01*
X183782171Y-118360883D01*
X183766107Y-118378607D01*
X183748383Y-118394671D01*
X183729170Y-118408921D01*
X183708653Y-118421218D01*
X183687029Y-118431446D01*
X183664507Y-118439504D01*
X183641303Y-118445316D01*
X183617642Y-118448826D01*
X183593750Y-118450000D01*
X183106250Y-118450000D01*
X183082358Y-118448826D01*
X183058697Y-118445316D01*
X183035493Y-118439504D01*
X183012971Y-118431446D01*
X182991347Y-118421218D01*
X182970830Y-118408921D01*
X182951617Y-118394671D01*
X182933893Y-118378607D01*
X182917829Y-118360883D01*
X182903579Y-118341670D01*
X182891282Y-118321153D01*
X182881054Y-118299529D01*
X182872996Y-118277007D01*
X182867184Y-118253803D01*
X182863674Y-118230142D01*
X182862500Y-118206250D01*
X182862500Y-117293750D01*
X182863674Y-117269858D01*
X182867184Y-117246197D01*
X182872996Y-117222993D01*
X182881054Y-117200471D01*
X182891282Y-117178847D01*
X182903579Y-117158330D01*
X182917829Y-117139117D01*
X182933893Y-117121393D01*
X182951617Y-117105329D01*
X182970830Y-117091079D01*
X182991347Y-117078782D01*
X183012971Y-117068554D01*
X183035493Y-117060496D01*
X183058697Y-117054684D01*
X183082358Y-117051174D01*
X183106250Y-117050000D01*
X183593750Y-117050000D01*
X183617642Y-117051174D01*
X183617642Y-117051174D01*
G37*
D16*
G04 #@! TD*
G04 #@! TO.P,C8,2*
G04 #@! TO.N,BattRtn*
X183350000Y-117750000D03*
D15*
G04 #@! TO.N,Vdd*
G04 #@! TO.C,C8*
G36*
X181742642Y-117051174D02*
X181766303Y-117054684D01*
X181789507Y-117060496D01*
X181812029Y-117068554D01*
X181833653Y-117078782D01*
X181854170Y-117091079D01*
X181873383Y-117105329D01*
X181891107Y-117121393D01*
X181907171Y-117139117D01*
X181921421Y-117158330D01*
X181933718Y-117178847D01*
X181943946Y-117200471D01*
X181952004Y-117222993D01*
X181957816Y-117246197D01*
X181961326Y-117269858D01*
X181962500Y-117293750D01*
X181962500Y-118206250D01*
X181961326Y-118230142D01*
X181957816Y-118253803D01*
X181952004Y-118277007D01*
X181943946Y-118299529D01*
X181933718Y-118321153D01*
X181921421Y-118341670D01*
X181907171Y-118360883D01*
X181891107Y-118378607D01*
X181873383Y-118394671D01*
X181854170Y-118408921D01*
X181833653Y-118421218D01*
X181812029Y-118431446D01*
X181789507Y-118439504D01*
X181766303Y-118445316D01*
X181742642Y-118448826D01*
X181718750Y-118450000D01*
X181231250Y-118450000D01*
X181207358Y-118448826D01*
X181183697Y-118445316D01*
X181160493Y-118439504D01*
X181137971Y-118431446D01*
X181116347Y-118421218D01*
X181095830Y-118408921D01*
X181076617Y-118394671D01*
X181058893Y-118378607D01*
X181042829Y-118360883D01*
X181028579Y-118341670D01*
X181016282Y-118321153D01*
X181006054Y-118299529D01*
X180997996Y-118277007D01*
X180992184Y-118253803D01*
X180988674Y-118230142D01*
X180987500Y-118206250D01*
X180987500Y-117293750D01*
X180988674Y-117269858D01*
X180992184Y-117246197D01*
X180997996Y-117222993D01*
X181006054Y-117200471D01*
X181016282Y-117178847D01*
X181028579Y-117158330D01*
X181042829Y-117139117D01*
X181058893Y-117121393D01*
X181076617Y-117105329D01*
X181095830Y-117091079D01*
X181116347Y-117078782D01*
X181137971Y-117068554D01*
X181160493Y-117060496D01*
X181183697Y-117054684D01*
X181207358Y-117051174D01*
X181231250Y-117050000D01*
X181718750Y-117050000D01*
X181742642Y-117051174D01*
X181742642Y-117051174D01*
G37*
D16*
G04 #@! TD*
G04 #@! TO.P,C8,1*
G04 #@! TO.N,Vdd*
X181475000Y-117750000D03*
D15*
G04 #@! TO.N,Net-(C9-Pad1)*
G04 #@! TO.C,C9*
G36*
X187960082Y-106064374D02*
X187983743Y-106067884D01*
X188006947Y-106073696D01*
X188029469Y-106081754D01*
X188051093Y-106091982D01*
X188071610Y-106104279D01*
X188090823Y-106118529D01*
X188108547Y-106134593D01*
X188124611Y-106152317D01*
X188138861Y-106171530D01*
X188151158Y-106192047D01*
X188161386Y-106213671D01*
X188169444Y-106236193D01*
X188175256Y-106259397D01*
X188178766Y-106283058D01*
X188179940Y-106306950D01*
X188179940Y-106794450D01*
X188178766Y-106818342D01*
X188175256Y-106842003D01*
X188169444Y-106865207D01*
X188161386Y-106887729D01*
X188151158Y-106909353D01*
X188138861Y-106929870D01*
X188124611Y-106949083D01*
X188108547Y-106966807D01*
X188090823Y-106982871D01*
X188071610Y-106997121D01*
X188051093Y-107009418D01*
X188029469Y-107019646D01*
X188006947Y-107027704D01*
X187983743Y-107033516D01*
X187960082Y-107037026D01*
X187936190Y-107038200D01*
X187023690Y-107038200D01*
X186999798Y-107037026D01*
X186976137Y-107033516D01*
X186952933Y-107027704D01*
X186930411Y-107019646D01*
X186908787Y-107009418D01*
X186888270Y-106997121D01*
X186869057Y-106982871D01*
X186851333Y-106966807D01*
X186835269Y-106949083D01*
X186821019Y-106929870D01*
X186808722Y-106909353D01*
X186798494Y-106887729D01*
X186790436Y-106865207D01*
X186784624Y-106842003D01*
X186781114Y-106818342D01*
X186779940Y-106794450D01*
X186779940Y-106306950D01*
X186781114Y-106283058D01*
X186784624Y-106259397D01*
X186790436Y-106236193D01*
X186798494Y-106213671D01*
X186808722Y-106192047D01*
X186821019Y-106171530D01*
X186835269Y-106152317D01*
X186851333Y-106134593D01*
X186869057Y-106118529D01*
X186888270Y-106104279D01*
X186908787Y-106091982D01*
X186930411Y-106081754D01*
X186952933Y-106073696D01*
X186976137Y-106067884D01*
X186999798Y-106064374D01*
X187023690Y-106063200D01*
X187936190Y-106063200D01*
X187960082Y-106064374D01*
X187960082Y-106064374D01*
G37*
D16*
G04 #@! TD*
G04 #@! TO.P,C9,1*
G04 #@! TO.N,Net-(C9-Pad1)*
X187479940Y-106550700D03*
D15*
G04 #@! TO.N,BattRtn*
G04 #@! TO.C,C9*
G36*
X187960082Y-104189374D02*
X187983743Y-104192884D01*
X188006947Y-104198696D01*
X188029469Y-104206754D01*
X188051093Y-104216982D01*
X188071610Y-104229279D01*
X188090823Y-104243529D01*
X188108547Y-104259593D01*
X188124611Y-104277317D01*
X188138861Y-104296530D01*
X188151158Y-104317047D01*
X188161386Y-104338671D01*
X188169444Y-104361193D01*
X188175256Y-104384397D01*
X188178766Y-104408058D01*
X188179940Y-104431950D01*
X188179940Y-104919450D01*
X188178766Y-104943342D01*
X188175256Y-104967003D01*
X188169444Y-104990207D01*
X188161386Y-105012729D01*
X188151158Y-105034353D01*
X188138861Y-105054870D01*
X188124611Y-105074083D01*
X188108547Y-105091807D01*
X188090823Y-105107871D01*
X188071610Y-105122121D01*
X188051093Y-105134418D01*
X188029469Y-105144646D01*
X188006947Y-105152704D01*
X187983743Y-105158516D01*
X187960082Y-105162026D01*
X187936190Y-105163200D01*
X187023690Y-105163200D01*
X186999798Y-105162026D01*
X186976137Y-105158516D01*
X186952933Y-105152704D01*
X186930411Y-105144646D01*
X186908787Y-105134418D01*
X186888270Y-105122121D01*
X186869057Y-105107871D01*
X186851333Y-105091807D01*
X186835269Y-105074083D01*
X186821019Y-105054870D01*
X186808722Y-105034353D01*
X186798494Y-105012729D01*
X186790436Y-104990207D01*
X186784624Y-104967003D01*
X186781114Y-104943342D01*
X186779940Y-104919450D01*
X186779940Y-104431950D01*
X186781114Y-104408058D01*
X186784624Y-104384397D01*
X186790436Y-104361193D01*
X186798494Y-104338671D01*
X186808722Y-104317047D01*
X186821019Y-104296530D01*
X186835269Y-104277317D01*
X186851333Y-104259593D01*
X186869057Y-104243529D01*
X186888270Y-104229279D01*
X186908787Y-104216982D01*
X186930411Y-104206754D01*
X186952933Y-104198696D01*
X186976137Y-104192884D01*
X186999798Y-104189374D01*
X187023690Y-104188200D01*
X187936190Y-104188200D01*
X187960082Y-104189374D01*
X187960082Y-104189374D01*
G37*
D16*
G04 #@! TD*
G04 #@! TO.P,C9,2*
G04 #@! TO.N,BattRtn*
X187479940Y-104675700D03*
D15*
G04 #@! TO.N,Vdd*
G04 #@! TO.C,C13*
G36*
X196961842Y-122492374D02*
X196985503Y-122495884D01*
X197008707Y-122501696D01*
X197031229Y-122509754D01*
X197052853Y-122519982D01*
X197073370Y-122532279D01*
X197092583Y-122546529D01*
X197110307Y-122562593D01*
X197126371Y-122580317D01*
X197140621Y-122599530D01*
X197152918Y-122620047D01*
X197163146Y-122641671D01*
X197171204Y-122664193D01*
X197177016Y-122687397D01*
X197180526Y-122711058D01*
X197181700Y-122734950D01*
X197181700Y-123222450D01*
X197180526Y-123246342D01*
X197177016Y-123270003D01*
X197171204Y-123293207D01*
X197163146Y-123315729D01*
X197152918Y-123337353D01*
X197140621Y-123357870D01*
X197126371Y-123377083D01*
X197110307Y-123394807D01*
X197092583Y-123410871D01*
X197073370Y-123425121D01*
X197052853Y-123437418D01*
X197031229Y-123447646D01*
X197008707Y-123455704D01*
X196985503Y-123461516D01*
X196961842Y-123465026D01*
X196937950Y-123466200D01*
X196025450Y-123466200D01*
X196001558Y-123465026D01*
X195977897Y-123461516D01*
X195954693Y-123455704D01*
X195932171Y-123447646D01*
X195910547Y-123437418D01*
X195890030Y-123425121D01*
X195870817Y-123410871D01*
X195853093Y-123394807D01*
X195837029Y-123377083D01*
X195822779Y-123357870D01*
X195810482Y-123337353D01*
X195800254Y-123315729D01*
X195792196Y-123293207D01*
X195786384Y-123270003D01*
X195782874Y-123246342D01*
X195781700Y-123222450D01*
X195781700Y-122734950D01*
X195782874Y-122711058D01*
X195786384Y-122687397D01*
X195792196Y-122664193D01*
X195800254Y-122641671D01*
X195810482Y-122620047D01*
X195822779Y-122599530D01*
X195837029Y-122580317D01*
X195853093Y-122562593D01*
X195870817Y-122546529D01*
X195890030Y-122532279D01*
X195910547Y-122519982D01*
X195932171Y-122509754D01*
X195954693Y-122501696D01*
X195977897Y-122495884D01*
X196001558Y-122492374D01*
X196025450Y-122491200D01*
X196937950Y-122491200D01*
X196961842Y-122492374D01*
X196961842Y-122492374D01*
G37*
D16*
G04 #@! TD*
G04 #@! TO.P,C13,1*
G04 #@! TO.N,Vdd*
X196481700Y-122978700D03*
D15*
G04 #@! TO.N,BattRtn*
G04 #@! TO.C,C13*
G36*
X196961842Y-124367374D02*
X196985503Y-124370884D01*
X197008707Y-124376696D01*
X197031229Y-124384754D01*
X197052853Y-124394982D01*
X197073370Y-124407279D01*
X197092583Y-124421529D01*
X197110307Y-124437593D01*
X197126371Y-124455317D01*
X197140621Y-124474530D01*
X197152918Y-124495047D01*
X197163146Y-124516671D01*
X197171204Y-124539193D01*
X197177016Y-124562397D01*
X197180526Y-124586058D01*
X197181700Y-124609950D01*
X197181700Y-125097450D01*
X197180526Y-125121342D01*
X197177016Y-125145003D01*
X197171204Y-125168207D01*
X197163146Y-125190729D01*
X197152918Y-125212353D01*
X197140621Y-125232870D01*
X197126371Y-125252083D01*
X197110307Y-125269807D01*
X197092583Y-125285871D01*
X197073370Y-125300121D01*
X197052853Y-125312418D01*
X197031229Y-125322646D01*
X197008707Y-125330704D01*
X196985503Y-125336516D01*
X196961842Y-125340026D01*
X196937950Y-125341200D01*
X196025450Y-125341200D01*
X196001558Y-125340026D01*
X195977897Y-125336516D01*
X195954693Y-125330704D01*
X195932171Y-125322646D01*
X195910547Y-125312418D01*
X195890030Y-125300121D01*
X195870817Y-125285871D01*
X195853093Y-125269807D01*
X195837029Y-125252083D01*
X195822779Y-125232870D01*
X195810482Y-125212353D01*
X195800254Y-125190729D01*
X195792196Y-125168207D01*
X195786384Y-125145003D01*
X195782874Y-125121342D01*
X195781700Y-125097450D01*
X195781700Y-124609950D01*
X195782874Y-124586058D01*
X195786384Y-124562397D01*
X195792196Y-124539193D01*
X195800254Y-124516671D01*
X195810482Y-124495047D01*
X195822779Y-124474530D01*
X195837029Y-124455317D01*
X195853093Y-124437593D01*
X195870817Y-124421529D01*
X195890030Y-124407279D01*
X195910547Y-124394982D01*
X195932171Y-124384754D01*
X195954693Y-124376696D01*
X195977897Y-124370884D01*
X196001558Y-124367374D01*
X196025450Y-124366200D01*
X196937950Y-124366200D01*
X196961842Y-124367374D01*
X196961842Y-124367374D01*
G37*
D16*
G04 #@! TD*
G04 #@! TO.P,C13,2*
G04 #@! TO.N,BattRtn*
X196481700Y-124853700D03*
D15*
G04 #@! TO.N,Vdd*
G04 #@! TO.C,C14*
G36*
X194651542Y-122287974D02*
X194675203Y-122291484D01*
X194698407Y-122297296D01*
X194720929Y-122305354D01*
X194742553Y-122315582D01*
X194763070Y-122327879D01*
X194782283Y-122342129D01*
X194800007Y-122358193D01*
X194816071Y-122375917D01*
X194830321Y-122395130D01*
X194842618Y-122415647D01*
X194852846Y-122437271D01*
X194860904Y-122459793D01*
X194866716Y-122482997D01*
X194870226Y-122506658D01*
X194871400Y-122530550D01*
X194871400Y-123443050D01*
X194870226Y-123466942D01*
X194866716Y-123490603D01*
X194860904Y-123513807D01*
X194852846Y-123536329D01*
X194842618Y-123557953D01*
X194830321Y-123578470D01*
X194816071Y-123597683D01*
X194800007Y-123615407D01*
X194782283Y-123631471D01*
X194763070Y-123645721D01*
X194742553Y-123658018D01*
X194720929Y-123668246D01*
X194698407Y-123676304D01*
X194675203Y-123682116D01*
X194651542Y-123685626D01*
X194627650Y-123686800D01*
X194140150Y-123686800D01*
X194116258Y-123685626D01*
X194092597Y-123682116D01*
X194069393Y-123676304D01*
X194046871Y-123668246D01*
X194025247Y-123658018D01*
X194004730Y-123645721D01*
X193985517Y-123631471D01*
X193967793Y-123615407D01*
X193951729Y-123597683D01*
X193937479Y-123578470D01*
X193925182Y-123557953D01*
X193914954Y-123536329D01*
X193906896Y-123513807D01*
X193901084Y-123490603D01*
X193897574Y-123466942D01*
X193896400Y-123443050D01*
X193896400Y-122530550D01*
X193897574Y-122506658D01*
X193901084Y-122482997D01*
X193906896Y-122459793D01*
X193914954Y-122437271D01*
X193925182Y-122415647D01*
X193937479Y-122395130D01*
X193951729Y-122375917D01*
X193967793Y-122358193D01*
X193985517Y-122342129D01*
X194004730Y-122327879D01*
X194025247Y-122315582D01*
X194046871Y-122305354D01*
X194069393Y-122297296D01*
X194092597Y-122291484D01*
X194116258Y-122287974D01*
X194140150Y-122286800D01*
X194627650Y-122286800D01*
X194651542Y-122287974D01*
X194651542Y-122287974D01*
G37*
D16*
G04 #@! TD*
G04 #@! TO.P,C14,1*
G04 #@! TO.N,Vdd*
X194383900Y-122986800D03*
D15*
G04 #@! TO.N,BattRtn*
G04 #@! TO.C,C14*
G36*
X192776542Y-122287974D02*
X192800203Y-122291484D01*
X192823407Y-122297296D01*
X192845929Y-122305354D01*
X192867553Y-122315582D01*
X192888070Y-122327879D01*
X192907283Y-122342129D01*
X192925007Y-122358193D01*
X192941071Y-122375917D01*
X192955321Y-122395130D01*
X192967618Y-122415647D01*
X192977846Y-122437271D01*
X192985904Y-122459793D01*
X192991716Y-122482997D01*
X192995226Y-122506658D01*
X192996400Y-122530550D01*
X192996400Y-123443050D01*
X192995226Y-123466942D01*
X192991716Y-123490603D01*
X192985904Y-123513807D01*
X192977846Y-123536329D01*
X192967618Y-123557953D01*
X192955321Y-123578470D01*
X192941071Y-123597683D01*
X192925007Y-123615407D01*
X192907283Y-123631471D01*
X192888070Y-123645721D01*
X192867553Y-123658018D01*
X192845929Y-123668246D01*
X192823407Y-123676304D01*
X192800203Y-123682116D01*
X192776542Y-123685626D01*
X192752650Y-123686800D01*
X192265150Y-123686800D01*
X192241258Y-123685626D01*
X192217597Y-123682116D01*
X192194393Y-123676304D01*
X192171871Y-123668246D01*
X192150247Y-123658018D01*
X192129730Y-123645721D01*
X192110517Y-123631471D01*
X192092793Y-123615407D01*
X192076729Y-123597683D01*
X192062479Y-123578470D01*
X192050182Y-123557953D01*
X192039954Y-123536329D01*
X192031896Y-123513807D01*
X192026084Y-123490603D01*
X192022574Y-123466942D01*
X192021400Y-123443050D01*
X192021400Y-122530550D01*
X192022574Y-122506658D01*
X192026084Y-122482997D01*
X192031896Y-122459793D01*
X192039954Y-122437271D01*
X192050182Y-122415647D01*
X192062479Y-122395130D01*
X192076729Y-122375917D01*
X192092793Y-122358193D01*
X192110517Y-122342129D01*
X192129730Y-122327879D01*
X192150247Y-122315582D01*
X192171871Y-122305354D01*
X192194393Y-122297296D01*
X192217597Y-122291484D01*
X192241258Y-122287974D01*
X192265150Y-122286800D01*
X192752650Y-122286800D01*
X192776542Y-122287974D01*
X192776542Y-122287974D01*
G37*
D16*
G04 #@! TD*
G04 #@! TO.P,C14,2*
G04 #@! TO.N,BattRtn*
X192508900Y-122986800D03*
D15*
G04 #@! TO.N,Fun_Btn_1*
G04 #@! TO.C,R2*
G36*
X204747691Y-111069553D02*
X204768926Y-111072703D01*
X204789750Y-111077919D01*
X204809962Y-111085151D01*
X204829368Y-111094330D01*
X204847781Y-111105366D01*
X204865024Y-111118154D01*
X204880930Y-111132570D01*
X204895346Y-111148476D01*
X204908134Y-111165719D01*
X204919170Y-111184132D01*
X204928349Y-111203538D01*
X204935581Y-111223750D01*
X204940797Y-111244574D01*
X204943947Y-111265809D01*
X204945000Y-111287250D01*
X204945000Y-111724750D01*
X204943947Y-111746191D01*
X204940797Y-111767426D01*
X204935581Y-111788250D01*
X204928349Y-111808462D01*
X204919170Y-111827868D01*
X204908134Y-111846281D01*
X204895346Y-111863524D01*
X204880930Y-111879430D01*
X204865024Y-111893846D01*
X204847781Y-111906634D01*
X204829368Y-111917670D01*
X204809962Y-111926849D01*
X204789750Y-111934081D01*
X204768926Y-111939297D01*
X204747691Y-111942447D01*
X204726250Y-111943500D01*
X204213750Y-111943500D01*
X204192309Y-111942447D01*
X204171074Y-111939297D01*
X204150250Y-111934081D01*
X204130038Y-111926849D01*
X204110632Y-111917670D01*
X204092219Y-111906634D01*
X204074976Y-111893846D01*
X204059070Y-111879430D01*
X204044654Y-111863524D01*
X204031866Y-111846281D01*
X204020830Y-111827868D01*
X204011651Y-111808462D01*
X204004419Y-111788250D01*
X203999203Y-111767426D01*
X203996053Y-111746191D01*
X203995000Y-111724750D01*
X203995000Y-111287250D01*
X203996053Y-111265809D01*
X203999203Y-111244574D01*
X204004419Y-111223750D01*
X204011651Y-111203538D01*
X204020830Y-111184132D01*
X204031866Y-111165719D01*
X204044654Y-111148476D01*
X204059070Y-111132570D01*
X204074976Y-111118154D01*
X204092219Y-111105366D01*
X204110632Y-111094330D01*
X204130038Y-111085151D01*
X204150250Y-111077919D01*
X204171074Y-111072703D01*
X204192309Y-111069553D01*
X204213750Y-111068500D01*
X204726250Y-111068500D01*
X204747691Y-111069553D01*
X204747691Y-111069553D01*
G37*
D18*
G04 #@! TD*
G04 #@! TO.P,R2,1*
G04 #@! TO.N,Fun_Btn_1*
X204470000Y-111506000D03*
D15*
G04 #@! TO.N,BattRtn*
G04 #@! TO.C,R2*
G36*
X204747691Y-112644553D02*
X204768926Y-112647703D01*
X204789750Y-112652919D01*
X204809962Y-112660151D01*
X204829368Y-112669330D01*
X204847781Y-112680366D01*
X204865024Y-112693154D01*
X204880930Y-112707570D01*
X204895346Y-112723476D01*
X204908134Y-112740719D01*
X204919170Y-112759132D01*
X204928349Y-112778538D01*
X204935581Y-112798750D01*
X204940797Y-112819574D01*
X204943947Y-112840809D01*
X204945000Y-112862250D01*
X204945000Y-113299750D01*
X204943947Y-113321191D01*
X204940797Y-113342426D01*
X204935581Y-113363250D01*
X204928349Y-113383462D01*
X204919170Y-113402868D01*
X204908134Y-113421281D01*
X204895346Y-113438524D01*
X204880930Y-113454430D01*
X204865024Y-113468846D01*
X204847781Y-113481634D01*
X204829368Y-113492670D01*
X204809962Y-113501849D01*
X204789750Y-113509081D01*
X204768926Y-113514297D01*
X204747691Y-113517447D01*
X204726250Y-113518500D01*
X204213750Y-113518500D01*
X204192309Y-113517447D01*
X204171074Y-113514297D01*
X204150250Y-113509081D01*
X204130038Y-113501849D01*
X204110632Y-113492670D01*
X204092219Y-113481634D01*
X204074976Y-113468846D01*
X204059070Y-113454430D01*
X204044654Y-113438524D01*
X204031866Y-113421281D01*
X204020830Y-113402868D01*
X204011651Y-113383462D01*
X204004419Y-113363250D01*
X203999203Y-113342426D01*
X203996053Y-113321191D01*
X203995000Y-113299750D01*
X203995000Y-112862250D01*
X203996053Y-112840809D01*
X203999203Y-112819574D01*
X204004419Y-112798750D01*
X204011651Y-112778538D01*
X204020830Y-112759132D01*
X204031866Y-112740719D01*
X204044654Y-112723476D01*
X204059070Y-112707570D01*
X204074976Y-112693154D01*
X204092219Y-112680366D01*
X204110632Y-112669330D01*
X204130038Y-112660151D01*
X204150250Y-112652919D01*
X204171074Y-112647703D01*
X204192309Y-112644553D01*
X204213750Y-112643500D01*
X204726250Y-112643500D01*
X204747691Y-112644553D01*
X204747691Y-112644553D01*
G37*
D18*
G04 #@! TD*
G04 #@! TO.P,R2,2*
G04 #@! TO.N,BattRtn*
X204470000Y-113081000D03*
D15*
G04 #@! TO.N,Fun_Btn_2*
G04 #@! TO.C,R11*
G36*
X196837691Y-127813553D02*
X196858926Y-127816703D01*
X196879750Y-127821919D01*
X196899962Y-127829151D01*
X196919368Y-127838330D01*
X196937781Y-127849366D01*
X196955024Y-127862154D01*
X196970930Y-127876570D01*
X196985346Y-127892476D01*
X196998134Y-127909719D01*
X197009170Y-127928132D01*
X197018349Y-127947538D01*
X197025581Y-127967750D01*
X197030797Y-127988574D01*
X197033947Y-128009809D01*
X197035000Y-128031250D01*
X197035000Y-128468750D01*
X197033947Y-128490191D01*
X197030797Y-128511426D01*
X197025581Y-128532250D01*
X197018349Y-128552462D01*
X197009170Y-128571868D01*
X196998134Y-128590281D01*
X196985346Y-128607524D01*
X196970930Y-128623430D01*
X196955024Y-128637846D01*
X196937781Y-128650634D01*
X196919368Y-128661670D01*
X196899962Y-128670849D01*
X196879750Y-128678081D01*
X196858926Y-128683297D01*
X196837691Y-128686447D01*
X196816250Y-128687500D01*
X196303750Y-128687500D01*
X196282309Y-128686447D01*
X196261074Y-128683297D01*
X196240250Y-128678081D01*
X196220038Y-128670849D01*
X196200632Y-128661670D01*
X196182219Y-128650634D01*
X196164976Y-128637846D01*
X196149070Y-128623430D01*
X196134654Y-128607524D01*
X196121866Y-128590281D01*
X196110830Y-128571868D01*
X196101651Y-128552462D01*
X196094419Y-128532250D01*
X196089203Y-128511426D01*
X196086053Y-128490191D01*
X196085000Y-128468750D01*
X196085000Y-128031250D01*
X196086053Y-128009809D01*
X196089203Y-127988574D01*
X196094419Y-127967750D01*
X196101651Y-127947538D01*
X196110830Y-127928132D01*
X196121866Y-127909719D01*
X196134654Y-127892476D01*
X196149070Y-127876570D01*
X196164976Y-127862154D01*
X196182219Y-127849366D01*
X196200632Y-127838330D01*
X196220038Y-127829151D01*
X196240250Y-127821919D01*
X196261074Y-127816703D01*
X196282309Y-127813553D01*
X196303750Y-127812500D01*
X196816250Y-127812500D01*
X196837691Y-127813553D01*
X196837691Y-127813553D01*
G37*
D18*
G04 #@! TD*
G04 #@! TO.P,R11,1*
G04 #@! TO.N,Fun_Btn_2*
X196560000Y-128250000D03*
D15*
G04 #@! TO.N,BattRtn*
G04 #@! TO.C,R11*
G36*
X196837691Y-126238553D02*
X196858926Y-126241703D01*
X196879750Y-126246919D01*
X196899962Y-126254151D01*
X196919368Y-126263330D01*
X196937781Y-126274366D01*
X196955024Y-126287154D01*
X196970930Y-126301570D01*
X196985346Y-126317476D01*
X196998134Y-126334719D01*
X197009170Y-126353132D01*
X197018349Y-126372538D01*
X197025581Y-126392750D01*
X197030797Y-126413574D01*
X197033947Y-126434809D01*
X197035000Y-126456250D01*
X197035000Y-126893750D01*
X197033947Y-126915191D01*
X197030797Y-126936426D01*
X197025581Y-126957250D01*
X197018349Y-126977462D01*
X197009170Y-126996868D01*
X196998134Y-127015281D01*
X196985346Y-127032524D01*
X196970930Y-127048430D01*
X196955024Y-127062846D01*
X196937781Y-127075634D01*
X196919368Y-127086670D01*
X196899962Y-127095849D01*
X196879750Y-127103081D01*
X196858926Y-127108297D01*
X196837691Y-127111447D01*
X196816250Y-127112500D01*
X196303750Y-127112500D01*
X196282309Y-127111447D01*
X196261074Y-127108297D01*
X196240250Y-127103081D01*
X196220038Y-127095849D01*
X196200632Y-127086670D01*
X196182219Y-127075634D01*
X196164976Y-127062846D01*
X196149070Y-127048430D01*
X196134654Y-127032524D01*
X196121866Y-127015281D01*
X196110830Y-126996868D01*
X196101651Y-126977462D01*
X196094419Y-126957250D01*
X196089203Y-126936426D01*
X196086053Y-126915191D01*
X196085000Y-126893750D01*
X196085000Y-126456250D01*
X196086053Y-126434809D01*
X196089203Y-126413574D01*
X196094419Y-126392750D01*
X196101651Y-126372538D01*
X196110830Y-126353132D01*
X196121866Y-126334719D01*
X196134654Y-126317476D01*
X196149070Y-126301570D01*
X196164976Y-126287154D01*
X196182219Y-126274366D01*
X196200632Y-126263330D01*
X196220038Y-126254151D01*
X196240250Y-126246919D01*
X196261074Y-126241703D01*
X196282309Y-126238553D01*
X196303750Y-126237500D01*
X196816250Y-126237500D01*
X196837691Y-126238553D01*
X196837691Y-126238553D01*
G37*
D18*
G04 #@! TD*
G04 #@! TO.P,R11,2*
G04 #@! TO.N,BattRtn*
X196560000Y-126675000D03*
D15*
G04 #@! TO.N,BattRtn*
G04 #@! TO.C,R12*
G36*
X203389191Y-121700053D02*
X203410426Y-121703203D01*
X203431250Y-121708419D01*
X203451462Y-121715651D01*
X203470868Y-121724830D01*
X203489281Y-121735866D01*
X203506524Y-121748654D01*
X203522430Y-121763070D01*
X203536846Y-121778976D01*
X203549634Y-121796219D01*
X203560670Y-121814632D01*
X203569849Y-121834038D01*
X203577081Y-121854250D01*
X203582297Y-121875074D01*
X203585447Y-121896309D01*
X203586500Y-121917750D01*
X203586500Y-122430250D01*
X203585447Y-122451691D01*
X203582297Y-122472926D01*
X203577081Y-122493750D01*
X203569849Y-122513962D01*
X203560670Y-122533368D01*
X203549634Y-122551781D01*
X203536846Y-122569024D01*
X203522430Y-122584930D01*
X203506524Y-122599346D01*
X203489281Y-122612134D01*
X203470868Y-122623170D01*
X203451462Y-122632349D01*
X203431250Y-122639581D01*
X203410426Y-122644797D01*
X203389191Y-122647947D01*
X203367750Y-122649000D01*
X202930250Y-122649000D01*
X202908809Y-122647947D01*
X202887574Y-122644797D01*
X202866750Y-122639581D01*
X202846538Y-122632349D01*
X202827132Y-122623170D01*
X202808719Y-122612134D01*
X202791476Y-122599346D01*
X202775570Y-122584930D01*
X202761154Y-122569024D01*
X202748366Y-122551781D01*
X202737330Y-122533368D01*
X202728151Y-122513962D01*
X202720919Y-122493750D01*
X202715703Y-122472926D01*
X202712553Y-122451691D01*
X202711500Y-122430250D01*
X202711500Y-121917750D01*
X202712553Y-121896309D01*
X202715703Y-121875074D01*
X202720919Y-121854250D01*
X202728151Y-121834038D01*
X202737330Y-121814632D01*
X202748366Y-121796219D01*
X202761154Y-121778976D01*
X202775570Y-121763070D01*
X202791476Y-121748654D01*
X202808719Y-121735866D01*
X202827132Y-121724830D01*
X202846538Y-121715651D01*
X202866750Y-121708419D01*
X202887574Y-121703203D01*
X202908809Y-121700053D01*
X202930250Y-121699000D01*
X203367750Y-121699000D01*
X203389191Y-121700053D01*
X203389191Y-121700053D01*
G37*
D18*
G04 #@! TD*
G04 #@! TO.P,R12,2*
G04 #@! TO.N,BattRtn*
X203149000Y-122174000D03*
D15*
G04 #@! TO.N,Fun_Btn_3*
G04 #@! TO.C,R12*
G36*
X204964191Y-121700053D02*
X204985426Y-121703203D01*
X205006250Y-121708419D01*
X205026462Y-121715651D01*
X205045868Y-121724830D01*
X205064281Y-121735866D01*
X205081524Y-121748654D01*
X205097430Y-121763070D01*
X205111846Y-121778976D01*
X205124634Y-121796219D01*
X205135670Y-121814632D01*
X205144849Y-121834038D01*
X205152081Y-121854250D01*
X205157297Y-121875074D01*
X205160447Y-121896309D01*
X205161500Y-121917750D01*
X205161500Y-122430250D01*
X205160447Y-122451691D01*
X205157297Y-122472926D01*
X205152081Y-122493750D01*
X205144849Y-122513962D01*
X205135670Y-122533368D01*
X205124634Y-122551781D01*
X205111846Y-122569024D01*
X205097430Y-122584930D01*
X205081524Y-122599346D01*
X205064281Y-122612134D01*
X205045868Y-122623170D01*
X205026462Y-122632349D01*
X205006250Y-122639581D01*
X204985426Y-122644797D01*
X204964191Y-122647947D01*
X204942750Y-122649000D01*
X204505250Y-122649000D01*
X204483809Y-122647947D01*
X204462574Y-122644797D01*
X204441750Y-122639581D01*
X204421538Y-122632349D01*
X204402132Y-122623170D01*
X204383719Y-122612134D01*
X204366476Y-122599346D01*
X204350570Y-122584930D01*
X204336154Y-122569024D01*
X204323366Y-122551781D01*
X204312330Y-122533368D01*
X204303151Y-122513962D01*
X204295919Y-122493750D01*
X204290703Y-122472926D01*
X204287553Y-122451691D01*
X204286500Y-122430250D01*
X204286500Y-121917750D01*
X204287553Y-121896309D01*
X204290703Y-121875074D01*
X204295919Y-121854250D01*
X204303151Y-121834038D01*
X204312330Y-121814632D01*
X204323366Y-121796219D01*
X204336154Y-121778976D01*
X204350570Y-121763070D01*
X204366476Y-121748654D01*
X204383719Y-121735866D01*
X204402132Y-121724830D01*
X204421538Y-121715651D01*
X204441750Y-121708419D01*
X204462574Y-121703203D01*
X204483809Y-121700053D01*
X204505250Y-121699000D01*
X204942750Y-121699000D01*
X204964191Y-121700053D01*
X204964191Y-121700053D01*
G37*
D18*
G04 #@! TD*
G04 #@! TO.P,R12,1*
G04 #@! TO.N,Fun_Btn_3*
X204724000Y-122174000D03*
D15*
G04 #@! TO.N,Net-(R13-Pad1)*
G04 #@! TO.C,R13*
G36*
X187387191Y-108746053D02*
X187408426Y-108749203D01*
X187429250Y-108754419D01*
X187449462Y-108761651D01*
X187468868Y-108770830D01*
X187487281Y-108781866D01*
X187504524Y-108794654D01*
X187520430Y-108809070D01*
X187534846Y-108824976D01*
X187547634Y-108842219D01*
X187558670Y-108860632D01*
X187567849Y-108880038D01*
X187575081Y-108900250D01*
X187580297Y-108921074D01*
X187583447Y-108942309D01*
X187584500Y-108963750D01*
X187584500Y-109476250D01*
X187583447Y-109497691D01*
X187580297Y-109518926D01*
X187575081Y-109539750D01*
X187567849Y-109559962D01*
X187558670Y-109579368D01*
X187547634Y-109597781D01*
X187534846Y-109615024D01*
X187520430Y-109630930D01*
X187504524Y-109645346D01*
X187487281Y-109658134D01*
X187468868Y-109669170D01*
X187449462Y-109678349D01*
X187429250Y-109685581D01*
X187408426Y-109690797D01*
X187387191Y-109693947D01*
X187365750Y-109695000D01*
X186928250Y-109695000D01*
X186906809Y-109693947D01*
X186885574Y-109690797D01*
X186864750Y-109685581D01*
X186844538Y-109678349D01*
X186825132Y-109669170D01*
X186806719Y-109658134D01*
X186789476Y-109645346D01*
X186773570Y-109630930D01*
X186759154Y-109615024D01*
X186746366Y-109597781D01*
X186735330Y-109579368D01*
X186726151Y-109559962D01*
X186718919Y-109539750D01*
X186713703Y-109518926D01*
X186710553Y-109497691D01*
X186709500Y-109476250D01*
X186709500Y-108963750D01*
X186710553Y-108942309D01*
X186713703Y-108921074D01*
X186718919Y-108900250D01*
X186726151Y-108880038D01*
X186735330Y-108860632D01*
X186746366Y-108842219D01*
X186759154Y-108824976D01*
X186773570Y-108809070D01*
X186789476Y-108794654D01*
X186806719Y-108781866D01*
X186825132Y-108770830D01*
X186844538Y-108761651D01*
X186864750Y-108754419D01*
X186885574Y-108749203D01*
X186906809Y-108746053D01*
X186928250Y-108745000D01*
X187365750Y-108745000D01*
X187387191Y-108746053D01*
X187387191Y-108746053D01*
G37*
D18*
G04 #@! TD*
G04 #@! TO.P,R13,1*
G04 #@! TO.N,Net-(R13-Pad1)*
X187147000Y-109220000D03*
D15*
G04 #@! TO.N,Vdd*
G04 #@! TO.C,R13*
G36*
X188962191Y-108746053D02*
X188983426Y-108749203D01*
X189004250Y-108754419D01*
X189024462Y-108761651D01*
X189043868Y-108770830D01*
X189062281Y-108781866D01*
X189079524Y-108794654D01*
X189095430Y-108809070D01*
X189109846Y-108824976D01*
X189122634Y-108842219D01*
X189133670Y-108860632D01*
X189142849Y-108880038D01*
X189150081Y-108900250D01*
X189155297Y-108921074D01*
X189158447Y-108942309D01*
X189159500Y-108963750D01*
X189159500Y-109476250D01*
X189158447Y-109497691D01*
X189155297Y-109518926D01*
X189150081Y-109539750D01*
X189142849Y-109559962D01*
X189133670Y-109579368D01*
X189122634Y-109597781D01*
X189109846Y-109615024D01*
X189095430Y-109630930D01*
X189079524Y-109645346D01*
X189062281Y-109658134D01*
X189043868Y-109669170D01*
X189024462Y-109678349D01*
X189004250Y-109685581D01*
X188983426Y-109690797D01*
X188962191Y-109693947D01*
X188940750Y-109695000D01*
X188503250Y-109695000D01*
X188481809Y-109693947D01*
X188460574Y-109690797D01*
X188439750Y-109685581D01*
X188419538Y-109678349D01*
X188400132Y-109669170D01*
X188381719Y-109658134D01*
X188364476Y-109645346D01*
X188348570Y-109630930D01*
X188334154Y-109615024D01*
X188321366Y-109597781D01*
X188310330Y-109579368D01*
X188301151Y-109559962D01*
X188293919Y-109539750D01*
X188288703Y-109518926D01*
X188285553Y-109497691D01*
X188284500Y-109476250D01*
X188284500Y-108963750D01*
X188285553Y-108942309D01*
X188288703Y-108921074D01*
X188293919Y-108900250D01*
X188301151Y-108880038D01*
X188310330Y-108860632D01*
X188321366Y-108842219D01*
X188334154Y-108824976D01*
X188348570Y-108809070D01*
X188364476Y-108794654D01*
X188381719Y-108781866D01*
X188400132Y-108770830D01*
X188419538Y-108761651D01*
X188439750Y-108754419D01*
X188460574Y-108749203D01*
X188481809Y-108746053D01*
X188503250Y-108745000D01*
X188940750Y-108745000D01*
X188962191Y-108746053D01*
X188962191Y-108746053D01*
G37*
D18*
G04 #@! TD*
G04 #@! TO.P,R13,2*
G04 #@! TO.N,Vdd*
X188722000Y-109220000D03*
D27*
G04 #@! TO.P,U4,1*
G04 #@! TO.N,BattRtn*
X197190360Y-104797860D03*
G04 #@! TO.P,U4,2*
G04 #@! TO.N,Vdd*
X194650360Y-104797860D03*
G04 #@! TO.P,U4,3*
G04 #@! TO.N,SCL*
X192110360Y-104797860D03*
G04 #@! TO.P,U4,4*
G04 #@! TO.N,SDA*
X189570360Y-104797860D03*
G04 #@! TD*
D28*
G04 #@! TO.P,SW1,1*
G04 #@! TO.N,Net-(SW1-Pad1)*
X190754000Y-125476000D03*
D29*
G04 #@! TO.P,SW1,2*
G04 #@! TO.N,/BatteryManagement/Batt_int*
X188214000Y-125476000D03*
G04 #@! TO.P,SW1,3*
G04 #@! TO.N,Net-(D3-Pad2)*
X185674000Y-125476000D03*
G04 #@! TD*
D15*
G04 #@! TO.N,Fun_Btn_2*
G04 #@! TO.C,C6*
G36*
X199108142Y-125243674D02*
X199131803Y-125247184D01*
X199155007Y-125252996D01*
X199177529Y-125261054D01*
X199199153Y-125271282D01*
X199219670Y-125283579D01*
X199238883Y-125297829D01*
X199256607Y-125313893D01*
X199272671Y-125331617D01*
X199286921Y-125350830D01*
X199299218Y-125371347D01*
X199309446Y-125392971D01*
X199317504Y-125415493D01*
X199323316Y-125438697D01*
X199326826Y-125462358D01*
X199328000Y-125486250D01*
X199328000Y-125973750D01*
X199326826Y-125997642D01*
X199323316Y-126021303D01*
X199317504Y-126044507D01*
X199309446Y-126067029D01*
X199299218Y-126088653D01*
X199286921Y-126109170D01*
X199272671Y-126128383D01*
X199256607Y-126146107D01*
X199238883Y-126162171D01*
X199219670Y-126176421D01*
X199199153Y-126188718D01*
X199177529Y-126198946D01*
X199155007Y-126207004D01*
X199131803Y-126212816D01*
X199108142Y-126216326D01*
X199084250Y-126217500D01*
X198171750Y-126217500D01*
X198147858Y-126216326D01*
X198124197Y-126212816D01*
X198100993Y-126207004D01*
X198078471Y-126198946D01*
X198056847Y-126188718D01*
X198036330Y-126176421D01*
X198017117Y-126162171D01*
X197999393Y-126146107D01*
X197983329Y-126128383D01*
X197969079Y-126109170D01*
X197956782Y-126088653D01*
X197946554Y-126067029D01*
X197938496Y-126044507D01*
X197932684Y-126021303D01*
X197929174Y-125997642D01*
X197928000Y-125973750D01*
X197928000Y-125486250D01*
X197929174Y-125462358D01*
X197932684Y-125438697D01*
X197938496Y-125415493D01*
X197946554Y-125392971D01*
X197956782Y-125371347D01*
X197969079Y-125350830D01*
X197983329Y-125331617D01*
X197999393Y-125313893D01*
X198017117Y-125297829D01*
X198036330Y-125283579D01*
X198056847Y-125271282D01*
X198078471Y-125261054D01*
X198100993Y-125252996D01*
X198124197Y-125247184D01*
X198147858Y-125243674D01*
X198171750Y-125242500D01*
X199084250Y-125242500D01*
X199108142Y-125243674D01*
X199108142Y-125243674D01*
G37*
D16*
G04 #@! TD*
G04 #@! TO.P,C6,2*
G04 #@! TO.N,Fun_Btn_2*
X198628000Y-125730000D03*
D15*
G04 #@! TO.N,BattRtn*
G04 #@! TO.C,C6*
G36*
X199108142Y-123368674D02*
X199131803Y-123372184D01*
X199155007Y-123377996D01*
X199177529Y-123386054D01*
X199199153Y-123396282D01*
X199219670Y-123408579D01*
X199238883Y-123422829D01*
X199256607Y-123438893D01*
X199272671Y-123456617D01*
X199286921Y-123475830D01*
X199299218Y-123496347D01*
X199309446Y-123517971D01*
X199317504Y-123540493D01*
X199323316Y-123563697D01*
X199326826Y-123587358D01*
X199328000Y-123611250D01*
X199328000Y-124098750D01*
X199326826Y-124122642D01*
X199323316Y-124146303D01*
X199317504Y-124169507D01*
X199309446Y-124192029D01*
X199299218Y-124213653D01*
X199286921Y-124234170D01*
X199272671Y-124253383D01*
X199256607Y-124271107D01*
X199238883Y-124287171D01*
X199219670Y-124301421D01*
X199199153Y-124313718D01*
X199177529Y-124323946D01*
X199155007Y-124332004D01*
X199131803Y-124337816D01*
X199108142Y-124341326D01*
X199084250Y-124342500D01*
X198171750Y-124342500D01*
X198147858Y-124341326D01*
X198124197Y-124337816D01*
X198100993Y-124332004D01*
X198078471Y-124323946D01*
X198056847Y-124313718D01*
X198036330Y-124301421D01*
X198017117Y-124287171D01*
X197999393Y-124271107D01*
X197983329Y-124253383D01*
X197969079Y-124234170D01*
X197956782Y-124213653D01*
X197946554Y-124192029D01*
X197938496Y-124169507D01*
X197932684Y-124146303D01*
X197929174Y-124122642D01*
X197928000Y-124098750D01*
X197928000Y-123611250D01*
X197929174Y-123587358D01*
X197932684Y-123563697D01*
X197938496Y-123540493D01*
X197946554Y-123517971D01*
X197956782Y-123496347D01*
X197969079Y-123475830D01*
X197983329Y-123456617D01*
X197999393Y-123438893D01*
X198017117Y-123422829D01*
X198036330Y-123408579D01*
X198056847Y-123396282D01*
X198078471Y-123386054D01*
X198100993Y-123377996D01*
X198124197Y-123372184D01*
X198147858Y-123368674D01*
X198171750Y-123367500D01*
X199084250Y-123367500D01*
X199108142Y-123368674D01*
X199108142Y-123368674D01*
G37*
D16*
G04 #@! TD*
G04 #@! TO.P,C6,1*
G04 #@! TO.N,BattRtn*
X198628000Y-123855000D03*
D15*
G04 #@! TO.N,BattRtn*
G04 #@! TO.C,C7*
G36*
X201006142Y-123253174D02*
X201029803Y-123256684D01*
X201053007Y-123262496D01*
X201075529Y-123270554D01*
X201097153Y-123280782D01*
X201117670Y-123293079D01*
X201136883Y-123307329D01*
X201154607Y-123323393D01*
X201170671Y-123341117D01*
X201184921Y-123360330D01*
X201197218Y-123380847D01*
X201207446Y-123402471D01*
X201215504Y-123424993D01*
X201221316Y-123448197D01*
X201224826Y-123471858D01*
X201226000Y-123495750D01*
X201226000Y-124408250D01*
X201224826Y-124432142D01*
X201221316Y-124455803D01*
X201215504Y-124479007D01*
X201207446Y-124501529D01*
X201197218Y-124523153D01*
X201184921Y-124543670D01*
X201170671Y-124562883D01*
X201154607Y-124580607D01*
X201136883Y-124596671D01*
X201117670Y-124610921D01*
X201097153Y-124623218D01*
X201075529Y-124633446D01*
X201053007Y-124641504D01*
X201029803Y-124647316D01*
X201006142Y-124650826D01*
X200982250Y-124652000D01*
X200494750Y-124652000D01*
X200470858Y-124650826D01*
X200447197Y-124647316D01*
X200423993Y-124641504D01*
X200401471Y-124633446D01*
X200379847Y-124623218D01*
X200359330Y-124610921D01*
X200340117Y-124596671D01*
X200322393Y-124580607D01*
X200306329Y-124562883D01*
X200292079Y-124543670D01*
X200279782Y-124523153D01*
X200269554Y-124501529D01*
X200261496Y-124479007D01*
X200255684Y-124455803D01*
X200252174Y-124432142D01*
X200251000Y-124408250D01*
X200251000Y-123495750D01*
X200252174Y-123471858D01*
X200255684Y-123448197D01*
X200261496Y-123424993D01*
X200269554Y-123402471D01*
X200279782Y-123380847D01*
X200292079Y-123360330D01*
X200306329Y-123341117D01*
X200322393Y-123323393D01*
X200340117Y-123307329D01*
X200359330Y-123293079D01*
X200379847Y-123280782D01*
X200401471Y-123270554D01*
X200423993Y-123262496D01*
X200447197Y-123256684D01*
X200470858Y-123253174D01*
X200494750Y-123252000D01*
X200982250Y-123252000D01*
X201006142Y-123253174D01*
X201006142Y-123253174D01*
G37*
D16*
G04 #@! TD*
G04 #@! TO.P,C7,1*
G04 #@! TO.N,BattRtn*
X200738500Y-123952000D03*
D15*
G04 #@! TO.N,Fun_Btn_1*
G04 #@! TO.C,C7*
G36*
X202881142Y-123253174D02*
X202904803Y-123256684D01*
X202928007Y-123262496D01*
X202950529Y-123270554D01*
X202972153Y-123280782D01*
X202992670Y-123293079D01*
X203011883Y-123307329D01*
X203029607Y-123323393D01*
X203045671Y-123341117D01*
X203059921Y-123360330D01*
X203072218Y-123380847D01*
X203082446Y-123402471D01*
X203090504Y-123424993D01*
X203096316Y-123448197D01*
X203099826Y-123471858D01*
X203101000Y-123495750D01*
X203101000Y-124408250D01*
X203099826Y-124432142D01*
X203096316Y-124455803D01*
X203090504Y-124479007D01*
X203082446Y-124501529D01*
X203072218Y-124523153D01*
X203059921Y-124543670D01*
X203045671Y-124562883D01*
X203029607Y-124580607D01*
X203011883Y-124596671D01*
X202992670Y-124610921D01*
X202972153Y-124623218D01*
X202950529Y-124633446D01*
X202928007Y-124641504D01*
X202904803Y-124647316D01*
X202881142Y-124650826D01*
X202857250Y-124652000D01*
X202369750Y-124652000D01*
X202345858Y-124650826D01*
X202322197Y-124647316D01*
X202298993Y-124641504D01*
X202276471Y-124633446D01*
X202254847Y-124623218D01*
X202234330Y-124610921D01*
X202215117Y-124596671D01*
X202197393Y-124580607D01*
X202181329Y-124562883D01*
X202167079Y-124543670D01*
X202154782Y-124523153D01*
X202144554Y-124501529D01*
X202136496Y-124479007D01*
X202130684Y-124455803D01*
X202127174Y-124432142D01*
X202126000Y-124408250D01*
X202126000Y-123495750D01*
X202127174Y-123471858D01*
X202130684Y-123448197D01*
X202136496Y-123424993D01*
X202144554Y-123402471D01*
X202154782Y-123380847D01*
X202167079Y-123360330D01*
X202181329Y-123341117D01*
X202197393Y-123323393D01*
X202215117Y-123307329D01*
X202234330Y-123293079D01*
X202254847Y-123280782D01*
X202276471Y-123270554D01*
X202298993Y-123262496D01*
X202322197Y-123256684D01*
X202345858Y-123253174D01*
X202369750Y-123252000D01*
X202857250Y-123252000D01*
X202881142Y-123253174D01*
X202881142Y-123253174D01*
G37*
D16*
G04 #@! TD*
G04 #@! TO.P,C7,2*
G04 #@! TO.N,Fun_Btn_1*
X202613500Y-123952000D03*
D15*
G04 #@! TO.N,BattADC*
G04 #@! TO.C,R14*
G36*
X185355191Y-128050053D02*
X185376426Y-128053203D01*
X185397250Y-128058419D01*
X185417462Y-128065651D01*
X185436868Y-128074830D01*
X185455281Y-128085866D01*
X185472524Y-128098654D01*
X185488430Y-128113070D01*
X185502846Y-128128976D01*
X185515634Y-128146219D01*
X185526670Y-128164632D01*
X185535849Y-128184038D01*
X185543081Y-128204250D01*
X185548297Y-128225074D01*
X185551447Y-128246309D01*
X185552500Y-128267750D01*
X185552500Y-128780250D01*
X185551447Y-128801691D01*
X185548297Y-128822926D01*
X185543081Y-128843750D01*
X185535849Y-128863962D01*
X185526670Y-128883368D01*
X185515634Y-128901781D01*
X185502846Y-128919024D01*
X185488430Y-128934930D01*
X185472524Y-128949346D01*
X185455281Y-128962134D01*
X185436868Y-128973170D01*
X185417462Y-128982349D01*
X185397250Y-128989581D01*
X185376426Y-128994797D01*
X185355191Y-128997947D01*
X185333750Y-128999000D01*
X184896250Y-128999000D01*
X184874809Y-128997947D01*
X184853574Y-128994797D01*
X184832750Y-128989581D01*
X184812538Y-128982349D01*
X184793132Y-128973170D01*
X184774719Y-128962134D01*
X184757476Y-128949346D01*
X184741570Y-128934930D01*
X184727154Y-128919024D01*
X184714366Y-128901781D01*
X184703330Y-128883368D01*
X184694151Y-128863962D01*
X184686919Y-128843750D01*
X184681703Y-128822926D01*
X184678553Y-128801691D01*
X184677500Y-128780250D01*
X184677500Y-128267750D01*
X184678553Y-128246309D01*
X184681703Y-128225074D01*
X184686919Y-128204250D01*
X184694151Y-128184038D01*
X184703330Y-128164632D01*
X184714366Y-128146219D01*
X184727154Y-128128976D01*
X184741570Y-128113070D01*
X184757476Y-128098654D01*
X184774719Y-128085866D01*
X184793132Y-128074830D01*
X184812538Y-128065651D01*
X184832750Y-128058419D01*
X184853574Y-128053203D01*
X184874809Y-128050053D01*
X184896250Y-128049000D01*
X185333750Y-128049000D01*
X185355191Y-128050053D01*
X185355191Y-128050053D01*
G37*
D18*
G04 #@! TD*
G04 #@! TO.P,R14,2*
G04 #@! TO.N,BattADC*
X185115000Y-128524000D03*
D15*
G04 #@! TO.N,BattPwr*
G04 #@! TO.C,R14*
G36*
X186930191Y-128050053D02*
X186951426Y-128053203D01*
X186972250Y-128058419D01*
X186992462Y-128065651D01*
X187011868Y-128074830D01*
X187030281Y-128085866D01*
X187047524Y-128098654D01*
X187063430Y-128113070D01*
X187077846Y-128128976D01*
X187090634Y-128146219D01*
X187101670Y-128164632D01*
X187110849Y-128184038D01*
X187118081Y-128204250D01*
X187123297Y-128225074D01*
X187126447Y-128246309D01*
X187127500Y-128267750D01*
X187127500Y-128780250D01*
X187126447Y-128801691D01*
X187123297Y-128822926D01*
X187118081Y-128843750D01*
X187110849Y-128863962D01*
X187101670Y-128883368D01*
X187090634Y-128901781D01*
X187077846Y-128919024D01*
X187063430Y-128934930D01*
X187047524Y-128949346D01*
X187030281Y-128962134D01*
X187011868Y-128973170D01*
X186992462Y-128982349D01*
X186972250Y-128989581D01*
X186951426Y-128994797D01*
X186930191Y-128997947D01*
X186908750Y-128999000D01*
X186471250Y-128999000D01*
X186449809Y-128997947D01*
X186428574Y-128994797D01*
X186407750Y-128989581D01*
X186387538Y-128982349D01*
X186368132Y-128973170D01*
X186349719Y-128962134D01*
X186332476Y-128949346D01*
X186316570Y-128934930D01*
X186302154Y-128919024D01*
X186289366Y-128901781D01*
X186278330Y-128883368D01*
X186269151Y-128863962D01*
X186261919Y-128843750D01*
X186256703Y-128822926D01*
X186253553Y-128801691D01*
X186252500Y-128780250D01*
X186252500Y-128267750D01*
X186253553Y-128246309D01*
X186256703Y-128225074D01*
X186261919Y-128204250D01*
X186269151Y-128184038D01*
X186278330Y-128164632D01*
X186289366Y-128146219D01*
X186302154Y-128128976D01*
X186316570Y-128113070D01*
X186332476Y-128098654D01*
X186349719Y-128085866D01*
X186368132Y-128074830D01*
X186387538Y-128065651D01*
X186407750Y-128058419D01*
X186428574Y-128053203D01*
X186449809Y-128050053D01*
X186471250Y-128049000D01*
X186908750Y-128049000D01*
X186930191Y-128050053D01*
X186930191Y-128050053D01*
G37*
D18*
G04 #@! TD*
G04 #@! TO.P,R14,1*
G04 #@! TO.N,BattPwr*
X186690000Y-128524000D03*
D15*
G04 #@! TO.N,BattRtn*
G04 #@! TO.C,R15*
G36*
X181379691Y-122194553D02*
X181400926Y-122197703D01*
X181421750Y-122202919D01*
X181441962Y-122210151D01*
X181461368Y-122219330D01*
X181479781Y-122230366D01*
X181497024Y-122243154D01*
X181512930Y-122257570D01*
X181527346Y-122273476D01*
X181540134Y-122290719D01*
X181551170Y-122309132D01*
X181560349Y-122328538D01*
X181567581Y-122348750D01*
X181572797Y-122369574D01*
X181575947Y-122390809D01*
X181577000Y-122412250D01*
X181577000Y-122849750D01*
X181575947Y-122871191D01*
X181572797Y-122892426D01*
X181567581Y-122913250D01*
X181560349Y-122933462D01*
X181551170Y-122952868D01*
X181540134Y-122971281D01*
X181527346Y-122988524D01*
X181512930Y-123004430D01*
X181497024Y-123018846D01*
X181479781Y-123031634D01*
X181461368Y-123042670D01*
X181441962Y-123051849D01*
X181421750Y-123059081D01*
X181400926Y-123064297D01*
X181379691Y-123067447D01*
X181358250Y-123068500D01*
X180845750Y-123068500D01*
X180824309Y-123067447D01*
X180803074Y-123064297D01*
X180782250Y-123059081D01*
X180762038Y-123051849D01*
X180742632Y-123042670D01*
X180724219Y-123031634D01*
X180706976Y-123018846D01*
X180691070Y-123004430D01*
X180676654Y-122988524D01*
X180663866Y-122971281D01*
X180652830Y-122952868D01*
X180643651Y-122933462D01*
X180636419Y-122913250D01*
X180631203Y-122892426D01*
X180628053Y-122871191D01*
X180627000Y-122849750D01*
X180627000Y-122412250D01*
X180628053Y-122390809D01*
X180631203Y-122369574D01*
X180636419Y-122348750D01*
X180643651Y-122328538D01*
X180652830Y-122309132D01*
X180663866Y-122290719D01*
X180676654Y-122273476D01*
X180691070Y-122257570D01*
X180706976Y-122243154D01*
X180724219Y-122230366D01*
X180742632Y-122219330D01*
X180762038Y-122210151D01*
X180782250Y-122202919D01*
X180803074Y-122197703D01*
X180824309Y-122194553D01*
X180845750Y-122193500D01*
X181358250Y-122193500D01*
X181379691Y-122194553D01*
X181379691Y-122194553D01*
G37*
D18*
G04 #@! TD*
G04 #@! TO.P,R15,1*
G04 #@! TO.N,BattRtn*
X181102000Y-122631000D03*
D15*
G04 #@! TO.N,BattADC*
G04 #@! TO.C,R15*
G36*
X181379691Y-123769553D02*
X181400926Y-123772703D01*
X181421750Y-123777919D01*
X181441962Y-123785151D01*
X181461368Y-123794330D01*
X181479781Y-123805366D01*
X181497024Y-123818154D01*
X181512930Y-123832570D01*
X181527346Y-123848476D01*
X181540134Y-123865719D01*
X181551170Y-123884132D01*
X181560349Y-123903538D01*
X181567581Y-123923750D01*
X181572797Y-123944574D01*
X181575947Y-123965809D01*
X181577000Y-123987250D01*
X181577000Y-124424750D01*
X181575947Y-124446191D01*
X181572797Y-124467426D01*
X181567581Y-124488250D01*
X181560349Y-124508462D01*
X181551170Y-124527868D01*
X181540134Y-124546281D01*
X181527346Y-124563524D01*
X181512930Y-124579430D01*
X181497024Y-124593846D01*
X181479781Y-124606634D01*
X181461368Y-124617670D01*
X181441962Y-124626849D01*
X181421750Y-124634081D01*
X181400926Y-124639297D01*
X181379691Y-124642447D01*
X181358250Y-124643500D01*
X180845750Y-124643500D01*
X180824309Y-124642447D01*
X180803074Y-124639297D01*
X180782250Y-124634081D01*
X180762038Y-124626849D01*
X180742632Y-124617670D01*
X180724219Y-124606634D01*
X180706976Y-124593846D01*
X180691070Y-124579430D01*
X180676654Y-124563524D01*
X180663866Y-124546281D01*
X180652830Y-124527868D01*
X180643651Y-124508462D01*
X180636419Y-124488250D01*
X180631203Y-124467426D01*
X180628053Y-124446191D01*
X180627000Y-124424750D01*
X180627000Y-123987250D01*
X180628053Y-123965809D01*
X180631203Y-123944574D01*
X180636419Y-123923750D01*
X180643651Y-123903538D01*
X180652830Y-123884132D01*
X180663866Y-123865719D01*
X180676654Y-123848476D01*
X180691070Y-123832570D01*
X180706976Y-123818154D01*
X180724219Y-123805366D01*
X180742632Y-123794330D01*
X180762038Y-123785151D01*
X180782250Y-123777919D01*
X180803074Y-123772703D01*
X180824309Y-123769553D01*
X180845750Y-123768500D01*
X181358250Y-123768500D01*
X181379691Y-123769553D01*
X181379691Y-123769553D01*
G37*
D18*
G04 #@! TD*
G04 #@! TO.P,R15,2*
G04 #@! TO.N,BattADC*
X181102000Y-124206000D03*
D30*
G04 #@! TO.N,Net-(C1-Pad2)*
X201676000Y-110236000D03*
X190246000Y-121158000D03*
G04 #@! TO.N,BattRtn*
X185500000Y-114200000D03*
X196850000Y-107200000D03*
X186050000Y-118471400D03*
X193231730Y-116332886D03*
X189776920Y-109952846D03*
X195834000Y-125984000D03*
X199644000Y-123444000D03*
X190246000Y-123952000D03*
X182372000Y-118872000D03*
X194056000Y-119205400D03*
X201930000Y-117846400D03*
X181102000Y-121158000D03*
X188468000Y-118618000D03*
X188338460Y-105361740D03*
X201810620Y-119989600D03*
X192532000Y-128270000D03*
X187706000Y-127508000D03*
G04 #@! TO.N,Vdd*
X193500000Y-115850000D03*
X195000000Y-107900000D03*
X191350000Y-111100000D03*
X190000000Y-117200000D03*
X200152000Y-117348000D03*
X183896000Y-106934000D03*
D31*
X194310000Y-124968000D03*
D30*
X195326000Y-122428000D03*
G04 #@! TO.N,LED1_P2*
X190350000Y-109250000D03*
G04 #@! TO.N,Net-(D1-Pad1)*
X191770000Y-107188000D03*
G04 #@! TO.N,/SWDIO*
X196342000Y-111600000D03*
G04 #@! TO.N,/SWDCLK*
X195072000Y-111760000D03*
G04 #@! TO.N,/RESET*
X192550000Y-111150000D03*
G04 #@! TO.N,SDA*
X180600000Y-112900000D03*
X183750000Y-112000000D03*
G04 #@! TO.N,IMU_INT*
X185150000Y-109950000D03*
X191000000Y-113250000D03*
G04 #@! TO.N,BattPwr*
X186350000Y-114150000D03*
G04 #@! TO.N,/BatteryManagement/Batt-*
X188600001Y-115150000D03*
G04 #@! TO.N,/USB_DP*
X188150000Y-112050000D03*
G04 #@! TO.N,/USB_DM*
X187600000Y-112200000D03*
G04 #@! TO.N,Net-(J3-Pad2)*
X193294000Y-119634000D03*
G04 #@! TO.N,Net-(C1-Pad1)*
X201869701Y-104942640D03*
G04 #@! TO.N,Net-(C2-Pad1)*
X200217056Y-104720104D03*
G04 #@! TO.N,Audio_out*
X200406000Y-114300000D03*
X201676000Y-114808000D03*
X196088000Y-115570000D03*
G04 #@! TO.N,Fun_Btn_1*
X202184000Y-117094000D03*
X200406000Y-115062000D03*
X196596000Y-115824000D03*
X203962000Y-123698000D03*
G04 #@! TO.N,Fun_Btn_3*
X190450000Y-118250000D03*
X198120000Y-118110000D03*
X202184000Y-120650000D03*
G04 #@! TO.N,IMU_INT2*
X191250000Y-112600000D03*
X180340000Y-109474000D03*
G04 #@! TO.N,BattADC*
X196342000Y-119594600D03*
X184658000Y-127508000D03*
G04 #@! TD*
D32*
G04 #@! TO.N,Net-(C1-Pad2)*
X191262000Y-121158000D02*
X190246000Y-121158000D01*
X201676000Y-109953158D02*
X201676000Y-110236000D01*
X201676000Y-108884222D02*
X201676000Y-109953158D01*
X202298301Y-108261921D02*
X201676000Y-108884222D01*
X202298301Y-104223301D02*
X202298301Y-108261921D01*
X202000000Y-103925000D02*
X202298301Y-104223301D01*
X201200000Y-103925000D02*
X202000000Y-103925000D01*
G04 #@! TO.N,BattRtn*
X183350000Y-117493787D02*
X184513177Y-116330610D01*
X183350000Y-117750000D02*
X183350000Y-117493787D01*
X184513177Y-116330610D02*
X185447287Y-116330610D01*
X185447287Y-116330610D02*
X185976610Y-115801287D01*
X185976610Y-115801287D02*
X185976610Y-114676610D01*
X185976610Y-114676610D02*
X185500000Y-114200000D01*
X193453601Y-110021399D02*
X193550000Y-109925000D01*
X190702400Y-111550000D02*
X189925000Y-111550000D01*
X190731001Y-111578601D02*
X190702400Y-111550000D01*
X192755729Y-111578601D02*
X190731001Y-111578601D01*
X193550000Y-110784330D02*
X192755729Y-111578601D01*
X193550000Y-109925000D02*
X193550000Y-110784330D01*
X196537500Y-107200000D02*
X195937500Y-107800000D01*
X196850000Y-107200000D02*
X196537500Y-107200000D01*
X192755729Y-115740059D02*
X192755729Y-111578601D01*
X194050000Y-117034330D02*
X192755729Y-115740059D01*
X194050000Y-117675000D02*
X194050000Y-117034330D01*
X183350000Y-117750000D02*
X185328600Y-117750000D01*
X185328600Y-117750000D02*
X186050000Y-118471400D01*
X193031731Y-116016061D02*
X192755729Y-115740059D01*
X193031731Y-116132887D02*
X193031731Y-116016061D01*
X193231730Y-116332886D02*
X193031731Y-116132887D01*
X182100000Y-110712500D02*
X182100000Y-109746000D01*
X182082000Y-109728000D02*
X181600000Y-109728000D01*
X182100000Y-109746000D02*
X182082000Y-109728000D01*
X181600000Y-110712500D02*
X181600000Y-109728000D01*
X189147600Y-111550000D02*
X188722000Y-111124400D01*
X189925000Y-111550000D02*
X189147600Y-111550000D01*
X188722000Y-111124400D02*
X188722000Y-111007766D01*
X188722000Y-111007766D02*
X189776920Y-109952846D01*
X196560000Y-126675000D02*
X196560000Y-124496000D01*
X196481700Y-124574300D02*
X196481700Y-124853700D01*
X196560000Y-124496000D02*
X196481700Y-124574300D01*
X193437510Y-123915410D02*
X192508900Y-122986800D01*
X194743410Y-123915410D02*
X193437510Y-123915410D01*
X195681700Y-124853700D02*
X194743410Y-123915410D01*
X196481700Y-124853700D02*
X195681700Y-124853700D01*
X202898000Y-122425000D02*
X203149000Y-122174000D01*
X200050000Y-122425000D02*
X202898000Y-122425000D01*
X199110500Y-107950000D02*
X199618500Y-107442000D01*
X198000000Y-107950000D02*
X199110500Y-107950000D01*
X202895000Y-113081000D02*
X202692000Y-113284000D01*
X204470000Y-113081000D02*
X202895000Y-113081000D01*
X197600000Y-107950000D02*
X196850000Y-107200000D01*
X198000000Y-107950000D02*
X197600000Y-107950000D01*
X196481700Y-124853700D02*
X196481700Y-125336300D01*
X196481700Y-125336300D02*
X195834000Y-125984000D01*
X199644000Y-122831000D02*
X200050000Y-122425000D01*
X199644000Y-123444000D02*
X199644000Y-122831000D01*
X192508900Y-122986800D02*
X191211200Y-122986800D01*
X191211200Y-122986800D02*
X190246000Y-123952000D01*
X183350000Y-117894000D02*
X183350000Y-117750000D01*
X182372000Y-118872000D02*
X183350000Y-117894000D01*
X194056000Y-117681000D02*
X194050000Y-117675000D01*
X194056000Y-119205400D02*
X194056000Y-117681000D01*
X193550000Y-108812018D02*
X193040000Y-108302018D01*
X193550000Y-109925000D02*
X193550000Y-108812018D01*
X193040000Y-107597982D02*
X193957982Y-106680000D01*
X193040000Y-108302018D02*
X193040000Y-107597982D01*
X196330000Y-106680000D02*
X196850000Y-107200000D01*
X193957982Y-106680000D02*
X196330000Y-106680000D01*
X196390000Y-106740000D02*
X196850000Y-107200000D01*
X181600000Y-109244214D02*
X181102000Y-108746214D01*
X181600000Y-109728000D02*
X181600000Y-109244214D01*
X181102000Y-108247786D02*
X181987185Y-107362601D01*
X181102000Y-108746214D02*
X181102000Y-108247786D01*
X202184000Y-113284000D02*
X202692000Y-113284000D01*
X201813399Y-113654601D02*
X202184000Y-113284000D01*
X199057001Y-113654601D02*
X201813399Y-113654601D01*
X198452400Y-113050000D02*
X199057001Y-113654601D01*
X197675000Y-113050000D02*
X198452400Y-113050000D01*
X202135763Y-113840237D02*
X202692000Y-113284000D01*
X201930000Y-117846400D02*
X202129999Y-117646401D01*
X202129999Y-117646401D02*
X202265929Y-117646401D01*
X202265929Y-117646401D02*
X202612601Y-117299729D01*
X202612601Y-117299729D02*
X202612601Y-116760601D01*
X202612601Y-116760601D02*
X202135763Y-116283763D01*
X202135763Y-116283763D02*
X202135763Y-113840237D01*
X184097799Y-107362601D02*
X185318400Y-106142000D01*
X183954420Y-107362601D02*
X184097799Y-107362601D01*
X183954420Y-107362601D02*
X184101729Y-107362601D01*
X181987185Y-107362601D02*
X183954420Y-107362601D01*
X186784700Y-104675700D02*
X187479940Y-104675700D01*
X185318400Y-106142000D02*
X186784700Y-104675700D01*
X197190360Y-106859640D02*
X196850000Y-107200000D01*
X197190360Y-104797860D02*
X197190360Y-106859640D01*
X188165980Y-105361740D02*
X187479940Y-104675700D01*
X188338460Y-105361740D02*
X188165980Y-105361740D01*
X198628000Y-122174000D02*
X198120000Y-121666000D01*
X198628000Y-123855000D02*
X198628000Y-122174000D01*
X200152000Y-123952000D02*
X199644000Y-123444000D01*
X200738500Y-123952000D02*
X200152000Y-123952000D01*
X181102000Y-122631000D02*
X181102000Y-121158000D01*
X190528842Y-123952000D02*
X190246000Y-123952000D01*
X191341482Y-123952000D02*
X190528842Y-123952000D01*
X192532000Y-125142518D02*
X191341482Y-123952000D01*
X192532000Y-128270000D02*
X192532000Y-125142518D01*
G04 #@! TO.N,Vdd*
X180171399Y-112641101D02*
X180462500Y-112350000D01*
X180171399Y-117033899D02*
X180171399Y-112641101D01*
X180887500Y-117750000D02*
X180171399Y-117033899D01*
X181475000Y-117750000D02*
X180887500Y-117750000D01*
X180952400Y-111350000D02*
X181102400Y-111500000D01*
X180462500Y-111350000D02*
X180952400Y-111350000D01*
X181438518Y-111500000D02*
X181450000Y-111500000D01*
X181100000Y-111161482D02*
X181438518Y-111500000D01*
X181100000Y-110712500D02*
X181100000Y-111161482D01*
X181102400Y-111500000D02*
X181450000Y-111500000D01*
X181302400Y-111500000D02*
X181450000Y-111500000D01*
X180952400Y-111850000D02*
X181302400Y-111500000D01*
X180462500Y-111850000D02*
X180952400Y-111850000D01*
X180462500Y-112350000D02*
X180462500Y-111850000D01*
X181475000Y-120509858D02*
X181475000Y-117750000D01*
X182589752Y-121624610D02*
X181475000Y-120509858D01*
X182625000Y-121624610D02*
X182589752Y-121624610D01*
X182625000Y-123050000D02*
X182625000Y-121624610D01*
X193502400Y-115850000D02*
X193500000Y-115850000D01*
X194550000Y-117675000D02*
X194550000Y-116897600D01*
X194550000Y-116897600D02*
X193502400Y-115850000D01*
X189925000Y-111050000D02*
X191300000Y-111050000D01*
X191300000Y-111050000D02*
X191350000Y-111100000D01*
X194550000Y-114800000D02*
X193500000Y-115850000D01*
X194550000Y-109925000D02*
X194550000Y-114800000D01*
X190000000Y-117200000D02*
X190150000Y-117900000D01*
X190150000Y-117900000D02*
X190150000Y-117915670D01*
X194550000Y-108980000D02*
X194550000Y-109925000D01*
X194800001Y-108729999D02*
X194550000Y-108980000D01*
X194800001Y-108099999D02*
X194800001Y-108729999D01*
X195000000Y-107900000D02*
X194800001Y-108099999D01*
X190150000Y-117915670D02*
X189992000Y-118073670D01*
X190687000Y-119583000D02*
X191262000Y-119583000D01*
X189992000Y-118888000D02*
X190687000Y-119583000D01*
X189992000Y-118073670D02*
X189992000Y-118888000D01*
X195917363Y-123543037D02*
X196481700Y-122978700D01*
X194940137Y-123543037D02*
X195917363Y-123543037D01*
X194383900Y-122986800D02*
X194940137Y-123543037D01*
X191262000Y-119864900D02*
X191262000Y-119583000D01*
X194383900Y-122986800D02*
X191262000Y-119864900D01*
X202344000Y-118275000D02*
X200400000Y-118275000D01*
X205740000Y-114879000D02*
X202344000Y-118275000D01*
X200400000Y-118275000D02*
X200400000Y-117596000D01*
X200400000Y-117596000D02*
X200152000Y-117348000D01*
X189413824Y-109681612D02*
X189621436Y-109474000D01*
X188722000Y-109220000D02*
X189183612Y-109681612D01*
X189183612Y-109681612D02*
X189413824Y-109681612D01*
X189925000Y-110722600D02*
X189925000Y-111050000D01*
X190205521Y-110442079D02*
X189925000Y-110722600D01*
X190205521Y-109747117D02*
X190205521Y-110442079D01*
X189982649Y-109524245D02*
X190205521Y-109747117D01*
X189621436Y-109524245D02*
X189982649Y-109524245D01*
X189621436Y-109474000D02*
X189621436Y-109524245D01*
X189183612Y-108758388D02*
X189183612Y-108250388D01*
X188722000Y-109220000D02*
X189183612Y-108758388D01*
X192859399Y-106080601D02*
X193088001Y-105851999D01*
X189183612Y-108250388D02*
X191353399Y-106080601D01*
X180829290Y-110441790D02*
X181100000Y-110712500D01*
X180797190Y-110409690D02*
X180829290Y-110441790D01*
X180797190Y-108121530D02*
X180797190Y-110409690D01*
X181984720Y-106934000D02*
X180797190Y-108121530D01*
X183896000Y-106934000D02*
X181984720Y-106934000D01*
X194942700Y-122428000D02*
X194383900Y-122986800D01*
X195326000Y-122428000D02*
X194942700Y-122428000D01*
X193596221Y-105851999D02*
X194650360Y-104797860D01*
X193088001Y-105851999D02*
X193596221Y-105851999D01*
X192278000Y-106479381D02*
X192676780Y-106080601D01*
X192278000Y-108204000D02*
X192278000Y-106479381D01*
X191353399Y-106080601D02*
X192676780Y-106080601D01*
X192676780Y-106080601D02*
X192859399Y-106080601D01*
X195412359Y-104035861D02*
X194650360Y-104797860D01*
X195640961Y-103807259D02*
X195412359Y-104035861D01*
X197672935Y-103807259D02*
X195640961Y-103807259D01*
X199250300Y-105384624D02*
X197672935Y-103807259D01*
X199250300Y-105851960D02*
X199250300Y-105384624D01*
X194532880Y-127701607D02*
X194965320Y-127269167D01*
X194532880Y-129115820D02*
X194532880Y-127701607D01*
X194965320Y-125623320D02*
X194310000Y-124968000D01*
X194965320Y-127269167D02*
X194965320Y-125623320D01*
G04 #@! TO.N,Net-(C4-Pad2)*
X197675000Y-110150000D02*
X198000000Y-109825000D01*
X197675000Y-111050000D02*
X197675000Y-110150000D01*
X198151000Y-109976000D02*
X198000000Y-109825000D01*
X200200000Y-109976000D02*
X198151000Y-109976000D01*
G04 #@! TO.N,Net-(C5-Pad2)*
X201325000Y-112776000D02*
X202692000Y-111409000D01*
X200200000Y-112776000D02*
X201325000Y-112776000D01*
X198452400Y-111550000D02*
X197675000Y-111550000D01*
X199678400Y-112776000D02*
X198452400Y-111550000D01*
X200200000Y-112776000D02*
X199678400Y-112776000D01*
G04 #@! TO.N,LED1_P2*
X190375000Y-109250000D02*
X191050000Y-109925000D01*
X190350000Y-109250000D02*
X190375000Y-109250000D01*
G04 #@! TO.N,Net-(D1-Pad1)*
X190703000Y-108204000D02*
X190754000Y-108204000D01*
X190754000Y-108204000D02*
X191770000Y-107188000D01*
G04 #@! TO.N,/SWDIO*
X195550000Y-111300000D02*
X195550000Y-109925000D01*
X196342000Y-111600000D02*
X195550000Y-111300000D01*
G04 #@! TO.N,/SWDCLK*
X195072000Y-111760000D02*
X195000000Y-109975000D01*
X195000000Y-109975000D02*
X195050000Y-109925000D01*
G04 #@! TO.N,/RESET*
X192550000Y-111150000D02*
X192550000Y-109925000D01*
G04 #@! TO.N,/BatteryManagement/Batt_int*
X187517041Y-124671721D02*
X185888000Y-123042680D01*
X187531641Y-124671721D02*
X187517041Y-124671721D01*
X188381640Y-125521720D02*
X187531641Y-124671721D01*
X185888000Y-123042680D02*
X185888000Y-120396000D01*
G04 #@! TO.N,SDA*
X181100000Y-112487500D02*
X181100000Y-112925000D01*
X180637500Y-112950000D02*
X181100000Y-112487500D01*
X180600000Y-112900000D02*
X180637500Y-112950000D01*
X181100000Y-112908466D02*
X181691534Y-113500000D01*
X181100000Y-112487500D02*
X181100000Y-112908466D01*
X183752670Y-113500000D02*
X184052670Y-113200000D01*
X181691534Y-113500000D02*
X183752670Y-113500000D01*
X188087868Y-113550000D02*
X189925000Y-113550000D01*
X187737868Y-113200000D02*
X188087868Y-113550000D01*
X184052670Y-113200000D02*
X187737868Y-113200000D01*
X185976610Y-109773390D02*
X183750000Y-112000000D01*
X188808361Y-105559859D02*
X189570360Y-104797860D01*
X188808361Y-106590297D02*
X188808361Y-105559859D01*
X188131848Y-107266810D02*
X188808361Y-106590297D01*
X187978404Y-107266810D02*
X188131848Y-107266810D01*
X185976610Y-109268604D02*
X187978404Y-107266810D01*
X185976610Y-109773390D02*
X185976610Y-109268604D01*
G04 #@! TO.N,SCL*
X188018934Y-113050000D02*
X189925000Y-113050000D01*
X187702345Y-112733411D02*
X188018934Y-113050000D01*
X181600000Y-112977400D02*
X181727410Y-113104810D01*
X181600000Y-112487500D02*
X181600000Y-112977400D01*
X181727410Y-113104810D02*
X183345190Y-113104810D01*
X183345190Y-113104810D02*
X183596886Y-112853114D01*
X183596886Y-112853114D02*
X183627952Y-112853114D01*
X183627952Y-112853114D02*
X183747655Y-112733411D01*
X183747655Y-112733411D02*
X186000000Y-112733411D01*
X186000000Y-112733411D02*
X187702345Y-112733411D01*
X186099253Y-112733411D02*
X186000000Y-112733411D01*
X187813110Y-111019554D02*
X187452000Y-111380664D01*
X187452000Y-111380664D02*
X186099253Y-112733411D01*
X187813110Y-108586890D02*
X187813110Y-108663740D01*
X187960460Y-108516390D02*
X187813110Y-108663740D01*
X188391830Y-108516390D02*
X187960460Y-108516390D01*
X192110360Y-104797860D02*
X188391830Y-108516390D01*
X187813110Y-108663740D02*
X187813110Y-111019554D01*
G04 #@! TO.N,Net-(C9-Pad1)*
X183251610Y-110335890D02*
X182737500Y-110850000D01*
X184367360Y-107725790D02*
X183251610Y-108841540D01*
X185504850Y-107725790D02*
X184367360Y-107725790D01*
X186679940Y-106550700D02*
X185504850Y-107725790D01*
X187479940Y-106550700D02*
X186679940Y-106550700D01*
X183251610Y-108698390D02*
X183251610Y-108841540D01*
X183251610Y-108841540D02*
X183251610Y-110335890D01*
G04 #@! TO.N,IMU_INT*
X184826601Y-110273399D02*
X185150000Y-109950000D01*
X184826601Y-110460729D02*
X184826601Y-110273399D01*
X182737500Y-111350000D02*
X183937330Y-111350000D01*
X183937330Y-111350000D02*
X184826601Y-110460729D01*
X190852400Y-113900000D02*
X191000000Y-113900000D01*
X190702400Y-114050000D02*
X190852400Y-113900000D01*
X189925000Y-114050000D02*
X190702400Y-114050000D01*
X191000000Y-113250000D02*
X191000000Y-113900000D01*
X189925000Y-114550000D02*
X190850000Y-114550000D01*
X191000000Y-114400000D02*
X191000000Y-113900000D01*
X190850000Y-114550000D02*
X191000000Y-114400000D01*
X189925000Y-115050000D02*
X190900000Y-115050000D01*
X191000000Y-114950000D02*
X191000000Y-114400000D01*
X190900000Y-115050000D02*
X191000000Y-114950000D01*
G04 #@! TO.N,BattPwr*
X189447410Y-122386090D02*
X189447410Y-117283892D01*
X189447410Y-117283892D02*
X189028602Y-116865084D01*
X189028602Y-116865084D02*
X189028602Y-114944271D01*
X188518800Y-123314700D02*
X189447410Y-122386090D01*
X189028602Y-114944271D02*
X188234331Y-114150000D01*
X188234331Y-114150000D02*
X186350000Y-114150000D01*
X188310000Y-127887600D02*
X189562740Y-126634860D01*
X188310000Y-128540000D02*
X188310000Y-127887600D01*
X189562740Y-124358640D02*
X188518800Y-123314700D01*
X189562740Y-126634860D02*
X189562740Y-124358640D01*
X188294000Y-128524000D02*
X188310000Y-128540000D01*
X186690000Y-128524000D02*
X188294000Y-128524000D01*
G04 #@! TO.N,/VDDANA*
X199493763Y-119993763D02*
X199493763Y-119593763D01*
X200050000Y-120550000D02*
X199493763Y-119993763D01*
X199493763Y-119593763D02*
X199300000Y-119400000D01*
X199300000Y-117500000D02*
X200400000Y-116400000D01*
X199300000Y-119400000D02*
X199300000Y-117500000D01*
X198452400Y-113550000D02*
X197675000Y-113550000D01*
X198528601Y-113626201D02*
X198452400Y-113550000D01*
X198528601Y-114528601D02*
X198528601Y-113626201D01*
X200400000Y-116400000D02*
X198528601Y-114528601D01*
G04 #@! TO.N,/VDDCORE*
X194062500Y-109912500D02*
X194050000Y-109925000D01*
X194050000Y-107956000D02*
X194056000Y-107950000D01*
X194050000Y-109925000D02*
X194050000Y-107956000D01*
G04 #@! TO.N,/BatteryManagement/Batt-*
X184500000Y-121508000D02*
X183388000Y-120396000D01*
X184500000Y-123050000D02*
X184500000Y-121508000D01*
X184616610Y-119167390D02*
X183388000Y-120396000D01*
X186833990Y-119167390D02*
X184616610Y-119167390D01*
X188518800Y-121439700D02*
X188518800Y-120852200D01*
X186916600Y-117116243D02*
X186916600Y-119250000D01*
X188600001Y-115432842D02*
X186916600Y-117116243D01*
X188600001Y-115150000D02*
X188600001Y-115432842D01*
X188518800Y-120852200D02*
X186916600Y-119250000D01*
X186916600Y-119250000D02*
X186833990Y-119167390D01*
G04 #@! TO.N,/USB_DP*
X189853600Y-112121400D02*
X189925000Y-112050000D01*
X188150000Y-112050000D02*
X189853600Y-112121400D01*
G04 #@! TO.N,/USB_DM*
X187950000Y-112550000D02*
X189925000Y-112550000D01*
X187600000Y-112200000D02*
X187950000Y-112550000D01*
G04 #@! TO.N,Net-(J3-Pad2)*
X195580000Y-117705000D02*
X195550000Y-117675000D01*
X195580000Y-119126000D02*
X195580000Y-117705000D01*
X195072000Y-119634000D02*
X195580000Y-119126000D01*
X193294000Y-119634000D02*
X195072000Y-119634000D01*
G04 #@! TO.N,Net-(C1-Pad1)*
X201869701Y-105130299D02*
X201200000Y-105800000D01*
X201869701Y-104942640D02*
X201869701Y-105130299D01*
G04 #@! TO.N,Net-(C2-Pad1)*
X185318400Y-103679500D02*
X185522690Y-103475210D01*
X185318400Y-104267000D02*
X185318400Y-103679500D01*
X185522690Y-103475210D02*
X198798870Y-103475210D01*
X198798870Y-103475210D02*
X198821040Y-103497380D01*
X199693444Y-104720104D02*
X199250300Y-104276960D01*
X200217056Y-104720104D02*
X199693444Y-104720104D01*
X199250300Y-103739460D02*
X199250300Y-104276960D01*
X198986050Y-103475210D02*
X199250300Y-103739460D01*
X198798870Y-103475210D02*
X198986050Y-103475210D01*
X200217056Y-105002946D02*
X200217056Y-104720104D01*
X200217056Y-106185074D02*
X200217056Y-105002946D01*
X201193500Y-107161518D02*
X200217056Y-106185074D01*
X201193500Y-107442000D02*
X201193500Y-107161518D01*
G04 #@! TO.N,Audio_out*
X200406000Y-114300000D02*
X201168000Y-114300000D01*
X201168000Y-114300000D02*
X201676000Y-114808000D01*
X196956330Y-115550000D02*
X197675000Y-115550000D01*
X196801729Y-115395399D02*
X196956330Y-115550000D01*
X196390271Y-115395399D02*
X196801729Y-115395399D01*
X196287999Y-115370001D02*
X196088000Y-115570000D01*
X196364873Y-115370001D02*
X196287999Y-115370001D01*
X196390271Y-115395399D02*
X196364873Y-115370001D01*
X196552201Y-115395399D02*
X196390271Y-115395399D01*
X196897600Y-115050000D02*
X196552201Y-115395399D01*
X197675000Y-115050000D02*
X196897600Y-115050000D01*
X196088000Y-115287158D02*
X196088000Y-115570000D01*
X196088000Y-112925518D02*
X196088000Y-115287158D01*
X196963518Y-112050000D02*
X196088000Y-112925518D01*
X197675000Y-112050000D02*
X196963518Y-112050000D01*
G04 #@! TO.N,Net-(D3-Pad2)*
X185674000Y-127975336D02*
X185928000Y-128229336D01*
X185674000Y-125476000D02*
X185674000Y-127975336D01*
X185928000Y-128869664D02*
X186344336Y-129286000D01*
X185928000Y-128229336D02*
X185928000Y-128869664D01*
X190157600Y-128540000D02*
X190810000Y-128540000D01*
X189411600Y-129286000D02*
X190157600Y-128540000D01*
X186344336Y-129286000D02*
X189411600Y-129286000D01*
G04 #@! TO.N,Fun_Btn_1*
X200434842Y-115062000D02*
X200406000Y-115062000D01*
X202184000Y-117094000D02*
X202184000Y-116811158D01*
X202184000Y-116811158D02*
X200434842Y-115062000D01*
X196822000Y-116050000D02*
X197675000Y-116050000D01*
X196596000Y-115824000D02*
X196822000Y-116050000D01*
X205740000Y-110236000D02*
X205740000Y-109879000D01*
X204470000Y-111506000D02*
X205740000Y-110236000D01*
X202613500Y-123952000D02*
X203708000Y-123952000D01*
X203708000Y-123952000D02*
X203962000Y-123698000D01*
G04 #@! TO.N,Fun_Btn_2*
X192050000Y-119209330D02*
X194760670Y-121920000D01*
X192050000Y-117675000D02*
X192050000Y-119209330D01*
X197302000Y-127508000D02*
X196560000Y-128250000D01*
X197612000Y-127508000D02*
X197302000Y-127508000D01*
X197370000Y-129060000D02*
X196560000Y-128250000D01*
X198950000Y-129060000D02*
X197370000Y-129060000D01*
X197612000Y-124615982D02*
X197612000Y-127508000D01*
X197410310Y-122539292D02*
X197410310Y-124414292D01*
X197358000Y-122486982D02*
X197410310Y-122539292D01*
X197358000Y-121982330D02*
X197358000Y-122486982D01*
X197410310Y-124414292D02*
X197612000Y-124615982D01*
X197295670Y-121920000D02*
X197358000Y-121982330D01*
X194760670Y-121920000D02*
X197295670Y-121920000D01*
X198628000Y-128099820D02*
X199644000Y-129115820D01*
X198628000Y-125730000D02*
X198628000Y-128099820D01*
G04 #@! TO.N,Fun_Btn_3*
X190475000Y-118250000D02*
X191050000Y-117675000D01*
X190450000Y-118250000D02*
X190475000Y-118250000D01*
X204724000Y-120928000D02*
X205740000Y-119912000D01*
X204724000Y-122174000D02*
X204724000Y-120928000D01*
X203348774Y-121266110D02*
X199398092Y-121266110D01*
X204724000Y-122174000D02*
X204256664Y-122174000D01*
X204256664Y-122174000D02*
X203348774Y-121266110D01*
X198995190Y-120863208D02*
X199398092Y-121266110D01*
X198995190Y-118702348D02*
X198995190Y-120863208D01*
X198402842Y-118110000D02*
X198995190Y-118702348D01*
X198120000Y-118110000D02*
X198402842Y-118110000D01*
X202922000Y-119912000D02*
X205740000Y-119912000D01*
X202184000Y-120650000D02*
X202922000Y-119912000D01*
G04 #@! TO.N,Net-(R13-Pad1)*
X182100000Y-112487500D02*
X182264196Y-112487500D01*
X183169694Y-112778610D02*
X183400000Y-112548304D01*
X182100000Y-112487500D02*
X182391110Y-112778610D01*
X182391110Y-112778610D02*
X183169694Y-112778610D01*
X183621399Y-112428601D02*
X184171399Y-112428601D01*
X183400000Y-112548304D02*
X183501696Y-112548304D01*
X183501696Y-112548304D02*
X183621399Y-112428601D01*
X186746390Y-109853610D02*
X186746390Y-109650000D01*
X184171399Y-112428601D02*
X186746390Y-109853610D01*
X186746390Y-109887940D02*
X186746390Y-109650000D01*
X186746390Y-109650000D02*
X186746390Y-109403610D01*
G04 #@! TO.N,IMU_INT2*
X191300000Y-112650000D02*
X191250000Y-112600000D01*
X191300000Y-112915670D02*
X191300000Y-112650000D01*
X191428601Y-113044271D02*
X191300000Y-112915670D01*
X191428601Y-114952465D02*
X191428601Y-113044271D01*
X190831066Y-115550000D02*
X191428601Y-114952465D01*
X189925000Y-115550000D02*
X190831066Y-115550000D01*
X191428601Y-115323799D02*
X191428601Y-114952465D01*
X190702400Y-116050000D02*
X191428601Y-115323799D01*
X189925000Y-116050000D02*
X190702400Y-116050000D01*
X191428601Y-115823799D02*
X191428601Y-115323799D01*
X190702400Y-116550000D02*
X191428601Y-115823799D01*
X189925000Y-116550000D02*
X190702400Y-116550000D01*
X180340000Y-110727500D02*
X180462500Y-110850000D01*
X180340000Y-109474000D02*
X180340000Y-110727500D01*
D33*
G04 #@! TO.N,BattADC*
X181102000Y-124206000D02*
X182626000Y-124206000D01*
X182626000Y-124206000D02*
X185115000Y-126695000D01*
X185115000Y-127508000D02*
X185115000Y-128524000D01*
X185115000Y-126695000D02*
X185115000Y-127508000D01*
D32*
X196050000Y-119302600D02*
X196050000Y-117675000D01*
X196342000Y-119594600D02*
X196050000Y-119302600D01*
X196342000Y-117883000D02*
X196550000Y-117675000D01*
X196342000Y-119594600D02*
X196342000Y-117883000D01*
X197675000Y-116877400D02*
X197358000Y-117194400D01*
X197675000Y-116550000D02*
X197675000Y-116877400D01*
X197358000Y-118578600D02*
X196342000Y-119594600D01*
X197358000Y-117194400D02*
X197358000Y-118578600D01*
X185115000Y-127508000D02*
X184658000Y-127508000D01*
G04 #@! TD*
D34*
G04 #@! TO.N,BattRtn*
G36*
X192219000Y-126891314D02*
X192429853Y-127400360D01*
X192819460Y-127789967D01*
X193328506Y-128000820D01*
X193446761Y-128000820D01*
X193257914Y-128189667D01*
X193009000Y-128790598D01*
X193009000Y-129338000D01*
X191838368Y-129338000D01*
X191887717Y-129264145D01*
X191937000Y-129016380D01*
X191937000Y-128016380D01*
X191887717Y-127768615D01*
X191747369Y-127558571D01*
X191537325Y-127418223D01*
X191289560Y-127368940D01*
X190289560Y-127368940D01*
X190041795Y-127418223D01*
X189831751Y-127558571D01*
X189691403Y-127768615D01*
X189642120Y-128016380D01*
X189642120Y-128031346D01*
X189605178Y-128086633D01*
X189437000Y-128254811D01*
X189437000Y-128016380D01*
X189395524Y-127807864D01*
X190016109Y-127187280D01*
X190075485Y-127147606D01*
X190115160Y-127088229D01*
X190115164Y-127088225D01*
X190191861Y-126973440D01*
X191604000Y-126973440D01*
X191851765Y-126924157D01*
X192061809Y-126783809D01*
X192202157Y-126573765D01*
X192219000Y-126489089D01*
X192219000Y-126891314D01*
X192219000Y-126891314D01*
G37*
X192219000Y-126891314D02*
X192429853Y-127400360D01*
X192819460Y-127789967D01*
X193328506Y-128000820D01*
X193446761Y-128000820D01*
X193257914Y-128189667D01*
X193009000Y-128790598D01*
X193009000Y-129338000D01*
X191838368Y-129338000D01*
X191887717Y-129264145D01*
X191937000Y-129016380D01*
X191937000Y-128016380D01*
X191887717Y-127768615D01*
X191747369Y-127558571D01*
X191537325Y-127418223D01*
X191289560Y-127368940D01*
X190289560Y-127368940D01*
X190041795Y-127418223D01*
X189831751Y-127558571D01*
X189691403Y-127768615D01*
X189642120Y-128016380D01*
X189642120Y-128031346D01*
X189605178Y-128086633D01*
X189437000Y-128254811D01*
X189437000Y-128016380D01*
X189395524Y-127807864D01*
X190016109Y-127187280D01*
X190075485Y-127147606D01*
X190115160Y-127088229D01*
X190115164Y-127088225D01*
X190191861Y-126973440D01*
X191604000Y-126973440D01*
X191851765Y-126924157D01*
X192061809Y-126783809D01*
X192202157Y-126573765D01*
X192219000Y-126489089D01*
X192219000Y-126891314D01*
G36*
X187143375Y-126546625D02*
X187634582Y-126874839D01*
X188067744Y-126961000D01*
X188230812Y-126961000D01*
X187856634Y-127335178D01*
X187806106Y-127368940D01*
X187789560Y-127368940D01*
X187541795Y-127418223D01*
X187354141Y-127543610D01*
X187240227Y-127467495D01*
X186908750Y-127401560D01*
X186471250Y-127401560D01*
X186385200Y-127418676D01*
X186385200Y-126786785D01*
X186744625Y-126546625D01*
X186944000Y-126248239D01*
X187143375Y-126546625D01*
X187143375Y-126546625D01*
G37*
X187143375Y-126546625D02*
X187634582Y-126874839D01*
X188067744Y-126961000D01*
X188230812Y-126961000D01*
X187856634Y-127335178D01*
X187806106Y-127368940D01*
X187789560Y-127368940D01*
X187541795Y-127418223D01*
X187354141Y-127543610D01*
X187240227Y-127467495D01*
X186908750Y-127401560D01*
X186471250Y-127401560D01*
X186385200Y-127418676D01*
X186385200Y-126786785D01*
X186744625Y-126546625D01*
X186944000Y-126248239D01*
X187143375Y-126546625D01*
G36*
X196608700Y-124726700D02*
X196628700Y-124726700D01*
X196628700Y-124980700D01*
X196608700Y-124980700D01*
X196608700Y-125817450D01*
X196687000Y-125895750D01*
X196687000Y-126548000D01*
X196707000Y-126548000D01*
X196707000Y-126802000D01*
X196687000Y-126802000D01*
X196687000Y-126822000D01*
X196433000Y-126822000D01*
X196433000Y-126802000D01*
X196413000Y-126802000D01*
X196413000Y-126548000D01*
X196433000Y-126548000D01*
X196433000Y-125761250D01*
X196354700Y-125682950D01*
X196354700Y-124980700D01*
X196334700Y-124980700D01*
X196334700Y-124726700D01*
X196354700Y-124726700D01*
X196354700Y-124706700D01*
X196608700Y-124706700D01*
X196608700Y-124726700D01*
X196608700Y-124726700D01*
G37*
X196608700Y-124726700D02*
X196628700Y-124726700D01*
X196628700Y-124980700D01*
X196608700Y-124980700D01*
X196608700Y-125817450D01*
X196687000Y-125895750D01*
X196687000Y-126548000D01*
X196707000Y-126548000D01*
X196707000Y-126802000D01*
X196687000Y-126802000D01*
X196687000Y-126822000D01*
X196433000Y-126822000D01*
X196433000Y-126802000D01*
X196413000Y-126802000D01*
X196413000Y-126548000D01*
X196433000Y-126548000D01*
X196433000Y-125761250D01*
X196354700Y-125682950D01*
X196354700Y-124980700D01*
X196334700Y-124980700D01*
X196334700Y-124726700D01*
X196354700Y-124726700D01*
X196354700Y-124706700D01*
X196608700Y-124706700D01*
X196608700Y-124726700D01*
G36*
X190674273Y-122177005D02*
X191005750Y-122242940D01*
X191386400Y-122242940D01*
X191386400Y-122701050D01*
X191545150Y-122859800D01*
X192381900Y-122859800D01*
X192381900Y-122839800D01*
X192635900Y-122839800D01*
X192635900Y-122859800D01*
X192655900Y-122859800D01*
X192655900Y-123113800D01*
X192635900Y-123113800D01*
X192635900Y-124163050D01*
X192794650Y-124321800D01*
X193122709Y-124321800D01*
X193356098Y-124225127D01*
X193509193Y-124072033D01*
X193509984Y-124073216D01*
X193648511Y-124165778D01*
X193432569Y-124381720D01*
X193275000Y-124762126D01*
X193275000Y-125173874D01*
X193302969Y-125241398D01*
X192819460Y-125441673D01*
X192429853Y-125831280D01*
X192251440Y-126262009D01*
X192251440Y-124626000D01*
X192202157Y-124378235D01*
X192164448Y-124321800D01*
X192223150Y-124321800D01*
X192381900Y-124163050D01*
X192381900Y-123113800D01*
X191545150Y-123113800D01*
X191386400Y-123272550D01*
X191386400Y-123813110D01*
X191454932Y-123978560D01*
X190164132Y-123978560D01*
X190115164Y-123905275D01*
X190115162Y-123905273D01*
X190075486Y-123845894D01*
X190016107Y-123806218D01*
X189849997Y-123640108D01*
X189866240Y-123558450D01*
X189866240Y-123070950D01*
X189849997Y-122989292D01*
X189900779Y-122938510D01*
X189960155Y-122898836D01*
X189999830Y-122839459D01*
X189999834Y-122839455D01*
X190117345Y-122663587D01*
X190117346Y-122663586D01*
X190158610Y-122456136D01*
X190158610Y-122456132D01*
X190172542Y-122386090D01*
X190158610Y-122316048D01*
X190158610Y-121993000D01*
X190398890Y-121993000D01*
X190674273Y-122177005D01*
X190674273Y-122177005D01*
G37*
X190674273Y-122177005D02*
X191005750Y-122242940D01*
X191386400Y-122242940D01*
X191386400Y-122701050D01*
X191545150Y-122859800D01*
X192381900Y-122859800D01*
X192381900Y-122839800D01*
X192635900Y-122839800D01*
X192635900Y-122859800D01*
X192655900Y-122859800D01*
X192655900Y-123113800D01*
X192635900Y-123113800D01*
X192635900Y-124163050D01*
X192794650Y-124321800D01*
X193122709Y-124321800D01*
X193356098Y-124225127D01*
X193509193Y-124072033D01*
X193509984Y-124073216D01*
X193648511Y-124165778D01*
X193432569Y-124381720D01*
X193275000Y-124762126D01*
X193275000Y-125173874D01*
X193302969Y-125241398D01*
X192819460Y-125441673D01*
X192429853Y-125831280D01*
X192251440Y-126262009D01*
X192251440Y-124626000D01*
X192202157Y-124378235D01*
X192164448Y-124321800D01*
X192223150Y-124321800D01*
X192381900Y-124163050D01*
X192381900Y-123113800D01*
X191545150Y-123113800D01*
X191386400Y-123272550D01*
X191386400Y-123813110D01*
X191454932Y-123978560D01*
X190164132Y-123978560D01*
X190115164Y-123905275D01*
X190115162Y-123905273D01*
X190075486Y-123845894D01*
X190016107Y-123806218D01*
X189849997Y-123640108D01*
X189866240Y-123558450D01*
X189866240Y-123070950D01*
X189849997Y-122989292D01*
X189900779Y-122938510D01*
X189960155Y-122898836D01*
X189999830Y-122839459D01*
X189999834Y-122839455D01*
X190117345Y-122663587D01*
X190117346Y-122663586D01*
X190158610Y-122456136D01*
X190158610Y-122456132D01*
X190172542Y-122386090D01*
X190158610Y-122316048D01*
X190158610Y-121993000D01*
X190398890Y-121993000D01*
X190674273Y-122177005D01*
G36*
X197157793Y-119808926D02*
X197477074Y-120128207D01*
X197894234Y-120301000D01*
X198283991Y-120301000D01*
X198283991Y-120524214D01*
X198265028Y-120517888D01*
X197814625Y-120549783D01*
X197546648Y-120660783D01*
X197509501Y-120875896D01*
X198120000Y-121486395D01*
X198134143Y-121472253D01*
X198313748Y-121651858D01*
X198299605Y-121666000D01*
X198715000Y-122081395D01*
X198715000Y-122139250D01*
X198873750Y-122298000D01*
X199923000Y-122298000D01*
X199923000Y-122278000D01*
X200177000Y-122278000D01*
X200177000Y-122298000D01*
X201226250Y-122298000D01*
X201385000Y-122139250D01*
X201385000Y-121977310D01*
X202165560Y-121977310D01*
X202235250Y-122047000D01*
X203022000Y-122047000D01*
X203022000Y-122027000D01*
X203103876Y-122027000D01*
X203296000Y-122219125D01*
X203296000Y-122301000D01*
X203276000Y-122301000D01*
X203276000Y-122321000D01*
X203022000Y-122321000D01*
X203022000Y-122301000D01*
X202235250Y-122301000D01*
X202076500Y-122459750D01*
X202076500Y-122662891D01*
X202028706Y-122672398D01*
X201739584Y-122865584D01*
X201738793Y-122866767D01*
X201585698Y-122713673D01*
X201352309Y-122617000D01*
X201291250Y-122617000D01*
X201226250Y-122552000D01*
X200177000Y-122552000D01*
X200177000Y-122572000D01*
X199923000Y-122572000D01*
X199923000Y-122552000D01*
X198873750Y-122552000D01*
X198715000Y-122710750D01*
X198715000Y-123038809D01*
X198755000Y-123135377D01*
X198755000Y-123728000D01*
X199677750Y-123728000D01*
X199774750Y-123825000D01*
X200611500Y-123825000D01*
X200611500Y-123805000D01*
X200865500Y-123805000D01*
X200865500Y-123825000D01*
X200885500Y-123825000D01*
X200885500Y-124079000D01*
X200865500Y-124079000D01*
X200865500Y-124099000D01*
X200611500Y-124099000D01*
X200611500Y-124079000D01*
X199901250Y-124079000D01*
X199804250Y-123982000D01*
X198755000Y-123982000D01*
X198755000Y-124002000D01*
X198501000Y-124002000D01*
X198501000Y-123982000D01*
X198481000Y-123982000D01*
X198481000Y-123728000D01*
X198501000Y-123728000D01*
X198501000Y-122891250D01*
X198394176Y-122784426D01*
X198425375Y-122782217D01*
X198693352Y-122671217D01*
X198730499Y-122456104D01*
X198120000Y-121845605D01*
X198105858Y-121859748D01*
X198047053Y-121800943D01*
X198027936Y-121704834D01*
X197959515Y-121602435D01*
X197910424Y-121528966D01*
X197910422Y-121528964D01*
X197870745Y-121469584D01*
X197833383Y-121444619D01*
X197808416Y-121407254D01*
X197573166Y-121250064D01*
X197512365Y-121237970D01*
X197329896Y-121055501D01*
X197114783Y-121092648D01*
X197076033Y-121208800D01*
X195055259Y-121208800D01*
X194191659Y-120345200D01*
X195001959Y-120345200D01*
X195072000Y-120359132D01*
X195142041Y-120345200D01*
X195142046Y-120345200D01*
X195349496Y-120303936D01*
X195584746Y-120146746D01*
X195624424Y-120087364D01*
X195639160Y-120072629D01*
X195869010Y-120302479D01*
X196175908Y-120429600D01*
X196508092Y-120429600D01*
X196814990Y-120302479D01*
X197049879Y-120067590D01*
X197157407Y-119807994D01*
X197157793Y-119808926D01*
X197157793Y-119808926D01*
G37*
X197157793Y-119808926D02*
X197477074Y-120128207D01*
X197894234Y-120301000D01*
X198283991Y-120301000D01*
X198283991Y-120524214D01*
X198265028Y-120517888D01*
X197814625Y-120549783D01*
X197546648Y-120660783D01*
X197509501Y-120875896D01*
X198120000Y-121486395D01*
X198134143Y-121472253D01*
X198313748Y-121651858D01*
X198299605Y-121666000D01*
X198715000Y-122081395D01*
X198715000Y-122139250D01*
X198873750Y-122298000D01*
X199923000Y-122298000D01*
X199923000Y-122278000D01*
X200177000Y-122278000D01*
X200177000Y-122298000D01*
X201226250Y-122298000D01*
X201385000Y-122139250D01*
X201385000Y-121977310D01*
X202165560Y-121977310D01*
X202235250Y-122047000D01*
X203022000Y-122047000D01*
X203022000Y-122027000D01*
X203103876Y-122027000D01*
X203296000Y-122219125D01*
X203296000Y-122301000D01*
X203276000Y-122301000D01*
X203276000Y-122321000D01*
X203022000Y-122321000D01*
X203022000Y-122301000D01*
X202235250Y-122301000D01*
X202076500Y-122459750D01*
X202076500Y-122662891D01*
X202028706Y-122672398D01*
X201739584Y-122865584D01*
X201738793Y-122866767D01*
X201585698Y-122713673D01*
X201352309Y-122617000D01*
X201291250Y-122617000D01*
X201226250Y-122552000D01*
X200177000Y-122552000D01*
X200177000Y-122572000D01*
X199923000Y-122572000D01*
X199923000Y-122552000D01*
X198873750Y-122552000D01*
X198715000Y-122710750D01*
X198715000Y-123038809D01*
X198755000Y-123135377D01*
X198755000Y-123728000D01*
X199677750Y-123728000D01*
X199774750Y-123825000D01*
X200611500Y-123825000D01*
X200611500Y-123805000D01*
X200865500Y-123805000D01*
X200865500Y-123825000D01*
X200885500Y-123825000D01*
X200885500Y-124079000D01*
X200865500Y-124079000D01*
X200865500Y-124099000D01*
X200611500Y-124099000D01*
X200611500Y-124079000D01*
X199901250Y-124079000D01*
X199804250Y-123982000D01*
X198755000Y-123982000D01*
X198755000Y-124002000D01*
X198501000Y-124002000D01*
X198501000Y-123982000D01*
X198481000Y-123982000D01*
X198481000Y-123728000D01*
X198501000Y-123728000D01*
X198501000Y-122891250D01*
X198394176Y-122784426D01*
X198425375Y-122782217D01*
X198693352Y-122671217D01*
X198730499Y-122456104D01*
X198120000Y-121845605D01*
X198105858Y-121859748D01*
X198047053Y-121800943D01*
X198027936Y-121704834D01*
X197959515Y-121602435D01*
X197910424Y-121528966D01*
X197910422Y-121528964D01*
X197870745Y-121469584D01*
X197833383Y-121444619D01*
X197808416Y-121407254D01*
X197573166Y-121250064D01*
X197512365Y-121237970D01*
X197329896Y-121055501D01*
X197114783Y-121092648D01*
X197076033Y-121208800D01*
X195055259Y-121208800D01*
X194191659Y-120345200D01*
X195001959Y-120345200D01*
X195072000Y-120359132D01*
X195142041Y-120345200D01*
X195142046Y-120345200D01*
X195349496Y-120303936D01*
X195584746Y-120146746D01*
X195624424Y-120087364D01*
X195639160Y-120072629D01*
X195869010Y-120302479D01*
X196175908Y-120429600D01*
X196508092Y-120429600D01*
X196814990Y-120302479D01*
X197049879Y-120067590D01*
X197157407Y-119807994D01*
X197157793Y-119808926D01*
G36*
X180601084Y-118836416D02*
X180763801Y-118945140D01*
X180763800Y-120439816D01*
X180749868Y-120509858D01*
X180763800Y-120579899D01*
X180763800Y-120579903D01*
X180805064Y-120787353D01*
X180822031Y-120812746D01*
X180922576Y-120963222D01*
X180922578Y-120963224D01*
X180962254Y-121022603D01*
X181021634Y-121062280D01*
X181517854Y-121558500D01*
X181387750Y-121558500D01*
X181229000Y-121717250D01*
X181229000Y-122504000D01*
X181249000Y-122504000D01*
X181249000Y-122758000D01*
X181229000Y-122758000D01*
X181229000Y-122778000D01*
X180975000Y-122778000D01*
X180975000Y-122758000D01*
X180955000Y-122758000D01*
X180955000Y-122504000D01*
X180975000Y-122504000D01*
X180975000Y-121717250D01*
X180816250Y-121558500D01*
X180542000Y-121558500D01*
X180542000Y-118747991D01*
X180601084Y-118836416D01*
X180601084Y-118836416D01*
G37*
X180601084Y-118836416D02*
X180763801Y-118945140D01*
X180763800Y-120439816D01*
X180749868Y-120509858D01*
X180763800Y-120579899D01*
X180763800Y-120579903D01*
X180805064Y-120787353D01*
X180822031Y-120812746D01*
X180922576Y-120963222D01*
X180922578Y-120963224D01*
X180962254Y-121022603D01*
X181021634Y-121062280D01*
X181517854Y-121558500D01*
X181387750Y-121558500D01*
X181229000Y-121717250D01*
X181229000Y-122504000D01*
X181249000Y-122504000D01*
X181249000Y-122758000D01*
X181229000Y-122758000D01*
X181229000Y-122778000D01*
X180975000Y-122778000D01*
X180975000Y-122758000D01*
X180955000Y-122758000D01*
X180955000Y-122504000D01*
X180975000Y-122504000D01*
X180975000Y-121717250D01*
X180816250Y-121558500D01*
X180542000Y-121558500D01*
X180542000Y-118747991D01*
X180601084Y-118836416D01*
G36*
X201855000Y-119147494D02*
X202065853Y-119656540D01*
X202118762Y-119709449D01*
X202009891Y-119818321D01*
X201711010Y-119942121D01*
X201476121Y-120177010D01*
X201397440Y-120366963D01*
X201397440Y-120306250D01*
X201329602Y-119965206D01*
X201136416Y-119676084D01*
X200847294Y-119482898D01*
X200506250Y-119415060D01*
X200183350Y-119415060D01*
X200182331Y-119409940D01*
X200856250Y-119409940D01*
X201197294Y-119342102D01*
X201486416Y-119148916D01*
X201595140Y-118986200D01*
X201855000Y-118986200D01*
X201855000Y-119147494D01*
X201855000Y-119147494D01*
G37*
X201855000Y-119147494D02*
X202065853Y-119656540D01*
X202118762Y-119709449D01*
X202009891Y-119818321D01*
X201711010Y-119942121D01*
X201476121Y-120177010D01*
X201397440Y-120366963D01*
X201397440Y-120306250D01*
X201329602Y-119965206D01*
X201136416Y-119676084D01*
X200847294Y-119482898D01*
X200506250Y-119415060D01*
X200183350Y-119415060D01*
X200182331Y-119409940D01*
X200856250Y-119409940D01*
X201197294Y-119342102D01*
X201486416Y-119148916D01*
X201595140Y-118986200D01*
X201855000Y-118986200D01*
X201855000Y-119147494D01*
G36*
X188317402Y-116795042D02*
X188303470Y-116865084D01*
X188317402Y-116935125D01*
X188317402Y-116935129D01*
X188358666Y-117142579D01*
X188371813Y-117162255D01*
X188476178Y-117318448D01*
X188476180Y-117318450D01*
X188515856Y-117377829D01*
X188575236Y-117417506D01*
X188736211Y-117578481D01*
X188736210Y-120063822D01*
X187627800Y-118955412D01*
X187627800Y-117410831D01*
X188317402Y-116721229D01*
X188317402Y-116795042D01*
X188317402Y-116795042D01*
G37*
X188317402Y-116795042D02*
X188303470Y-116865084D01*
X188317402Y-116935125D01*
X188317402Y-116935129D01*
X188358666Y-117142579D01*
X188371813Y-117162255D01*
X188476178Y-117318448D01*
X188476180Y-117318450D01*
X188515856Y-117377829D01*
X188575236Y-117417506D01*
X188736211Y-117578481D01*
X188736210Y-120063822D01*
X187627800Y-118955412D01*
X187627800Y-117410831D01*
X188317402Y-116721229D01*
X188317402Y-116795042D01*
G36*
X182376696Y-118862222D02*
X182186200Y-118989507D01*
X182186200Y-118945140D01*
X182348916Y-118836416D01*
X182349707Y-118835233D01*
X182376696Y-118862222D01*
X182376696Y-118862222D01*
G37*
X182376696Y-118862222D02*
X182186200Y-118989507D01*
X182186200Y-118945140D01*
X182348916Y-118836416D01*
X182349707Y-118835233D01*
X182376696Y-118862222D01*
G36*
X181139112Y-113953366D02*
X181178788Y-114012746D01*
X181238167Y-114052422D01*
X181238169Y-114052424D01*
X181414036Y-114169935D01*
X181414037Y-114169935D01*
X181414038Y-114169936D01*
X181621488Y-114211200D01*
X181621491Y-114211200D01*
X181691533Y-114225132D01*
X181761575Y-114211200D01*
X183113000Y-114211200D01*
X183113000Y-114257847D01*
X183274375Y-114647442D01*
X183572558Y-114945625D01*
X183785690Y-115033907D01*
X183763000Y-115147978D01*
X183763000Y-115556021D01*
X183839007Y-115938135D01*
X184128543Y-116371457D01*
X184561864Y-116660993D01*
X185073000Y-116762664D01*
X185584135Y-116660993D01*
X186017457Y-116371457D01*
X186306993Y-115938136D01*
X186383000Y-115556022D01*
X186383000Y-115147979D01*
X186350582Y-114985000D01*
X186516092Y-114985000D01*
X186814972Y-114861200D01*
X187815828Y-114861200D01*
X187765001Y-114983908D01*
X187765001Y-115262053D01*
X186463234Y-116563821D01*
X186403854Y-116603498D01*
X186364178Y-116662877D01*
X186364176Y-116662879D01*
X186298480Y-116761200D01*
X186246664Y-116838748D01*
X186205400Y-117046198D01*
X186205400Y-117046202D01*
X186191468Y-117116243D01*
X186205400Y-117186285D01*
X186205401Y-118456190D01*
X184686652Y-118456190D01*
X184616610Y-118442258D01*
X184546568Y-118456190D01*
X184546564Y-118456190D01*
X184472500Y-118470922D01*
X184472500Y-118035750D01*
X184313750Y-117877000D01*
X183477000Y-117877000D01*
X183477000Y-117897000D01*
X183223000Y-117897000D01*
X183223000Y-117877000D01*
X183203000Y-117877000D01*
X183203000Y-117623000D01*
X183223000Y-117623000D01*
X183223000Y-117603000D01*
X183477000Y-117603000D01*
X183477000Y-117623000D01*
X184313750Y-117623000D01*
X184472500Y-117464250D01*
X184472500Y-116923690D01*
X184375827Y-116690301D01*
X184197198Y-116511673D01*
X183963809Y-116415000D01*
X183635750Y-116415000D01*
X183477002Y-116573748D01*
X183477002Y-116415000D01*
X183443771Y-116415000D01*
X183581993Y-116208136D01*
X183683664Y-115697000D01*
X183581993Y-115185864D01*
X183292457Y-114752543D01*
X182859136Y-114463007D01*
X182477022Y-114387000D01*
X182068978Y-114387000D01*
X181686864Y-114463007D01*
X181253543Y-114752543D01*
X180964007Y-115185864D01*
X180882599Y-115595131D01*
X180882599Y-113696853D01*
X181139112Y-113953366D01*
X181139112Y-113953366D01*
G37*
X181139112Y-113953366D02*
X181178788Y-114012746D01*
X181238167Y-114052422D01*
X181238169Y-114052424D01*
X181414036Y-114169935D01*
X181414037Y-114169935D01*
X181414038Y-114169936D01*
X181621488Y-114211200D01*
X181621491Y-114211200D01*
X181691533Y-114225132D01*
X181761575Y-114211200D01*
X183113000Y-114211200D01*
X183113000Y-114257847D01*
X183274375Y-114647442D01*
X183572558Y-114945625D01*
X183785690Y-115033907D01*
X183763000Y-115147978D01*
X183763000Y-115556021D01*
X183839007Y-115938135D01*
X184128543Y-116371457D01*
X184561864Y-116660993D01*
X185073000Y-116762664D01*
X185584135Y-116660993D01*
X186017457Y-116371457D01*
X186306993Y-115938136D01*
X186383000Y-115556022D01*
X186383000Y-115147979D01*
X186350582Y-114985000D01*
X186516092Y-114985000D01*
X186814972Y-114861200D01*
X187815828Y-114861200D01*
X187765001Y-114983908D01*
X187765001Y-115262053D01*
X186463234Y-116563821D01*
X186403854Y-116603498D01*
X186364178Y-116662877D01*
X186364176Y-116662879D01*
X186298480Y-116761200D01*
X186246664Y-116838748D01*
X186205400Y-117046198D01*
X186205400Y-117046202D01*
X186191468Y-117116243D01*
X186205400Y-117186285D01*
X186205401Y-118456190D01*
X184686652Y-118456190D01*
X184616610Y-118442258D01*
X184546568Y-118456190D01*
X184546564Y-118456190D01*
X184472500Y-118470922D01*
X184472500Y-118035750D01*
X184313750Y-117877000D01*
X183477000Y-117877000D01*
X183477000Y-117897000D01*
X183223000Y-117897000D01*
X183223000Y-117877000D01*
X183203000Y-117877000D01*
X183203000Y-117623000D01*
X183223000Y-117623000D01*
X183223000Y-117603000D01*
X183477000Y-117603000D01*
X183477000Y-117623000D01*
X184313750Y-117623000D01*
X184472500Y-117464250D01*
X184472500Y-116923690D01*
X184375827Y-116690301D01*
X184197198Y-116511673D01*
X183963809Y-116415000D01*
X183635750Y-116415000D01*
X183477002Y-116573748D01*
X183477002Y-116415000D01*
X183443771Y-116415000D01*
X183581993Y-116208136D01*
X183683664Y-115697000D01*
X183581993Y-115185864D01*
X183292457Y-114752543D01*
X182859136Y-114463007D01*
X182477022Y-114387000D01*
X182068978Y-114387000D01*
X181686864Y-114463007D01*
X181253543Y-114752543D01*
X180964007Y-115185864D01*
X180882599Y-115595131D01*
X180882599Y-113696853D01*
X181139112Y-113953366D01*
G36*
X193627235Y-111148157D02*
X193792225Y-111180975D01*
X193796250Y-111185000D01*
X193812459Y-111185000D01*
X193838800Y-111190240D01*
X193838801Y-114505410D01*
X193325891Y-115018321D01*
X193027010Y-115142121D01*
X192792121Y-115377010D01*
X192665000Y-115683908D01*
X192665000Y-116016092D01*
X192792121Y-116322990D01*
X192872240Y-116403109D01*
X192800000Y-116417478D01*
X192725000Y-116402560D01*
X192375000Y-116402560D01*
X192300000Y-116417478D01*
X192225000Y-116402560D01*
X191875000Y-116402560D01*
X191850819Y-116407370D01*
X191881970Y-116376219D01*
X191941346Y-116336545D01*
X191981021Y-116277168D01*
X191981025Y-116277164D01*
X192098536Y-116101297D01*
X192098536Y-116101296D01*
X192098537Y-116101295D01*
X192139801Y-115893845D01*
X192139801Y-115893842D01*
X192153733Y-115823800D01*
X192139801Y-115753758D01*
X192139801Y-115393842D01*
X192153733Y-115323800D01*
X192139801Y-115253758D01*
X192139801Y-115022508D01*
X192153733Y-114952466D01*
X192139801Y-114882424D01*
X192139801Y-113114312D01*
X192153733Y-113044270D01*
X192139801Y-112974229D01*
X192139801Y-112974225D01*
X192098537Y-112766775D01*
X192085000Y-112746516D01*
X192085000Y-112433908D01*
X191957879Y-112127010D01*
X191722990Y-111892121D01*
X191671301Y-111870711D01*
X191822990Y-111807879D01*
X191925000Y-111705869D01*
X192077010Y-111857879D01*
X192383908Y-111985000D01*
X192716092Y-111985000D01*
X193022990Y-111857879D01*
X193257879Y-111622990D01*
X193385000Y-111316092D01*
X193385000Y-111165614D01*
X193472765Y-111148157D01*
X193550000Y-111096550D01*
X193627235Y-111148157D01*
X193627235Y-111148157D01*
G37*
X193627235Y-111148157D02*
X193792225Y-111180975D01*
X193796250Y-111185000D01*
X193812459Y-111185000D01*
X193838800Y-111190240D01*
X193838801Y-114505410D01*
X193325891Y-115018321D01*
X193027010Y-115142121D01*
X192792121Y-115377010D01*
X192665000Y-115683908D01*
X192665000Y-116016092D01*
X192792121Y-116322990D01*
X192872240Y-116403109D01*
X192800000Y-116417478D01*
X192725000Y-116402560D01*
X192375000Y-116402560D01*
X192300000Y-116417478D01*
X192225000Y-116402560D01*
X191875000Y-116402560D01*
X191850819Y-116407370D01*
X191881970Y-116376219D01*
X191941346Y-116336545D01*
X191981021Y-116277168D01*
X191981025Y-116277164D01*
X192098536Y-116101297D01*
X192098536Y-116101296D01*
X192098537Y-116101295D01*
X192139801Y-115893845D01*
X192139801Y-115893842D01*
X192153733Y-115823800D01*
X192139801Y-115753758D01*
X192139801Y-115393842D01*
X192153733Y-115323800D01*
X192139801Y-115253758D01*
X192139801Y-115022508D01*
X192153733Y-114952466D01*
X192139801Y-114882424D01*
X192139801Y-113114312D01*
X192153733Y-113044270D01*
X192139801Y-112974229D01*
X192139801Y-112974225D01*
X192098537Y-112766775D01*
X192085000Y-112746516D01*
X192085000Y-112433908D01*
X191957879Y-112127010D01*
X191722990Y-111892121D01*
X191671301Y-111870711D01*
X191822990Y-111807879D01*
X191925000Y-111705869D01*
X192077010Y-111857879D01*
X192383908Y-111985000D01*
X192716092Y-111985000D01*
X193022990Y-111857879D01*
X193257879Y-111622990D01*
X193385000Y-111316092D01*
X193385000Y-111165614D01*
X193472765Y-111148157D01*
X193550000Y-111096550D01*
X193627235Y-111148157D01*
G36*
X202819000Y-113157000D02*
X202839000Y-113157000D01*
X202839000Y-113411000D01*
X202819000Y-113411000D01*
X202819000Y-114247750D01*
X202977750Y-114406500D01*
X203518310Y-114406500D01*
X203751699Y-114309827D01*
X203908025Y-114153500D01*
X204184250Y-114153500D01*
X204332001Y-114005749D01*
X204105000Y-114553778D01*
X204105000Y-114825313D01*
X204024540Y-114744853D01*
X203515494Y-114534000D01*
X202964506Y-114534000D01*
X202511000Y-114721848D01*
X202511000Y-114641908D01*
X202411370Y-114401380D01*
X202565000Y-114247750D01*
X202565000Y-113411000D01*
X202545000Y-113411000D01*
X202545000Y-113157000D01*
X202565000Y-113157000D01*
X202565000Y-113137000D01*
X202819000Y-113137000D01*
X202819000Y-113157000D01*
X202819000Y-113157000D01*
G37*
X202819000Y-113157000D02*
X202839000Y-113157000D01*
X202839000Y-113411000D01*
X202819000Y-113411000D01*
X202819000Y-114247750D01*
X202977750Y-114406500D01*
X203518310Y-114406500D01*
X203751699Y-114309827D01*
X203908025Y-114153500D01*
X204184250Y-114153500D01*
X204332001Y-114005749D01*
X204105000Y-114553778D01*
X204105000Y-114825313D01*
X204024540Y-114744853D01*
X203515494Y-114534000D01*
X202964506Y-114534000D01*
X202511000Y-114721848D01*
X202511000Y-114641908D01*
X202411370Y-114401380D01*
X202565000Y-114247750D01*
X202565000Y-113411000D01*
X202545000Y-113411000D01*
X202545000Y-113157000D01*
X202565000Y-113157000D01*
X202565000Y-113137000D01*
X202819000Y-113137000D01*
X202819000Y-113157000D01*
G36*
X185515000Y-113983908D02*
X185515000Y-114029255D01*
X185233000Y-113973162D01*
X185233000Y-113911200D01*
X185545117Y-113911200D01*
X185515000Y-113983908D01*
X185515000Y-113983908D01*
G37*
X185515000Y-113983908D02*
X185515000Y-114029255D01*
X185233000Y-113973162D01*
X185233000Y-113911200D01*
X185545117Y-113911200D01*
X185515000Y-113983908D01*
G36*
X206046001Y-113244000D02*
X205457250Y-113244000D01*
X205421250Y-113208000D01*
X204597000Y-113208000D01*
X204597000Y-113228000D01*
X204343000Y-113228000D01*
X204343000Y-113208000D01*
X204323000Y-113208000D01*
X204323000Y-112954000D01*
X204343000Y-112954000D01*
X204343000Y-112934000D01*
X204597000Y-112934000D01*
X204597000Y-112954000D01*
X205421250Y-112954000D01*
X205580000Y-112795250D01*
X205580000Y-112517191D01*
X205483327Y-112283802D01*
X205418057Y-112218531D01*
X205526505Y-112056227D01*
X205592440Y-111724750D01*
X205592440Y-111514000D01*
X206046001Y-111514000D01*
X206046001Y-113244000D01*
X206046001Y-113244000D01*
G37*
X206046001Y-113244000D02*
X205457250Y-113244000D01*
X205421250Y-113208000D01*
X204597000Y-113208000D01*
X204597000Y-113228000D01*
X204343000Y-113228000D01*
X204343000Y-113208000D01*
X204323000Y-113208000D01*
X204323000Y-112954000D01*
X204343000Y-112954000D01*
X204343000Y-112934000D01*
X204597000Y-112934000D01*
X204597000Y-112954000D01*
X205421250Y-112954000D01*
X205580000Y-112795250D01*
X205580000Y-112517191D01*
X205483327Y-112283802D01*
X205418057Y-112218531D01*
X205526505Y-112056227D01*
X205592440Y-111724750D01*
X205592440Y-111514000D01*
X206046001Y-111514000D01*
X206046001Y-113244000D01*
G36*
X188906116Y-110351548D02*
X188932560Y-110356808D01*
X188842191Y-110417191D01*
X188701843Y-110627235D01*
X188652560Y-110875000D01*
X188652560Y-111225000D01*
X188665000Y-111287541D01*
X188665000Y-111303750D01*
X188669025Y-111307775D01*
X188679486Y-111360367D01*
X188639563Y-111358694D01*
X188622990Y-111342121D01*
X188485416Y-111285136D01*
X188524310Y-111089600D01*
X188524310Y-111089596D01*
X188538242Y-111019554D01*
X188524310Y-110949512D01*
X188524310Y-110342440D01*
X188892485Y-110342440D01*
X188906116Y-110351548D01*
X188906116Y-110351548D01*
G37*
X188906116Y-110351548D02*
X188932560Y-110356808D01*
X188842191Y-110417191D01*
X188701843Y-110627235D01*
X188652560Y-110875000D01*
X188652560Y-111225000D01*
X188665000Y-111287541D01*
X188665000Y-111303750D01*
X188669025Y-111307775D01*
X188679486Y-111360367D01*
X188639563Y-111358694D01*
X188622990Y-111342121D01*
X188485416Y-111285136D01*
X188524310Y-111089600D01*
X188524310Y-111089596D01*
X188538242Y-111019554D01*
X188524310Y-110949512D01*
X188524310Y-110342440D01*
X188892485Y-110342440D01*
X188906116Y-110351548D01*
G36*
X181686864Y-109730993D02*
X181784802Y-109750474D01*
X181652235Y-109776843D01*
X181600000Y-109811746D01*
X181547765Y-109776843D01*
X181508390Y-109769011D01*
X181508390Y-109611740D01*
X181686864Y-109730993D01*
X181686864Y-109730993D01*
G37*
X181686864Y-109730993D02*
X181784802Y-109750474D01*
X181652235Y-109776843D01*
X181600000Y-109811746D01*
X181547765Y-109776843D01*
X181508390Y-109769011D01*
X181508390Y-109611740D01*
X181686864Y-109730993D01*
G36*
X199745500Y-107315000D02*
X199765500Y-107315000D01*
X199765500Y-107569000D01*
X199745500Y-107569000D01*
X199745500Y-108393250D01*
X199904250Y-108552000D01*
X200182309Y-108552000D01*
X200415698Y-108455327D01*
X200480969Y-108390057D01*
X200643273Y-108498505D01*
X200974750Y-108564440D01*
X201034319Y-108564440D01*
X201006064Y-108606727D01*
X200991776Y-108678560D01*
X199300000Y-108678560D01*
X199286343Y-108681276D01*
X199335000Y-108563809D01*
X199335000Y-108549750D01*
X199491500Y-108393250D01*
X199491500Y-107569000D01*
X199471500Y-107569000D01*
X199471500Y-107315000D01*
X199491500Y-107315000D01*
X199491500Y-107295000D01*
X199745500Y-107295000D01*
X199745500Y-107315000D01*
X199745500Y-107315000D01*
G37*
X199745500Y-107315000D02*
X199765500Y-107315000D01*
X199765500Y-107569000D01*
X199745500Y-107569000D01*
X199745500Y-108393250D01*
X199904250Y-108552000D01*
X200182309Y-108552000D01*
X200415698Y-108455327D01*
X200480969Y-108390057D01*
X200643273Y-108498505D01*
X200974750Y-108564440D01*
X201034319Y-108564440D01*
X201006064Y-108606727D01*
X200991776Y-108678560D01*
X199300000Y-108678560D01*
X199286343Y-108681276D01*
X199335000Y-108563809D01*
X199335000Y-108549750D01*
X199491500Y-108393250D01*
X199491500Y-107569000D01*
X199471500Y-107569000D01*
X199471500Y-107315000D01*
X199491500Y-107315000D01*
X199491500Y-107295000D01*
X199745500Y-107295000D01*
X199745500Y-107315000D01*
G36*
X197384108Y-104783718D02*
X197369965Y-104797860D01*
X197384108Y-104812003D01*
X197204503Y-104991608D01*
X197190360Y-104977465D01*
X196389752Y-105778073D01*
X196459217Y-106020257D01*
X196982662Y-106207004D01*
X197537728Y-106179222D01*
X197921503Y-106020257D01*
X197990967Y-105778075D01*
X198105978Y-105893086D01*
X198127860Y-105871204D01*
X198127860Y-106070710D01*
X198193795Y-106402187D01*
X198381561Y-106683199D01*
X198561448Y-106803395D01*
X198551463Y-106827500D01*
X198285750Y-106827500D01*
X198127000Y-106986250D01*
X198127000Y-107823000D01*
X198147000Y-107823000D01*
X198147000Y-108077000D01*
X198127000Y-108077000D01*
X198127000Y-108097000D01*
X197873000Y-108097000D01*
X197873000Y-108077000D01*
X196058000Y-108077000D01*
X196058000Y-108097000D01*
X195822198Y-108097000D01*
X195835000Y-108066092D01*
X195835000Y-107733908D01*
X195804000Y-107659067D01*
X195804000Y-106773750D01*
X196058000Y-106773750D01*
X196058000Y-107823000D01*
X197873000Y-107823000D01*
X197873000Y-106986250D01*
X197714250Y-106827500D01*
X197173690Y-106827500D01*
X196966382Y-106913370D01*
X196956827Y-106890301D01*
X196778198Y-106711673D01*
X196544809Y-106615000D01*
X196216750Y-106615000D01*
X196058000Y-106773750D01*
X195804000Y-106773750D01*
X195645250Y-106615000D01*
X195317191Y-106615000D01*
X195083802Y-106711673D01*
X194930707Y-106864767D01*
X194929916Y-106863584D01*
X194640794Y-106670398D01*
X194299750Y-106602560D01*
X193812250Y-106602560D01*
X193471206Y-106670398D01*
X193182084Y-106863584D01*
X192989200Y-107152254D01*
X192989200Y-106779915D01*
X193136895Y-106750537D01*
X193372145Y-106593347D01*
X193392289Y-106563199D01*
X193526180Y-106563199D01*
X193596221Y-106577131D01*
X193666262Y-106563199D01*
X193666267Y-106563199D01*
X193873717Y-106521935D01*
X194108967Y-106364745D01*
X194148645Y-106305363D01*
X194292342Y-106161666D01*
X194372479Y-106194860D01*
X194928241Y-106194860D01*
X195441697Y-105982180D01*
X195834680Y-105589197D01*
X195913788Y-105398213D01*
X195967963Y-105529003D01*
X196210147Y-105598468D01*
X197010755Y-104797860D01*
X196996613Y-104783718D01*
X197176218Y-104604113D01*
X197190360Y-104618255D01*
X197204503Y-104604113D01*
X197384108Y-104783718D01*
X197384108Y-104783718D01*
G37*
X197384108Y-104783718D02*
X197369965Y-104797860D01*
X197384108Y-104812003D01*
X197204503Y-104991608D01*
X197190360Y-104977465D01*
X196389752Y-105778073D01*
X196459217Y-106020257D01*
X196982662Y-106207004D01*
X197537728Y-106179222D01*
X197921503Y-106020257D01*
X197990967Y-105778075D01*
X198105978Y-105893086D01*
X198127860Y-105871204D01*
X198127860Y-106070710D01*
X198193795Y-106402187D01*
X198381561Y-106683199D01*
X198561448Y-106803395D01*
X198551463Y-106827500D01*
X198285750Y-106827500D01*
X198127000Y-106986250D01*
X198127000Y-107823000D01*
X198147000Y-107823000D01*
X198147000Y-108077000D01*
X198127000Y-108077000D01*
X198127000Y-108097000D01*
X197873000Y-108097000D01*
X197873000Y-108077000D01*
X196058000Y-108077000D01*
X196058000Y-108097000D01*
X195822198Y-108097000D01*
X195835000Y-108066092D01*
X195835000Y-107733908D01*
X195804000Y-107659067D01*
X195804000Y-106773750D01*
X196058000Y-106773750D01*
X196058000Y-107823000D01*
X197873000Y-107823000D01*
X197873000Y-106986250D01*
X197714250Y-106827500D01*
X197173690Y-106827500D01*
X196966382Y-106913370D01*
X196956827Y-106890301D01*
X196778198Y-106711673D01*
X196544809Y-106615000D01*
X196216750Y-106615000D01*
X196058000Y-106773750D01*
X195804000Y-106773750D01*
X195645250Y-106615000D01*
X195317191Y-106615000D01*
X195083802Y-106711673D01*
X194930707Y-106864767D01*
X194929916Y-106863584D01*
X194640794Y-106670398D01*
X194299750Y-106602560D01*
X193812250Y-106602560D01*
X193471206Y-106670398D01*
X193182084Y-106863584D01*
X192989200Y-107152254D01*
X192989200Y-106779915D01*
X193136895Y-106750537D01*
X193372145Y-106593347D01*
X193392289Y-106563199D01*
X193526180Y-106563199D01*
X193596221Y-106577131D01*
X193666262Y-106563199D01*
X193666267Y-106563199D01*
X193873717Y-106521935D01*
X194108967Y-106364745D01*
X194148645Y-106305363D01*
X194292342Y-106161666D01*
X194372479Y-106194860D01*
X194928241Y-106194860D01*
X195441697Y-105982180D01*
X195834680Y-105589197D01*
X195913788Y-105398213D01*
X195967963Y-105529003D01*
X196210147Y-105598468D01*
X197010755Y-104797860D01*
X196996613Y-104783718D01*
X197176218Y-104604113D01*
X197190360Y-104618255D01*
X197204503Y-104604113D01*
X197384108Y-104783718D01*
G36*
X185445400Y-106015000D02*
X185465400Y-106015000D01*
X185465400Y-106269000D01*
X185445400Y-106269000D01*
X185445400Y-106289000D01*
X185191400Y-106289000D01*
X185191400Y-106269000D01*
X185171400Y-106269000D01*
X185171400Y-106015000D01*
X185191400Y-106015000D01*
X185191400Y-105995000D01*
X185445400Y-105995000D01*
X185445400Y-106015000D01*
X185445400Y-106015000D01*
G37*
X185445400Y-106015000D02*
X185465400Y-106015000D01*
X185465400Y-106269000D01*
X185445400Y-106269000D01*
X185445400Y-106289000D01*
X185191400Y-106289000D01*
X185191400Y-106269000D01*
X185171400Y-106269000D01*
X185171400Y-106015000D01*
X185191400Y-106015000D01*
X185191400Y-105995000D01*
X185445400Y-105995000D01*
X185445400Y-106015000D01*
G36*
X187606940Y-104548700D02*
X187626940Y-104548700D01*
X187626940Y-104802700D01*
X187606940Y-104802700D01*
X187606940Y-104822700D01*
X187352940Y-104822700D01*
X187352940Y-104802700D01*
X187332940Y-104802700D01*
X187332940Y-104548700D01*
X187352940Y-104548700D01*
X187352940Y-104528700D01*
X187606940Y-104528700D01*
X187606940Y-104548700D01*
X187606940Y-104548700D01*
G37*
X187606940Y-104548700D02*
X187626940Y-104548700D01*
X187626940Y-104802700D01*
X187606940Y-104802700D01*
X187606940Y-104822700D01*
X187352940Y-104822700D01*
X187352940Y-104802700D01*
X187332940Y-104802700D01*
X187332940Y-104548700D01*
X187352940Y-104548700D01*
X187352940Y-104528700D01*
X187606940Y-104528700D01*
X187606940Y-104548700D01*
G04 #@! TD*
M02*
