G04 #@! TF.GenerationSoftware,KiCad,Pcbnew,(5.0.1)-rc2*
G04 #@! TF.CreationDate,2019-05-10T17:14:01-07:00*
G04 #@! TF.ProjectId,bullercounter,62756C6C6572636F756E7465722E6B69,rev?*
G04 #@! TF.SameCoordinates,Original*
G04 #@! TF.FileFunction,Copper,L1,Top,Signal*
G04 #@! TF.FilePolarity,Positive*
%FSLAX46Y46*%
G04 Gerber Fmt 4.6, Leading zero omitted, Abs format (unit mm)*
G04 Created by KiCad (PCBNEW (5.0.1)-rc2) date 5/10/2019 5:14:01 PM*
%MOMM*%
%LPD*%
G01*
G04 APERTURE LIST*
G04 #@! TA.AperFunction,ComponentPad*
%ADD10C,1.000000*%
G04 #@! TD*
G04 #@! TA.AperFunction,WasherPad*
%ADD11C,1.500000*%
G04 #@! TD*
G04 #@! TA.AperFunction,ComponentPad*
%ADD12C,2.000000*%
G04 #@! TD*
G04 #@! TA.AperFunction,ComponentPad*
%ADD13O,1.350000X1.500000*%
G04 #@! TD*
G04 #@! TA.AperFunction,SMDPad,CuDef*
%ADD14R,2.500000X1.430000*%
G04 #@! TD*
G04 #@! TA.AperFunction,ComponentPad*
%ADD15O,1.500000X1.350000*%
G04 #@! TD*
G04 #@! TA.AperFunction,SMDPad,CuDef*
%ADD16R,2.000000X0.400000*%
G04 #@! TD*
G04 #@! TA.AperFunction,Conductor*
%ADD17C,0.100000*%
G04 #@! TD*
G04 #@! TA.AperFunction,SMDPad,CuDef*
%ADD18C,0.975000*%
G04 #@! TD*
G04 #@! TA.AperFunction,SMDPad,CuDef*
%ADD19R,1.000000X1.000000*%
G04 #@! TD*
G04 #@! TA.AperFunction,SMDPad,CuDef*
%ADD20R,0.740000X2.400000*%
G04 #@! TD*
G04 #@! TA.AperFunction,SMDPad,CuDef*
%ADD21C,0.875000*%
G04 #@! TD*
G04 #@! TA.AperFunction,SMDPad,CuDef*
%ADD22R,0.650000X1.060000*%
G04 #@! TD*
G04 #@! TA.AperFunction,SMDPad,CuDef*
%ADD23R,1.060000X0.650000*%
G04 #@! TD*
G04 #@! TA.AperFunction,ComponentPad*
%ADD24C,1.700000*%
G04 #@! TD*
G04 #@! TA.AperFunction,ComponentPad*
%ADD25O,1.700000X2.000000*%
G04 #@! TD*
G04 #@! TA.AperFunction,SMDPad,CuDef*
%ADD26R,1.000000X1.500000*%
G04 #@! TD*
G04 #@! TA.AperFunction,ComponentPad*
%ADD27C,1.524000*%
G04 #@! TD*
G04 #@! TA.AperFunction,SMDPad,CuDef*
%ADD28R,1.500000X1.000000*%
G04 #@! TD*
G04 #@! TA.AperFunction,ComponentPad*
%ADD29R,1.700000X1.700000*%
G04 #@! TD*
G04 #@! TA.AperFunction,ComponentPad*
%ADD30O,1.700000X1.700000*%
G04 #@! TD*
G04 #@! TA.AperFunction,ViaPad*
%ADD31C,0.400000*%
G04 #@! TD*
G04 #@! TA.AperFunction,ViaPad*
%ADD32C,0.800000*%
G04 #@! TD*
G04 #@! TA.AperFunction,Conductor*
%ADD33C,0.152400*%
G04 #@! TD*
G04 #@! TA.AperFunction,Conductor*
%ADD34C,0.250000*%
G04 #@! TD*
G04 #@! TA.AperFunction,Conductor*
%ADD35C,0.254000*%
G04 #@! TD*
G04 APERTURE END LIST*
D10*
G04 #@! TO.P,U5,1*
G04 #@! TO.N,Net-(C1-Pad2)*
X198120000Y-119166000D03*
G04 #@! TO.P,U5,2*
G04 #@! TO.N,BattRtn*
X198120000Y-121666000D03*
G04 #@! TD*
D11*
G04 #@! TO.P,SW4,*
G04 #@! TO.N,*
X200684000Y-126615820D03*
X193604000Y-126615820D03*
D12*
G04 #@! TO.P,SW4,2*
G04 #@! TO.N,Fun_Btn_2*
X199644000Y-129115820D03*
G04 #@! TO.P,SW4,1*
G04 #@! TO.N,Vdd*
X194644000Y-129115820D03*
G04 #@! TD*
D11*
G04 #@! TO.P,SW5,*
G04 #@! TO.N,*
X203240000Y-118872000D03*
X203240000Y-125952000D03*
D12*
G04 #@! TO.P,SW5,2*
G04 #@! TO.N,Fun_Btn_3*
X205740000Y-119912000D03*
G04 #@! TO.P,SW5,1*
G04 #@! TO.N,Vdd*
X205740000Y-124912000D03*
G04 #@! TD*
D11*
G04 #@! TO.P,SW3,*
G04 #@! TO.N,*
X203240000Y-108839000D03*
X203240000Y-115919000D03*
D12*
G04 #@! TO.P,SW3,2*
G04 #@! TO.N,Fun_Btn_1*
X205740000Y-109879000D03*
G04 #@! TO.P,SW3,1*
G04 #@! TO.N,Vdd*
X205740000Y-114879000D03*
G04 #@! TD*
D13*
G04 #@! TO.P,J1,*
G04 #@! TO.N,*
X185073000Y-115352000D03*
X185073000Y-108752000D03*
D14*
X182003000Y-113952000D03*
D15*
X182273000Y-115697000D03*
D16*
G04 #@! TO.P,J1,1*
G04 #@! TO.N,USB_PWR*
X185403000Y-110802000D03*
G04 #@! TO.P,J1,2*
G04 #@! TO.N,/USB_DM*
X185403000Y-111452000D03*
G04 #@! TO.P,J1,3*
G04 #@! TO.N,/USB_DP*
X185403000Y-112102000D03*
G04 #@! TO.P,J1,4*
G04 #@! TO.N,Net-(J1-Pad4)*
X185403000Y-112752000D03*
G04 #@! TO.P,J1,5*
G04 #@! TO.N,BattRtn*
X185403000Y-113402000D03*
D15*
G04 #@! TO.P,J1,*
G04 #@! TO.N,*
X182273000Y-108497000D03*
D14*
G04 #@! TO.P,J1,6*
G04 #@! TO.N,Net-(J1-Pad6)*
X182003000Y-110267000D03*
G04 #@! TD*
D17*
G04 #@! TO.N,Net-(D1-Pad1)*
G04 #@! TO.C,D1*
G36*
X193067642Y-107301174D02*
X193091303Y-107304684D01*
X193114507Y-107310496D01*
X193137029Y-107318554D01*
X193158653Y-107328782D01*
X193179170Y-107341079D01*
X193198383Y-107355329D01*
X193216107Y-107371393D01*
X193232171Y-107389117D01*
X193246421Y-107408330D01*
X193258718Y-107428847D01*
X193268946Y-107450471D01*
X193277004Y-107472993D01*
X193282816Y-107496197D01*
X193286326Y-107519858D01*
X193287500Y-107543750D01*
X193287500Y-108456250D01*
X193286326Y-108480142D01*
X193282816Y-108503803D01*
X193277004Y-108527007D01*
X193268946Y-108549529D01*
X193258718Y-108571153D01*
X193246421Y-108591670D01*
X193232171Y-108610883D01*
X193216107Y-108628607D01*
X193198383Y-108644671D01*
X193179170Y-108658921D01*
X193158653Y-108671218D01*
X193137029Y-108681446D01*
X193114507Y-108689504D01*
X193091303Y-108695316D01*
X193067642Y-108698826D01*
X193043750Y-108700000D01*
X192556250Y-108700000D01*
X192532358Y-108698826D01*
X192508697Y-108695316D01*
X192485493Y-108689504D01*
X192462971Y-108681446D01*
X192441347Y-108671218D01*
X192420830Y-108658921D01*
X192401617Y-108644671D01*
X192383893Y-108628607D01*
X192367829Y-108610883D01*
X192353579Y-108591670D01*
X192341282Y-108571153D01*
X192331054Y-108549529D01*
X192322996Y-108527007D01*
X192317184Y-108503803D01*
X192313674Y-108480142D01*
X192312500Y-108456250D01*
X192312500Y-107543750D01*
X192313674Y-107519858D01*
X192317184Y-107496197D01*
X192322996Y-107472993D01*
X192331054Y-107450471D01*
X192341282Y-107428847D01*
X192353579Y-107408330D01*
X192367829Y-107389117D01*
X192383893Y-107371393D01*
X192401617Y-107355329D01*
X192420830Y-107341079D01*
X192441347Y-107328782D01*
X192462971Y-107318554D01*
X192485493Y-107310496D01*
X192508697Y-107304684D01*
X192532358Y-107301174D01*
X192556250Y-107300000D01*
X193043750Y-107300000D01*
X193067642Y-107301174D01*
X193067642Y-107301174D01*
G37*
D18*
G04 #@! TD*
G04 #@! TO.P,D1,1*
G04 #@! TO.N,Net-(D1-Pad1)*
X192800000Y-108000000D03*
D17*
G04 #@! TO.N,LED1_P2*
G04 #@! TO.C,D1*
G36*
X191192642Y-107301174D02*
X191216303Y-107304684D01*
X191239507Y-107310496D01*
X191262029Y-107318554D01*
X191283653Y-107328782D01*
X191304170Y-107341079D01*
X191323383Y-107355329D01*
X191341107Y-107371393D01*
X191357171Y-107389117D01*
X191371421Y-107408330D01*
X191383718Y-107428847D01*
X191393946Y-107450471D01*
X191402004Y-107472993D01*
X191407816Y-107496197D01*
X191411326Y-107519858D01*
X191412500Y-107543750D01*
X191412500Y-108456250D01*
X191411326Y-108480142D01*
X191407816Y-108503803D01*
X191402004Y-108527007D01*
X191393946Y-108549529D01*
X191383718Y-108571153D01*
X191371421Y-108591670D01*
X191357171Y-108610883D01*
X191341107Y-108628607D01*
X191323383Y-108644671D01*
X191304170Y-108658921D01*
X191283653Y-108671218D01*
X191262029Y-108681446D01*
X191239507Y-108689504D01*
X191216303Y-108695316D01*
X191192642Y-108698826D01*
X191168750Y-108700000D01*
X190681250Y-108700000D01*
X190657358Y-108698826D01*
X190633697Y-108695316D01*
X190610493Y-108689504D01*
X190587971Y-108681446D01*
X190566347Y-108671218D01*
X190545830Y-108658921D01*
X190526617Y-108644671D01*
X190508893Y-108628607D01*
X190492829Y-108610883D01*
X190478579Y-108591670D01*
X190466282Y-108571153D01*
X190456054Y-108549529D01*
X190447996Y-108527007D01*
X190442184Y-108503803D01*
X190438674Y-108480142D01*
X190437500Y-108456250D01*
X190437500Y-107543750D01*
X190438674Y-107519858D01*
X190442184Y-107496197D01*
X190447996Y-107472993D01*
X190456054Y-107450471D01*
X190466282Y-107428847D01*
X190478579Y-107408330D01*
X190492829Y-107389117D01*
X190508893Y-107371393D01*
X190526617Y-107355329D01*
X190545830Y-107341079D01*
X190566347Y-107328782D01*
X190587971Y-107318554D01*
X190610493Y-107310496D01*
X190633697Y-107304684D01*
X190657358Y-107301174D01*
X190681250Y-107300000D01*
X191168750Y-107300000D01*
X191192642Y-107301174D01*
X191192642Y-107301174D01*
G37*
D18*
G04 #@! TD*
G04 #@! TO.P,D1,2*
G04 #@! TO.N,LED1_P2*
X190925000Y-108000000D03*
D19*
G04 #@! TO.P,D2,2*
G04 #@! TO.N,USB_PWR*
X186250000Y-117400000D03*
G04 #@! TO.P,D2,1*
G04 #@! TO.N,BattPwr*
X183750000Y-117400000D03*
G04 #@! TD*
D20*
G04 #@! TO.P,J2,1*
G04 #@! TO.N,Vdd*
X199540000Y-109650000D03*
G04 #@! TO.P,J2,2*
G04 #@! TO.N,/SWDIO*
X199540000Y-113550000D03*
G04 #@! TO.P,J2,3*
G04 #@! TO.N,BattRtn*
X198270000Y-109650000D03*
G04 #@! TO.P,J2,4*
G04 #@! TO.N,/SWDCLK*
X198270000Y-113550000D03*
G04 #@! TO.P,J2,5*
G04 #@! TO.N,BattRtn*
X197000000Y-109650000D03*
G04 #@! TO.P,J2,6*
G04 #@! TO.N,/SWO*
X197000000Y-113550000D03*
G04 #@! TO.P,J2,7*
G04 #@! TO.N,Net-(J2-Pad7)*
X195730000Y-109650000D03*
G04 #@! TO.P,J2,8*
G04 #@! TO.N,Net-(J2-Pad8)*
X195730000Y-113550000D03*
G04 #@! TO.P,J2,9*
G04 #@! TO.N,Net-(J2-Pad9)*
X194460000Y-109650000D03*
G04 #@! TO.P,J2,10*
G04 #@! TO.N,/RESET*
X194460000Y-113550000D03*
G04 #@! TD*
D17*
G04 #@! TO.N,Net-(L4-Pad1)*
G04 #@! TO.C,L4*
G36*
X192680142Y-113038674D02*
X192703803Y-113042184D01*
X192727007Y-113047996D01*
X192749529Y-113056054D01*
X192771153Y-113066282D01*
X192791670Y-113078579D01*
X192810883Y-113092829D01*
X192828607Y-113108893D01*
X192844671Y-113126617D01*
X192858921Y-113145830D01*
X192871218Y-113166347D01*
X192881446Y-113187971D01*
X192889504Y-113210493D01*
X192895316Y-113233697D01*
X192898826Y-113257358D01*
X192900000Y-113281250D01*
X192900000Y-113768750D01*
X192898826Y-113792642D01*
X192895316Y-113816303D01*
X192889504Y-113839507D01*
X192881446Y-113862029D01*
X192871218Y-113883653D01*
X192858921Y-113904170D01*
X192844671Y-113923383D01*
X192828607Y-113941107D01*
X192810883Y-113957171D01*
X192791670Y-113971421D01*
X192771153Y-113983718D01*
X192749529Y-113993946D01*
X192727007Y-114002004D01*
X192703803Y-114007816D01*
X192680142Y-114011326D01*
X192656250Y-114012500D01*
X191743750Y-114012500D01*
X191719858Y-114011326D01*
X191696197Y-114007816D01*
X191672993Y-114002004D01*
X191650471Y-113993946D01*
X191628847Y-113983718D01*
X191608330Y-113971421D01*
X191589117Y-113957171D01*
X191571393Y-113941107D01*
X191555329Y-113923383D01*
X191541079Y-113904170D01*
X191528782Y-113883653D01*
X191518554Y-113862029D01*
X191510496Y-113839507D01*
X191504684Y-113816303D01*
X191501174Y-113792642D01*
X191500000Y-113768750D01*
X191500000Y-113281250D01*
X191501174Y-113257358D01*
X191504684Y-113233697D01*
X191510496Y-113210493D01*
X191518554Y-113187971D01*
X191528782Y-113166347D01*
X191541079Y-113145830D01*
X191555329Y-113126617D01*
X191571393Y-113108893D01*
X191589117Y-113092829D01*
X191608330Y-113078579D01*
X191628847Y-113066282D01*
X191650471Y-113056054D01*
X191672993Y-113047996D01*
X191696197Y-113042184D01*
X191719858Y-113038674D01*
X191743750Y-113037500D01*
X192656250Y-113037500D01*
X192680142Y-113038674D01*
X192680142Y-113038674D01*
G37*
D18*
G04 #@! TD*
G04 #@! TO.P,L4,1*
G04 #@! TO.N,Net-(L4-Pad1)*
X192200000Y-113525000D03*
D17*
G04 #@! TO.N,Vdd*
G04 #@! TO.C,L4*
G36*
X192680142Y-114913674D02*
X192703803Y-114917184D01*
X192727007Y-114922996D01*
X192749529Y-114931054D01*
X192771153Y-114941282D01*
X192791670Y-114953579D01*
X192810883Y-114967829D01*
X192828607Y-114983893D01*
X192844671Y-115001617D01*
X192858921Y-115020830D01*
X192871218Y-115041347D01*
X192881446Y-115062971D01*
X192889504Y-115085493D01*
X192895316Y-115108697D01*
X192898826Y-115132358D01*
X192900000Y-115156250D01*
X192900000Y-115643750D01*
X192898826Y-115667642D01*
X192895316Y-115691303D01*
X192889504Y-115714507D01*
X192881446Y-115737029D01*
X192871218Y-115758653D01*
X192858921Y-115779170D01*
X192844671Y-115798383D01*
X192828607Y-115816107D01*
X192810883Y-115832171D01*
X192791670Y-115846421D01*
X192771153Y-115858718D01*
X192749529Y-115868946D01*
X192727007Y-115877004D01*
X192703803Y-115882816D01*
X192680142Y-115886326D01*
X192656250Y-115887500D01*
X191743750Y-115887500D01*
X191719858Y-115886326D01*
X191696197Y-115882816D01*
X191672993Y-115877004D01*
X191650471Y-115868946D01*
X191628847Y-115858718D01*
X191608330Y-115846421D01*
X191589117Y-115832171D01*
X191571393Y-115816107D01*
X191555329Y-115798383D01*
X191541079Y-115779170D01*
X191528782Y-115758653D01*
X191518554Y-115737029D01*
X191510496Y-115714507D01*
X191504684Y-115691303D01*
X191501174Y-115667642D01*
X191500000Y-115643750D01*
X191500000Y-115156250D01*
X191501174Y-115132358D01*
X191504684Y-115108697D01*
X191510496Y-115085493D01*
X191518554Y-115062971D01*
X191528782Y-115041347D01*
X191541079Y-115020830D01*
X191555329Y-115001617D01*
X191571393Y-114983893D01*
X191589117Y-114967829D01*
X191608330Y-114953579D01*
X191628847Y-114941282D01*
X191650471Y-114931054D01*
X191672993Y-114922996D01*
X191696197Y-114917184D01*
X191719858Y-114913674D01*
X191743750Y-114912500D01*
X192656250Y-114912500D01*
X192680142Y-114913674D01*
X192680142Y-114913674D01*
G37*
D18*
G04 #@! TD*
G04 #@! TO.P,L4,2*
G04 #@! TO.N,Vdd*
X192200000Y-115400000D03*
D17*
G04 #@! TO.N,Net-(C3-Pad2)*
G04 #@! TO.C,R7*
G36*
X201445691Y-108783553D02*
X201466926Y-108786703D01*
X201487750Y-108791919D01*
X201507962Y-108799151D01*
X201527368Y-108808330D01*
X201545781Y-108819366D01*
X201563024Y-108832154D01*
X201578930Y-108846570D01*
X201593346Y-108862476D01*
X201606134Y-108879719D01*
X201617170Y-108898132D01*
X201626349Y-108917538D01*
X201633581Y-108937750D01*
X201638797Y-108958574D01*
X201641947Y-108979809D01*
X201643000Y-109001250D01*
X201643000Y-109438750D01*
X201641947Y-109460191D01*
X201638797Y-109481426D01*
X201633581Y-109502250D01*
X201626349Y-109522462D01*
X201617170Y-109541868D01*
X201606134Y-109560281D01*
X201593346Y-109577524D01*
X201578930Y-109593430D01*
X201563024Y-109607846D01*
X201545781Y-109620634D01*
X201527368Y-109631670D01*
X201507962Y-109640849D01*
X201487750Y-109648081D01*
X201466926Y-109653297D01*
X201445691Y-109656447D01*
X201424250Y-109657500D01*
X200911750Y-109657500D01*
X200890309Y-109656447D01*
X200869074Y-109653297D01*
X200848250Y-109648081D01*
X200828038Y-109640849D01*
X200808632Y-109631670D01*
X200790219Y-109620634D01*
X200772976Y-109607846D01*
X200757070Y-109593430D01*
X200742654Y-109577524D01*
X200729866Y-109560281D01*
X200718830Y-109541868D01*
X200709651Y-109522462D01*
X200702419Y-109502250D01*
X200697203Y-109481426D01*
X200694053Y-109460191D01*
X200693000Y-109438750D01*
X200693000Y-109001250D01*
X200694053Y-108979809D01*
X200697203Y-108958574D01*
X200702419Y-108937750D01*
X200709651Y-108917538D01*
X200718830Y-108898132D01*
X200729866Y-108879719D01*
X200742654Y-108862476D01*
X200757070Y-108846570D01*
X200772976Y-108832154D01*
X200790219Y-108819366D01*
X200808632Y-108808330D01*
X200828038Y-108799151D01*
X200848250Y-108791919D01*
X200869074Y-108786703D01*
X200890309Y-108783553D01*
X200911750Y-108782500D01*
X201424250Y-108782500D01*
X201445691Y-108783553D01*
X201445691Y-108783553D01*
G37*
D21*
G04 #@! TD*
G04 #@! TO.P,R7,1*
G04 #@! TO.N,Net-(C3-Pad2)*
X201168000Y-109220000D03*
D17*
G04 #@! TO.N,Net-(C1-Pad1)*
G04 #@! TO.C,R7*
G36*
X201445691Y-107208553D02*
X201466926Y-107211703D01*
X201487750Y-107216919D01*
X201507962Y-107224151D01*
X201527368Y-107233330D01*
X201545781Y-107244366D01*
X201563024Y-107257154D01*
X201578930Y-107271570D01*
X201593346Y-107287476D01*
X201606134Y-107304719D01*
X201617170Y-107323132D01*
X201626349Y-107342538D01*
X201633581Y-107362750D01*
X201638797Y-107383574D01*
X201641947Y-107404809D01*
X201643000Y-107426250D01*
X201643000Y-107863750D01*
X201641947Y-107885191D01*
X201638797Y-107906426D01*
X201633581Y-107927250D01*
X201626349Y-107947462D01*
X201617170Y-107966868D01*
X201606134Y-107985281D01*
X201593346Y-108002524D01*
X201578930Y-108018430D01*
X201563024Y-108032846D01*
X201545781Y-108045634D01*
X201527368Y-108056670D01*
X201507962Y-108065849D01*
X201487750Y-108073081D01*
X201466926Y-108078297D01*
X201445691Y-108081447D01*
X201424250Y-108082500D01*
X200911750Y-108082500D01*
X200890309Y-108081447D01*
X200869074Y-108078297D01*
X200848250Y-108073081D01*
X200828038Y-108065849D01*
X200808632Y-108056670D01*
X200790219Y-108045634D01*
X200772976Y-108032846D01*
X200757070Y-108018430D01*
X200742654Y-108002524D01*
X200729866Y-107985281D01*
X200718830Y-107966868D01*
X200709651Y-107947462D01*
X200702419Y-107927250D01*
X200697203Y-107906426D01*
X200694053Y-107885191D01*
X200693000Y-107863750D01*
X200693000Y-107426250D01*
X200694053Y-107404809D01*
X200697203Y-107383574D01*
X200702419Y-107362750D01*
X200709651Y-107342538D01*
X200718830Y-107323132D01*
X200729866Y-107304719D01*
X200742654Y-107287476D01*
X200757070Y-107271570D01*
X200772976Y-107257154D01*
X200790219Y-107244366D01*
X200808632Y-107233330D01*
X200828038Y-107224151D01*
X200848250Y-107216919D01*
X200869074Y-107211703D01*
X200890309Y-107208553D01*
X200911750Y-107207500D01*
X201424250Y-107207500D01*
X201445691Y-107208553D01*
X201445691Y-107208553D01*
G37*
D21*
G04 #@! TD*
G04 #@! TO.P,R7,2*
G04 #@! TO.N,Net-(C1-Pad1)*
X201168000Y-107645000D03*
D17*
G04 #@! TO.N,Audio_out*
G04 #@! TO.C,R10*
G36*
X199579191Y-115350053D02*
X199600426Y-115353203D01*
X199621250Y-115358419D01*
X199641462Y-115365651D01*
X199660868Y-115374830D01*
X199679281Y-115385866D01*
X199696524Y-115398654D01*
X199712430Y-115413070D01*
X199726846Y-115428976D01*
X199739634Y-115446219D01*
X199750670Y-115464632D01*
X199759849Y-115484038D01*
X199767081Y-115504250D01*
X199772297Y-115525074D01*
X199775447Y-115546309D01*
X199776500Y-115567750D01*
X199776500Y-116080250D01*
X199775447Y-116101691D01*
X199772297Y-116122926D01*
X199767081Y-116143750D01*
X199759849Y-116163962D01*
X199750670Y-116183368D01*
X199739634Y-116201781D01*
X199726846Y-116219024D01*
X199712430Y-116234930D01*
X199696524Y-116249346D01*
X199679281Y-116262134D01*
X199660868Y-116273170D01*
X199641462Y-116282349D01*
X199621250Y-116289581D01*
X199600426Y-116294797D01*
X199579191Y-116297947D01*
X199557750Y-116299000D01*
X199120250Y-116299000D01*
X199098809Y-116297947D01*
X199077574Y-116294797D01*
X199056750Y-116289581D01*
X199036538Y-116282349D01*
X199017132Y-116273170D01*
X198998719Y-116262134D01*
X198981476Y-116249346D01*
X198965570Y-116234930D01*
X198951154Y-116219024D01*
X198938366Y-116201781D01*
X198927330Y-116183368D01*
X198918151Y-116163962D01*
X198910919Y-116143750D01*
X198905703Y-116122926D01*
X198902553Y-116101691D01*
X198901500Y-116080250D01*
X198901500Y-115567750D01*
X198902553Y-115546309D01*
X198905703Y-115525074D01*
X198910919Y-115504250D01*
X198918151Y-115484038D01*
X198927330Y-115464632D01*
X198938366Y-115446219D01*
X198951154Y-115428976D01*
X198965570Y-115413070D01*
X198981476Y-115398654D01*
X198998719Y-115385866D01*
X199017132Y-115374830D01*
X199036538Y-115365651D01*
X199056750Y-115358419D01*
X199077574Y-115353203D01*
X199098809Y-115350053D01*
X199120250Y-115349000D01*
X199557750Y-115349000D01*
X199579191Y-115350053D01*
X199579191Y-115350053D01*
G37*
D21*
G04 #@! TD*
G04 #@! TO.P,R10,2*
G04 #@! TO.N,Audio_out*
X199339000Y-115824000D03*
D17*
G04 #@! TO.N,Net-(C3-Pad2)*
G04 #@! TO.C,R10*
G36*
X201154191Y-115350053D02*
X201175426Y-115353203D01*
X201196250Y-115358419D01*
X201216462Y-115365651D01*
X201235868Y-115374830D01*
X201254281Y-115385866D01*
X201271524Y-115398654D01*
X201287430Y-115413070D01*
X201301846Y-115428976D01*
X201314634Y-115446219D01*
X201325670Y-115464632D01*
X201334849Y-115484038D01*
X201342081Y-115504250D01*
X201347297Y-115525074D01*
X201350447Y-115546309D01*
X201351500Y-115567750D01*
X201351500Y-116080250D01*
X201350447Y-116101691D01*
X201347297Y-116122926D01*
X201342081Y-116143750D01*
X201334849Y-116163962D01*
X201325670Y-116183368D01*
X201314634Y-116201781D01*
X201301846Y-116219024D01*
X201287430Y-116234930D01*
X201271524Y-116249346D01*
X201254281Y-116262134D01*
X201235868Y-116273170D01*
X201216462Y-116282349D01*
X201196250Y-116289581D01*
X201175426Y-116294797D01*
X201154191Y-116297947D01*
X201132750Y-116299000D01*
X200695250Y-116299000D01*
X200673809Y-116297947D01*
X200652574Y-116294797D01*
X200631750Y-116289581D01*
X200611538Y-116282349D01*
X200592132Y-116273170D01*
X200573719Y-116262134D01*
X200556476Y-116249346D01*
X200540570Y-116234930D01*
X200526154Y-116219024D01*
X200513366Y-116201781D01*
X200502330Y-116183368D01*
X200493151Y-116163962D01*
X200485919Y-116143750D01*
X200480703Y-116122926D01*
X200477553Y-116101691D01*
X200476500Y-116080250D01*
X200476500Y-115567750D01*
X200477553Y-115546309D01*
X200480703Y-115525074D01*
X200485919Y-115504250D01*
X200493151Y-115484038D01*
X200502330Y-115464632D01*
X200513366Y-115446219D01*
X200526154Y-115428976D01*
X200540570Y-115413070D01*
X200556476Y-115398654D01*
X200573719Y-115385866D01*
X200592132Y-115374830D01*
X200611538Y-115365651D01*
X200631750Y-115358419D01*
X200652574Y-115353203D01*
X200673809Y-115350053D01*
X200695250Y-115349000D01*
X201132750Y-115349000D01*
X201154191Y-115350053D01*
X201154191Y-115350053D01*
G37*
D21*
G04 #@! TD*
G04 #@! TO.P,R10,1*
G04 #@! TO.N,Net-(C3-Pad2)*
X200914000Y-115824000D03*
D22*
G04 #@! TO.P,U1,5*
G04 #@! TO.N,Vdd*
X199499180Y-104040760D03*
G04 #@! TO.P,U1,4*
G04 #@! TO.N,Net-(C3-Pad2)*
X201399180Y-104040760D03*
G04 #@! TO.P,U1,3*
G04 #@! TO.N,Net-(C2-Pad1)*
X201399180Y-106240760D03*
G04 #@! TO.P,U1,2*
G04 #@! TO.N,BattRtn*
X200449180Y-106240760D03*
G04 #@! TO.P,U1,1*
G04 #@! TO.N,Audio_out*
X199499180Y-106240760D03*
G04 #@! TD*
D23*
G04 #@! TO.P,U7,1*
G04 #@! TO.N,BattPwr*
X187800000Y-114300000D03*
G04 #@! TO.P,U7,2*
G04 #@! TO.N,/BatteryManagement/Batt-*
X187800000Y-115250000D03*
G04 #@! TO.P,U7,3*
G04 #@! TO.N,BattPwr*
X187800000Y-116200000D03*
G04 #@! TO.P,U7,4*
G04 #@! TO.N,Vdd*
X190000000Y-116200000D03*
G04 #@! TO.P,U7,5*
G04 #@! TO.N,Net-(L4-Pad1)*
X190000000Y-114300000D03*
G04 #@! TD*
D17*
G04 #@! TO.N,/BatteryManagement/Batt-*
G04 #@! TO.C,J4*
G36*
X184012504Y-119397204D02*
X184036773Y-119400804D01*
X184060571Y-119406765D01*
X184083671Y-119415030D01*
X184105849Y-119425520D01*
X184126893Y-119438133D01*
X184146598Y-119452747D01*
X184164777Y-119469223D01*
X184181253Y-119487402D01*
X184195867Y-119507107D01*
X184208480Y-119528151D01*
X184218970Y-119550329D01*
X184227235Y-119573429D01*
X184233196Y-119597227D01*
X184236796Y-119621496D01*
X184238000Y-119646000D01*
X184238000Y-121146000D01*
X184236796Y-121170504D01*
X184233196Y-121194773D01*
X184227235Y-121218571D01*
X184218970Y-121241671D01*
X184208480Y-121263849D01*
X184195867Y-121284893D01*
X184181253Y-121304598D01*
X184164777Y-121322777D01*
X184146598Y-121339253D01*
X184126893Y-121353867D01*
X184105849Y-121366480D01*
X184083671Y-121376970D01*
X184060571Y-121385235D01*
X184036773Y-121391196D01*
X184012504Y-121394796D01*
X183988000Y-121396000D01*
X182788000Y-121396000D01*
X182763496Y-121394796D01*
X182739227Y-121391196D01*
X182715429Y-121385235D01*
X182692329Y-121376970D01*
X182670151Y-121366480D01*
X182649107Y-121353867D01*
X182629402Y-121339253D01*
X182611223Y-121322777D01*
X182594747Y-121304598D01*
X182580133Y-121284893D01*
X182567520Y-121263849D01*
X182557030Y-121241671D01*
X182548765Y-121218571D01*
X182542804Y-121194773D01*
X182539204Y-121170504D01*
X182538000Y-121146000D01*
X182538000Y-119646000D01*
X182539204Y-119621496D01*
X182542804Y-119597227D01*
X182548765Y-119573429D01*
X182557030Y-119550329D01*
X182567520Y-119528151D01*
X182580133Y-119507107D01*
X182594747Y-119487402D01*
X182611223Y-119469223D01*
X182629402Y-119452747D01*
X182649107Y-119438133D01*
X182670151Y-119425520D01*
X182692329Y-119415030D01*
X182715429Y-119406765D01*
X182739227Y-119400804D01*
X182763496Y-119397204D01*
X182788000Y-119396000D01*
X183988000Y-119396000D01*
X184012504Y-119397204D01*
X184012504Y-119397204D01*
G37*
D24*
G04 #@! TD*
G04 #@! TO.P,J4,1*
G04 #@! TO.N,/BatteryManagement/Batt-*
X183388000Y-120396000D03*
D25*
G04 #@! TO.P,J4,2*
G04 #@! TO.N,/BatteryManagement/Batt_int*
X185888000Y-120396000D03*
G04 #@! TD*
D17*
G04 #@! TO.N,Net-(C3-Pad2)*
G04 #@! TO.C,C3*
G36*
X202410142Y-110922674D02*
X202433803Y-110926184D01*
X202457007Y-110931996D01*
X202479529Y-110940054D01*
X202501153Y-110950282D01*
X202521670Y-110962579D01*
X202540883Y-110976829D01*
X202558607Y-110992893D01*
X202574671Y-111010617D01*
X202588921Y-111029830D01*
X202601218Y-111050347D01*
X202611446Y-111071971D01*
X202619504Y-111094493D01*
X202625316Y-111117697D01*
X202628826Y-111141358D01*
X202630000Y-111165250D01*
X202630000Y-111652750D01*
X202628826Y-111676642D01*
X202625316Y-111700303D01*
X202619504Y-111723507D01*
X202611446Y-111746029D01*
X202601218Y-111767653D01*
X202588921Y-111788170D01*
X202574671Y-111807383D01*
X202558607Y-111825107D01*
X202540883Y-111841171D01*
X202521670Y-111855421D01*
X202501153Y-111867718D01*
X202479529Y-111877946D01*
X202457007Y-111886004D01*
X202433803Y-111891816D01*
X202410142Y-111895326D01*
X202386250Y-111896500D01*
X201473750Y-111896500D01*
X201449858Y-111895326D01*
X201426197Y-111891816D01*
X201402993Y-111886004D01*
X201380471Y-111877946D01*
X201358847Y-111867718D01*
X201338330Y-111855421D01*
X201319117Y-111841171D01*
X201301393Y-111825107D01*
X201285329Y-111807383D01*
X201271079Y-111788170D01*
X201258782Y-111767653D01*
X201248554Y-111746029D01*
X201240496Y-111723507D01*
X201234684Y-111700303D01*
X201231174Y-111676642D01*
X201230000Y-111652750D01*
X201230000Y-111165250D01*
X201231174Y-111141358D01*
X201234684Y-111117697D01*
X201240496Y-111094493D01*
X201248554Y-111071971D01*
X201258782Y-111050347D01*
X201271079Y-111029830D01*
X201285329Y-111010617D01*
X201301393Y-110992893D01*
X201319117Y-110976829D01*
X201338330Y-110962579D01*
X201358847Y-110950282D01*
X201380471Y-110940054D01*
X201402993Y-110931996D01*
X201426197Y-110926184D01*
X201449858Y-110922674D01*
X201473750Y-110921500D01*
X202386250Y-110921500D01*
X202410142Y-110922674D01*
X202410142Y-110922674D01*
G37*
D18*
G04 #@! TD*
G04 #@! TO.P,C3,2*
G04 #@! TO.N,Net-(C3-Pad2)*
X201930000Y-111409000D03*
D17*
G04 #@! TO.N,Audio_out*
G04 #@! TO.C,C3*
G36*
X202410142Y-112797674D02*
X202433803Y-112801184D01*
X202457007Y-112806996D01*
X202479529Y-112815054D01*
X202501153Y-112825282D01*
X202521670Y-112837579D01*
X202540883Y-112851829D01*
X202558607Y-112867893D01*
X202574671Y-112885617D01*
X202588921Y-112904830D01*
X202601218Y-112925347D01*
X202611446Y-112946971D01*
X202619504Y-112969493D01*
X202625316Y-112992697D01*
X202628826Y-113016358D01*
X202630000Y-113040250D01*
X202630000Y-113527750D01*
X202628826Y-113551642D01*
X202625316Y-113575303D01*
X202619504Y-113598507D01*
X202611446Y-113621029D01*
X202601218Y-113642653D01*
X202588921Y-113663170D01*
X202574671Y-113682383D01*
X202558607Y-113700107D01*
X202540883Y-113716171D01*
X202521670Y-113730421D01*
X202501153Y-113742718D01*
X202479529Y-113752946D01*
X202457007Y-113761004D01*
X202433803Y-113766816D01*
X202410142Y-113770326D01*
X202386250Y-113771500D01*
X201473750Y-113771500D01*
X201449858Y-113770326D01*
X201426197Y-113766816D01*
X201402993Y-113761004D01*
X201380471Y-113752946D01*
X201358847Y-113742718D01*
X201338330Y-113730421D01*
X201319117Y-113716171D01*
X201301393Y-113700107D01*
X201285329Y-113682383D01*
X201271079Y-113663170D01*
X201258782Y-113642653D01*
X201248554Y-113621029D01*
X201240496Y-113598507D01*
X201234684Y-113575303D01*
X201231174Y-113551642D01*
X201230000Y-113527750D01*
X201230000Y-113040250D01*
X201231174Y-113016358D01*
X201234684Y-112992697D01*
X201240496Y-112969493D01*
X201248554Y-112946971D01*
X201258782Y-112925347D01*
X201271079Y-112904830D01*
X201285329Y-112885617D01*
X201301393Y-112867893D01*
X201319117Y-112851829D01*
X201338330Y-112837579D01*
X201358847Y-112825282D01*
X201380471Y-112815054D01*
X201402993Y-112806996D01*
X201426197Y-112801184D01*
X201449858Y-112797674D01*
X201473750Y-112796500D01*
X202386250Y-112796500D01*
X202410142Y-112797674D01*
X202410142Y-112797674D01*
G37*
D18*
G04 #@! TD*
G04 #@! TO.P,C3,1*
G04 #@! TO.N,Audio_out*
X201930000Y-113284000D03*
D17*
G04 #@! TO.N,BattRtn*
G04 #@! TO.C,C12*
G36*
X190417642Y-110151174D02*
X190441303Y-110154684D01*
X190464507Y-110160496D01*
X190487029Y-110168554D01*
X190508653Y-110178782D01*
X190529170Y-110191079D01*
X190548383Y-110205329D01*
X190566107Y-110221393D01*
X190582171Y-110239117D01*
X190596421Y-110258330D01*
X190608718Y-110278847D01*
X190618946Y-110300471D01*
X190627004Y-110322993D01*
X190632816Y-110346197D01*
X190636326Y-110369858D01*
X190637500Y-110393750D01*
X190637500Y-111306250D01*
X190636326Y-111330142D01*
X190632816Y-111353803D01*
X190627004Y-111377007D01*
X190618946Y-111399529D01*
X190608718Y-111421153D01*
X190596421Y-111441670D01*
X190582171Y-111460883D01*
X190566107Y-111478607D01*
X190548383Y-111494671D01*
X190529170Y-111508921D01*
X190508653Y-111521218D01*
X190487029Y-111531446D01*
X190464507Y-111539504D01*
X190441303Y-111545316D01*
X190417642Y-111548826D01*
X190393750Y-111550000D01*
X189906250Y-111550000D01*
X189882358Y-111548826D01*
X189858697Y-111545316D01*
X189835493Y-111539504D01*
X189812971Y-111531446D01*
X189791347Y-111521218D01*
X189770830Y-111508921D01*
X189751617Y-111494671D01*
X189733893Y-111478607D01*
X189717829Y-111460883D01*
X189703579Y-111441670D01*
X189691282Y-111421153D01*
X189681054Y-111399529D01*
X189672996Y-111377007D01*
X189667184Y-111353803D01*
X189663674Y-111330142D01*
X189662500Y-111306250D01*
X189662500Y-110393750D01*
X189663674Y-110369858D01*
X189667184Y-110346197D01*
X189672996Y-110322993D01*
X189681054Y-110300471D01*
X189691282Y-110278847D01*
X189703579Y-110258330D01*
X189717829Y-110239117D01*
X189733893Y-110221393D01*
X189751617Y-110205329D01*
X189770830Y-110191079D01*
X189791347Y-110178782D01*
X189812971Y-110168554D01*
X189835493Y-110160496D01*
X189858697Y-110154684D01*
X189882358Y-110151174D01*
X189906250Y-110150000D01*
X190393750Y-110150000D01*
X190417642Y-110151174D01*
X190417642Y-110151174D01*
G37*
D18*
G04 #@! TD*
G04 #@! TO.P,C12,1*
G04 #@! TO.N,BattRtn*
X190150000Y-110850000D03*
D17*
G04 #@! TO.N,USB_PWR*
G04 #@! TO.C,C12*
G36*
X188542642Y-110151174D02*
X188566303Y-110154684D01*
X188589507Y-110160496D01*
X188612029Y-110168554D01*
X188633653Y-110178782D01*
X188654170Y-110191079D01*
X188673383Y-110205329D01*
X188691107Y-110221393D01*
X188707171Y-110239117D01*
X188721421Y-110258330D01*
X188733718Y-110278847D01*
X188743946Y-110300471D01*
X188752004Y-110322993D01*
X188757816Y-110346197D01*
X188761326Y-110369858D01*
X188762500Y-110393750D01*
X188762500Y-111306250D01*
X188761326Y-111330142D01*
X188757816Y-111353803D01*
X188752004Y-111377007D01*
X188743946Y-111399529D01*
X188733718Y-111421153D01*
X188721421Y-111441670D01*
X188707171Y-111460883D01*
X188691107Y-111478607D01*
X188673383Y-111494671D01*
X188654170Y-111508921D01*
X188633653Y-111521218D01*
X188612029Y-111531446D01*
X188589507Y-111539504D01*
X188566303Y-111545316D01*
X188542642Y-111548826D01*
X188518750Y-111550000D01*
X188031250Y-111550000D01*
X188007358Y-111548826D01*
X187983697Y-111545316D01*
X187960493Y-111539504D01*
X187937971Y-111531446D01*
X187916347Y-111521218D01*
X187895830Y-111508921D01*
X187876617Y-111494671D01*
X187858893Y-111478607D01*
X187842829Y-111460883D01*
X187828579Y-111441670D01*
X187816282Y-111421153D01*
X187806054Y-111399529D01*
X187797996Y-111377007D01*
X187792184Y-111353803D01*
X187788674Y-111330142D01*
X187787500Y-111306250D01*
X187787500Y-110393750D01*
X187788674Y-110369858D01*
X187792184Y-110346197D01*
X187797996Y-110322993D01*
X187806054Y-110300471D01*
X187816282Y-110278847D01*
X187828579Y-110258330D01*
X187842829Y-110239117D01*
X187858893Y-110221393D01*
X187876617Y-110205329D01*
X187895830Y-110191079D01*
X187916347Y-110178782D01*
X187937971Y-110168554D01*
X187960493Y-110160496D01*
X187983697Y-110154684D01*
X188007358Y-110151174D01*
X188031250Y-110150000D01*
X188518750Y-110150000D01*
X188542642Y-110151174D01*
X188542642Y-110151174D01*
G37*
D18*
G04 #@! TD*
G04 #@! TO.P,C12,2*
G04 #@! TO.N,USB_PWR*
X188275000Y-110850000D03*
D17*
G04 #@! TO.N,SDA*
G04 #@! TO.C,R3*
G36*
X187177691Y-104468553D02*
X187198926Y-104471703D01*
X187219750Y-104476919D01*
X187239962Y-104484151D01*
X187259368Y-104493330D01*
X187277781Y-104504366D01*
X187295024Y-104517154D01*
X187310930Y-104531570D01*
X187325346Y-104547476D01*
X187338134Y-104564719D01*
X187349170Y-104583132D01*
X187358349Y-104602538D01*
X187365581Y-104622750D01*
X187370797Y-104643574D01*
X187373947Y-104664809D01*
X187375000Y-104686250D01*
X187375000Y-105123750D01*
X187373947Y-105145191D01*
X187370797Y-105166426D01*
X187365581Y-105187250D01*
X187358349Y-105207462D01*
X187349170Y-105226868D01*
X187338134Y-105245281D01*
X187325346Y-105262524D01*
X187310930Y-105278430D01*
X187295024Y-105292846D01*
X187277781Y-105305634D01*
X187259368Y-105316670D01*
X187239962Y-105325849D01*
X187219750Y-105333081D01*
X187198926Y-105338297D01*
X187177691Y-105341447D01*
X187156250Y-105342500D01*
X186643750Y-105342500D01*
X186622309Y-105341447D01*
X186601074Y-105338297D01*
X186580250Y-105333081D01*
X186560038Y-105325849D01*
X186540632Y-105316670D01*
X186522219Y-105305634D01*
X186504976Y-105292846D01*
X186489070Y-105278430D01*
X186474654Y-105262524D01*
X186461866Y-105245281D01*
X186450830Y-105226868D01*
X186441651Y-105207462D01*
X186434419Y-105187250D01*
X186429203Y-105166426D01*
X186426053Y-105145191D01*
X186425000Y-105123750D01*
X186425000Y-104686250D01*
X186426053Y-104664809D01*
X186429203Y-104643574D01*
X186434419Y-104622750D01*
X186441651Y-104602538D01*
X186450830Y-104583132D01*
X186461866Y-104564719D01*
X186474654Y-104547476D01*
X186489070Y-104531570D01*
X186504976Y-104517154D01*
X186522219Y-104504366D01*
X186540632Y-104493330D01*
X186560038Y-104484151D01*
X186580250Y-104476919D01*
X186601074Y-104471703D01*
X186622309Y-104468553D01*
X186643750Y-104467500D01*
X187156250Y-104467500D01*
X187177691Y-104468553D01*
X187177691Y-104468553D01*
G37*
D21*
G04 #@! TD*
G04 #@! TO.P,R3,2*
G04 #@! TO.N,SDA*
X186900000Y-104905000D03*
D17*
G04 #@! TO.N,Vdd*
G04 #@! TO.C,R3*
G36*
X187177691Y-106043553D02*
X187198926Y-106046703D01*
X187219750Y-106051919D01*
X187239962Y-106059151D01*
X187259368Y-106068330D01*
X187277781Y-106079366D01*
X187295024Y-106092154D01*
X187310930Y-106106570D01*
X187325346Y-106122476D01*
X187338134Y-106139719D01*
X187349170Y-106158132D01*
X187358349Y-106177538D01*
X187365581Y-106197750D01*
X187370797Y-106218574D01*
X187373947Y-106239809D01*
X187375000Y-106261250D01*
X187375000Y-106698750D01*
X187373947Y-106720191D01*
X187370797Y-106741426D01*
X187365581Y-106762250D01*
X187358349Y-106782462D01*
X187349170Y-106801868D01*
X187338134Y-106820281D01*
X187325346Y-106837524D01*
X187310930Y-106853430D01*
X187295024Y-106867846D01*
X187277781Y-106880634D01*
X187259368Y-106891670D01*
X187239962Y-106900849D01*
X187219750Y-106908081D01*
X187198926Y-106913297D01*
X187177691Y-106916447D01*
X187156250Y-106917500D01*
X186643750Y-106917500D01*
X186622309Y-106916447D01*
X186601074Y-106913297D01*
X186580250Y-106908081D01*
X186560038Y-106900849D01*
X186540632Y-106891670D01*
X186522219Y-106880634D01*
X186504976Y-106867846D01*
X186489070Y-106853430D01*
X186474654Y-106837524D01*
X186461866Y-106820281D01*
X186450830Y-106801868D01*
X186441651Y-106782462D01*
X186434419Y-106762250D01*
X186429203Y-106741426D01*
X186426053Y-106720191D01*
X186425000Y-106698750D01*
X186425000Y-106261250D01*
X186426053Y-106239809D01*
X186429203Y-106218574D01*
X186434419Y-106197750D01*
X186441651Y-106177538D01*
X186450830Y-106158132D01*
X186461866Y-106139719D01*
X186474654Y-106122476D01*
X186489070Y-106106570D01*
X186504976Y-106092154D01*
X186522219Y-106079366D01*
X186540632Y-106068330D01*
X186560038Y-106059151D01*
X186580250Y-106051919D01*
X186601074Y-106046703D01*
X186622309Y-106043553D01*
X186643750Y-106042500D01*
X187156250Y-106042500D01*
X187177691Y-106043553D01*
X187177691Y-106043553D01*
G37*
D21*
G04 #@! TD*
G04 #@! TO.P,R3,1*
G04 #@! TO.N,Vdd*
X186900000Y-106480000D03*
D17*
G04 #@! TO.N,Vdd*
G04 #@! TO.C,R4*
G36*
X185443691Y-106015053D02*
X185464926Y-106018203D01*
X185485750Y-106023419D01*
X185505962Y-106030651D01*
X185525368Y-106039830D01*
X185543781Y-106050866D01*
X185561024Y-106063654D01*
X185576930Y-106078070D01*
X185591346Y-106093976D01*
X185604134Y-106111219D01*
X185615170Y-106129632D01*
X185624349Y-106149038D01*
X185631581Y-106169250D01*
X185636797Y-106190074D01*
X185639947Y-106211309D01*
X185641000Y-106232750D01*
X185641000Y-106670250D01*
X185639947Y-106691691D01*
X185636797Y-106712926D01*
X185631581Y-106733750D01*
X185624349Y-106753962D01*
X185615170Y-106773368D01*
X185604134Y-106791781D01*
X185591346Y-106809024D01*
X185576930Y-106824930D01*
X185561024Y-106839346D01*
X185543781Y-106852134D01*
X185525368Y-106863170D01*
X185505962Y-106872349D01*
X185485750Y-106879581D01*
X185464926Y-106884797D01*
X185443691Y-106887947D01*
X185422250Y-106889000D01*
X184909750Y-106889000D01*
X184888309Y-106887947D01*
X184867074Y-106884797D01*
X184846250Y-106879581D01*
X184826038Y-106872349D01*
X184806632Y-106863170D01*
X184788219Y-106852134D01*
X184770976Y-106839346D01*
X184755070Y-106824930D01*
X184740654Y-106809024D01*
X184727866Y-106791781D01*
X184716830Y-106773368D01*
X184707651Y-106753962D01*
X184700419Y-106733750D01*
X184695203Y-106712926D01*
X184692053Y-106691691D01*
X184691000Y-106670250D01*
X184691000Y-106232750D01*
X184692053Y-106211309D01*
X184695203Y-106190074D01*
X184700419Y-106169250D01*
X184707651Y-106149038D01*
X184716830Y-106129632D01*
X184727866Y-106111219D01*
X184740654Y-106093976D01*
X184755070Y-106078070D01*
X184770976Y-106063654D01*
X184788219Y-106050866D01*
X184806632Y-106039830D01*
X184826038Y-106030651D01*
X184846250Y-106023419D01*
X184867074Y-106018203D01*
X184888309Y-106015053D01*
X184909750Y-106014000D01*
X185422250Y-106014000D01*
X185443691Y-106015053D01*
X185443691Y-106015053D01*
G37*
D21*
G04 #@! TD*
G04 #@! TO.P,R4,1*
G04 #@! TO.N,Vdd*
X185166000Y-106451500D03*
D17*
G04 #@! TO.N,SCL*
G04 #@! TO.C,R4*
G36*
X185443691Y-104440053D02*
X185464926Y-104443203D01*
X185485750Y-104448419D01*
X185505962Y-104455651D01*
X185525368Y-104464830D01*
X185543781Y-104475866D01*
X185561024Y-104488654D01*
X185576930Y-104503070D01*
X185591346Y-104518976D01*
X185604134Y-104536219D01*
X185615170Y-104554632D01*
X185624349Y-104574038D01*
X185631581Y-104594250D01*
X185636797Y-104615074D01*
X185639947Y-104636309D01*
X185641000Y-104657750D01*
X185641000Y-105095250D01*
X185639947Y-105116691D01*
X185636797Y-105137926D01*
X185631581Y-105158750D01*
X185624349Y-105178962D01*
X185615170Y-105198368D01*
X185604134Y-105216781D01*
X185591346Y-105234024D01*
X185576930Y-105249930D01*
X185561024Y-105264346D01*
X185543781Y-105277134D01*
X185525368Y-105288170D01*
X185505962Y-105297349D01*
X185485750Y-105304581D01*
X185464926Y-105309797D01*
X185443691Y-105312947D01*
X185422250Y-105314000D01*
X184909750Y-105314000D01*
X184888309Y-105312947D01*
X184867074Y-105309797D01*
X184846250Y-105304581D01*
X184826038Y-105297349D01*
X184806632Y-105288170D01*
X184788219Y-105277134D01*
X184770976Y-105264346D01*
X184755070Y-105249930D01*
X184740654Y-105234024D01*
X184727866Y-105216781D01*
X184716830Y-105198368D01*
X184707651Y-105178962D01*
X184700419Y-105158750D01*
X184695203Y-105137926D01*
X184692053Y-105116691D01*
X184691000Y-105095250D01*
X184691000Y-104657750D01*
X184692053Y-104636309D01*
X184695203Y-104615074D01*
X184700419Y-104594250D01*
X184707651Y-104574038D01*
X184716830Y-104554632D01*
X184727866Y-104536219D01*
X184740654Y-104518976D01*
X184755070Y-104503070D01*
X184770976Y-104488654D01*
X184788219Y-104475866D01*
X184806632Y-104464830D01*
X184826038Y-104455651D01*
X184846250Y-104448419D01*
X184867074Y-104443203D01*
X184888309Y-104440053D01*
X184909750Y-104439000D01*
X185422250Y-104439000D01*
X185443691Y-104440053D01*
X185443691Y-104440053D01*
G37*
D21*
G04 #@! TD*
G04 #@! TO.P,R4,2*
G04 #@! TO.N,SCL*
X185166000Y-104876500D03*
D17*
G04 #@! TO.N,Vdd*
G04 #@! TO.C,R5*
G36*
X188115191Y-107426053D02*
X188136426Y-107429203D01*
X188157250Y-107434419D01*
X188177462Y-107441651D01*
X188196868Y-107450830D01*
X188215281Y-107461866D01*
X188232524Y-107474654D01*
X188248430Y-107489070D01*
X188262846Y-107504976D01*
X188275634Y-107522219D01*
X188286670Y-107540632D01*
X188295849Y-107560038D01*
X188303081Y-107580250D01*
X188308297Y-107601074D01*
X188311447Y-107622309D01*
X188312500Y-107643750D01*
X188312500Y-108156250D01*
X188311447Y-108177691D01*
X188308297Y-108198926D01*
X188303081Y-108219750D01*
X188295849Y-108239962D01*
X188286670Y-108259368D01*
X188275634Y-108277781D01*
X188262846Y-108295024D01*
X188248430Y-108310930D01*
X188232524Y-108325346D01*
X188215281Y-108338134D01*
X188196868Y-108349170D01*
X188177462Y-108358349D01*
X188157250Y-108365581D01*
X188136426Y-108370797D01*
X188115191Y-108373947D01*
X188093750Y-108375000D01*
X187656250Y-108375000D01*
X187634809Y-108373947D01*
X187613574Y-108370797D01*
X187592750Y-108365581D01*
X187572538Y-108358349D01*
X187553132Y-108349170D01*
X187534719Y-108338134D01*
X187517476Y-108325346D01*
X187501570Y-108310930D01*
X187487154Y-108295024D01*
X187474366Y-108277781D01*
X187463330Y-108259368D01*
X187454151Y-108239962D01*
X187446919Y-108219750D01*
X187441703Y-108198926D01*
X187438553Y-108177691D01*
X187437500Y-108156250D01*
X187437500Y-107643750D01*
X187438553Y-107622309D01*
X187441703Y-107601074D01*
X187446919Y-107580250D01*
X187454151Y-107560038D01*
X187463330Y-107540632D01*
X187474366Y-107522219D01*
X187487154Y-107504976D01*
X187501570Y-107489070D01*
X187517476Y-107474654D01*
X187534719Y-107461866D01*
X187553132Y-107450830D01*
X187572538Y-107441651D01*
X187592750Y-107434419D01*
X187613574Y-107429203D01*
X187634809Y-107426053D01*
X187656250Y-107425000D01*
X188093750Y-107425000D01*
X188115191Y-107426053D01*
X188115191Y-107426053D01*
G37*
D21*
G04 #@! TD*
G04 #@! TO.P,R5,2*
G04 #@! TO.N,Vdd*
X187875000Y-107900000D03*
D17*
G04 #@! TO.N,/RESET*
G04 #@! TO.C,R5*
G36*
X189690191Y-107426053D02*
X189711426Y-107429203D01*
X189732250Y-107434419D01*
X189752462Y-107441651D01*
X189771868Y-107450830D01*
X189790281Y-107461866D01*
X189807524Y-107474654D01*
X189823430Y-107489070D01*
X189837846Y-107504976D01*
X189850634Y-107522219D01*
X189861670Y-107540632D01*
X189870849Y-107560038D01*
X189878081Y-107580250D01*
X189883297Y-107601074D01*
X189886447Y-107622309D01*
X189887500Y-107643750D01*
X189887500Y-108156250D01*
X189886447Y-108177691D01*
X189883297Y-108198926D01*
X189878081Y-108219750D01*
X189870849Y-108239962D01*
X189861670Y-108259368D01*
X189850634Y-108277781D01*
X189837846Y-108295024D01*
X189823430Y-108310930D01*
X189807524Y-108325346D01*
X189790281Y-108338134D01*
X189771868Y-108349170D01*
X189752462Y-108358349D01*
X189732250Y-108365581D01*
X189711426Y-108370797D01*
X189690191Y-108373947D01*
X189668750Y-108375000D01*
X189231250Y-108375000D01*
X189209809Y-108373947D01*
X189188574Y-108370797D01*
X189167750Y-108365581D01*
X189147538Y-108358349D01*
X189128132Y-108349170D01*
X189109719Y-108338134D01*
X189092476Y-108325346D01*
X189076570Y-108310930D01*
X189062154Y-108295024D01*
X189049366Y-108277781D01*
X189038330Y-108259368D01*
X189029151Y-108239962D01*
X189021919Y-108219750D01*
X189016703Y-108198926D01*
X189013553Y-108177691D01*
X189012500Y-108156250D01*
X189012500Y-107643750D01*
X189013553Y-107622309D01*
X189016703Y-107601074D01*
X189021919Y-107580250D01*
X189029151Y-107560038D01*
X189038330Y-107540632D01*
X189049366Y-107522219D01*
X189062154Y-107504976D01*
X189076570Y-107489070D01*
X189092476Y-107474654D01*
X189109719Y-107461866D01*
X189128132Y-107450830D01*
X189147538Y-107441651D01*
X189167750Y-107434419D01*
X189188574Y-107429203D01*
X189209809Y-107426053D01*
X189231250Y-107425000D01*
X189668750Y-107425000D01*
X189690191Y-107426053D01*
X189690191Y-107426053D01*
G37*
D21*
G04 #@! TD*
G04 #@! TO.P,R5,1*
G04 #@! TO.N,/RESET*
X189450000Y-107900000D03*
D26*
G04 #@! TO.P,J5,1*
G04 #@! TO.N,BattRtn*
X189381000Y-122682000D03*
G04 #@! TO.P,J5,2*
G04 #@! TO.N,Net-(C1-Pad2)*
X190881000Y-122682000D03*
G04 #@! TD*
D27*
G04 #@! TO.P,U4,1*
G04 #@! TO.N,BattRtn*
X197190360Y-104797860D03*
G04 #@! TO.P,U4,2*
G04 #@! TO.N,Vdd*
X194650360Y-104797860D03*
G04 #@! TO.P,U4,3*
G04 #@! TO.N,SCL*
X192110360Y-104797860D03*
G04 #@! TO.P,U4,4*
G04 #@! TO.N,SDA*
X189570360Y-104797860D03*
G04 #@! TD*
D28*
G04 #@! TO.P,J3,1*
G04 #@! TO.N,BattRtn*
X181102000Y-123214000D03*
G04 #@! TO.P,J3,2*
G04 #@! TO.N,Net-(J3-Pad2)*
X181102000Y-124714000D03*
G04 #@! TD*
D29*
G04 #@! TO.P,SW1,1*
G04 #@! TO.N,Net-(SW1-Pad1)*
X190754000Y-125476000D03*
D30*
G04 #@! TO.P,SW1,2*
G04 #@! TO.N,/BatteryManagement/Batt_int*
X188214000Y-125476000D03*
G04 #@! TO.P,SW1,3*
G04 #@! TO.N,Net-(D3-Pad2)*
X185674000Y-125476000D03*
G04 #@! TD*
D17*
G04 #@! TO.N,BattRtn*
G04 #@! TO.C,C10*
G36*
X202410142Y-123054674D02*
X202433803Y-123058184D01*
X202457007Y-123063996D01*
X202479529Y-123072054D01*
X202501153Y-123082282D01*
X202521670Y-123094579D01*
X202540883Y-123108829D01*
X202558607Y-123124893D01*
X202574671Y-123142617D01*
X202588921Y-123161830D01*
X202601218Y-123182347D01*
X202611446Y-123203971D01*
X202619504Y-123226493D01*
X202625316Y-123249697D01*
X202628826Y-123273358D01*
X202630000Y-123297250D01*
X202630000Y-123784750D01*
X202628826Y-123808642D01*
X202625316Y-123832303D01*
X202619504Y-123855507D01*
X202611446Y-123878029D01*
X202601218Y-123899653D01*
X202588921Y-123920170D01*
X202574671Y-123939383D01*
X202558607Y-123957107D01*
X202540883Y-123973171D01*
X202521670Y-123987421D01*
X202501153Y-123999718D01*
X202479529Y-124009946D01*
X202457007Y-124018004D01*
X202433803Y-124023816D01*
X202410142Y-124027326D01*
X202386250Y-124028500D01*
X201473750Y-124028500D01*
X201449858Y-124027326D01*
X201426197Y-124023816D01*
X201402993Y-124018004D01*
X201380471Y-124009946D01*
X201358847Y-123999718D01*
X201338330Y-123987421D01*
X201319117Y-123973171D01*
X201301393Y-123957107D01*
X201285329Y-123939383D01*
X201271079Y-123920170D01*
X201258782Y-123899653D01*
X201248554Y-123878029D01*
X201240496Y-123855507D01*
X201234684Y-123832303D01*
X201231174Y-123808642D01*
X201230000Y-123784750D01*
X201230000Y-123297250D01*
X201231174Y-123273358D01*
X201234684Y-123249697D01*
X201240496Y-123226493D01*
X201248554Y-123203971D01*
X201258782Y-123182347D01*
X201271079Y-123161830D01*
X201285329Y-123142617D01*
X201301393Y-123124893D01*
X201319117Y-123108829D01*
X201338330Y-123094579D01*
X201358847Y-123082282D01*
X201380471Y-123072054D01*
X201402993Y-123063996D01*
X201426197Y-123058184D01*
X201449858Y-123054674D01*
X201473750Y-123053500D01*
X202386250Y-123053500D01*
X202410142Y-123054674D01*
X202410142Y-123054674D01*
G37*
D18*
G04 #@! TD*
G04 #@! TO.P,C10,1*
G04 #@! TO.N,BattRtn*
X201930000Y-123541000D03*
D17*
G04 #@! TO.N,Fun_Btn_3*
G04 #@! TO.C,C10*
G36*
X202410142Y-121179674D02*
X202433803Y-121183184D01*
X202457007Y-121188996D01*
X202479529Y-121197054D01*
X202501153Y-121207282D01*
X202521670Y-121219579D01*
X202540883Y-121233829D01*
X202558607Y-121249893D01*
X202574671Y-121267617D01*
X202588921Y-121286830D01*
X202601218Y-121307347D01*
X202611446Y-121328971D01*
X202619504Y-121351493D01*
X202625316Y-121374697D01*
X202628826Y-121398358D01*
X202630000Y-121422250D01*
X202630000Y-121909750D01*
X202628826Y-121933642D01*
X202625316Y-121957303D01*
X202619504Y-121980507D01*
X202611446Y-122003029D01*
X202601218Y-122024653D01*
X202588921Y-122045170D01*
X202574671Y-122064383D01*
X202558607Y-122082107D01*
X202540883Y-122098171D01*
X202521670Y-122112421D01*
X202501153Y-122124718D01*
X202479529Y-122134946D01*
X202457007Y-122143004D01*
X202433803Y-122148816D01*
X202410142Y-122152326D01*
X202386250Y-122153500D01*
X201473750Y-122153500D01*
X201449858Y-122152326D01*
X201426197Y-122148816D01*
X201402993Y-122143004D01*
X201380471Y-122134946D01*
X201358847Y-122124718D01*
X201338330Y-122112421D01*
X201319117Y-122098171D01*
X201301393Y-122082107D01*
X201285329Y-122064383D01*
X201271079Y-122045170D01*
X201258782Y-122024653D01*
X201248554Y-122003029D01*
X201240496Y-121980507D01*
X201234684Y-121957303D01*
X201231174Y-121933642D01*
X201230000Y-121909750D01*
X201230000Y-121422250D01*
X201231174Y-121398358D01*
X201234684Y-121374697D01*
X201240496Y-121351493D01*
X201248554Y-121328971D01*
X201258782Y-121307347D01*
X201271079Y-121286830D01*
X201285329Y-121267617D01*
X201301393Y-121249893D01*
X201319117Y-121233829D01*
X201338330Y-121219579D01*
X201358847Y-121207282D01*
X201380471Y-121197054D01*
X201402993Y-121188996D01*
X201426197Y-121183184D01*
X201449858Y-121179674D01*
X201473750Y-121178500D01*
X202386250Y-121178500D01*
X202410142Y-121179674D01*
X202410142Y-121179674D01*
G37*
D18*
G04 #@! TD*
G04 #@! TO.P,C10,2*
G04 #@! TO.N,Fun_Btn_3*
X201930000Y-121666000D03*
D31*
G04 #@! TO.N,Net-(C1-Pad2)*
X201676000Y-110236000D03*
X190246000Y-121158000D03*
G04 #@! TO.N,BattRtn*
X185500000Y-114200000D03*
X196850000Y-107200000D03*
X186050000Y-118471400D03*
X193231730Y-116332886D03*
X189776920Y-109952846D03*
X195834000Y-125984000D03*
X199644000Y-123444000D03*
X190246000Y-123952000D03*
X182372000Y-118872000D03*
X194056000Y-119205400D03*
X201930000Y-117846400D03*
X181102000Y-121158000D03*
X188468000Y-118618000D03*
X188338460Y-105361740D03*
X201810620Y-119989600D03*
X192532000Y-128270000D03*
X187706000Y-127508000D03*
G04 #@! TO.N,Vdd*
X193500000Y-115850000D03*
X195000000Y-107900000D03*
X191350000Y-111100000D03*
X190000000Y-117200000D03*
X200152000Y-117348000D03*
X183896000Y-106934000D03*
D32*
X194310000Y-124968000D03*
D31*
X195326000Y-122428000D03*
G04 #@! TO.N,LED1_P2*
X190350000Y-109250000D03*
G04 #@! TO.N,Net-(D1-Pad1)*
X191770000Y-107188000D03*
G04 #@! TO.N,/SWDIO*
X196342000Y-111600000D03*
G04 #@! TO.N,/SWDCLK*
X195072000Y-111760000D03*
G04 #@! TO.N,/RESET*
X192550000Y-111150000D03*
G04 #@! TO.N,SDA*
X180600000Y-112900000D03*
X183750000Y-112000000D03*
G04 #@! TO.N,IMU_INT*
X185150000Y-109950000D03*
X191000000Y-113250000D03*
G04 #@! TO.N,BattPwr*
X186350000Y-114150000D03*
G04 #@! TO.N,/BatteryManagement/Batt-*
X188600001Y-115150000D03*
G04 #@! TO.N,/USB_DP*
X188150000Y-112050000D03*
G04 #@! TO.N,/USB_DM*
X187600000Y-112200000D03*
G04 #@! TO.N,Net-(J3-Pad2)*
X193294000Y-119634000D03*
G04 #@! TO.N,Net-(C1-Pad1)*
X201869701Y-104942640D03*
G04 #@! TO.N,Net-(C2-Pad1)*
X200217056Y-104720104D03*
G04 #@! TO.N,Audio_out*
X200406000Y-114300000D03*
X201676000Y-114808000D03*
X196088000Y-115570000D03*
G04 #@! TO.N,Fun_Btn_1*
X202184000Y-117094000D03*
X200406000Y-115062000D03*
X196596000Y-115824000D03*
X203962000Y-123698000D03*
G04 #@! TO.N,Fun_Btn_3*
X190450000Y-118250000D03*
X198120000Y-118110000D03*
X202184000Y-120650000D03*
G04 #@! TO.N,IMU_INT2*
X191250000Y-112600000D03*
X180340000Y-109474000D03*
G04 #@! TO.N,BattADC*
X196342000Y-119594600D03*
X184658000Y-127508000D03*
G04 #@! TD*
D33*
G04 #@! TO.N,Net-(C1-Pad2)*
X198120000Y-118872000D02*
X198120000Y-119166000D01*
X201884919Y-116391811D02*
X199110730Y-119166000D01*
X201884920Y-115755302D02*
X201884919Y-116391811D01*
X202282018Y-115358204D02*
X201884920Y-115755302D01*
X202692000Y-110236000D02*
X202946000Y-110490000D01*
X201676000Y-110236000D02*
X202692000Y-110236000D01*
X202946000Y-110490000D02*
X202946000Y-113792000D01*
X202946000Y-113792000D02*
X202790018Y-113792000D01*
X202790018Y-113792000D02*
X202282018Y-114300000D01*
X202282018Y-114300000D02*
X202282018Y-115358204D01*
X190246000Y-122047000D02*
X190881000Y-122682000D01*
X190246000Y-121158000D02*
X190246000Y-122047000D01*
X199110730Y-119166000D02*
X198120000Y-119166000D01*
X191533400Y-122682000D02*
X190881000Y-122682000D01*
X194360809Y-119854591D02*
X191533400Y-122682000D01*
X194360809Y-119534921D02*
X194360809Y-119854591D01*
X194729730Y-119166000D02*
X194360809Y-119534921D01*
X198120000Y-119166000D02*
X194729730Y-119166000D01*
G04 #@! TO.N,BattRtn*
X185500000Y-113499000D02*
X185403000Y-113402000D01*
X185500000Y-114200000D02*
X185500000Y-113499000D01*
X198270000Y-109650000D02*
X197000000Y-109650000D01*
X196850000Y-107400000D02*
X196850000Y-107200000D01*
X198270000Y-109650000D02*
X198270000Y-108820000D01*
X198270000Y-108820000D02*
X196850000Y-107400000D01*
X186050000Y-118471400D02*
X188728600Y-118471400D01*
X188728600Y-118471400D02*
X188750000Y-118450000D01*
X189771399Y-117628601D02*
X191971399Y-117628601D01*
X188728600Y-118471400D02*
X188928600Y-118471400D01*
X188928600Y-118471400D02*
X189771399Y-117628601D01*
X191971399Y-117628601D02*
X193231730Y-116368270D01*
X193231730Y-116368270D02*
X193231730Y-116332886D01*
X190150000Y-110494850D02*
X190150000Y-110850000D01*
X189776920Y-110476920D02*
X190150000Y-110850000D01*
X189776920Y-109952846D02*
X189776920Y-110476920D01*
X195834000Y-125984000D02*
X198374000Y-123444000D01*
X198374000Y-123444000D02*
X199644000Y-123444000D01*
X189381000Y-123087000D02*
X189381000Y-122682000D01*
X190246000Y-123952000D02*
X189381000Y-123087000D01*
X181102000Y-122706000D02*
X181102000Y-120142000D01*
X181102000Y-120142000D02*
X182372000Y-118872000D01*
X189381000Y-121388670D02*
X190627670Y-120142000D01*
X189381000Y-121920000D02*
X189381000Y-121388670D01*
X189381000Y-121920000D02*
X189381000Y-121779600D01*
X189381000Y-122682000D02*
X189381000Y-121920000D01*
X194056000Y-119506330D02*
X194056000Y-119205400D01*
X190627670Y-120142000D02*
X193420330Y-120142000D01*
X193420330Y-120142000D02*
X194056000Y-119506330D01*
X189045946Y-108603610D02*
X188783890Y-108341554D01*
X189776920Y-109952846D02*
X189776920Y-109742316D01*
X189616589Y-109581985D02*
X189616589Y-108924431D01*
X189616589Y-108924431D02*
X189606802Y-108914644D01*
X189606802Y-108914644D02*
X189606802Y-108603610D01*
X189776920Y-109742316D02*
X189616589Y-109581985D01*
X189606802Y-108603610D02*
X189045946Y-108603610D01*
X199644000Y-123444000D02*
X199644000Y-120132400D01*
X199644000Y-120132400D02*
X201930000Y-117846400D01*
X199644000Y-123190000D02*
X199644000Y-123444000D01*
X198120000Y-121666000D02*
X199644000Y-123190000D01*
X198267990Y-104797860D02*
X197190360Y-104797860D01*
X198989798Y-104797860D02*
X198267990Y-104797860D01*
X198991299Y-104799361D02*
X198989798Y-104797860D01*
X199690181Y-104799361D02*
X198991299Y-104799361D01*
X200449180Y-105558360D02*
X199690181Y-104799361D01*
X200449180Y-106240760D02*
X200449180Y-105558360D01*
X188783890Y-105807170D02*
X188338460Y-105361740D01*
X188783890Y-105807170D02*
X189167430Y-105807170D01*
X189167430Y-105807170D02*
X189478920Y-106118660D01*
X189478920Y-106118660D02*
X189478920Y-106443780D01*
X188783890Y-107138810D02*
X188783890Y-108341554D01*
X189478920Y-106443780D02*
X188783890Y-107138810D01*
X201810620Y-117965780D02*
X201930000Y-117846400D01*
X201810620Y-119989600D02*
X201810620Y-117965780D01*
X199843999Y-123643999D02*
X199644000Y-123444000D01*
X200297237Y-124097237D02*
X199843999Y-123643999D01*
X201373763Y-124097237D02*
X200297237Y-124097237D01*
X201930000Y-123541000D02*
X201373763Y-124097237D01*
G04 #@! TO.N,Vdd*
X187000000Y-106432842D02*
X187031390Y-106464232D01*
X197256083Y-106654601D02*
X195046601Y-106654601D01*
X198868601Y-108267119D02*
X197256083Y-106654601D01*
X198868601Y-109501001D02*
X198868601Y-108267119D01*
X199017600Y-109650000D02*
X198868601Y-109501001D01*
X199540000Y-109650000D02*
X199017600Y-109650000D01*
X191400000Y-116200000D02*
X192200000Y-115400000D01*
X190000000Y-116200000D02*
X191400000Y-116200000D01*
X192650000Y-115850000D02*
X192200000Y-115400000D01*
X193500000Y-115850000D02*
X192650000Y-115850000D01*
X195000000Y-107900000D02*
X195000000Y-106608000D01*
X193195190Y-114404810D02*
X192200000Y-115400000D01*
X193195190Y-112945190D02*
X193195190Y-114404810D01*
X191350000Y-111100000D02*
X193195190Y-112945190D01*
X190000000Y-117200000D02*
X190000000Y-116200000D01*
X193699999Y-116049999D02*
X193500000Y-115850000D01*
X195331399Y-117681399D02*
X193699999Y-116049999D01*
X199818601Y-117681399D02*
X195331399Y-117681399D01*
X200152000Y-117348000D02*
X199818601Y-117681399D01*
X204740001Y-115878999D02*
X205740000Y-114879000D01*
X204740001Y-116368843D02*
X204740001Y-115878999D01*
X204266201Y-116842643D02*
X204740001Y-116368843D01*
X204266201Y-122023988D02*
X204266201Y-116842643D01*
X205740000Y-123497787D02*
X204266201Y-122023988D01*
X205740000Y-124912000D02*
X205740000Y-123497787D01*
X184683500Y-106934000D02*
X185166000Y-106451500D01*
X183896000Y-106934000D02*
X184683500Y-106934000D01*
X186871500Y-106451500D02*
X186900000Y-106480000D01*
X185166000Y-106451500D02*
X186871500Y-106451500D01*
X187875000Y-107455000D02*
X187875000Y-107900000D01*
X186900000Y-106480000D02*
X187875000Y-107455000D01*
X194310000Y-124968000D02*
X194310000Y-123444000D01*
X194310000Y-123444000D02*
X195326000Y-122428000D01*
X195412359Y-104035861D02*
X194650360Y-104797860D01*
X195640961Y-103807259D02*
X195412359Y-104035861D01*
X198788279Y-103807259D02*
X195640961Y-103807259D01*
X199021780Y-104040760D02*
X198788279Y-103807259D01*
X199499180Y-104040760D02*
X199021780Y-104040760D01*
X183896000Y-106934000D02*
X183896000Y-104407390D01*
X183896000Y-104407390D02*
X184828180Y-103475210D01*
X193327710Y-103475210D02*
X194650360Y-104797860D01*
X184828180Y-103475210D02*
X193327710Y-103475210D01*
D34*
G04 #@! TO.N,USB_PWR*
X187602000Y-110802000D02*
X187800000Y-111000000D01*
X185403000Y-110802000D02*
X187602000Y-110802000D01*
D33*
X188500000Y-116753601D02*
X188512881Y-116753601D01*
X188500000Y-116766482D02*
X188500000Y-116753601D01*
X188356237Y-111556237D02*
X187800000Y-111000000D01*
X187866482Y-117400000D02*
X188500000Y-116766482D01*
X186250000Y-117400000D02*
X187866482Y-117400000D01*
X189028602Y-114944271D02*
X189028602Y-116237880D01*
X189028602Y-116237880D02*
X188966482Y-116300000D01*
X188686300Y-114601969D02*
X189028602Y-114944271D01*
X188686300Y-111951970D02*
X188686300Y-114601969D01*
X188550000Y-111815670D02*
X188686300Y-111951970D01*
X188550000Y-111556237D02*
X188550000Y-111815670D01*
X188512881Y-116753601D02*
X188966482Y-116300000D01*
X188550000Y-111556237D02*
X188356237Y-111556237D01*
X188966482Y-116300000D02*
X189028601Y-116237881D01*
G04 #@! TO.N,LED1_P2*
X190925000Y-108000000D02*
X190925000Y-108675000D01*
X190925000Y-108675000D02*
X190350000Y-109250000D01*
G04 #@! TO.N,Net-(D1-Pad1)*
X191988000Y-107188000D02*
X192800000Y-108000000D01*
X191770000Y-107188000D02*
X191988000Y-107188000D01*
G04 #@! TO.N,/SWDIO*
X198301482Y-111600000D02*
X198868601Y-112167119D01*
X196342000Y-111600000D02*
X198301482Y-111600000D01*
X198868601Y-112167119D02*
X198868601Y-113550000D01*
X198868601Y-113550000D02*
X199540000Y-113550000D01*
G04 #@! TO.N,/SWDCLK*
X197800000Y-113550000D02*
X198270000Y-113550000D01*
X197598601Y-113348601D02*
X197800000Y-113550000D01*
X197598601Y-112167119D02*
X197598601Y-113348601D01*
X195072000Y-111760000D02*
X195671399Y-112121399D01*
X195671399Y-112121399D02*
X197552881Y-112121399D01*
X197552881Y-112121399D02*
X197598601Y-112167119D01*
G04 #@! TO.N,/RESET*
X193937600Y-113550000D02*
X193500000Y-113112400D01*
X194460000Y-113550000D02*
X193937600Y-113550000D01*
X193500000Y-113112400D02*
X193500000Y-112100000D01*
X193500000Y-112100000D02*
X192550000Y-111150000D01*
X191321390Y-109921390D02*
X192550000Y-111150000D01*
X189450000Y-107900000D02*
X189911612Y-108361612D01*
X189911612Y-108361612D02*
X189911612Y-108788388D01*
X189911612Y-108788388D02*
X189921399Y-108798175D01*
X189921399Y-108798175D02*
X189921399Y-109455729D01*
X189921399Y-109455729D02*
X190387060Y-109921390D01*
X190387060Y-109921390D02*
X191321390Y-109921390D01*
G04 #@! TO.N,SDA*
X183050000Y-112950000D02*
X180600000Y-112900000D01*
X183750000Y-112000000D02*
X183050000Y-112950000D01*
X188008001Y-104328001D02*
X188770000Y-105090000D01*
X187476999Y-104328001D02*
X188008001Y-104328001D01*
X186900000Y-104905000D02*
X187476999Y-104328001D01*
X189278220Y-105090000D02*
X189570360Y-104797860D01*
X188770000Y-105090000D02*
X189278220Y-105090000D01*
G04 #@! TO.N,SCL*
X191348361Y-104035861D02*
X192110360Y-104797860D01*
X191119759Y-103807259D02*
X191348361Y-104035861D01*
X185697741Y-103807259D02*
X191119759Y-103807259D01*
X185166000Y-104339000D02*
X185697741Y-103807259D01*
X185166000Y-104876500D02*
X185166000Y-104339000D01*
G04 #@! TO.N,IMU_INT*
X185150000Y-109950000D02*
X185178610Y-109921390D01*
X185178610Y-109921390D02*
X188714408Y-109921390D01*
X188991110Y-110198092D02*
X188991110Y-112341110D01*
X188714408Y-109921390D02*
X188991110Y-110198092D01*
X189900000Y-113250000D02*
X191000000Y-113250000D01*
X188991110Y-112341110D02*
X189900000Y-113250000D01*
G04 #@! TO.N,BattPwr*
X186400000Y-116200000D02*
X187800000Y-116200000D01*
X184402400Y-117400000D02*
X185602400Y-116200000D01*
X183750000Y-117400000D02*
X184402400Y-117400000D01*
X186400000Y-115017600D02*
X186400000Y-116200000D01*
X187117600Y-114300000D02*
X186400000Y-115017600D01*
X187800000Y-114300000D02*
X187117600Y-114300000D01*
X185602400Y-116200000D02*
X186400000Y-116200000D01*
X187650000Y-114150000D02*
X187800000Y-114300000D01*
X186350000Y-114150000D02*
X187650000Y-114150000D01*
G04 #@! TO.N,Net-(L4-Pad1)*
X191425000Y-114300000D02*
X192200000Y-113525000D01*
X190000000Y-114300000D02*
X191425000Y-114300000D01*
G04 #@! TO.N,/BatteryManagement/Batt-*
X187800000Y-115250000D02*
X188500001Y-115250000D01*
X188500001Y-115250000D02*
X188600001Y-115150000D01*
G04 #@! TO.N,/USB_DP*
X188150000Y-112050000D02*
X188092799Y-112628601D01*
X188092799Y-112628601D02*
X187300935Y-112628601D01*
X187300935Y-112628601D02*
X186774334Y-112102000D01*
X186774334Y-112102000D02*
X185403000Y-112102000D01*
G04 #@! TO.N,/USB_DM*
X187303400Y-112200000D02*
X187600000Y-112200000D01*
X185403000Y-111452000D02*
X186555400Y-111452000D01*
X186555400Y-111452000D02*
X187303400Y-112200000D01*
G04 #@! TO.N,Net-(J3-Pad2)*
X182004400Y-124206000D02*
X183274400Y-122936000D01*
X183274400Y-122936000D02*
X185928000Y-122936000D01*
X185928000Y-122936000D02*
X189230000Y-119634000D01*
X189230000Y-119634000D02*
X193294000Y-119634000D01*
X181610000Y-124206000D02*
X181102000Y-124714000D01*
X182004400Y-124206000D02*
X181610000Y-124206000D01*
G04 #@! TO.N,Net-(C1-Pad1)*
X201907061Y-106999361D02*
X202011280Y-106895142D01*
X201694459Y-106999361D02*
X201907061Y-106999361D01*
X201629612Y-107064208D02*
X201694459Y-106999361D01*
X201168000Y-107645000D02*
X201629612Y-107183388D01*
X201629612Y-107183388D02*
X201629612Y-107064208D01*
X202011280Y-106895142D02*
X202011280Y-105084219D01*
X202011280Y-105084219D02*
X201869701Y-104942640D01*
G04 #@! TO.N,Net-(C2-Pad1)*
X200197720Y-104700768D02*
X200217056Y-104720104D01*
X200499898Y-104720104D02*
X200217056Y-104720104D01*
X200560924Y-104720104D02*
X200499898Y-104720104D01*
X201399180Y-105558360D02*
X200560924Y-104720104D01*
X201399180Y-106240760D02*
X201399180Y-105558360D01*
G04 #@! TO.N,Audio_out*
X199490000Y-106100000D02*
X199490000Y-105783518D01*
X200042610Y-116527610D02*
X201318054Y-116527610D01*
X199339000Y-115824000D02*
X200042610Y-116527610D01*
X201580110Y-116265554D02*
X201580110Y-115382446D01*
X201318054Y-116527610D02*
X201580110Y-116265554D01*
X201580110Y-115382446D02*
X201676000Y-115286556D01*
X201676000Y-115286556D02*
X201676000Y-114046000D01*
X201930000Y-113871500D02*
X201930000Y-113284000D01*
X201755500Y-114046000D02*
X201930000Y-113871500D01*
X201676000Y-114046000D02*
X201755500Y-114046000D01*
X196088000Y-115950330D02*
X196088000Y-115570000D01*
X196390271Y-116252601D02*
X196088000Y-115950330D01*
X196801729Y-116252601D02*
X196390271Y-116252601D01*
X199339000Y-115824000D02*
X197230330Y-115824000D01*
X197230330Y-115824000D02*
X196801729Y-116252601D01*
X200401578Y-114295578D02*
X200406000Y-114300000D01*
X199499180Y-106240760D02*
X199499180Y-106923160D01*
X199499180Y-106923160D02*
X199898000Y-107321980D01*
X199898000Y-107321980D02*
X199898000Y-108221399D01*
X199898000Y-108221399D02*
X200092881Y-108221399D01*
X200092881Y-108221399D02*
X200401578Y-108530096D01*
X200401578Y-108530096D02*
X200401578Y-114295578D01*
G04 #@! TO.N,Net-(C3-Pad2)*
X201629612Y-108758388D02*
X201168000Y-109220000D01*
X201871610Y-108008390D02*
X201871610Y-108049054D01*
X201629612Y-108291052D02*
X201629612Y-108758388D01*
X201871610Y-108049054D02*
X201629612Y-108291052D01*
X201373763Y-110852763D02*
X201930000Y-111409000D01*
X200706388Y-110185388D02*
X201373763Y-110852763D01*
X200706388Y-109681612D02*
X200706388Y-110185388D01*
X201168000Y-109220000D02*
X200706388Y-109681612D01*
X200914000Y-115824000D02*
X200914000Y-113284000D01*
X201373763Y-111965237D02*
X201930000Y-111409000D01*
X201001390Y-112337610D02*
X201373763Y-111965237D01*
X201001390Y-113196610D02*
X201001390Y-112337610D01*
X200914000Y-113284000D02*
X201001390Y-113196610D01*
X201876580Y-104040760D02*
X201399180Y-104040760D01*
X202316090Y-104480270D02*
X201876580Y-104040760D01*
X202316090Y-107021398D02*
X202316090Y-104480270D01*
X202298300Y-107039188D02*
X202316090Y-107021398D01*
X202298300Y-107622364D02*
X202298300Y-107039188D01*
X201871610Y-108049054D02*
X202298300Y-107622364D01*
G04 #@! TO.N,Fun_Btn_1*
X204266201Y-116411577D02*
X203329778Y-117348000D01*
X204266201Y-115426423D02*
X204266201Y-116411577D01*
X203962000Y-115122222D02*
X204266201Y-115426423D01*
X205740000Y-109879000D02*
X203962000Y-111657000D01*
X203962000Y-111657000D02*
X203962000Y-115122222D01*
X203329778Y-117348000D02*
X202438000Y-117348000D01*
X202438000Y-117348000D02*
X202184000Y-117094000D01*
X200406000Y-115062000D02*
X197358000Y-115062000D01*
X197358000Y-115062000D02*
X196596000Y-115824000D01*
X202383999Y-117293999D02*
X202184000Y-117094000D01*
X202383999Y-118026731D02*
X202383999Y-117293999D01*
X202184000Y-118226730D02*
X202383999Y-118026731D01*
X202184000Y-119380000D02*
X202184000Y-118226730D01*
X202858610Y-120054610D02*
X202184000Y-119380000D01*
X202858610Y-122594610D02*
X202858610Y-120054610D01*
X203962000Y-123698000D02*
X202858610Y-122594610D01*
G04 #@! TO.N,Fun_Btn_3*
X190500000Y-118300000D02*
X190450000Y-118250000D01*
X190590000Y-118110000D02*
X190450000Y-118250000D01*
X198120000Y-118110000D02*
X190590000Y-118110000D01*
X201930000Y-121666000D02*
X201930000Y-120904000D01*
X201930000Y-120904000D02*
X202184000Y-120650000D01*
G04 #@! TO.N,IMU_INT2*
X189295920Y-110071836D02*
X188698084Y-109474000D01*
X189295920Y-111363938D02*
X189295920Y-110071836D01*
X191250000Y-112600000D02*
X190531982Y-112600000D01*
X190531982Y-112600000D02*
X189295920Y-111363938D01*
X187215214Y-109474000D02*
X185183214Y-107442000D01*
X188698084Y-109474000D02*
X187215214Y-109474000D01*
X181907786Y-107442000D02*
X180340000Y-109009786D01*
X185183214Y-107442000D02*
X181907786Y-107442000D01*
X180340000Y-109009786D02*
X180340000Y-109474000D01*
G04 #@! TO.N,BattADC*
X196218210Y-119470810D02*
X196342000Y-119594600D01*
X195997190Y-119470810D02*
X196218210Y-119470810D01*
X184658000Y-127508000D02*
X186817670Y-127508000D01*
X187500271Y-126825399D02*
X191516083Y-126825399D01*
X186817670Y-127508000D02*
X187500271Y-126825399D01*
X191516083Y-126825399D02*
X194005190Y-124336292D01*
X194005190Y-124336292D02*
X194005190Y-121462810D01*
X194005190Y-121462810D02*
X195997190Y-119470810D01*
G04 #@! TD*
D35*
G04 #@! TO.N,BattRtn*
G36*
X201651973Y-117742842D02*
X201631579Y-117773363D01*
X201631576Y-117773366D01*
X201514065Y-117949234D01*
X201458868Y-118226730D01*
X201472801Y-118296776D01*
X201472800Y-119309958D01*
X201458868Y-119380000D01*
X201472800Y-119450041D01*
X201472800Y-119450045D01*
X201514064Y-119657495D01*
X201528264Y-119678746D01*
X201631576Y-119833364D01*
X201631578Y-119833366D01*
X201671254Y-119892745D01*
X201730633Y-119932422D01*
X201731744Y-119933533D01*
X201711010Y-119942121D01*
X201476121Y-120177010D01*
X201349000Y-120483908D01*
X201349000Y-120493403D01*
X201300860Y-120565450D01*
X201132706Y-120598898D01*
X200843584Y-120792084D01*
X200650398Y-121081206D01*
X200582560Y-121422250D01*
X200582560Y-121909750D01*
X200650398Y-122250794D01*
X200843584Y-122539916D01*
X200844767Y-122540707D01*
X200691673Y-122693802D01*
X200595000Y-122927191D01*
X200595000Y-123255250D01*
X200753750Y-123414000D01*
X201803000Y-123414000D01*
X201803000Y-123394000D01*
X202057000Y-123394000D01*
X202057000Y-123414000D01*
X202077000Y-123414000D01*
X202077000Y-123668000D01*
X202057000Y-123668000D01*
X202057000Y-124504750D01*
X202215750Y-124663500D01*
X202731534Y-124663500D01*
X202455460Y-124777853D01*
X202065853Y-125167460D01*
X201855000Y-125676506D01*
X201855000Y-125828133D01*
X201468540Y-125441673D01*
X200959494Y-125230820D01*
X200408506Y-125230820D01*
X199899460Y-125441673D01*
X199509853Y-125831280D01*
X199299000Y-126340326D01*
X199299000Y-126891314D01*
X199509853Y-127400360D01*
X199590313Y-127480820D01*
X199318778Y-127480820D01*
X198717847Y-127729734D01*
X198257914Y-128189667D01*
X198009000Y-128790598D01*
X198009000Y-129338000D01*
X196279000Y-129338000D01*
X196279000Y-128790598D01*
X196030086Y-128189667D01*
X195570153Y-127729734D01*
X194969222Y-127480820D01*
X194697687Y-127480820D01*
X194778147Y-127400360D01*
X194989000Y-126891314D01*
X194989000Y-126340326D01*
X194800450Y-125885125D01*
X194896280Y-125845431D01*
X195187431Y-125554280D01*
X195345000Y-125173874D01*
X195345000Y-124762126D01*
X195187431Y-124381720D01*
X195021200Y-124215489D01*
X195021200Y-123826750D01*
X200595000Y-123826750D01*
X200595000Y-124154809D01*
X200691673Y-124388198D01*
X200870301Y-124566827D01*
X201103690Y-124663500D01*
X201644250Y-124663500D01*
X201803000Y-124504750D01*
X201803000Y-123668000D01*
X200753750Y-123668000D01*
X200595000Y-123826750D01*
X195021200Y-123826750D01*
X195021200Y-123738588D01*
X195500110Y-123259679D01*
X195798990Y-123135879D01*
X196033879Y-122900990D01*
X196161000Y-122594092D01*
X196161000Y-122456104D01*
X197509501Y-122456104D01*
X197546648Y-122671217D01*
X197974972Y-122814112D01*
X198425375Y-122782217D01*
X198693352Y-122671217D01*
X198730499Y-122456104D01*
X198120000Y-121845605D01*
X197509501Y-122456104D01*
X196161000Y-122456104D01*
X196161000Y-122261908D01*
X196033879Y-121955010D01*
X195798990Y-121720121D01*
X195492092Y-121593000D01*
X195159908Y-121593000D01*
X194853010Y-121720121D01*
X194716390Y-121856741D01*
X194716390Y-121757398D01*
X194952816Y-121520972D01*
X196971888Y-121520972D01*
X197003783Y-121971375D01*
X197114783Y-122239352D01*
X197329896Y-122276499D01*
X197940395Y-121666000D01*
X198299605Y-121666000D01*
X198910104Y-122276499D01*
X199125217Y-122239352D01*
X199268112Y-121811028D01*
X199236217Y-121360625D01*
X199125217Y-121092648D01*
X198910104Y-121055501D01*
X198299605Y-121666000D01*
X197940395Y-121666000D01*
X197329896Y-121055501D01*
X197114783Y-121092648D01*
X196971888Y-121520972D01*
X194952816Y-121520972D01*
X195597892Y-120875896D01*
X197509501Y-120875896D01*
X198120000Y-121486395D01*
X198730499Y-120875896D01*
X198693352Y-120660783D01*
X198265028Y-120517888D01*
X197814625Y-120549783D01*
X197546648Y-120660783D01*
X197509501Y-120875896D01*
X195597892Y-120875896D01*
X196082768Y-120391020D01*
X196175908Y-120429600D01*
X196508092Y-120429600D01*
X196814990Y-120302479D01*
X197049879Y-120067590D01*
X197128741Y-119877200D01*
X197226067Y-119877200D01*
X197477074Y-120128207D01*
X197894234Y-120301000D01*
X198345766Y-120301000D01*
X198762926Y-120128207D01*
X199013933Y-119877200D01*
X199040689Y-119877200D01*
X199110730Y-119891132D01*
X199180771Y-119877200D01*
X199180776Y-119877200D01*
X199388226Y-119835936D01*
X199623476Y-119678746D01*
X199663154Y-119619364D01*
X201595825Y-117686694D01*
X201651973Y-117742842D01*
X201651973Y-117742842D01*
G37*
X201651973Y-117742842D02*
X201631579Y-117773363D01*
X201631576Y-117773366D01*
X201514065Y-117949234D01*
X201458868Y-118226730D01*
X201472801Y-118296776D01*
X201472800Y-119309958D01*
X201458868Y-119380000D01*
X201472800Y-119450041D01*
X201472800Y-119450045D01*
X201514064Y-119657495D01*
X201528264Y-119678746D01*
X201631576Y-119833364D01*
X201631578Y-119833366D01*
X201671254Y-119892745D01*
X201730633Y-119932422D01*
X201731744Y-119933533D01*
X201711010Y-119942121D01*
X201476121Y-120177010D01*
X201349000Y-120483908D01*
X201349000Y-120493403D01*
X201300860Y-120565450D01*
X201132706Y-120598898D01*
X200843584Y-120792084D01*
X200650398Y-121081206D01*
X200582560Y-121422250D01*
X200582560Y-121909750D01*
X200650398Y-122250794D01*
X200843584Y-122539916D01*
X200844767Y-122540707D01*
X200691673Y-122693802D01*
X200595000Y-122927191D01*
X200595000Y-123255250D01*
X200753750Y-123414000D01*
X201803000Y-123414000D01*
X201803000Y-123394000D01*
X202057000Y-123394000D01*
X202057000Y-123414000D01*
X202077000Y-123414000D01*
X202077000Y-123668000D01*
X202057000Y-123668000D01*
X202057000Y-124504750D01*
X202215750Y-124663500D01*
X202731534Y-124663500D01*
X202455460Y-124777853D01*
X202065853Y-125167460D01*
X201855000Y-125676506D01*
X201855000Y-125828133D01*
X201468540Y-125441673D01*
X200959494Y-125230820D01*
X200408506Y-125230820D01*
X199899460Y-125441673D01*
X199509853Y-125831280D01*
X199299000Y-126340326D01*
X199299000Y-126891314D01*
X199509853Y-127400360D01*
X199590313Y-127480820D01*
X199318778Y-127480820D01*
X198717847Y-127729734D01*
X198257914Y-128189667D01*
X198009000Y-128790598D01*
X198009000Y-129338000D01*
X196279000Y-129338000D01*
X196279000Y-128790598D01*
X196030086Y-128189667D01*
X195570153Y-127729734D01*
X194969222Y-127480820D01*
X194697687Y-127480820D01*
X194778147Y-127400360D01*
X194989000Y-126891314D01*
X194989000Y-126340326D01*
X194800450Y-125885125D01*
X194896280Y-125845431D01*
X195187431Y-125554280D01*
X195345000Y-125173874D01*
X195345000Y-124762126D01*
X195187431Y-124381720D01*
X195021200Y-124215489D01*
X195021200Y-123826750D01*
X200595000Y-123826750D01*
X200595000Y-124154809D01*
X200691673Y-124388198D01*
X200870301Y-124566827D01*
X201103690Y-124663500D01*
X201644250Y-124663500D01*
X201803000Y-124504750D01*
X201803000Y-123668000D01*
X200753750Y-123668000D01*
X200595000Y-123826750D01*
X195021200Y-123826750D01*
X195021200Y-123738588D01*
X195500110Y-123259679D01*
X195798990Y-123135879D01*
X196033879Y-122900990D01*
X196161000Y-122594092D01*
X196161000Y-122456104D01*
X197509501Y-122456104D01*
X197546648Y-122671217D01*
X197974972Y-122814112D01*
X198425375Y-122782217D01*
X198693352Y-122671217D01*
X198730499Y-122456104D01*
X198120000Y-121845605D01*
X197509501Y-122456104D01*
X196161000Y-122456104D01*
X196161000Y-122261908D01*
X196033879Y-121955010D01*
X195798990Y-121720121D01*
X195492092Y-121593000D01*
X195159908Y-121593000D01*
X194853010Y-121720121D01*
X194716390Y-121856741D01*
X194716390Y-121757398D01*
X194952816Y-121520972D01*
X196971888Y-121520972D01*
X197003783Y-121971375D01*
X197114783Y-122239352D01*
X197329896Y-122276499D01*
X197940395Y-121666000D01*
X198299605Y-121666000D01*
X198910104Y-122276499D01*
X199125217Y-122239352D01*
X199268112Y-121811028D01*
X199236217Y-121360625D01*
X199125217Y-121092648D01*
X198910104Y-121055501D01*
X198299605Y-121666000D01*
X197940395Y-121666000D01*
X197329896Y-121055501D01*
X197114783Y-121092648D01*
X196971888Y-121520972D01*
X194952816Y-121520972D01*
X195597892Y-120875896D01*
X197509501Y-120875896D01*
X198120000Y-121486395D01*
X198730499Y-120875896D01*
X198693352Y-120660783D01*
X198265028Y-120517888D01*
X197814625Y-120549783D01*
X197546648Y-120660783D01*
X197509501Y-120875896D01*
X195597892Y-120875896D01*
X196082768Y-120391020D01*
X196175908Y-120429600D01*
X196508092Y-120429600D01*
X196814990Y-120302479D01*
X197049879Y-120067590D01*
X197128741Y-119877200D01*
X197226067Y-119877200D01*
X197477074Y-120128207D01*
X197894234Y-120301000D01*
X198345766Y-120301000D01*
X198762926Y-120128207D01*
X199013933Y-119877200D01*
X199040689Y-119877200D01*
X199110730Y-119891132D01*
X199180771Y-119877200D01*
X199180776Y-119877200D01*
X199388226Y-119835936D01*
X199623476Y-119678746D01*
X199663154Y-119619364D01*
X201595825Y-117686694D01*
X201651973Y-117742842D01*
G36*
X192429853Y-127400360D02*
X192819460Y-127789967D01*
X193328506Y-128000820D01*
X193446761Y-128000820D01*
X193257914Y-128189667D01*
X193009000Y-128790598D01*
X193009000Y-129338000D01*
X183575273Y-129338000D01*
X183620461Y-129292812D01*
X183922660Y-128563241D01*
X183922660Y-127914693D01*
X183950121Y-127980990D01*
X184185010Y-128215879D01*
X184491908Y-128343000D01*
X184824092Y-128343000D01*
X185122972Y-128219200D01*
X186747629Y-128219200D01*
X186817670Y-128233132D01*
X186887711Y-128219200D01*
X186887716Y-128219200D01*
X187095166Y-128177936D01*
X187330416Y-128020746D01*
X187370094Y-127961364D01*
X187794860Y-127536599D01*
X191446042Y-127536599D01*
X191516083Y-127550531D01*
X191586124Y-127536599D01*
X191586129Y-127536599D01*
X191793579Y-127495335D01*
X192028829Y-127338145D01*
X192068507Y-127278763D01*
X192288403Y-127058867D01*
X192429853Y-127400360D01*
X192429853Y-127400360D01*
G37*
X192429853Y-127400360D02*
X192819460Y-127789967D01*
X193328506Y-128000820D01*
X193446761Y-128000820D01*
X193257914Y-128189667D01*
X193009000Y-128790598D01*
X193009000Y-129338000D01*
X183575273Y-129338000D01*
X183620461Y-129292812D01*
X183922660Y-128563241D01*
X183922660Y-127914693D01*
X183950121Y-127980990D01*
X184185010Y-128215879D01*
X184491908Y-128343000D01*
X184824092Y-128343000D01*
X185122972Y-128219200D01*
X186747629Y-128219200D01*
X186817670Y-128233132D01*
X186887711Y-128219200D01*
X186887716Y-128219200D01*
X187095166Y-128177936D01*
X187330416Y-128020746D01*
X187370094Y-127961364D01*
X187794860Y-127536599D01*
X191446042Y-127536599D01*
X191516083Y-127550531D01*
X191586124Y-127536599D01*
X191586129Y-127536599D01*
X191793579Y-127495335D01*
X192028829Y-127338145D01*
X192068507Y-127278763D01*
X192288403Y-127058867D01*
X192429853Y-127400360D01*
G36*
X189773010Y-120450121D02*
X189538121Y-120685010D01*
X189411000Y-120991908D01*
X189411000Y-121324092D01*
X189508000Y-121558271D01*
X189508000Y-122555000D01*
X189528000Y-122555000D01*
X189528000Y-122809000D01*
X189508000Y-122809000D01*
X189508000Y-123908250D01*
X189639065Y-124039315D01*
X189446191Y-124168191D01*
X189305843Y-124378235D01*
X189296816Y-124423619D01*
X189284625Y-124405375D01*
X188793418Y-124077161D01*
X188360256Y-123991000D01*
X188067744Y-123991000D01*
X187634582Y-124077161D01*
X187143375Y-124405375D01*
X186944000Y-124703761D01*
X186744625Y-124405375D01*
X186253418Y-124077161D01*
X185820256Y-123991000D01*
X185527744Y-123991000D01*
X185094582Y-124077161D01*
X184603375Y-124405375D01*
X184275161Y-124896582D01*
X184159908Y-125476000D01*
X184275161Y-126055418D01*
X184603375Y-126546625D01*
X184792509Y-126673000D01*
X184491908Y-126673000D01*
X184185010Y-126800121D01*
X183950121Y-127035010D01*
X183823000Y-127341908D01*
X183823000Y-127532959D01*
X183620461Y-127043988D01*
X183062072Y-126485599D01*
X182332501Y-126183400D01*
X181542819Y-126183400D01*
X180813248Y-126485599D01*
X180542000Y-126756847D01*
X180542000Y-125861440D01*
X181852000Y-125861440D01*
X182099765Y-125812157D01*
X182309809Y-125671809D01*
X182450157Y-125461765D01*
X182499440Y-125214000D01*
X182499440Y-124730577D01*
X182517146Y-124718746D01*
X182556824Y-124659364D01*
X183568989Y-123647200D01*
X185857959Y-123647200D01*
X185928000Y-123661132D01*
X185998041Y-123647200D01*
X185998046Y-123647200D01*
X186205496Y-123605936D01*
X186440746Y-123448746D01*
X186480424Y-123389364D01*
X186902038Y-122967750D01*
X188246000Y-122967750D01*
X188246000Y-123558310D01*
X188342673Y-123791699D01*
X188521302Y-123970327D01*
X188754691Y-124067000D01*
X189095250Y-124067000D01*
X189254000Y-123908250D01*
X189254000Y-122809000D01*
X188404750Y-122809000D01*
X188246000Y-122967750D01*
X186902038Y-122967750D01*
X188064098Y-121805690D01*
X188246000Y-121805690D01*
X188246000Y-122396250D01*
X188404750Y-122555000D01*
X189254000Y-122555000D01*
X189254000Y-121455750D01*
X189095250Y-121297000D01*
X188754691Y-121297000D01*
X188521302Y-121393673D01*
X188342673Y-121572301D01*
X188246000Y-121805690D01*
X188064098Y-121805690D01*
X189524589Y-120345200D01*
X190026312Y-120345200D01*
X189773010Y-120450121D01*
X189773010Y-120450121D01*
G37*
X189773010Y-120450121D02*
X189538121Y-120685010D01*
X189411000Y-120991908D01*
X189411000Y-121324092D01*
X189508000Y-121558271D01*
X189508000Y-122555000D01*
X189528000Y-122555000D01*
X189528000Y-122809000D01*
X189508000Y-122809000D01*
X189508000Y-123908250D01*
X189639065Y-124039315D01*
X189446191Y-124168191D01*
X189305843Y-124378235D01*
X189296816Y-124423619D01*
X189284625Y-124405375D01*
X188793418Y-124077161D01*
X188360256Y-123991000D01*
X188067744Y-123991000D01*
X187634582Y-124077161D01*
X187143375Y-124405375D01*
X186944000Y-124703761D01*
X186744625Y-124405375D01*
X186253418Y-124077161D01*
X185820256Y-123991000D01*
X185527744Y-123991000D01*
X185094582Y-124077161D01*
X184603375Y-124405375D01*
X184275161Y-124896582D01*
X184159908Y-125476000D01*
X184275161Y-126055418D01*
X184603375Y-126546625D01*
X184792509Y-126673000D01*
X184491908Y-126673000D01*
X184185010Y-126800121D01*
X183950121Y-127035010D01*
X183823000Y-127341908D01*
X183823000Y-127532959D01*
X183620461Y-127043988D01*
X183062072Y-126485599D01*
X182332501Y-126183400D01*
X181542819Y-126183400D01*
X180813248Y-126485599D01*
X180542000Y-126756847D01*
X180542000Y-125861440D01*
X181852000Y-125861440D01*
X182099765Y-125812157D01*
X182309809Y-125671809D01*
X182450157Y-125461765D01*
X182499440Y-125214000D01*
X182499440Y-124730577D01*
X182517146Y-124718746D01*
X182556824Y-124659364D01*
X183568989Y-123647200D01*
X185857959Y-123647200D01*
X185928000Y-123661132D01*
X185998041Y-123647200D01*
X185998046Y-123647200D01*
X186205496Y-123605936D01*
X186440746Y-123448746D01*
X186480424Y-123389364D01*
X186902038Y-122967750D01*
X188246000Y-122967750D01*
X188246000Y-123558310D01*
X188342673Y-123791699D01*
X188521302Y-123970327D01*
X188754691Y-124067000D01*
X189095250Y-124067000D01*
X189254000Y-123908250D01*
X189254000Y-122809000D01*
X188404750Y-122809000D01*
X188246000Y-122967750D01*
X186902038Y-122967750D01*
X188064098Y-121805690D01*
X188246000Y-121805690D01*
X188246000Y-122396250D01*
X188404750Y-122555000D01*
X189254000Y-122555000D01*
X189254000Y-121455750D01*
X189095250Y-121297000D01*
X188754691Y-121297000D01*
X188521302Y-121393673D01*
X188342673Y-121572301D01*
X188246000Y-121805690D01*
X188064098Y-121805690D01*
X189524589Y-120345200D01*
X190026312Y-120345200D01*
X189773010Y-120450121D01*
G36*
X180753000Y-115314440D02*
X180938432Y-115314440D01*
X180862336Y-115697000D01*
X180964007Y-116208136D01*
X181253543Y-116641457D01*
X181686864Y-116930993D01*
X182068978Y-117007000D01*
X182477022Y-117007000D01*
X182602560Y-116982029D01*
X182602560Y-117900000D01*
X182651843Y-118147765D01*
X182792191Y-118357809D01*
X183002235Y-118498157D01*
X183250000Y-118547440D01*
X184250000Y-118547440D01*
X184497765Y-118498157D01*
X184707809Y-118357809D01*
X184848157Y-118147765D01*
X184891802Y-117928344D01*
X184915146Y-117912746D01*
X184954824Y-117853364D01*
X185102560Y-117705628D01*
X185102560Y-117900000D01*
X185151843Y-118147765D01*
X185292191Y-118357809D01*
X185502235Y-118498157D01*
X185750000Y-118547440D01*
X186750000Y-118547440D01*
X186997765Y-118498157D01*
X187207809Y-118357809D01*
X187348157Y-118147765D01*
X187355430Y-118111200D01*
X187796441Y-118111200D01*
X187866482Y-118125132D01*
X187936523Y-118111200D01*
X187936528Y-118111200D01*
X188143978Y-118069936D01*
X188379228Y-117912746D01*
X188418906Y-117853364D01*
X188953369Y-117318902D01*
X189012745Y-117279228D01*
X189017904Y-117271508D01*
X189025627Y-117266347D01*
X189065305Y-117206965D01*
X189165000Y-117107270D01*
X189165000Y-117366092D01*
X189292121Y-117672990D01*
X189527010Y-117907879D01*
X189664350Y-117964767D01*
X189615000Y-118083908D01*
X189615000Y-118416092D01*
X189742121Y-118722990D01*
X189941931Y-118922800D01*
X189300041Y-118922800D01*
X189229999Y-118908868D01*
X189159957Y-118922800D01*
X189159954Y-118922800D01*
X188952504Y-118964064D01*
X188952503Y-118964065D01*
X188952502Y-118964065D01*
X188776635Y-119081576D01*
X188776633Y-119081578D01*
X188717254Y-119121254D01*
X188677578Y-119180633D01*
X187373000Y-120485211D01*
X187373000Y-120099744D01*
X187286839Y-119666582D01*
X186958625Y-119175375D01*
X186467417Y-118847161D01*
X185888000Y-118731908D01*
X185308582Y-118847161D01*
X184817375Y-119175375D01*
X184774758Y-119239156D01*
X184622586Y-119011414D01*
X184331435Y-118816874D01*
X183988000Y-118748560D01*
X182788000Y-118748560D01*
X182444565Y-118816874D01*
X182153414Y-119011414D01*
X181958874Y-119302565D01*
X181890560Y-119646000D01*
X181890560Y-121146000D01*
X181958874Y-121489435D01*
X182153414Y-121780586D01*
X182444565Y-121975126D01*
X182788000Y-122043440D01*
X183988000Y-122043440D01*
X184331435Y-121975126D01*
X184622586Y-121780586D01*
X184774758Y-121552844D01*
X184817375Y-121616625D01*
X185308583Y-121944839D01*
X185813032Y-122045180D01*
X185633412Y-122224800D01*
X183344441Y-122224800D01*
X183274399Y-122210868D01*
X183204357Y-122224800D01*
X183204354Y-122224800D01*
X182996904Y-122266064D01*
X182996903Y-122266065D01*
X182996902Y-122266065D01*
X182821035Y-122383576D01*
X182821033Y-122383578D01*
X182761654Y-122423254D01*
X182721978Y-122482633D01*
X182487000Y-122717611D01*
X182487000Y-122587691D01*
X182390327Y-122354302D01*
X182211699Y-122175673D01*
X181978310Y-122079000D01*
X181387750Y-122079000D01*
X181229000Y-122237750D01*
X181229000Y-123087000D01*
X181249000Y-123087000D01*
X181249000Y-123341000D01*
X181229000Y-123341000D01*
X181229000Y-123361000D01*
X180975000Y-123361000D01*
X180975000Y-123341000D01*
X180955000Y-123341000D01*
X180955000Y-123087000D01*
X180975000Y-123087000D01*
X180975000Y-122237750D01*
X180816250Y-122079000D01*
X180542000Y-122079000D01*
X180542000Y-115272470D01*
X180753000Y-115314440D01*
X180753000Y-115314440D01*
G37*
X180753000Y-115314440D02*
X180938432Y-115314440D01*
X180862336Y-115697000D01*
X180964007Y-116208136D01*
X181253543Y-116641457D01*
X181686864Y-116930993D01*
X182068978Y-117007000D01*
X182477022Y-117007000D01*
X182602560Y-116982029D01*
X182602560Y-117900000D01*
X182651843Y-118147765D01*
X182792191Y-118357809D01*
X183002235Y-118498157D01*
X183250000Y-118547440D01*
X184250000Y-118547440D01*
X184497765Y-118498157D01*
X184707809Y-118357809D01*
X184848157Y-118147765D01*
X184891802Y-117928344D01*
X184915146Y-117912746D01*
X184954824Y-117853364D01*
X185102560Y-117705628D01*
X185102560Y-117900000D01*
X185151843Y-118147765D01*
X185292191Y-118357809D01*
X185502235Y-118498157D01*
X185750000Y-118547440D01*
X186750000Y-118547440D01*
X186997765Y-118498157D01*
X187207809Y-118357809D01*
X187348157Y-118147765D01*
X187355430Y-118111200D01*
X187796441Y-118111200D01*
X187866482Y-118125132D01*
X187936523Y-118111200D01*
X187936528Y-118111200D01*
X188143978Y-118069936D01*
X188379228Y-117912746D01*
X188418906Y-117853364D01*
X188953369Y-117318902D01*
X189012745Y-117279228D01*
X189017904Y-117271508D01*
X189025627Y-117266347D01*
X189065305Y-117206965D01*
X189165000Y-117107270D01*
X189165000Y-117366092D01*
X189292121Y-117672990D01*
X189527010Y-117907879D01*
X189664350Y-117964767D01*
X189615000Y-118083908D01*
X189615000Y-118416092D01*
X189742121Y-118722990D01*
X189941931Y-118922800D01*
X189300041Y-118922800D01*
X189229999Y-118908868D01*
X189159957Y-118922800D01*
X189159954Y-118922800D01*
X188952504Y-118964064D01*
X188952503Y-118964065D01*
X188952502Y-118964065D01*
X188776635Y-119081576D01*
X188776633Y-119081578D01*
X188717254Y-119121254D01*
X188677578Y-119180633D01*
X187373000Y-120485211D01*
X187373000Y-120099744D01*
X187286839Y-119666582D01*
X186958625Y-119175375D01*
X186467417Y-118847161D01*
X185888000Y-118731908D01*
X185308582Y-118847161D01*
X184817375Y-119175375D01*
X184774758Y-119239156D01*
X184622586Y-119011414D01*
X184331435Y-118816874D01*
X183988000Y-118748560D01*
X182788000Y-118748560D01*
X182444565Y-118816874D01*
X182153414Y-119011414D01*
X181958874Y-119302565D01*
X181890560Y-119646000D01*
X181890560Y-121146000D01*
X181958874Y-121489435D01*
X182153414Y-121780586D01*
X182444565Y-121975126D01*
X182788000Y-122043440D01*
X183988000Y-122043440D01*
X184331435Y-121975126D01*
X184622586Y-121780586D01*
X184774758Y-121552844D01*
X184817375Y-121616625D01*
X185308583Y-121944839D01*
X185813032Y-122045180D01*
X185633412Y-122224800D01*
X183344441Y-122224800D01*
X183274399Y-122210868D01*
X183204357Y-122224800D01*
X183204354Y-122224800D01*
X182996904Y-122266064D01*
X182996903Y-122266065D01*
X182996902Y-122266065D01*
X182821035Y-122383576D01*
X182821033Y-122383578D01*
X182761654Y-122423254D01*
X182721978Y-122482633D01*
X182487000Y-122717611D01*
X182487000Y-122587691D01*
X182390327Y-122354302D01*
X182211699Y-122175673D01*
X181978310Y-122079000D01*
X181387750Y-122079000D01*
X181229000Y-122237750D01*
X181229000Y-123087000D01*
X181249000Y-123087000D01*
X181249000Y-123341000D01*
X181229000Y-123341000D01*
X181229000Y-123361000D01*
X180975000Y-123361000D01*
X180975000Y-123341000D01*
X180955000Y-123341000D01*
X180955000Y-123087000D01*
X180975000Y-123087000D01*
X180975000Y-122237750D01*
X180816250Y-122079000D01*
X180542000Y-122079000D01*
X180542000Y-115272470D01*
X180753000Y-115314440D01*
G36*
X192854048Y-120355564D02*
X191776832Y-121432779D01*
X191628765Y-121333843D01*
X191381000Y-121284560D01*
X191081000Y-121284560D01*
X191081000Y-120991908D01*
X190953879Y-120685010D01*
X190718990Y-120450121D01*
X190465688Y-120345200D01*
X192829028Y-120345200D01*
X192854048Y-120355564D01*
X192854048Y-120355564D01*
G37*
X192854048Y-120355564D02*
X191776832Y-121432779D01*
X191628765Y-121333843D01*
X191381000Y-121284560D01*
X191081000Y-121284560D01*
X191081000Y-120991908D01*
X190953879Y-120685010D01*
X190718990Y-120450121D01*
X190465688Y-120345200D01*
X192829028Y-120345200D01*
X192854048Y-120355564D01*
G36*
X192579954Y-116561200D02*
X192579957Y-116561200D01*
X192649999Y-116575132D01*
X192720041Y-116561200D01*
X193035028Y-116561200D01*
X193325891Y-116681679D01*
X194043011Y-117398800D01*
X190821452Y-117398800D01*
X190835000Y-117366092D01*
X190835000Y-117084913D01*
X190987809Y-116982809D01*
X191035657Y-116911200D01*
X191329959Y-116911200D01*
X191400000Y-116925132D01*
X191470041Y-116911200D01*
X191470046Y-116911200D01*
X191677496Y-116869936D01*
X191912746Y-116712746D01*
X191952424Y-116653364D01*
X192070848Y-116534940D01*
X192447935Y-116534940D01*
X192579954Y-116561200D01*
X192579954Y-116561200D01*
G37*
X192579954Y-116561200D02*
X192579957Y-116561200D01*
X192649999Y-116575132D01*
X192720041Y-116561200D01*
X193035028Y-116561200D01*
X193325891Y-116681679D01*
X194043011Y-117398800D01*
X190821452Y-117398800D01*
X190835000Y-117366092D01*
X190835000Y-117084913D01*
X190987809Y-116982809D01*
X191035657Y-116911200D01*
X191329959Y-116911200D01*
X191400000Y-116925132D01*
X191470041Y-116911200D01*
X191470046Y-116911200D01*
X191677496Y-116869936D01*
X191912746Y-116712746D01*
X191952424Y-116653364D01*
X192070848Y-116534940D01*
X192447935Y-116534940D01*
X192579954Y-116561200D01*
G36*
X190277000Y-110723000D02*
X190297000Y-110723000D01*
X190297000Y-110977000D01*
X190277000Y-110977000D01*
X190277000Y-110997000D01*
X190023000Y-110997000D01*
X190023000Y-110977000D01*
X190007120Y-110977000D01*
X190007120Y-110723000D01*
X190023000Y-110723000D01*
X190023000Y-110703000D01*
X190277000Y-110703000D01*
X190277000Y-110723000D01*
X190277000Y-110723000D01*
G37*
X190277000Y-110723000D02*
X190297000Y-110723000D01*
X190297000Y-110977000D01*
X190277000Y-110977000D01*
X190277000Y-110997000D01*
X190023000Y-110997000D01*
X190023000Y-110977000D01*
X190007120Y-110977000D01*
X190007120Y-110723000D01*
X190023000Y-110723000D01*
X190023000Y-110703000D01*
X190277000Y-110703000D01*
X190277000Y-110723000D01*
G36*
X197410694Y-107815000D02*
X197285750Y-107815000D01*
X197127000Y-107973750D01*
X197127000Y-109523000D01*
X198143000Y-109523000D01*
X198143000Y-109503000D01*
X198143867Y-109503000D01*
X198157401Y-109571042D01*
X198157401Y-109571046D01*
X198198665Y-109778496D01*
X198206553Y-109790301D01*
X198211029Y-109797000D01*
X198143000Y-109797000D01*
X198143000Y-109777000D01*
X197127000Y-109777000D01*
X197127000Y-109797000D01*
X196873000Y-109797000D01*
X196873000Y-109777000D01*
X196853000Y-109777000D01*
X196853000Y-109523000D01*
X196873000Y-109523000D01*
X196873000Y-107973750D01*
X196714250Y-107815000D01*
X196503690Y-107815000D01*
X196373396Y-107868969D01*
X196347765Y-107851843D01*
X196100000Y-107802560D01*
X195835000Y-107802560D01*
X195835000Y-107733908D01*
X195711200Y-107435028D01*
X195711200Y-107365801D01*
X196961495Y-107365801D01*
X197410694Y-107815000D01*
X197410694Y-107815000D01*
G37*
X197410694Y-107815000D02*
X197285750Y-107815000D01*
X197127000Y-107973750D01*
X197127000Y-109523000D01*
X198143000Y-109523000D01*
X198143000Y-109503000D01*
X198143867Y-109503000D01*
X198157401Y-109571042D01*
X198157401Y-109571046D01*
X198198665Y-109778496D01*
X198206553Y-109790301D01*
X198211029Y-109797000D01*
X198143000Y-109797000D01*
X198143000Y-109777000D01*
X197127000Y-109777000D01*
X197127000Y-109797000D01*
X196873000Y-109797000D01*
X196873000Y-109777000D01*
X196853000Y-109777000D01*
X196853000Y-109523000D01*
X196873000Y-109523000D01*
X196873000Y-107973750D01*
X196714250Y-107815000D01*
X196503690Y-107815000D01*
X196373396Y-107868969D01*
X196347765Y-107851843D01*
X196100000Y-107802560D01*
X195835000Y-107802560D01*
X195835000Y-107733908D01*
X195711200Y-107435028D01*
X195711200Y-107365801D01*
X196961495Y-107365801D01*
X197410694Y-107815000D01*
G36*
X188217578Y-105543367D02*
X188257254Y-105602746D01*
X188316633Y-105642422D01*
X188316635Y-105642424D01*
X188492502Y-105759935D01*
X188492503Y-105759935D01*
X188492504Y-105759936D01*
X188572738Y-105775895D01*
X188779023Y-105982180D01*
X189292479Y-106194860D01*
X189848241Y-106194860D01*
X190361697Y-105982180D01*
X190754680Y-105589197D01*
X190840360Y-105382347D01*
X190926040Y-105589197D01*
X191319023Y-105982180D01*
X191832479Y-106194860D01*
X192388241Y-106194860D01*
X192901697Y-105982180D01*
X193294680Y-105589197D01*
X193380360Y-105382347D01*
X193466040Y-105589197D01*
X193859023Y-105982180D01*
X194372479Y-106194860D01*
X194420700Y-106194860D01*
X194330065Y-106330504D01*
X194288801Y-106537954D01*
X194288800Y-107435027D01*
X194165000Y-107733908D01*
X194165000Y-107802560D01*
X194090000Y-107802560D01*
X193934940Y-107833403D01*
X193934940Y-107543750D01*
X193867102Y-107202706D01*
X193673916Y-106913584D01*
X193384794Y-106720398D01*
X193043750Y-106652560D01*
X192556250Y-106652560D01*
X192487306Y-106666274D01*
X192312019Y-106549150D01*
X192242990Y-106480121D01*
X191936092Y-106353000D01*
X191603908Y-106353000D01*
X191297010Y-106480121D01*
X191124571Y-106652560D01*
X190681250Y-106652560D01*
X190340206Y-106720398D01*
X190078103Y-106895530D01*
X190000227Y-106843495D01*
X189668750Y-106777560D01*
X189231250Y-106777560D01*
X188899773Y-106843495D01*
X188662500Y-107002036D01*
X188425227Y-106843495D01*
X188230563Y-106804774D01*
X188022440Y-106596651D01*
X188022440Y-106261250D01*
X187956505Y-105929773D01*
X187797964Y-105692500D01*
X187956505Y-105455227D01*
X187985197Y-105310985D01*
X188217578Y-105543367D01*
X188217578Y-105543367D01*
G37*
X188217578Y-105543367D02*
X188257254Y-105602746D01*
X188316633Y-105642422D01*
X188316635Y-105642424D01*
X188492502Y-105759935D01*
X188492503Y-105759935D01*
X188492504Y-105759936D01*
X188572738Y-105775895D01*
X188779023Y-105982180D01*
X189292479Y-106194860D01*
X189848241Y-106194860D01*
X190361697Y-105982180D01*
X190754680Y-105589197D01*
X190840360Y-105382347D01*
X190926040Y-105589197D01*
X191319023Y-105982180D01*
X191832479Y-106194860D01*
X192388241Y-106194860D01*
X192901697Y-105982180D01*
X193294680Y-105589197D01*
X193380360Y-105382347D01*
X193466040Y-105589197D01*
X193859023Y-105982180D01*
X194372479Y-106194860D01*
X194420700Y-106194860D01*
X194330065Y-106330504D01*
X194288801Y-106537954D01*
X194288800Y-107435027D01*
X194165000Y-107733908D01*
X194165000Y-107802560D01*
X194090000Y-107802560D01*
X193934940Y-107833403D01*
X193934940Y-107543750D01*
X193867102Y-107202706D01*
X193673916Y-106913584D01*
X193384794Y-106720398D01*
X193043750Y-106652560D01*
X192556250Y-106652560D01*
X192487306Y-106666274D01*
X192312019Y-106549150D01*
X192242990Y-106480121D01*
X191936092Y-106353000D01*
X191603908Y-106353000D01*
X191297010Y-106480121D01*
X191124571Y-106652560D01*
X190681250Y-106652560D01*
X190340206Y-106720398D01*
X190078103Y-106895530D01*
X190000227Y-106843495D01*
X189668750Y-106777560D01*
X189231250Y-106777560D01*
X188899773Y-106843495D01*
X188662500Y-107002036D01*
X188425227Y-106843495D01*
X188230563Y-106804774D01*
X188022440Y-106596651D01*
X188022440Y-106261250D01*
X187956505Y-105929773D01*
X187797964Y-105692500D01*
X187956505Y-105455227D01*
X187985197Y-105310985D01*
X188217578Y-105543367D01*
G36*
X197384108Y-104783718D02*
X197369965Y-104797860D01*
X198170573Y-105598468D01*
X198412757Y-105529003D01*
X198599504Y-105005558D01*
X198591286Y-104841367D01*
X198716371Y-105028569D01*
X198884275Y-105140760D01*
X198716371Y-105252951D01*
X198576023Y-105462995D01*
X198526740Y-105710760D01*
X198526740Y-106770760D01*
X198563665Y-106956394D01*
X197808507Y-106201237D01*
X197768829Y-106141855D01*
X197714913Y-106105829D01*
X197921503Y-106020257D01*
X197990968Y-105778073D01*
X197190360Y-104977465D01*
X196389752Y-105778073D01*
X196437173Y-105943401D01*
X195480476Y-105943401D01*
X195834680Y-105589197D01*
X195913788Y-105398213D01*
X195967963Y-105529003D01*
X196210147Y-105598468D01*
X197010755Y-104797860D01*
X196996613Y-104783718D01*
X197176218Y-104604113D01*
X197190360Y-104618255D01*
X197204503Y-104604113D01*
X197384108Y-104783718D01*
X197384108Y-104783718D01*
G37*
X197384108Y-104783718D02*
X197369965Y-104797860D01*
X198170573Y-105598468D01*
X198412757Y-105529003D01*
X198599504Y-105005558D01*
X198591286Y-104841367D01*
X198716371Y-105028569D01*
X198884275Y-105140760D01*
X198716371Y-105252951D01*
X198576023Y-105462995D01*
X198526740Y-105710760D01*
X198526740Y-106770760D01*
X198563665Y-106956394D01*
X197808507Y-106201237D01*
X197768829Y-106141855D01*
X197714913Y-106105829D01*
X197921503Y-106020257D01*
X197990968Y-105778073D01*
X197190360Y-104977465D01*
X196389752Y-105778073D01*
X196437173Y-105943401D01*
X195480476Y-105943401D01*
X195834680Y-105589197D01*
X195913788Y-105398213D01*
X195967963Y-105529003D01*
X196210147Y-105598468D01*
X197010755Y-104797860D01*
X196996613Y-104783718D01*
X197176218Y-104604113D01*
X197190360Y-104618255D01*
X197204503Y-104604113D01*
X197384108Y-104783718D01*
G04 #@! TD*
M02*
