G04 #@! TF.GenerationSoftware,KiCad,Pcbnew,(5.0.1)-rc2*
G04 #@! TF.CreationDate,2019-05-10T17:14:01-07:00*
G04 #@! TF.ProjectId,bullercounter,62756C6C6572636F756E7465722E6B69,rev?*
G04 #@! TF.SameCoordinates,Original*
G04 #@! TF.FileFunction,Legend,Top*
G04 #@! TF.FilePolarity,Positive*
%FSLAX46Y46*%
G04 Gerber Fmt 4.6, Leading zero omitted, Abs format (unit mm)*
G04 Created by KiCad (PCBNEW (5.0.1)-rc2) date 5/10/2019 5:14:01 PM*
%MOMM*%
%LPD*%
G01*
G04 APERTURE LIST*
%ADD10C,0.200000*%
%ADD11C,0.150000*%
%ADD12C,0.120000*%
%ADD13C,0.100000*%
G04 APERTURE END LIST*
D10*
X206756000Y-130048000D02*
X179832000Y-130048000D01*
X206756000Y-103124000D02*
X206756000Y-130048000D01*
X179832000Y-103124000D02*
X206756000Y-103124000D01*
X179832000Y-129540000D02*
X179832000Y-103124000D01*
D11*
G04 #@! TO.C,U5*
X200720000Y-120416000D02*
G75*
G03X200720000Y-120416000I-4500000J0D01*
G01*
G04 #@! TO.C,SW4*
X198414000Y-131655820D02*
X198414000Y-130385820D01*
X200954000Y-130385820D02*
X198414000Y-130385820D01*
X200954000Y-124035820D02*
X200954000Y-130385820D01*
X199684000Y-124035820D02*
X200954000Y-124035820D01*
X199684000Y-126575820D02*
X199684000Y-124035820D01*
X194604000Y-126575820D02*
X199684000Y-126575820D01*
X194604000Y-124035820D02*
X194604000Y-126575820D01*
X193334000Y-124035820D02*
X194604000Y-124035820D01*
X193334000Y-130385820D02*
X193334000Y-124035820D01*
X195874000Y-130385820D02*
X193334000Y-130385820D01*
X195874000Y-131655820D02*
X195874000Y-130385820D01*
X198414000Y-131655820D02*
X195874000Y-131655820D01*
G04 #@! TO.C,SW5*
X208280000Y-121142000D02*
X207010000Y-121142000D01*
X207010000Y-118602000D02*
X207010000Y-121142000D01*
X200660000Y-118602000D02*
X207010000Y-118602000D01*
X200660000Y-119872000D02*
X200660000Y-118602000D01*
X203200000Y-119872000D02*
X200660000Y-119872000D01*
X203200000Y-124952000D02*
X203200000Y-119872000D01*
X200660000Y-124952000D02*
X203200000Y-124952000D01*
X200660000Y-126222000D02*
X200660000Y-124952000D01*
X207010000Y-126222000D02*
X200660000Y-126222000D01*
X207010000Y-123682000D02*
X207010000Y-126222000D01*
X208280000Y-123682000D02*
X207010000Y-123682000D01*
X208280000Y-121142000D02*
X208280000Y-123682000D01*
G04 #@! TO.C,SW3*
X208280000Y-111109000D02*
X207010000Y-111109000D01*
X207010000Y-108569000D02*
X207010000Y-111109000D01*
X200660000Y-108569000D02*
X207010000Y-108569000D01*
X200660000Y-109839000D02*
X200660000Y-108569000D01*
X203200000Y-109839000D02*
X200660000Y-109839000D01*
X203200000Y-114919000D02*
X203200000Y-109839000D01*
X200660000Y-114919000D02*
X203200000Y-114919000D01*
X200660000Y-116189000D02*
X200660000Y-114919000D01*
X207010000Y-116189000D02*
X200660000Y-116189000D01*
X207010000Y-113649000D02*
X207010000Y-116189000D01*
X208280000Y-113649000D02*
X207010000Y-113649000D01*
X208280000Y-111109000D02*
X208280000Y-113649000D01*
D12*
G04 #@! TO.C,J1*
X183453000Y-107077000D02*
X185003000Y-107077000D01*
X183453000Y-107077000D02*
X183453000Y-107377000D01*
X180653000Y-107377000D02*
X183453000Y-107377000D01*
X183453000Y-116752000D02*
X185003000Y-116752000D01*
X183388000Y-116452000D02*
X183388000Y-116752000D01*
X180588000Y-116452000D02*
X183388000Y-116452000D01*
X187253000Y-111177000D02*
X186803000Y-110777000D01*
X187253000Y-110377000D02*
X187253000Y-111177000D01*
X186803000Y-110777000D02*
X187253000Y-110377000D01*
G04 #@! TO.C,D1*
X190862500Y-108960000D02*
X193547500Y-108960000D01*
X193547500Y-108960000D02*
X193547500Y-107040000D01*
X193547500Y-107040000D02*
X190862500Y-107040000D01*
G04 #@! TO.C,D2*
X183100000Y-116550000D02*
X186250000Y-116550000D01*
X183100000Y-118250000D02*
X186250000Y-118250000D01*
X183100000Y-116550000D02*
X183100000Y-118250000D01*
G04 #@! TO.C,J2*
X200235000Y-109835000D02*
X200235000Y-113365000D01*
X193765000Y-109835000D02*
X193765000Y-113365000D01*
X200170000Y-108510000D02*
X200170000Y-109835000D01*
X200235000Y-109835000D02*
X200170000Y-109835000D01*
X200235000Y-113365000D02*
X200170000Y-113365000D01*
X193830000Y-109835000D02*
X193765000Y-109835000D01*
X193830000Y-113365000D02*
X193765000Y-113365000D01*
G04 #@! TO.C,L4*
X192910000Y-114203922D02*
X192910000Y-114721078D01*
X191490000Y-114203922D02*
X191490000Y-114721078D01*
G04 #@! TO.C,R7*
X200658000Y-108595279D02*
X200658000Y-108269721D01*
X201678000Y-108595279D02*
X201678000Y-108269721D01*
G04 #@! TO.C,R10*
X200289279Y-115314000D02*
X199963721Y-115314000D01*
X200289279Y-116334000D02*
X199963721Y-116334000D01*
D11*
G04 #@! TO.C,U1*
X199038772Y-107020360D02*
G75*
G03X199038772Y-107020360I-113592J0D01*
G01*
D12*
X198839180Y-104240760D02*
X198839180Y-106690760D01*
X202059180Y-106040760D02*
X202059180Y-104240760D01*
G04 #@! TO.C,U7*
X188000000Y-116860000D02*
X189800000Y-116860000D01*
X189800000Y-113640000D02*
X187350000Y-113640000D01*
D11*
X187133992Y-113726000D02*
G75*
G03X187133992Y-113726000I-113592J0D01*
G01*
D12*
G04 #@! TO.C,J4*
X180778000Y-118686000D02*
X180778000Y-122706000D01*
X180778000Y-122706000D02*
X188498000Y-122706000D01*
X188498000Y-122706000D02*
X188498000Y-118686000D01*
X188498000Y-118686000D02*
X180778000Y-118686000D01*
X180778000Y-120396000D02*
X181278000Y-120396000D01*
X181278000Y-120396000D02*
X181278000Y-119186000D01*
X181278000Y-119186000D02*
X187998000Y-119186000D01*
X187998000Y-119186000D02*
X187998000Y-120396000D01*
X187998000Y-120396000D02*
X188498000Y-120396000D01*
X180778000Y-121206000D02*
X181778000Y-121206000D01*
X181778000Y-121206000D02*
X181778000Y-122706000D01*
X188498000Y-121206000D02*
X187498000Y-121206000D01*
X187498000Y-121206000D02*
X187498000Y-122706000D01*
X180478000Y-120506000D02*
X180478000Y-123006000D01*
X180478000Y-123006000D02*
X182978000Y-123006000D01*
G04 #@! TO.C,C3*
X202640000Y-112605078D02*
X202640000Y-112087922D01*
X201220000Y-112605078D02*
X201220000Y-112087922D01*
G04 #@! TO.C,C12*
X189471078Y-111560000D02*
X188953922Y-111560000D01*
X189471078Y-110140000D02*
X188953922Y-110140000D01*
G04 #@! TO.C,R3*
X187410000Y-105855279D02*
X187410000Y-105529721D01*
X186390000Y-105855279D02*
X186390000Y-105529721D01*
G04 #@! TO.C,R4*
X184656000Y-105826779D02*
X184656000Y-105501221D01*
X185676000Y-105826779D02*
X185676000Y-105501221D01*
G04 #@! TO.C,R5*
X188825279Y-107390000D02*
X188499721Y-107390000D01*
X188825279Y-108410000D02*
X188499721Y-108410000D01*
G04 #@! TO.C,SW1*
X184344000Y-124146000D02*
X184344000Y-126806000D01*
X189484000Y-124146000D02*
X184344000Y-124146000D01*
X189484000Y-126806000D02*
X184344000Y-126806000D01*
X189484000Y-124146000D02*
X189484000Y-126806000D01*
X190754000Y-124146000D02*
X192084000Y-124146000D01*
X192084000Y-124146000D02*
X192084000Y-125476000D01*
D11*
X192024000Y-124206000D02*
X192024000Y-131276000D01*
X184404000Y-124206000D02*
X192024000Y-124206000D01*
X184404000Y-124206000D02*
X184404000Y-131276000D01*
X184404000Y-131276000D02*
X192024000Y-131276000D01*
X192024000Y-131826000D02*
X192024000Y-130556000D01*
X192024000Y-130556000D02*
X192024000Y-131826000D01*
X192024000Y-131826000D02*
X184404000Y-131826000D01*
X184404000Y-131826000D02*
X184404000Y-130556000D01*
X184404000Y-130556000D02*
X184404000Y-131826000D01*
X185674000Y-131826000D02*
X185674000Y-133096000D01*
X185674000Y-133096000D02*
X186944000Y-133096000D01*
X186944000Y-133096000D02*
X188214000Y-133096000D01*
X188214000Y-133096000D02*
X188214000Y-131826000D01*
D12*
G04 #@! TO.C,C10*
X201220000Y-122862078D02*
X201220000Y-122344922D01*
X202640000Y-122862078D02*
X202640000Y-122344922D01*
G04 #@! TO.C,U5*
D11*
X195648571Y-120505285D02*
X195648571Y-121112428D01*
X195684285Y-121183857D01*
X195720000Y-121219571D01*
X195791428Y-121255285D01*
X195934285Y-121255285D01*
X196005714Y-121219571D01*
X196041428Y-121183857D01*
X196077142Y-121112428D01*
X196077142Y-120505285D01*
X196791428Y-120505285D02*
X196434285Y-120505285D01*
X196398571Y-120862428D01*
X196434285Y-120826714D01*
X196505714Y-120791000D01*
X196684285Y-120791000D01*
X196755714Y-120826714D01*
X196791428Y-120862428D01*
X196827142Y-120933857D01*
X196827142Y-121112428D01*
X196791428Y-121183857D01*
X196755714Y-121219571D01*
X196684285Y-121255285D01*
X196505714Y-121255285D01*
X196434285Y-121219571D01*
X196398571Y-121183857D01*
G04 #@! TO.C,J1*
X180463000Y-111616285D02*
X180463000Y-112152000D01*
X180427285Y-112259142D01*
X180355857Y-112330571D01*
X180248714Y-112366285D01*
X180177285Y-112366285D01*
X181213000Y-112366285D02*
X180784428Y-112366285D01*
X180998714Y-112366285D02*
X180998714Y-111616285D01*
X180927285Y-111723428D01*
X180855857Y-111794857D01*
X180784428Y-111830571D01*
G04 #@! TO.C,D1*
X191308928Y-109989285D02*
X191308928Y-109239285D01*
X191487500Y-109239285D01*
X191594642Y-109275000D01*
X191666071Y-109346428D01*
X191701785Y-109417857D01*
X191737500Y-109560714D01*
X191737500Y-109667857D01*
X191701785Y-109810714D01*
X191666071Y-109882142D01*
X191594642Y-109953571D01*
X191487500Y-109989285D01*
X191308928Y-109989285D01*
X192451785Y-109989285D02*
X192023214Y-109989285D01*
X192237500Y-109989285D02*
X192237500Y-109239285D01*
X192166071Y-109346428D01*
X192094642Y-109417857D01*
X192023214Y-109453571D01*
G04 #@! TO.C,D2*
X181297728Y-117707605D02*
X181297728Y-116957605D01*
X181476300Y-116957605D01*
X181583442Y-116993320D01*
X181654871Y-117064748D01*
X181690585Y-117136177D01*
X181726300Y-117279034D01*
X181726300Y-117386177D01*
X181690585Y-117529034D01*
X181654871Y-117600462D01*
X181583442Y-117671891D01*
X181476300Y-117707605D01*
X181297728Y-117707605D01*
X182012014Y-117029034D02*
X182047728Y-116993320D01*
X182119157Y-116957605D01*
X182297728Y-116957605D01*
X182369157Y-116993320D01*
X182404871Y-117029034D01*
X182440585Y-117100462D01*
X182440585Y-117171891D01*
X182404871Y-117279034D01*
X181976300Y-117707605D01*
X182440585Y-117707605D01*
G04 #@! TO.C,J2*
X195441760Y-107102405D02*
X195441760Y-107638120D01*
X195406045Y-107745262D01*
X195334617Y-107816691D01*
X195227474Y-107852405D01*
X195156045Y-107852405D01*
X195763188Y-107173834D02*
X195798902Y-107138120D01*
X195870331Y-107102405D01*
X196048902Y-107102405D01*
X196120331Y-107138120D01*
X196156045Y-107173834D01*
X196191760Y-107245262D01*
X196191760Y-107316691D01*
X196156045Y-107423834D01*
X195727474Y-107852405D01*
X196191760Y-107852405D01*
G04 #@! TO.C,L4*
X191611980Y-117120865D02*
X191254837Y-117120865D01*
X191254837Y-116370865D01*
X192183408Y-116620865D02*
X192183408Y-117120865D01*
X192004837Y-116335151D02*
X191826265Y-116870865D01*
X192290551Y-116870865D01*
G04 #@! TO.C,R7*
X202721940Y-107763505D02*
X202471940Y-107406362D01*
X202293368Y-107763505D02*
X202293368Y-107013505D01*
X202579082Y-107013505D01*
X202650511Y-107049220D01*
X202686225Y-107084934D01*
X202721940Y-107156362D01*
X202721940Y-107263505D01*
X202686225Y-107334934D01*
X202650511Y-107370648D01*
X202579082Y-107406362D01*
X202293368Y-107406362D01*
X202971940Y-107013505D02*
X203471940Y-107013505D01*
X203150511Y-107763505D01*
G04 #@! TO.C,R10*
X200812857Y-117580605D02*
X200562857Y-117223462D01*
X200384285Y-117580605D02*
X200384285Y-116830605D01*
X200670000Y-116830605D01*
X200741428Y-116866320D01*
X200777142Y-116902034D01*
X200812857Y-116973462D01*
X200812857Y-117080605D01*
X200777142Y-117152034D01*
X200741428Y-117187748D01*
X200670000Y-117223462D01*
X200384285Y-117223462D01*
X201527142Y-117580605D02*
X201098571Y-117580605D01*
X201312857Y-117580605D02*
X201312857Y-116830605D01*
X201241428Y-116937748D01*
X201170000Y-117009177D01*
X201098571Y-117044891D01*
X201991428Y-116830605D02*
X202062857Y-116830605D01*
X202134285Y-116866320D01*
X202170000Y-116902034D01*
X202205714Y-116973462D01*
X202241428Y-117116320D01*
X202241428Y-117294891D01*
X202205714Y-117437748D01*
X202170000Y-117509177D01*
X202134285Y-117544891D01*
X202062857Y-117580605D01*
X201991428Y-117580605D01*
X201920000Y-117544891D01*
X201884285Y-117509177D01*
X201848571Y-117437748D01*
X201812857Y-117294891D01*
X201812857Y-117116320D01*
X201848571Y-116973462D01*
X201884285Y-116902034D01*
X201920000Y-116866320D01*
X201991428Y-116830605D01*
G04 #@! TO.C,U1*
X197187891Y-106208325D02*
X197187891Y-106815468D01*
X197223605Y-106886897D01*
X197259320Y-106922611D01*
X197330748Y-106958325D01*
X197473605Y-106958325D01*
X197545034Y-106922611D01*
X197580748Y-106886897D01*
X197616462Y-106815468D01*
X197616462Y-106208325D01*
X198366462Y-106958325D02*
X197937891Y-106958325D01*
X198152177Y-106958325D02*
X198152177Y-106208325D01*
X198080748Y-106315468D01*
X198009320Y-106386897D01*
X197937891Y-106422611D01*
G04 #@! TO.C,U7*
X188231851Y-112504985D02*
X188231851Y-113112128D01*
X188267565Y-113183557D01*
X188303280Y-113219271D01*
X188374708Y-113254985D01*
X188517565Y-113254985D01*
X188588994Y-113219271D01*
X188624708Y-113183557D01*
X188660422Y-113112128D01*
X188660422Y-112504985D01*
X188946137Y-112504985D02*
X189446137Y-112504985D01*
X189124708Y-113254985D01*
G04 #@! TO.C,J4*
X189838520Y-119083585D02*
X189838520Y-119619300D01*
X189802805Y-119726442D01*
X189731377Y-119797871D01*
X189624234Y-119833585D01*
X189552805Y-119833585D01*
X190517091Y-119333585D02*
X190517091Y-119833585D01*
X190338520Y-119047871D02*
X190159948Y-119583585D01*
X190624234Y-119583585D01*
G04 #@! TO.C,C3*
D13*
X202377526Y-110447591D02*
X202353717Y-110471400D01*
X202282288Y-110495210D01*
X202234669Y-110495210D01*
X202163240Y-110471400D01*
X202115621Y-110423781D01*
X202091812Y-110376162D01*
X202068002Y-110280924D01*
X202068002Y-110209496D01*
X202091812Y-110114258D01*
X202115621Y-110066639D01*
X202163240Y-110019020D01*
X202234669Y-109995210D01*
X202282288Y-109995210D01*
X202353717Y-110019020D01*
X202377526Y-110042829D01*
X202544193Y-109995210D02*
X202853717Y-109995210D01*
X202687050Y-110185686D01*
X202758479Y-110185686D01*
X202806098Y-110209496D01*
X202829907Y-110233305D01*
X202853717Y-110280924D01*
X202853717Y-110399972D01*
X202829907Y-110447591D01*
X202806098Y-110471400D01*
X202758479Y-110495210D01*
X202615621Y-110495210D01*
X202568002Y-110471400D01*
X202544193Y-110447591D01*
G04 #@! TO.C,C12*
D11*
X191612977Y-111400477D02*
X191577262Y-111436191D01*
X191470120Y-111471905D01*
X191398691Y-111471905D01*
X191291548Y-111436191D01*
X191220120Y-111364762D01*
X191184405Y-111293334D01*
X191148691Y-111150477D01*
X191148691Y-111043334D01*
X191184405Y-110900477D01*
X191220120Y-110829048D01*
X191291548Y-110757620D01*
X191398691Y-110721905D01*
X191470120Y-110721905D01*
X191577262Y-110757620D01*
X191612977Y-110793334D01*
X192327262Y-111471905D02*
X191898691Y-111471905D01*
X192112977Y-111471905D02*
X192112977Y-110721905D01*
X192041548Y-110829048D01*
X191970120Y-110900477D01*
X191898691Y-110936191D01*
X192612977Y-110793334D02*
X192648691Y-110757620D01*
X192720120Y-110721905D01*
X192898691Y-110721905D01*
X192970120Y-110757620D01*
X193005834Y-110793334D01*
X193041548Y-110864762D01*
X193041548Y-110936191D01*
X193005834Y-111043334D01*
X192577262Y-111471905D01*
X193041548Y-111471905D01*
G04 #@! TO.C,R3*
X188343000Y-106206485D02*
X188093000Y-105849342D01*
X187914428Y-106206485D02*
X187914428Y-105456485D01*
X188200142Y-105456485D01*
X188271571Y-105492200D01*
X188307285Y-105527914D01*
X188343000Y-105599342D01*
X188343000Y-105706485D01*
X188307285Y-105777914D01*
X188271571Y-105813628D01*
X188200142Y-105849342D01*
X187914428Y-105849342D01*
X188593000Y-105456485D02*
X189057285Y-105456485D01*
X188807285Y-105742200D01*
X188914428Y-105742200D01*
X188985857Y-105777914D01*
X189021571Y-105813628D01*
X189057285Y-105885057D01*
X189057285Y-106063628D01*
X189021571Y-106135057D01*
X188985857Y-106170771D01*
X188914428Y-106206485D01*
X188700142Y-106206485D01*
X188628714Y-106170771D01*
X188593000Y-106135057D01*
G04 #@! TO.C,R4*
X184301860Y-104184645D02*
X184051860Y-103827502D01*
X183873288Y-104184645D02*
X183873288Y-103434645D01*
X184159002Y-103434645D01*
X184230431Y-103470360D01*
X184266145Y-103506074D01*
X184301860Y-103577502D01*
X184301860Y-103684645D01*
X184266145Y-103756074D01*
X184230431Y-103791788D01*
X184159002Y-103827502D01*
X183873288Y-103827502D01*
X184944717Y-103684645D02*
X184944717Y-104184645D01*
X184766145Y-103398931D02*
X184587574Y-103934645D01*
X185051860Y-103934645D01*
G04 #@! TO.C,R5*
X188537500Y-109669285D02*
X188287500Y-109312142D01*
X188108928Y-109669285D02*
X188108928Y-108919285D01*
X188394642Y-108919285D01*
X188466071Y-108955000D01*
X188501785Y-108990714D01*
X188537500Y-109062142D01*
X188537500Y-109169285D01*
X188501785Y-109240714D01*
X188466071Y-109276428D01*
X188394642Y-109312142D01*
X188108928Y-109312142D01*
X189216071Y-108919285D02*
X188858928Y-108919285D01*
X188823214Y-109276428D01*
X188858928Y-109240714D01*
X188930357Y-109205000D01*
X189108928Y-109205000D01*
X189180357Y-109240714D01*
X189216071Y-109276428D01*
X189251785Y-109347857D01*
X189251785Y-109526428D01*
X189216071Y-109597857D01*
X189180357Y-109633571D01*
X189108928Y-109669285D01*
X188930357Y-109669285D01*
X188858928Y-109633571D01*
X188823214Y-109597857D01*
G04 #@! TO.C,J5*
X190138240Y-120643145D02*
X190138240Y-121178860D01*
X190102525Y-121286002D01*
X190031097Y-121357431D01*
X189923954Y-121393145D01*
X189852525Y-121393145D01*
X190852525Y-120643145D02*
X190495382Y-120643145D01*
X190459668Y-121000288D01*
X190495382Y-120964574D01*
X190566811Y-120928860D01*
X190745382Y-120928860D01*
X190816811Y-120964574D01*
X190852525Y-121000288D01*
X190888240Y-121071717D01*
X190888240Y-121250288D01*
X190852525Y-121321717D01*
X190816811Y-121357431D01*
X190745382Y-121393145D01*
X190566811Y-121393145D01*
X190495382Y-121357431D01*
X190459668Y-121321717D01*
G04 #@! TO.C,H1*
X204148571Y-101589285D02*
X204148571Y-100839285D01*
X204148571Y-101196428D02*
X204577142Y-101196428D01*
X204577142Y-101589285D02*
X204577142Y-100839285D01*
X205327142Y-101589285D02*
X204898571Y-101589285D01*
X205112857Y-101589285D02*
X205112857Y-100839285D01*
X205041428Y-100946428D01*
X204970000Y-101017857D01*
X204898571Y-101053571D01*
G04 #@! TO.C,H2*
X177505431Y-127382465D02*
X177505431Y-126632465D01*
X177505431Y-126989608D02*
X177934002Y-126989608D01*
X177934002Y-127382465D02*
X177934002Y-126632465D01*
X178255431Y-126703894D02*
X178291145Y-126668180D01*
X178362574Y-126632465D01*
X178541145Y-126632465D01*
X178612574Y-126668180D01*
X178648288Y-126703894D01*
X178684002Y-126775322D01*
X178684002Y-126846751D01*
X178648288Y-126953894D01*
X178219717Y-127382465D01*
X178684002Y-127382465D01*
G04 #@! TO.C,H3*
X181348571Y-101539285D02*
X181348571Y-100789285D01*
X181348571Y-101146428D02*
X181777142Y-101146428D01*
X181777142Y-101539285D02*
X181777142Y-100789285D01*
X182062857Y-100789285D02*
X182527142Y-100789285D01*
X182277142Y-101075000D01*
X182384285Y-101075000D01*
X182455714Y-101110714D01*
X182491428Y-101146428D01*
X182527142Y-101217857D01*
X182527142Y-101396428D01*
X182491428Y-101467857D01*
X182455714Y-101503571D01*
X182384285Y-101539285D01*
X182170000Y-101539285D01*
X182098571Y-101503571D01*
X182062857Y-101467857D01*
G04 #@! TO.C,H4*
X204167811Y-124807685D02*
X204167811Y-124057685D01*
X204167811Y-124414828D02*
X204596382Y-124414828D01*
X204596382Y-124807685D02*
X204596382Y-124057685D01*
X205274954Y-124307685D02*
X205274954Y-124807685D01*
X205096382Y-124021971D02*
X204917811Y-124557685D01*
X205382097Y-124557685D01*
G04 #@! TO.C,J3*
X182469980Y-123637805D02*
X182469980Y-124173520D01*
X182434265Y-124280662D01*
X182362837Y-124352091D01*
X182255694Y-124387805D01*
X182184265Y-124387805D01*
X182755694Y-123637805D02*
X183219980Y-123637805D01*
X182969980Y-123923520D01*
X183077122Y-123923520D01*
X183148551Y-123959234D01*
X183184265Y-123994948D01*
X183219980Y-124066377D01*
X183219980Y-124244948D01*
X183184265Y-124316377D01*
X183148551Y-124352091D01*
X183077122Y-124387805D01*
X182862837Y-124387805D01*
X182791408Y-124352091D01*
X182755694Y-124316377D01*
G04 #@! TO.C,C10*
D13*
X201433311Y-120625371D02*
X201409501Y-120649180D01*
X201338073Y-120672990D01*
X201290454Y-120672990D01*
X201219025Y-120649180D01*
X201171406Y-120601561D01*
X201147597Y-120553942D01*
X201123787Y-120458704D01*
X201123787Y-120387276D01*
X201147597Y-120292038D01*
X201171406Y-120244419D01*
X201219025Y-120196800D01*
X201290454Y-120172990D01*
X201338073Y-120172990D01*
X201409501Y-120196800D01*
X201433311Y-120220609D01*
X201909501Y-120672990D02*
X201623787Y-120672990D01*
X201766644Y-120672990D02*
X201766644Y-120172990D01*
X201719025Y-120244419D01*
X201671406Y-120292038D01*
X201623787Y-120315847D01*
X202219025Y-120172990D02*
X202266644Y-120172990D01*
X202314263Y-120196800D01*
X202338073Y-120220609D01*
X202361882Y-120268228D01*
X202385692Y-120363466D01*
X202385692Y-120482514D01*
X202361882Y-120577752D01*
X202338073Y-120625371D01*
X202314263Y-120649180D01*
X202266644Y-120672990D01*
X202219025Y-120672990D01*
X202171406Y-120649180D01*
X202147597Y-120625371D01*
X202123787Y-120577752D01*
X202099978Y-120482514D01*
X202099978Y-120363466D01*
X202123787Y-120268228D01*
X202147597Y-120220609D01*
X202171406Y-120196800D01*
X202219025Y-120172990D01*
G04 #@! TD*
M02*
