M48
;DRILL file {KiCad (5.0.1)-rc2} date 5/10/2019 5:14:04 PM
;FORMAT={-:-/ absolute / inch / decimal}
FMAT,2
INCH,TZ
T1C0.0118
T2C0.0157
T3C0.0217
T4C0.0276
T5C0.0300
T6C0.0394
%
G90
G05
M72
T1
X7.1Y-4.31
X7.1102Y-4.4449
X7.13Y-4.77
X7.18Y-4.68
X7.2343Y-4.4094
X7.24Y-4.21
X7.27Y-5.02
X7.2894Y-4.3287
X7.3031Y-4.4961
X7.3248Y-4.6642
X7.3366Y-4.4941
X7.3858Y-4.4173
X7.39Y-5.02
X7.4075Y-4.4114
X7.4149Y-4.1481
X7.42Y-4.67
X7.4252Y-4.5335
X7.4715Y-4.3289
X7.4803Y-4.6142
X7.49Y-4.77
X7.49Y-4.88
X7.4941Y-4.3012
X7.498Y-4.6555
X7.5197Y-4.4587
X7.5295Y-4.4331
X7.5335Y-4.374
X7.55Y-4.22
X7.58Y-5.05
X7.5807Y-4.376
X7.6075Y-4.58
X7.61Y-4.71
X7.6181Y-4.561
X7.64Y-4.6931
X7.6772Y-4.248
X7.68Y-4.4
X7.69Y-4.82
X7.71Y-4.96
X7.72Y-4.55
X7.73Y-4.3937
X7.73Y-4.7084
X7.74Y-4.56
X7.75Y-4.2205
X7.8Y-4.65
X7.86Y-4.86
X7.88Y-4.62
X7.8826Y-4.1228
X7.89Y-4.5
X7.89Y-4.53
X7.94Y-4.34
X7.94Y-4.52
X7.9453Y-4.724
X7.9476Y-4.1316
X7.95Y-4.6396
X7.96Y-4.61
X7.96Y-4.75
X8.03Y-4.87
T2
X7.65Y-4.92
T3
X7.8Y-4.6916
X7.8Y-4.79
T5
X7.4634Y-4.1259
X7.5634Y-4.1259
X7.6634Y-4.1259
X7.7634Y-4.1259
T6
X7.6631Y-5.0833
X7.86Y-5.0833
X7.31Y-4.94
X7.41Y-4.94
X7.51Y-4.94
X8.1Y-4.7209
X8.1Y-4.9178
X8.1Y-4.3259
X8.1Y-4.5228
X7.22Y-4.74
X7.3184Y-4.74
T4
X7.1663Y-4.2715G85X7.1859Y-4.2715
G05
X7.1663Y-4.555G85X7.1859Y-4.555
G05
X7.2863Y-4.2717G85X7.2863Y-4.2914
G05
X7.2863Y-4.5316G85X7.2863Y-4.5513
G05
T0
M30
