G04 #@! TF.GenerationSoftware,KiCad,Pcbnew,(5.0.1)-rc2*
G04 #@! TF.CreationDate,2019-05-10T17:14:01-07:00*
G04 #@! TF.ProjectId,bullercounter,62756C6C6572636F756E7465722E6B69,rev?*
G04 #@! TF.SameCoordinates,Original*
G04 #@! TF.FileFunction,Soldermask,Top*
G04 #@! TF.FilePolarity,Negative*
%FSLAX46Y46*%
G04 Gerber Fmt 4.6, Leading zero omitted, Abs format (unit mm)*
G04 Created by KiCad (PCBNEW (5.0.1)-rc2) date 5/10/2019 5:14:01 PM*
%MOMM*%
%LPD*%
G01*
G04 APERTURE LIST*
%ADD10C,0.100000*%
G04 APERTURE END LIST*
D10*
G36*
X199950565Y-128105209D02*
X200141834Y-128184435D01*
X200313976Y-128299457D01*
X200460363Y-128445844D01*
X200575385Y-128617986D01*
X200654611Y-128809255D01*
X200695000Y-129012304D01*
X200695000Y-129219336D01*
X200654611Y-129422385D01*
X200575385Y-129613654D01*
X200460363Y-129785796D01*
X200313976Y-129932183D01*
X200141834Y-130047205D01*
X199950565Y-130126431D01*
X199747516Y-130166820D01*
X199540484Y-130166820D01*
X199337435Y-130126431D01*
X199146166Y-130047205D01*
X198974024Y-129932183D01*
X198827637Y-129785796D01*
X198712615Y-129613654D01*
X198633389Y-129422385D01*
X198593000Y-129219336D01*
X198593000Y-129012304D01*
X198633389Y-128809255D01*
X198712615Y-128617986D01*
X198827637Y-128445844D01*
X198974024Y-128299457D01*
X199146166Y-128184435D01*
X199337435Y-128105209D01*
X199540484Y-128064820D01*
X199747516Y-128064820D01*
X199950565Y-128105209D01*
X199950565Y-128105209D01*
G37*
G36*
X194950565Y-128105209D02*
X195141834Y-128184435D01*
X195313976Y-128299457D01*
X195460363Y-128445844D01*
X195575385Y-128617986D01*
X195654611Y-128809255D01*
X195695000Y-129012304D01*
X195695000Y-129219336D01*
X195654611Y-129422385D01*
X195575385Y-129613654D01*
X195460363Y-129785796D01*
X195313976Y-129932183D01*
X195141834Y-130047205D01*
X194950565Y-130126431D01*
X194747516Y-130166820D01*
X194540484Y-130166820D01*
X194337435Y-130126431D01*
X194146166Y-130047205D01*
X193974024Y-129932183D01*
X193827637Y-129785796D01*
X193712615Y-129613654D01*
X193633389Y-129422385D01*
X193593000Y-129219336D01*
X193593000Y-129012304D01*
X193633389Y-128809255D01*
X193712615Y-128617986D01*
X193827637Y-128445844D01*
X193974024Y-128299457D01*
X194146166Y-128184435D01*
X194337435Y-128105209D01*
X194540484Y-128064820D01*
X194747516Y-128064820D01*
X194950565Y-128105209D01*
X194950565Y-128105209D01*
G37*
G36*
X182256093Y-126803293D02*
X182346317Y-126821239D01*
X182414455Y-126849463D01*
X182601281Y-126926849D01*
X182830749Y-127080174D01*
X183025886Y-127275311D01*
X183179211Y-127504779D01*
X183284821Y-127759744D01*
X183338660Y-128030412D01*
X183338660Y-128306388D01*
X183284821Y-128577056D01*
X183179211Y-128832021D01*
X183025886Y-129061489D01*
X182830749Y-129256626D01*
X182601281Y-129409951D01*
X182451927Y-129471815D01*
X182346317Y-129515561D01*
X182256093Y-129533507D01*
X182075648Y-129569400D01*
X181799672Y-129569400D01*
X181619227Y-129533507D01*
X181529003Y-129515561D01*
X181423393Y-129471815D01*
X181274039Y-129409951D01*
X181044571Y-129256626D01*
X180849434Y-129061489D01*
X180696109Y-128832021D01*
X180590499Y-128577056D01*
X180536660Y-128306388D01*
X180536660Y-128030412D01*
X180590499Y-127759744D01*
X180696109Y-127504779D01*
X180849434Y-127275311D01*
X181044571Y-127080174D01*
X181274039Y-126926849D01*
X181460865Y-126849463D01*
X181529003Y-126821239D01*
X181619227Y-126803293D01*
X181799672Y-126767400D01*
X182075648Y-126767400D01*
X182256093Y-126803293D01*
X182256093Y-126803293D01*
G37*
G36*
X205057673Y-126803293D02*
X205147897Y-126821239D01*
X205216035Y-126849463D01*
X205402861Y-126926849D01*
X205632329Y-127080174D01*
X205827466Y-127275311D01*
X205980791Y-127504779D01*
X206086401Y-127759744D01*
X206140240Y-128030412D01*
X206140240Y-128306388D01*
X206086401Y-128577056D01*
X205980791Y-128832021D01*
X205827466Y-129061489D01*
X205632329Y-129256626D01*
X205402861Y-129409951D01*
X205253507Y-129471815D01*
X205147897Y-129515561D01*
X205057673Y-129533507D01*
X204877228Y-129569400D01*
X204601252Y-129569400D01*
X204420807Y-129533507D01*
X204330583Y-129515561D01*
X204224973Y-129471815D01*
X204075619Y-129409951D01*
X203846151Y-129256626D01*
X203651014Y-129061489D01*
X203497689Y-128832021D01*
X203392079Y-128577056D01*
X203338240Y-128306388D01*
X203338240Y-128030412D01*
X203392079Y-127759744D01*
X203497689Y-127504779D01*
X203651014Y-127275311D01*
X203846151Y-127080174D01*
X204075619Y-126926849D01*
X204262445Y-126849463D01*
X204330583Y-126821239D01*
X204420807Y-126803293D01*
X204601252Y-126767400D01*
X204877228Y-126767400D01*
X205057673Y-126803293D01*
X205057673Y-126803293D01*
G37*
G36*
X200917643Y-125845601D02*
X201063415Y-125905982D01*
X201194611Y-125993644D01*
X201306176Y-126105209D01*
X201393838Y-126236405D01*
X201454219Y-126382177D01*
X201485000Y-126536927D01*
X201485000Y-126694713D01*
X201454219Y-126849463D01*
X201393838Y-126995235D01*
X201306176Y-127126431D01*
X201194611Y-127237996D01*
X201063415Y-127325658D01*
X200917643Y-127386039D01*
X200762893Y-127416820D01*
X200605107Y-127416820D01*
X200450357Y-127386039D01*
X200304585Y-127325658D01*
X200173389Y-127237996D01*
X200061824Y-127126431D01*
X199974162Y-126995235D01*
X199913781Y-126849463D01*
X199883000Y-126694713D01*
X199883000Y-126536927D01*
X199913781Y-126382177D01*
X199974162Y-126236405D01*
X200061824Y-126105209D01*
X200173389Y-125993644D01*
X200304585Y-125905982D01*
X200450357Y-125845601D01*
X200605107Y-125814820D01*
X200762893Y-125814820D01*
X200917643Y-125845601D01*
X200917643Y-125845601D01*
G37*
G36*
X193837643Y-125845601D02*
X193983415Y-125905982D01*
X194114611Y-125993644D01*
X194226176Y-126105209D01*
X194313838Y-126236405D01*
X194374219Y-126382177D01*
X194405000Y-126536927D01*
X194405000Y-126694713D01*
X194374219Y-126849463D01*
X194313838Y-126995235D01*
X194226176Y-127126431D01*
X194114611Y-127237996D01*
X193983415Y-127325658D01*
X193837643Y-127386039D01*
X193682893Y-127416820D01*
X193525107Y-127416820D01*
X193370357Y-127386039D01*
X193224585Y-127325658D01*
X193093389Y-127237996D01*
X192981824Y-127126431D01*
X192894162Y-126995235D01*
X192833781Y-126849463D01*
X192803000Y-126694713D01*
X192803000Y-126536927D01*
X192833781Y-126382177D01*
X192894162Y-126236405D01*
X192981824Y-126105209D01*
X193093389Y-125993644D01*
X193224585Y-125905982D01*
X193370357Y-125845601D01*
X193525107Y-125814820D01*
X193682893Y-125814820D01*
X193837643Y-125845601D01*
X193837643Y-125845601D01*
G37*
G36*
X203473643Y-125181781D02*
X203619415Y-125242162D01*
X203750611Y-125329824D01*
X203862176Y-125441389D01*
X203949838Y-125572585D01*
X204010219Y-125718357D01*
X204041000Y-125873107D01*
X204041000Y-126030893D01*
X204010219Y-126185643D01*
X203949838Y-126331415D01*
X203862176Y-126462611D01*
X203750611Y-126574176D01*
X203619415Y-126661838D01*
X203473643Y-126722219D01*
X203318893Y-126753000D01*
X203161107Y-126753000D01*
X203006357Y-126722219D01*
X202860585Y-126661838D01*
X202729389Y-126574176D01*
X202617824Y-126462611D01*
X202530162Y-126331415D01*
X202469781Y-126185643D01*
X202439000Y-126030893D01*
X202439000Y-125873107D01*
X202469781Y-125718357D01*
X202530162Y-125572585D01*
X202617824Y-125441389D01*
X202729389Y-125329824D01*
X202860585Y-125242162D01*
X203006357Y-125181781D01*
X203161107Y-125151000D01*
X203318893Y-125151000D01*
X203473643Y-125181781D01*
X203473643Y-125181781D01*
G37*
G36*
X185784443Y-124581519D02*
X185850627Y-124588037D01*
X185963853Y-124622384D01*
X186020467Y-124639557D01*
X186159087Y-124713652D01*
X186176991Y-124723222D01*
X186212729Y-124752552D01*
X186314186Y-124835814D01*
X186397448Y-124937271D01*
X186426778Y-124973009D01*
X186426779Y-124973011D01*
X186510443Y-125129533D01*
X186510443Y-125129534D01*
X186561963Y-125299373D01*
X186579359Y-125476000D01*
X186561963Y-125652627D01*
X186542024Y-125718357D01*
X186510443Y-125822467D01*
X186465802Y-125905983D01*
X186426778Y-125978991D01*
X186397448Y-126014729D01*
X186314186Y-126116186D01*
X186229551Y-126185643D01*
X186176991Y-126228778D01*
X186176989Y-126228779D01*
X186020467Y-126312443D01*
X185963853Y-126329616D01*
X185850627Y-126363963D01*
X185784442Y-126370482D01*
X185718260Y-126377000D01*
X185629740Y-126377000D01*
X185563558Y-126370482D01*
X185497373Y-126363963D01*
X185384147Y-126329616D01*
X185327533Y-126312443D01*
X185171011Y-126228779D01*
X185171009Y-126228778D01*
X185118449Y-126185643D01*
X185033814Y-126116186D01*
X184950552Y-126014729D01*
X184921222Y-125978991D01*
X184882198Y-125905983D01*
X184837557Y-125822467D01*
X184805976Y-125718357D01*
X184786037Y-125652627D01*
X184768641Y-125476000D01*
X184786037Y-125299373D01*
X184837557Y-125129534D01*
X184837557Y-125129533D01*
X184921221Y-124973011D01*
X184921222Y-124973009D01*
X184950552Y-124937271D01*
X185033814Y-124835814D01*
X185135271Y-124752552D01*
X185171009Y-124723222D01*
X185188913Y-124713652D01*
X185327533Y-124639557D01*
X185384147Y-124622384D01*
X185497373Y-124588037D01*
X185563557Y-124581519D01*
X185629740Y-124575000D01*
X185718260Y-124575000D01*
X185784443Y-124581519D01*
X185784443Y-124581519D01*
G37*
G36*
X191655000Y-126377000D02*
X189853000Y-126377000D01*
X189853000Y-124575000D01*
X191655000Y-124575000D01*
X191655000Y-126377000D01*
X191655000Y-126377000D01*
G37*
G36*
X188324443Y-124581519D02*
X188390627Y-124588037D01*
X188503853Y-124622384D01*
X188560467Y-124639557D01*
X188699087Y-124713652D01*
X188716991Y-124723222D01*
X188752729Y-124752552D01*
X188854186Y-124835814D01*
X188937448Y-124937271D01*
X188966778Y-124973009D01*
X188966779Y-124973011D01*
X189050443Y-125129533D01*
X189050443Y-125129534D01*
X189101963Y-125299373D01*
X189119359Y-125476000D01*
X189101963Y-125652627D01*
X189082024Y-125718357D01*
X189050443Y-125822467D01*
X189005802Y-125905983D01*
X188966778Y-125978991D01*
X188937448Y-126014729D01*
X188854186Y-126116186D01*
X188769551Y-126185643D01*
X188716991Y-126228778D01*
X188716989Y-126228779D01*
X188560467Y-126312443D01*
X188503853Y-126329616D01*
X188390627Y-126363963D01*
X188324442Y-126370482D01*
X188258260Y-126377000D01*
X188169740Y-126377000D01*
X188103558Y-126370482D01*
X188037373Y-126363963D01*
X187924147Y-126329616D01*
X187867533Y-126312443D01*
X187711011Y-126228779D01*
X187711009Y-126228778D01*
X187658449Y-126185643D01*
X187573814Y-126116186D01*
X187490552Y-126014729D01*
X187461222Y-125978991D01*
X187422198Y-125905983D01*
X187377557Y-125822467D01*
X187345976Y-125718357D01*
X187326037Y-125652627D01*
X187308641Y-125476000D01*
X187326037Y-125299373D01*
X187377557Y-125129534D01*
X187377557Y-125129533D01*
X187461221Y-124973011D01*
X187461222Y-124973009D01*
X187490552Y-124937271D01*
X187573814Y-124835814D01*
X187675271Y-124752552D01*
X187711009Y-124723222D01*
X187728913Y-124713652D01*
X187867533Y-124639557D01*
X187924147Y-124622384D01*
X188037373Y-124588037D01*
X188103557Y-124581519D01*
X188169740Y-124575000D01*
X188258260Y-124575000D01*
X188324443Y-124581519D01*
X188324443Y-124581519D01*
G37*
G36*
X206046565Y-123901389D02*
X206237834Y-123980615D01*
X206409976Y-124095637D01*
X206556363Y-124242024D01*
X206671385Y-124414166D01*
X206750611Y-124605435D01*
X206791000Y-124808484D01*
X206791000Y-125015516D01*
X206750611Y-125218565D01*
X206671385Y-125409834D01*
X206556363Y-125581976D01*
X206409976Y-125728363D01*
X206237834Y-125843385D01*
X206046565Y-125922611D01*
X205843516Y-125963000D01*
X205636484Y-125963000D01*
X205433435Y-125922611D01*
X205242166Y-125843385D01*
X205070024Y-125728363D01*
X204923637Y-125581976D01*
X204808615Y-125409834D01*
X204729389Y-125218565D01*
X204689000Y-125015516D01*
X204689000Y-124808484D01*
X204729389Y-124605435D01*
X204808615Y-124414166D01*
X204923637Y-124242024D01*
X205070024Y-124095637D01*
X205242166Y-123980615D01*
X205433435Y-123901389D01*
X205636484Y-123861000D01*
X205843516Y-123861000D01*
X206046565Y-123901389D01*
X206046565Y-123901389D01*
G37*
G36*
X181903000Y-125265000D02*
X180301000Y-125265000D01*
X180301000Y-124163000D01*
X181903000Y-124163000D01*
X181903000Y-125265000D01*
X181903000Y-125265000D01*
G37*
G36*
X202514466Y-123007065D02*
X202553137Y-123018796D01*
X202588779Y-123037848D01*
X202620017Y-123063483D01*
X202645652Y-123094721D01*
X202664704Y-123130363D01*
X202676435Y-123169034D01*
X202681000Y-123215388D01*
X202681000Y-123866612D01*
X202676435Y-123912966D01*
X202664704Y-123951637D01*
X202645652Y-123987279D01*
X202620017Y-124018517D01*
X202588779Y-124044152D01*
X202553137Y-124063204D01*
X202514466Y-124074935D01*
X202468112Y-124079500D01*
X201391888Y-124079500D01*
X201345534Y-124074935D01*
X201306863Y-124063204D01*
X201271221Y-124044152D01*
X201239983Y-124018517D01*
X201214348Y-123987279D01*
X201195296Y-123951637D01*
X201183565Y-123912966D01*
X201179000Y-123866612D01*
X201179000Y-123215388D01*
X201183565Y-123169034D01*
X201195296Y-123130363D01*
X201214348Y-123094721D01*
X201239983Y-123063483D01*
X201271221Y-123037848D01*
X201306863Y-123018796D01*
X201345534Y-123007065D01*
X201391888Y-123002500D01*
X202468112Y-123002500D01*
X202514466Y-123007065D01*
X202514466Y-123007065D01*
G37*
G36*
X181903000Y-123765000D02*
X180301000Y-123765000D01*
X180301000Y-122663000D01*
X181903000Y-122663000D01*
X181903000Y-123765000D01*
X181903000Y-123765000D01*
G37*
G36*
X191432000Y-123483000D02*
X190330000Y-123483000D01*
X190330000Y-121881000D01*
X191432000Y-121881000D01*
X191432000Y-123483000D01*
X191432000Y-123483000D01*
G37*
G36*
X189932000Y-123483000D02*
X188830000Y-123483000D01*
X188830000Y-121881000D01*
X189932000Y-121881000D01*
X189932000Y-123483000D01*
X189932000Y-123483000D01*
G37*
G36*
X198280721Y-121136174D02*
X198380995Y-121177709D01*
X198471245Y-121238012D01*
X198547988Y-121314755D01*
X198608291Y-121405005D01*
X198649826Y-121505279D01*
X198671000Y-121611730D01*
X198671000Y-121720270D01*
X198649826Y-121826721D01*
X198608291Y-121926995D01*
X198547988Y-122017245D01*
X198471245Y-122093988D01*
X198380995Y-122154291D01*
X198280721Y-122195826D01*
X198174270Y-122217000D01*
X198065730Y-122217000D01*
X197959279Y-122195826D01*
X197859005Y-122154291D01*
X197768755Y-122093988D01*
X197692012Y-122017245D01*
X197631709Y-121926995D01*
X197590174Y-121826721D01*
X197569000Y-121720270D01*
X197569000Y-121611730D01*
X197590174Y-121505279D01*
X197631709Y-121405005D01*
X197692012Y-121314755D01*
X197768755Y-121238012D01*
X197859005Y-121177709D01*
X197959279Y-121136174D01*
X198065730Y-121115000D01*
X198174270Y-121115000D01*
X198280721Y-121136174D01*
X198280721Y-121136174D01*
G37*
G36*
X202514466Y-121132065D02*
X202553137Y-121143796D01*
X202588779Y-121162848D01*
X202620017Y-121188483D01*
X202645652Y-121219721D01*
X202664704Y-121255363D01*
X202676435Y-121294034D01*
X202681000Y-121340388D01*
X202681000Y-121991612D01*
X202676435Y-122037966D01*
X202664704Y-122076637D01*
X202645652Y-122112279D01*
X202620017Y-122143517D01*
X202588779Y-122169152D01*
X202553137Y-122188204D01*
X202514466Y-122199935D01*
X202468112Y-122204500D01*
X201391888Y-122204500D01*
X201345534Y-122199935D01*
X201306863Y-122188204D01*
X201271221Y-122169152D01*
X201239983Y-122143517D01*
X201214348Y-122112279D01*
X201195296Y-122076637D01*
X201183565Y-122037966D01*
X201179000Y-121991612D01*
X201179000Y-121340388D01*
X201183565Y-121294034D01*
X201195296Y-121255363D01*
X201214348Y-121219721D01*
X201239983Y-121188483D01*
X201271221Y-121162848D01*
X201306863Y-121143796D01*
X201345534Y-121132065D01*
X201391888Y-121127500D01*
X202468112Y-121127500D01*
X202514466Y-121132065D01*
X202514466Y-121132065D01*
G37*
G36*
X186064626Y-119358037D02*
X186177852Y-119392384D01*
X186234466Y-119409557D01*
X186390989Y-119493221D01*
X186528186Y-119605814D01*
X186567969Y-119654291D01*
X186640778Y-119743009D01*
X186640779Y-119743011D01*
X186724443Y-119899533D01*
X186741616Y-119956147D01*
X186775963Y-120069373D01*
X186789000Y-120201742D01*
X186789000Y-120590257D01*
X186775963Y-120722626D01*
X186724443Y-120892466D01*
X186640778Y-121048991D01*
X186640777Y-121048992D01*
X186528186Y-121186186D01*
X186453884Y-121247163D01*
X186390991Y-121298778D01*
X186390989Y-121298779D01*
X186234467Y-121382443D01*
X186193734Y-121394799D01*
X186064627Y-121433963D01*
X185888000Y-121451359D01*
X185711374Y-121433963D01*
X185582267Y-121394799D01*
X185541534Y-121382443D01*
X185385012Y-121298779D01*
X185385010Y-121298778D01*
X185288679Y-121219721D01*
X185247812Y-121186183D01*
X185135222Y-121048992D01*
X185051557Y-120892467D01*
X185001778Y-120728365D01*
X185000037Y-120722627D01*
X184987000Y-120590258D01*
X184987000Y-120201743D01*
X185000037Y-120069374D01*
X185051557Y-119899535D01*
X185051557Y-119899534D01*
X185135221Y-119743011D01*
X185247814Y-119605814D01*
X185355741Y-119517242D01*
X185385009Y-119493222D01*
X185402913Y-119483652D01*
X185541533Y-119409557D01*
X185598147Y-119392384D01*
X185711373Y-119358037D01*
X185888000Y-119340641D01*
X186064626Y-119358037D01*
X186064626Y-119358037D01*
G37*
G36*
X184146600Y-119348989D02*
X184179649Y-119359014D01*
X184210106Y-119375294D01*
X184236799Y-119397201D01*
X184258706Y-119423894D01*
X184274986Y-119454351D01*
X184285011Y-119487400D01*
X184289000Y-119527904D01*
X184289000Y-121264096D01*
X184285011Y-121304600D01*
X184274986Y-121337649D01*
X184258706Y-121368106D01*
X184236799Y-121394799D01*
X184210106Y-121416706D01*
X184179649Y-121432986D01*
X184146600Y-121443011D01*
X184106096Y-121447000D01*
X182669904Y-121447000D01*
X182629400Y-121443011D01*
X182596351Y-121432986D01*
X182565894Y-121416706D01*
X182539201Y-121394799D01*
X182517294Y-121368106D01*
X182501014Y-121337649D01*
X182490989Y-121304600D01*
X182487000Y-121264096D01*
X182487000Y-119527904D01*
X182490989Y-119487400D01*
X182501014Y-119454351D01*
X182517294Y-119423894D01*
X182539201Y-119397201D01*
X182565894Y-119375294D01*
X182596351Y-119359014D01*
X182629400Y-119348989D01*
X182669904Y-119345000D01*
X184106096Y-119345000D01*
X184146600Y-119348989D01*
X184146600Y-119348989D01*
G37*
G36*
X206046565Y-118901389D02*
X206237834Y-118980615D01*
X206409976Y-119095637D01*
X206556363Y-119242024D01*
X206671385Y-119414166D01*
X206750611Y-119605435D01*
X206791000Y-119808484D01*
X206791000Y-120015516D01*
X206750611Y-120218565D01*
X206671385Y-120409834D01*
X206556363Y-120581976D01*
X206409976Y-120728363D01*
X206237834Y-120843385D01*
X206046565Y-120922611D01*
X205843516Y-120963000D01*
X205636484Y-120963000D01*
X205433435Y-120922611D01*
X205242166Y-120843385D01*
X205070024Y-120728363D01*
X204923637Y-120581976D01*
X204808615Y-120409834D01*
X204729389Y-120218565D01*
X204689000Y-120015516D01*
X204689000Y-119808484D01*
X204729389Y-119605435D01*
X204808615Y-119414166D01*
X204923637Y-119242024D01*
X205070024Y-119095637D01*
X205242166Y-118980615D01*
X205433435Y-118901389D01*
X205636484Y-118861000D01*
X205843516Y-118861000D01*
X206046565Y-118901389D01*
X206046565Y-118901389D01*
G37*
G36*
X198280721Y-118636174D02*
X198380995Y-118677709D01*
X198471245Y-118738012D01*
X198547988Y-118814755D01*
X198608291Y-118905005D01*
X198649826Y-119005279D01*
X198671000Y-119111730D01*
X198671000Y-119220270D01*
X198649826Y-119326721D01*
X198608291Y-119426995D01*
X198547988Y-119517245D01*
X198471245Y-119593988D01*
X198380995Y-119654291D01*
X198280721Y-119695826D01*
X198174270Y-119717000D01*
X198065730Y-119717000D01*
X197959279Y-119695826D01*
X197859005Y-119654291D01*
X197768755Y-119593988D01*
X197692012Y-119517245D01*
X197631709Y-119426995D01*
X197590174Y-119326721D01*
X197569000Y-119220270D01*
X197569000Y-119111730D01*
X197590174Y-119005279D01*
X197631709Y-118905005D01*
X197692012Y-118814755D01*
X197768755Y-118738012D01*
X197859005Y-118677709D01*
X197959279Y-118636174D01*
X198065730Y-118615000D01*
X198174270Y-118615000D01*
X198280721Y-118636174D01*
X198280721Y-118636174D01*
G37*
G36*
X203473643Y-118101781D02*
X203619415Y-118162162D01*
X203750611Y-118249824D01*
X203862176Y-118361389D01*
X203949838Y-118492585D01*
X204010219Y-118638357D01*
X204041000Y-118793107D01*
X204041000Y-118950893D01*
X204010219Y-119105643D01*
X203949838Y-119251415D01*
X203862176Y-119382611D01*
X203750611Y-119494176D01*
X203619415Y-119581838D01*
X203473643Y-119642219D01*
X203318893Y-119673000D01*
X203161107Y-119673000D01*
X203006357Y-119642219D01*
X202860585Y-119581838D01*
X202729389Y-119494176D01*
X202617824Y-119382611D01*
X202530162Y-119251415D01*
X202469781Y-119105643D01*
X202439000Y-118950893D01*
X202439000Y-118793107D01*
X202469781Y-118638357D01*
X202530162Y-118492585D01*
X202617824Y-118361389D01*
X202729389Y-118249824D01*
X202860585Y-118162162D01*
X203006357Y-118101781D01*
X203161107Y-118071000D01*
X203318893Y-118071000D01*
X203473643Y-118101781D01*
X203473643Y-118101781D01*
G37*
G36*
X184301000Y-117951000D02*
X183199000Y-117951000D01*
X183199000Y-116849000D01*
X184301000Y-116849000D01*
X184301000Y-117951000D01*
X184301000Y-117951000D01*
G37*
G36*
X186801000Y-117951000D02*
X185699000Y-117951000D01*
X185699000Y-116849000D01*
X186801000Y-116849000D01*
X186801000Y-117951000D01*
X186801000Y-117951000D01*
G37*
G36*
X203473643Y-115148781D02*
X203619415Y-115209162D01*
X203750611Y-115296824D01*
X203862176Y-115408389D01*
X203949838Y-115539585D01*
X204010219Y-115685357D01*
X204041000Y-115840107D01*
X204041000Y-115997893D01*
X204010219Y-116152643D01*
X203949838Y-116298415D01*
X203862176Y-116429611D01*
X203750611Y-116541176D01*
X203619415Y-116628838D01*
X203473643Y-116689219D01*
X203318893Y-116720000D01*
X203161107Y-116720000D01*
X203006357Y-116689219D01*
X202860585Y-116628838D01*
X202729389Y-116541176D01*
X202617824Y-116429611D01*
X202530162Y-116298415D01*
X202469781Y-116152643D01*
X202439000Y-115997893D01*
X202439000Y-115840107D01*
X202469781Y-115685357D01*
X202530162Y-115539585D01*
X202617824Y-115408389D01*
X202729389Y-115296824D01*
X202860585Y-115209162D01*
X203006357Y-115148781D01*
X203161107Y-115118000D01*
X203318893Y-115118000D01*
X203473643Y-115148781D01*
X203473643Y-115148781D01*
G37*
G36*
X188381000Y-116576000D02*
X187219000Y-116576000D01*
X187219000Y-113924000D01*
X188381000Y-113924000D01*
X188381000Y-116576000D01*
X188381000Y-116576000D01*
G37*
G36*
X190581000Y-116576000D02*
X189419000Y-116576000D01*
X189419000Y-115824000D01*
X190581000Y-115824000D01*
X190581000Y-116576000D01*
X190581000Y-116576000D01*
G37*
G36*
X182404991Y-114973101D02*
X182490321Y-114981505D01*
X182627172Y-115023019D01*
X182627174Y-115023020D01*
X182627177Y-115023021D01*
X182753296Y-115090432D01*
X182863843Y-115181157D01*
X182954568Y-115291704D01*
X183021979Y-115417823D01*
X183021980Y-115417826D01*
X183021981Y-115417828D01*
X183063495Y-115554679D01*
X183077512Y-115697000D01*
X183063495Y-115839321D01*
X183032091Y-115942843D01*
X183021979Y-115976177D01*
X182954568Y-116102296D01*
X182863843Y-116212843D01*
X182753296Y-116303568D01*
X182627177Y-116370979D01*
X182627174Y-116370980D01*
X182627172Y-116370981D01*
X182490321Y-116412495D01*
X182404991Y-116420899D01*
X182383660Y-116423000D01*
X182162340Y-116423000D01*
X182141009Y-116420899D01*
X182055679Y-116412495D01*
X181918828Y-116370981D01*
X181918826Y-116370980D01*
X181918823Y-116370979D01*
X181792704Y-116303568D01*
X181682157Y-116212843D01*
X181591432Y-116102296D01*
X181524021Y-115976177D01*
X181513909Y-115942843D01*
X181482505Y-115839321D01*
X181468488Y-115697000D01*
X181482505Y-115554679D01*
X181524019Y-115417828D01*
X181524020Y-115417826D01*
X181524021Y-115417823D01*
X181591432Y-115291704D01*
X181682157Y-115181157D01*
X181792704Y-115090432D01*
X181918823Y-115023021D01*
X181918826Y-115023020D01*
X181918828Y-115023019D01*
X182055679Y-114981505D01*
X182141009Y-114973101D01*
X182162340Y-114971000D01*
X182383660Y-114971000D01*
X182404991Y-114973101D01*
X182404991Y-114973101D01*
G37*
G36*
X201256091Y-115302085D02*
X201290069Y-115312393D01*
X201321387Y-115329133D01*
X201348839Y-115351661D01*
X201371367Y-115379113D01*
X201388107Y-115410431D01*
X201398415Y-115444409D01*
X201402500Y-115485890D01*
X201402500Y-116162110D01*
X201398415Y-116203591D01*
X201388107Y-116237569D01*
X201371367Y-116268887D01*
X201348839Y-116296339D01*
X201321387Y-116318867D01*
X201290069Y-116335607D01*
X201256091Y-116345915D01*
X201214610Y-116350000D01*
X200613390Y-116350000D01*
X200571909Y-116345915D01*
X200537931Y-116335607D01*
X200506613Y-116318867D01*
X200479161Y-116296339D01*
X200456633Y-116268887D01*
X200439893Y-116237569D01*
X200429585Y-116203591D01*
X200425500Y-116162110D01*
X200425500Y-115485890D01*
X200429585Y-115444409D01*
X200439893Y-115410431D01*
X200456633Y-115379113D01*
X200479161Y-115351661D01*
X200506613Y-115329133D01*
X200537931Y-115312393D01*
X200571909Y-115302085D01*
X200613390Y-115298000D01*
X201214610Y-115298000D01*
X201256091Y-115302085D01*
X201256091Y-115302085D01*
G37*
G36*
X199681091Y-115302085D02*
X199715069Y-115312393D01*
X199746387Y-115329133D01*
X199773839Y-115351661D01*
X199796367Y-115379113D01*
X199813107Y-115410431D01*
X199823415Y-115444409D01*
X199827500Y-115485890D01*
X199827500Y-116162110D01*
X199823415Y-116203591D01*
X199813107Y-116237569D01*
X199796367Y-116268887D01*
X199773839Y-116296339D01*
X199746387Y-116318867D01*
X199715069Y-116335607D01*
X199681091Y-116345915D01*
X199639610Y-116350000D01*
X199038390Y-116350000D01*
X198996909Y-116345915D01*
X198962931Y-116335607D01*
X198931613Y-116318867D01*
X198904161Y-116296339D01*
X198881633Y-116268887D01*
X198864893Y-116237569D01*
X198854585Y-116203591D01*
X198850500Y-116162110D01*
X198850500Y-115485890D01*
X198854585Y-115444409D01*
X198864893Y-115410431D01*
X198881633Y-115379113D01*
X198904161Y-115351661D01*
X198931613Y-115329133D01*
X198962931Y-115312393D01*
X198996909Y-115302085D01*
X199038390Y-115298000D01*
X199639610Y-115298000D01*
X199681091Y-115302085D01*
X199681091Y-115302085D01*
G37*
G36*
X185215321Y-114561505D02*
X185352172Y-114603019D01*
X185352174Y-114603020D01*
X185352177Y-114603021D01*
X185478296Y-114670432D01*
X185588843Y-114761157D01*
X185679565Y-114871701D01*
X185679567Y-114871705D01*
X185746981Y-114997829D01*
X185788495Y-115134680D01*
X185799000Y-115241342D01*
X185799000Y-115462659D01*
X185788495Y-115569321D01*
X185750259Y-115695365D01*
X185746979Y-115706177D01*
X185679568Y-115832296D01*
X185588843Y-115942843D01*
X185478295Y-116033568D01*
X185352176Y-116100979D01*
X185352173Y-116100980D01*
X185352171Y-116100981D01*
X185215320Y-116142495D01*
X185073000Y-116156512D01*
X184930679Y-116142495D01*
X184793828Y-116100981D01*
X184793826Y-116100980D01*
X184793823Y-116100979D01*
X184667704Y-116033568D01*
X184557157Y-115942843D01*
X184466432Y-115832295D01*
X184399021Y-115706176D01*
X184396237Y-115697000D01*
X184357505Y-115569320D01*
X184347000Y-115462658D01*
X184347000Y-115241341D01*
X184357505Y-115134679D01*
X184399019Y-114997828D01*
X184399020Y-114997826D01*
X184399021Y-114997823D01*
X184466432Y-114871704D01*
X184557157Y-114761157D01*
X184667705Y-114670432D01*
X184793824Y-114603021D01*
X184793827Y-114603020D01*
X184793829Y-114603019D01*
X184930680Y-114561505D01*
X185073000Y-114547488D01*
X185215321Y-114561505D01*
X185215321Y-114561505D01*
G37*
G36*
X192784466Y-114866065D02*
X192823137Y-114877796D01*
X192858779Y-114896848D01*
X192890017Y-114922483D01*
X192915652Y-114953721D01*
X192934704Y-114989363D01*
X192946435Y-115028034D01*
X192951000Y-115074388D01*
X192951000Y-115725612D01*
X192946435Y-115771966D01*
X192934704Y-115810637D01*
X192915652Y-115846279D01*
X192890017Y-115877517D01*
X192858779Y-115903152D01*
X192823137Y-115922204D01*
X192784466Y-115933935D01*
X192738112Y-115938500D01*
X191661888Y-115938500D01*
X191615534Y-115933935D01*
X191576863Y-115922204D01*
X191541221Y-115903152D01*
X191509983Y-115877517D01*
X191484348Y-115846279D01*
X191465296Y-115810637D01*
X191453565Y-115771966D01*
X191449000Y-115725612D01*
X191449000Y-115074388D01*
X191453565Y-115028034D01*
X191465296Y-114989363D01*
X191484348Y-114953721D01*
X191509983Y-114922483D01*
X191541221Y-114896848D01*
X191576863Y-114877796D01*
X191615534Y-114866065D01*
X191661888Y-114861500D01*
X192738112Y-114861500D01*
X192784466Y-114866065D01*
X192784466Y-114866065D01*
G37*
G36*
X206046565Y-113868389D02*
X206237834Y-113947615D01*
X206409976Y-114062637D01*
X206556363Y-114209024D01*
X206671385Y-114381166D01*
X206750611Y-114572435D01*
X206791000Y-114775484D01*
X206791000Y-114982516D01*
X206750611Y-115185565D01*
X206671385Y-115376834D01*
X206556363Y-115548976D01*
X206409976Y-115695363D01*
X206237834Y-115810385D01*
X206046565Y-115889611D01*
X205843516Y-115930000D01*
X205636484Y-115930000D01*
X205433435Y-115889611D01*
X205242166Y-115810385D01*
X205070024Y-115695363D01*
X204923637Y-115548976D01*
X204808615Y-115376834D01*
X204729389Y-115185565D01*
X204689000Y-114982516D01*
X204689000Y-114775484D01*
X204729389Y-114572435D01*
X204808615Y-114381166D01*
X204923637Y-114209024D01*
X205070024Y-114062637D01*
X205242166Y-113947615D01*
X205433435Y-113868389D01*
X205636484Y-113828000D01*
X205843516Y-113828000D01*
X206046565Y-113868389D01*
X206046565Y-113868389D01*
G37*
G36*
X194881000Y-114801000D02*
X194039000Y-114801000D01*
X194039000Y-112299000D01*
X194881000Y-112299000D01*
X194881000Y-114801000D01*
X194881000Y-114801000D01*
G37*
G36*
X196151000Y-114801000D02*
X195309000Y-114801000D01*
X195309000Y-112299000D01*
X196151000Y-112299000D01*
X196151000Y-114801000D01*
X196151000Y-114801000D01*
G37*
G36*
X197421000Y-114801000D02*
X196579000Y-114801000D01*
X196579000Y-112299000D01*
X197421000Y-112299000D01*
X197421000Y-114801000D01*
X197421000Y-114801000D01*
G37*
G36*
X198691000Y-114801000D02*
X197849000Y-114801000D01*
X197849000Y-112299000D01*
X198691000Y-112299000D01*
X198691000Y-114801000D01*
X198691000Y-114801000D01*
G37*
G36*
X199961000Y-114801000D02*
X199119000Y-114801000D01*
X199119000Y-112299000D01*
X199961000Y-112299000D01*
X199961000Y-114801000D01*
X199961000Y-114801000D01*
G37*
G36*
X183304000Y-114718000D02*
X180702000Y-114718000D01*
X180702000Y-113186000D01*
X183304000Y-113186000D01*
X183304000Y-114718000D01*
X183304000Y-114718000D01*
G37*
G36*
X190581000Y-114676000D02*
X189419000Y-114676000D01*
X189419000Y-113924000D01*
X190581000Y-113924000D01*
X190581000Y-114676000D01*
X190581000Y-114676000D01*
G37*
G36*
X184311841Y-109689292D02*
X184311843Y-109689293D01*
X184311844Y-109689293D01*
X184398470Y-109725174D01*
X184398471Y-109725175D01*
X184476435Y-109777269D01*
X184542731Y-109843565D01*
X184542733Y-109843568D01*
X184594826Y-109921530D01*
X184630707Y-110008156D01*
X184630708Y-110008159D01*
X184649000Y-110100117D01*
X184649000Y-110193883D01*
X184642440Y-110226863D01*
X184630707Y-110285844D01*
X184596574Y-110368250D01*
X184592467Y-110378164D01*
X184585354Y-110401614D01*
X184582952Y-110426000D01*
X184585354Y-110450386D01*
X184592467Y-110473835D01*
X184604018Y-110495446D01*
X184619564Y-110514388D01*
X184638506Y-110529934D01*
X184660116Y-110541485D01*
X184683566Y-110548598D01*
X184707952Y-110551000D01*
X186454000Y-110551000D01*
X186454000Y-113653000D01*
X184712094Y-113653000D01*
X184687708Y-113655402D01*
X184664259Y-113662515D01*
X184642648Y-113674066D01*
X184623706Y-113689612D01*
X184608160Y-113708554D01*
X184596609Y-113730165D01*
X184589496Y-113753614D01*
X184587094Y-113778000D01*
X184589496Y-113802386D01*
X184596607Y-113825831D01*
X184626072Y-113896966D01*
X184630708Y-113908159D01*
X184645921Y-113984639D01*
X184649000Y-114000118D01*
X184649000Y-114093882D01*
X184630707Y-114185844D01*
X184594826Y-114272470D01*
X184594825Y-114272471D01*
X184542731Y-114350435D01*
X184476435Y-114416731D01*
X184476432Y-114416733D01*
X184398470Y-114468826D01*
X184311844Y-114504707D01*
X184311843Y-114504707D01*
X184311841Y-114504708D01*
X184219883Y-114523000D01*
X184126117Y-114523000D01*
X184034159Y-114504708D01*
X184034157Y-114504707D01*
X184034156Y-114504707D01*
X183947530Y-114468826D01*
X183869568Y-114416733D01*
X183869565Y-114416731D01*
X183803269Y-114350435D01*
X183751175Y-114272471D01*
X183751174Y-114272470D01*
X183715293Y-114185844D01*
X183697000Y-114093882D01*
X183697000Y-114000118D01*
X183700079Y-113984639D01*
X183715292Y-113908159D01*
X183719928Y-113896966D01*
X183751174Y-113821530D01*
X183803267Y-113743568D01*
X183803269Y-113743565D01*
X183869565Y-113677269D01*
X183947529Y-113625175D01*
X183947530Y-113625174D01*
X184034156Y-113589293D01*
X184034157Y-113589293D01*
X184034159Y-113589292D01*
X184126117Y-113571000D01*
X184227000Y-113571000D01*
X184251386Y-113568598D01*
X184274835Y-113561485D01*
X184296446Y-113549934D01*
X184315388Y-113534388D01*
X184330934Y-113515446D01*
X184342485Y-113493835D01*
X184349598Y-113470386D01*
X184352000Y-113446000D01*
X184352000Y-110748000D01*
X184349598Y-110723614D01*
X184342485Y-110700165D01*
X184330934Y-110678554D01*
X184315388Y-110659612D01*
X184296446Y-110644066D01*
X184274835Y-110632515D01*
X184251386Y-110625402D01*
X184227000Y-110623000D01*
X184126117Y-110623000D01*
X184034159Y-110604708D01*
X184034157Y-110604707D01*
X184034156Y-110604707D01*
X183947530Y-110568826D01*
X183869568Y-110516733D01*
X183869565Y-110516731D01*
X183803269Y-110450435D01*
X183751175Y-110372471D01*
X183751174Y-110372470D01*
X183715293Y-110285844D01*
X183703561Y-110226863D01*
X183697000Y-110193883D01*
X183697000Y-110100117D01*
X183715292Y-110008159D01*
X183715293Y-110008156D01*
X183751174Y-109921530D01*
X183803267Y-109843568D01*
X183803269Y-109843565D01*
X183869565Y-109777269D01*
X183947529Y-109725175D01*
X183947530Y-109725174D01*
X184034156Y-109689293D01*
X184034157Y-109689293D01*
X184034159Y-109689292D01*
X184126117Y-109671000D01*
X184219883Y-109671000D01*
X184311841Y-109689292D01*
X184311841Y-109689292D01*
G37*
G36*
X192784466Y-112991065D02*
X192823137Y-113002796D01*
X192858779Y-113021848D01*
X192890017Y-113047483D01*
X192915652Y-113078721D01*
X192934704Y-113114363D01*
X192946435Y-113153034D01*
X192951000Y-113199388D01*
X192951000Y-113850612D01*
X192946435Y-113896966D01*
X192934704Y-113935637D01*
X192915652Y-113971279D01*
X192890017Y-114002517D01*
X192858779Y-114028152D01*
X192823137Y-114047204D01*
X192784466Y-114058935D01*
X192738112Y-114063500D01*
X191661888Y-114063500D01*
X191615534Y-114058935D01*
X191576863Y-114047204D01*
X191541221Y-114028152D01*
X191509983Y-114002517D01*
X191484348Y-113971279D01*
X191465296Y-113935637D01*
X191453565Y-113896966D01*
X191449000Y-113850612D01*
X191449000Y-113199388D01*
X191453565Y-113153034D01*
X191465296Y-113114363D01*
X191484348Y-113078721D01*
X191509983Y-113047483D01*
X191541221Y-113021848D01*
X191576863Y-113002796D01*
X191615534Y-112991065D01*
X191661888Y-112986500D01*
X192738112Y-112986500D01*
X192784466Y-112991065D01*
X192784466Y-112991065D01*
G37*
G36*
X202514466Y-112750065D02*
X202553137Y-112761796D01*
X202588779Y-112780848D01*
X202620017Y-112806483D01*
X202645652Y-112837721D01*
X202664704Y-112873363D01*
X202676435Y-112912034D01*
X202681000Y-112958388D01*
X202681000Y-113609612D01*
X202676435Y-113655966D01*
X202664704Y-113694637D01*
X202645652Y-113730279D01*
X202620017Y-113761517D01*
X202588779Y-113787152D01*
X202553137Y-113806204D01*
X202514466Y-113817935D01*
X202468112Y-113822500D01*
X201391888Y-113822500D01*
X201345534Y-113817935D01*
X201306863Y-113806204D01*
X201271221Y-113787152D01*
X201239983Y-113761517D01*
X201214348Y-113730279D01*
X201195296Y-113694637D01*
X201183565Y-113655966D01*
X201179000Y-113609612D01*
X201179000Y-112958388D01*
X201183565Y-112912034D01*
X201195296Y-112873363D01*
X201214348Y-112837721D01*
X201239983Y-112806483D01*
X201271221Y-112780848D01*
X201306863Y-112761796D01*
X201345534Y-112750065D01*
X201391888Y-112745500D01*
X202468112Y-112745500D01*
X202514466Y-112750065D01*
X202514466Y-112750065D01*
G37*
G36*
X202514466Y-110875065D02*
X202553137Y-110886796D01*
X202588779Y-110905848D01*
X202620017Y-110931483D01*
X202645652Y-110962721D01*
X202664704Y-110998363D01*
X202676435Y-111037034D01*
X202681000Y-111083388D01*
X202681000Y-111734612D01*
X202676435Y-111780966D01*
X202664704Y-111819637D01*
X202645652Y-111855279D01*
X202620017Y-111886517D01*
X202588779Y-111912152D01*
X202553137Y-111931204D01*
X202514466Y-111942935D01*
X202468112Y-111947500D01*
X201391888Y-111947500D01*
X201345534Y-111942935D01*
X201306863Y-111931204D01*
X201271221Y-111912152D01*
X201239983Y-111886517D01*
X201214348Y-111855279D01*
X201195296Y-111819637D01*
X201183565Y-111780966D01*
X201179000Y-111734612D01*
X201179000Y-111083388D01*
X201183565Y-111037034D01*
X201195296Y-110998363D01*
X201214348Y-110962721D01*
X201239983Y-110931483D01*
X201271221Y-110905848D01*
X201306863Y-110886796D01*
X201345534Y-110875065D01*
X201391888Y-110870500D01*
X202468112Y-110870500D01*
X202514466Y-110875065D01*
X202514466Y-110875065D01*
G37*
G36*
X190521966Y-110103565D02*
X190560637Y-110115296D01*
X190596279Y-110134348D01*
X190627517Y-110159983D01*
X190653152Y-110191221D01*
X190672204Y-110226863D01*
X190683935Y-110265534D01*
X190688500Y-110311888D01*
X190688500Y-111388112D01*
X190683935Y-111434466D01*
X190672204Y-111473137D01*
X190653152Y-111508779D01*
X190627517Y-111540017D01*
X190596279Y-111565652D01*
X190560637Y-111584704D01*
X190521966Y-111596435D01*
X190475612Y-111601000D01*
X189824388Y-111601000D01*
X189778034Y-111596435D01*
X189739363Y-111584704D01*
X189703721Y-111565652D01*
X189672483Y-111540017D01*
X189646848Y-111508779D01*
X189627796Y-111473137D01*
X189616065Y-111434466D01*
X189611500Y-111388112D01*
X189611500Y-110311888D01*
X189616065Y-110265534D01*
X189627796Y-110226863D01*
X189646848Y-110191221D01*
X189672483Y-110159983D01*
X189703721Y-110134348D01*
X189739363Y-110115296D01*
X189778034Y-110103565D01*
X189824388Y-110099000D01*
X190475612Y-110099000D01*
X190521966Y-110103565D01*
X190521966Y-110103565D01*
G37*
G36*
X188646966Y-110103565D02*
X188685637Y-110115296D01*
X188721279Y-110134348D01*
X188752517Y-110159983D01*
X188778152Y-110191221D01*
X188797204Y-110226863D01*
X188808935Y-110265534D01*
X188813500Y-110311888D01*
X188813500Y-111388112D01*
X188808935Y-111434466D01*
X188797204Y-111473137D01*
X188778152Y-111508779D01*
X188752517Y-111540017D01*
X188721279Y-111565652D01*
X188685637Y-111584704D01*
X188646966Y-111596435D01*
X188600612Y-111601000D01*
X187949388Y-111601000D01*
X187903034Y-111596435D01*
X187864363Y-111584704D01*
X187828721Y-111565652D01*
X187797483Y-111540017D01*
X187771848Y-111508779D01*
X187752796Y-111473137D01*
X187741065Y-111434466D01*
X187736500Y-111388112D01*
X187736500Y-110311888D01*
X187741065Y-110265534D01*
X187752796Y-110226863D01*
X187771848Y-110191221D01*
X187797483Y-110159983D01*
X187828721Y-110134348D01*
X187864363Y-110115296D01*
X187903034Y-110103565D01*
X187949388Y-110099000D01*
X188600612Y-110099000D01*
X188646966Y-110103565D01*
X188646966Y-110103565D01*
G37*
G36*
X183304000Y-111033000D02*
X180702000Y-111033000D01*
X180702000Y-109501000D01*
X183304000Y-109501000D01*
X183304000Y-111033000D01*
X183304000Y-111033000D01*
G37*
G36*
X206046565Y-108868389D02*
X206237834Y-108947615D01*
X206409976Y-109062637D01*
X206556363Y-109209024D01*
X206671385Y-109381166D01*
X206750611Y-109572435D01*
X206791000Y-109775484D01*
X206791000Y-109982516D01*
X206750611Y-110185565D01*
X206671385Y-110376834D01*
X206556363Y-110548976D01*
X206409976Y-110695363D01*
X206237834Y-110810385D01*
X206046565Y-110889611D01*
X205843516Y-110930000D01*
X205636484Y-110930000D01*
X205433435Y-110889611D01*
X205242166Y-110810385D01*
X205070024Y-110695363D01*
X204923637Y-110548976D01*
X204808615Y-110376834D01*
X204729389Y-110185565D01*
X204689000Y-109982516D01*
X204689000Y-109775484D01*
X204729389Y-109572435D01*
X204808615Y-109381166D01*
X204923637Y-109209024D01*
X205070024Y-109062637D01*
X205242166Y-108947615D01*
X205433435Y-108868389D01*
X205636484Y-108828000D01*
X205843516Y-108828000D01*
X206046565Y-108868389D01*
X206046565Y-108868389D01*
G37*
G36*
X199961000Y-110901000D02*
X199119000Y-110901000D01*
X199119000Y-108399000D01*
X199961000Y-108399000D01*
X199961000Y-110901000D01*
X199961000Y-110901000D01*
G37*
G36*
X198691000Y-110901000D02*
X197849000Y-110901000D01*
X197849000Y-108399000D01*
X198691000Y-108399000D01*
X198691000Y-110901000D01*
X198691000Y-110901000D01*
G37*
G36*
X197421000Y-110901000D02*
X196579000Y-110901000D01*
X196579000Y-108399000D01*
X197421000Y-108399000D01*
X197421000Y-110901000D01*
X197421000Y-110901000D01*
G37*
G36*
X196151000Y-110901000D02*
X195309000Y-110901000D01*
X195309000Y-108399000D01*
X196151000Y-108399000D01*
X196151000Y-110901000D01*
X196151000Y-110901000D01*
G37*
G36*
X194881000Y-110901000D02*
X194039000Y-110901000D01*
X194039000Y-108399000D01*
X194881000Y-108399000D01*
X194881000Y-110901000D01*
X194881000Y-110901000D01*
G37*
G36*
X201547591Y-108735585D02*
X201581569Y-108745893D01*
X201612887Y-108762633D01*
X201640339Y-108785161D01*
X201662867Y-108812613D01*
X201679607Y-108843931D01*
X201689915Y-108877909D01*
X201694000Y-108919390D01*
X201694000Y-109520610D01*
X201689915Y-109562091D01*
X201679607Y-109596069D01*
X201662867Y-109627387D01*
X201640339Y-109654839D01*
X201612887Y-109677367D01*
X201581569Y-109694107D01*
X201547591Y-109704415D01*
X201506110Y-109708500D01*
X200829890Y-109708500D01*
X200788409Y-109704415D01*
X200754431Y-109694107D01*
X200723113Y-109677367D01*
X200695661Y-109654839D01*
X200673133Y-109627387D01*
X200656393Y-109596069D01*
X200646085Y-109562091D01*
X200642000Y-109520610D01*
X200642000Y-108919390D01*
X200646085Y-108877909D01*
X200656393Y-108843931D01*
X200673133Y-108812613D01*
X200695661Y-108785161D01*
X200723113Y-108762633D01*
X200754431Y-108745893D01*
X200788409Y-108735585D01*
X200829890Y-108731500D01*
X201506110Y-108731500D01*
X201547591Y-108735585D01*
X201547591Y-108735585D01*
G37*
G36*
X203473643Y-108068781D02*
X203619415Y-108129162D01*
X203750611Y-108216824D01*
X203862176Y-108328389D01*
X203949838Y-108459585D01*
X204010219Y-108605357D01*
X204041000Y-108760107D01*
X204041000Y-108917893D01*
X204010219Y-109072643D01*
X203949838Y-109218415D01*
X203862176Y-109349611D01*
X203750611Y-109461176D01*
X203619415Y-109548838D01*
X203473643Y-109609219D01*
X203318893Y-109640000D01*
X203161107Y-109640000D01*
X203006357Y-109609219D01*
X202860585Y-109548838D01*
X202729389Y-109461176D01*
X202617824Y-109349611D01*
X202530162Y-109218415D01*
X202469781Y-109072643D01*
X202439000Y-108917893D01*
X202439000Y-108760107D01*
X202469781Y-108605357D01*
X202530162Y-108459585D01*
X202617824Y-108328389D01*
X202729389Y-108216824D01*
X202860585Y-108129162D01*
X203006357Y-108068781D01*
X203161107Y-108038000D01*
X203318893Y-108038000D01*
X203473643Y-108068781D01*
X203473643Y-108068781D01*
G37*
G36*
X185215321Y-107961505D02*
X185352172Y-108003019D01*
X185352174Y-108003020D01*
X185352177Y-108003021D01*
X185478296Y-108070432D01*
X185588843Y-108161157D01*
X185679565Y-108271701D01*
X185679567Y-108271705D01*
X185746981Y-108397829D01*
X185788495Y-108534680D01*
X185799000Y-108641342D01*
X185799000Y-108862659D01*
X185788495Y-108969321D01*
X185746981Y-109106171D01*
X185746979Y-109106177D01*
X185679568Y-109232296D01*
X185588843Y-109342843D01*
X185478295Y-109433568D01*
X185352176Y-109500979D01*
X185352173Y-109500980D01*
X185352171Y-109500981D01*
X185215320Y-109542495D01*
X185073000Y-109556512D01*
X184930679Y-109542495D01*
X184793828Y-109500981D01*
X184793826Y-109500980D01*
X184793823Y-109500979D01*
X184667704Y-109433568D01*
X184557157Y-109342843D01*
X184466432Y-109232295D01*
X184399021Y-109106176D01*
X184399019Y-109106171D01*
X184357505Y-108969320D01*
X184348502Y-108877909D01*
X184347000Y-108862659D01*
X184347000Y-108641340D01*
X184357505Y-108534683D01*
X184357505Y-108534679D01*
X184399019Y-108397828D01*
X184399020Y-108397826D01*
X184399021Y-108397823D01*
X184466432Y-108271704D01*
X184557157Y-108161157D01*
X184667705Y-108070432D01*
X184793824Y-108003021D01*
X184793827Y-108003020D01*
X184793829Y-108003019D01*
X184930680Y-107961505D01*
X185073000Y-107947488D01*
X185215321Y-107961505D01*
X185215321Y-107961505D01*
G37*
G36*
X182404991Y-107773101D02*
X182490321Y-107781505D01*
X182627172Y-107823019D01*
X182627174Y-107823020D01*
X182627177Y-107823021D01*
X182753296Y-107890432D01*
X182863843Y-107981157D01*
X182954568Y-108091704D01*
X183021979Y-108217823D01*
X183021980Y-108217826D01*
X183021981Y-108217828D01*
X183063495Y-108354679D01*
X183077512Y-108497000D01*
X183063495Y-108639321D01*
X183026088Y-108762633D01*
X183021979Y-108776177D01*
X182954568Y-108902296D01*
X182863843Y-109012843D01*
X182753296Y-109103568D01*
X182627177Y-109170979D01*
X182627174Y-109170980D01*
X182627172Y-109170981D01*
X182490321Y-109212495D01*
X182404991Y-109220899D01*
X182383660Y-109223000D01*
X182162340Y-109223000D01*
X182141009Y-109220899D01*
X182055679Y-109212495D01*
X181918828Y-109170981D01*
X181918826Y-109170980D01*
X181918823Y-109170979D01*
X181792704Y-109103568D01*
X181682157Y-109012843D01*
X181591432Y-108902296D01*
X181524021Y-108776177D01*
X181519912Y-108762633D01*
X181482505Y-108639321D01*
X181468488Y-108497000D01*
X181482505Y-108354679D01*
X181524019Y-108217828D01*
X181524020Y-108217826D01*
X181524021Y-108217823D01*
X181591432Y-108091704D01*
X181682157Y-107981157D01*
X181792704Y-107890432D01*
X181918823Y-107823021D01*
X181918826Y-107823020D01*
X181918828Y-107823019D01*
X182055679Y-107781505D01*
X182141009Y-107773101D01*
X182162340Y-107771000D01*
X182383660Y-107771000D01*
X182404991Y-107773101D01*
X182404991Y-107773101D01*
G37*
G36*
X193171966Y-107253565D02*
X193210637Y-107265296D01*
X193246279Y-107284348D01*
X193277517Y-107309983D01*
X193303152Y-107341221D01*
X193322204Y-107376863D01*
X193333935Y-107415534D01*
X193338500Y-107461888D01*
X193338500Y-108538112D01*
X193333935Y-108584466D01*
X193322204Y-108623137D01*
X193303152Y-108658779D01*
X193277517Y-108690017D01*
X193246279Y-108715652D01*
X193210637Y-108734704D01*
X193171966Y-108746435D01*
X193125612Y-108751000D01*
X192474388Y-108751000D01*
X192428034Y-108746435D01*
X192389363Y-108734704D01*
X192353721Y-108715652D01*
X192322483Y-108690017D01*
X192296848Y-108658779D01*
X192277796Y-108623137D01*
X192266065Y-108584466D01*
X192261500Y-108538112D01*
X192261500Y-107461888D01*
X192266065Y-107415534D01*
X192277796Y-107376863D01*
X192296848Y-107341221D01*
X192322483Y-107309983D01*
X192353721Y-107284348D01*
X192389363Y-107265296D01*
X192428034Y-107253565D01*
X192474388Y-107249000D01*
X193125612Y-107249000D01*
X193171966Y-107253565D01*
X193171966Y-107253565D01*
G37*
G36*
X191296966Y-107253565D02*
X191335637Y-107265296D01*
X191371279Y-107284348D01*
X191402517Y-107309983D01*
X191428152Y-107341221D01*
X191447204Y-107376863D01*
X191458935Y-107415534D01*
X191463500Y-107461888D01*
X191463500Y-108538112D01*
X191458935Y-108584466D01*
X191447204Y-108623137D01*
X191428152Y-108658779D01*
X191402517Y-108690017D01*
X191371279Y-108715652D01*
X191335637Y-108734704D01*
X191296966Y-108746435D01*
X191250612Y-108751000D01*
X190599388Y-108751000D01*
X190553034Y-108746435D01*
X190514363Y-108734704D01*
X190478721Y-108715652D01*
X190447483Y-108690017D01*
X190421848Y-108658779D01*
X190402796Y-108623137D01*
X190391065Y-108584466D01*
X190386500Y-108538112D01*
X190386500Y-107461888D01*
X190391065Y-107415534D01*
X190402796Y-107376863D01*
X190421848Y-107341221D01*
X190447483Y-107309983D01*
X190478721Y-107284348D01*
X190514363Y-107265296D01*
X190553034Y-107253565D01*
X190599388Y-107249000D01*
X191250612Y-107249000D01*
X191296966Y-107253565D01*
X191296966Y-107253565D01*
G37*
G36*
X189792091Y-107378085D02*
X189826069Y-107388393D01*
X189857387Y-107405133D01*
X189884839Y-107427661D01*
X189907367Y-107455113D01*
X189924107Y-107486431D01*
X189934415Y-107520409D01*
X189938500Y-107561890D01*
X189938500Y-108238110D01*
X189934415Y-108279591D01*
X189924107Y-108313569D01*
X189907367Y-108344887D01*
X189884839Y-108372339D01*
X189857387Y-108394867D01*
X189826069Y-108411607D01*
X189792091Y-108421915D01*
X189750610Y-108426000D01*
X189149390Y-108426000D01*
X189107909Y-108421915D01*
X189073931Y-108411607D01*
X189042613Y-108394867D01*
X189015161Y-108372339D01*
X188992633Y-108344887D01*
X188975893Y-108313569D01*
X188965585Y-108279591D01*
X188961500Y-108238110D01*
X188961500Y-107561890D01*
X188965585Y-107520409D01*
X188975893Y-107486431D01*
X188992633Y-107455113D01*
X189015161Y-107427661D01*
X189042613Y-107405133D01*
X189073931Y-107388393D01*
X189107909Y-107378085D01*
X189149390Y-107374000D01*
X189750610Y-107374000D01*
X189792091Y-107378085D01*
X189792091Y-107378085D01*
G37*
G36*
X188217091Y-107378085D02*
X188251069Y-107388393D01*
X188282387Y-107405133D01*
X188309839Y-107427661D01*
X188332367Y-107455113D01*
X188349107Y-107486431D01*
X188359415Y-107520409D01*
X188363500Y-107561890D01*
X188363500Y-108238110D01*
X188359415Y-108279591D01*
X188349107Y-108313569D01*
X188332367Y-108344887D01*
X188309839Y-108372339D01*
X188282387Y-108394867D01*
X188251069Y-108411607D01*
X188217091Y-108421915D01*
X188175610Y-108426000D01*
X187574390Y-108426000D01*
X187532909Y-108421915D01*
X187498931Y-108411607D01*
X187467613Y-108394867D01*
X187440161Y-108372339D01*
X187417633Y-108344887D01*
X187400893Y-108313569D01*
X187390585Y-108279591D01*
X187386500Y-108238110D01*
X187386500Y-107561890D01*
X187390585Y-107520409D01*
X187400893Y-107486431D01*
X187417633Y-107455113D01*
X187440161Y-107427661D01*
X187467613Y-107405133D01*
X187498931Y-107388393D01*
X187532909Y-107378085D01*
X187574390Y-107374000D01*
X188175610Y-107374000D01*
X188217091Y-107378085D01*
X188217091Y-107378085D01*
G37*
G36*
X201547591Y-107160585D02*
X201581569Y-107170893D01*
X201612887Y-107187633D01*
X201640339Y-107210161D01*
X201662867Y-107237613D01*
X201679607Y-107268931D01*
X201689915Y-107302909D01*
X201694000Y-107344390D01*
X201694000Y-107945610D01*
X201689915Y-107987091D01*
X201679607Y-108021069D01*
X201662867Y-108052387D01*
X201640339Y-108079839D01*
X201612887Y-108102367D01*
X201581569Y-108119107D01*
X201547591Y-108129415D01*
X201506110Y-108133500D01*
X200829890Y-108133500D01*
X200788409Y-108129415D01*
X200754431Y-108119107D01*
X200723113Y-108102367D01*
X200695661Y-108079839D01*
X200673133Y-108052387D01*
X200656393Y-108021069D01*
X200646085Y-107987091D01*
X200642000Y-107945610D01*
X200642000Y-107344390D01*
X200646085Y-107302909D01*
X200656393Y-107268931D01*
X200673133Y-107237613D01*
X200695661Y-107210161D01*
X200723113Y-107187633D01*
X200754431Y-107170893D01*
X200788409Y-107160585D01*
X200829890Y-107156500D01*
X201506110Y-107156500D01*
X201547591Y-107160585D01*
X201547591Y-107160585D01*
G37*
G36*
X187279591Y-105995585D02*
X187313569Y-106005893D01*
X187344887Y-106022633D01*
X187372339Y-106045161D01*
X187394867Y-106072613D01*
X187411607Y-106103931D01*
X187421915Y-106137909D01*
X187426000Y-106179390D01*
X187426000Y-106780610D01*
X187421915Y-106822091D01*
X187411607Y-106856069D01*
X187394867Y-106887387D01*
X187372339Y-106914839D01*
X187344887Y-106937367D01*
X187313569Y-106954107D01*
X187279591Y-106964415D01*
X187238110Y-106968500D01*
X186561890Y-106968500D01*
X186520409Y-106964415D01*
X186486431Y-106954107D01*
X186455113Y-106937367D01*
X186427661Y-106914839D01*
X186405133Y-106887387D01*
X186388393Y-106856069D01*
X186378085Y-106822091D01*
X186374000Y-106780610D01*
X186374000Y-106179390D01*
X186378085Y-106137909D01*
X186388393Y-106103931D01*
X186405133Y-106072613D01*
X186427661Y-106045161D01*
X186455113Y-106022633D01*
X186486431Y-106005893D01*
X186520409Y-105995585D01*
X186561890Y-105991500D01*
X187238110Y-105991500D01*
X187279591Y-105995585D01*
X187279591Y-105995585D01*
G37*
G36*
X185545591Y-105967085D02*
X185579569Y-105977393D01*
X185610887Y-105994133D01*
X185638339Y-106016661D01*
X185660867Y-106044113D01*
X185677607Y-106075431D01*
X185687915Y-106109409D01*
X185692000Y-106150890D01*
X185692000Y-106752110D01*
X185687915Y-106793591D01*
X185677607Y-106827569D01*
X185660867Y-106858887D01*
X185638339Y-106886339D01*
X185610887Y-106908867D01*
X185579569Y-106925607D01*
X185545591Y-106935915D01*
X185504110Y-106940000D01*
X184827890Y-106940000D01*
X184786409Y-106935915D01*
X184752431Y-106925607D01*
X184721113Y-106908867D01*
X184693661Y-106886339D01*
X184671133Y-106858887D01*
X184654393Y-106827569D01*
X184644085Y-106793591D01*
X184640000Y-106752110D01*
X184640000Y-106150890D01*
X184644085Y-106109409D01*
X184654393Y-106075431D01*
X184671133Y-106044113D01*
X184693661Y-106016661D01*
X184721113Y-105994133D01*
X184752431Y-105977393D01*
X184786409Y-105967085D01*
X184827890Y-105963000D01*
X185504110Y-105963000D01*
X185545591Y-105967085D01*
X185545591Y-105967085D01*
G37*
G36*
X201775180Y-106821760D02*
X199123180Y-106821760D01*
X199123180Y-105659760D01*
X201775180Y-105659760D01*
X201775180Y-106821760D01*
X201775180Y-106821760D01*
G37*
G36*
X205038433Y-103584893D02*
X205128657Y-103602839D01*
X205234267Y-103646585D01*
X205383621Y-103708449D01*
X205613089Y-103861774D01*
X205808226Y-104056911D01*
X205961551Y-104286379D01*
X206021411Y-104430893D01*
X206064289Y-104534409D01*
X206067161Y-104541344D01*
X206121000Y-104812012D01*
X206121000Y-105087988D01*
X206090222Y-105242720D01*
X206067161Y-105358657D01*
X206058690Y-105379107D01*
X205961551Y-105613621D01*
X205808226Y-105843089D01*
X205613089Y-106038226D01*
X205383621Y-106191551D01*
X205234267Y-106253415D01*
X205128657Y-106297161D01*
X205038433Y-106315107D01*
X204857988Y-106351000D01*
X204582012Y-106351000D01*
X204401567Y-106315107D01*
X204311343Y-106297161D01*
X204205733Y-106253415D01*
X204056379Y-106191551D01*
X203826911Y-106038226D01*
X203631774Y-105843089D01*
X203478449Y-105613621D01*
X203381310Y-105379107D01*
X203372839Y-105358657D01*
X203349778Y-105242720D01*
X203319000Y-105087988D01*
X203319000Y-104812012D01*
X203372839Y-104541344D01*
X203375712Y-104534409D01*
X203418589Y-104430893D01*
X203478449Y-104286379D01*
X203631774Y-104056911D01*
X203826911Y-103861774D01*
X204056379Y-103708449D01*
X204205733Y-103646585D01*
X204311343Y-103602839D01*
X204401567Y-103584893D01*
X204582012Y-103549000D01*
X204857988Y-103549000D01*
X205038433Y-103584893D01*
X205038433Y-103584893D01*
G37*
G36*
X182238433Y-103534893D02*
X182328657Y-103552839D01*
X182434267Y-103596585D01*
X182583621Y-103658449D01*
X182813089Y-103811774D01*
X183008226Y-104006911D01*
X183161551Y-104236379D01*
X183223415Y-104385733D01*
X183267161Y-104491343D01*
X183275727Y-104534409D01*
X183321000Y-104762012D01*
X183321000Y-105037988D01*
X183298869Y-105149250D01*
X183267161Y-105308657D01*
X183223415Y-105414267D01*
X183161551Y-105563621D01*
X183008226Y-105793089D01*
X182813089Y-105988226D01*
X182583621Y-106141551D01*
X182471244Y-106188099D01*
X182328657Y-106247161D01*
X182238433Y-106265107D01*
X182057988Y-106301000D01*
X181782012Y-106301000D01*
X181601567Y-106265107D01*
X181511343Y-106247161D01*
X181368756Y-106188099D01*
X181256379Y-106141551D01*
X181026911Y-105988226D01*
X180831774Y-105793089D01*
X180678449Y-105563621D01*
X180616585Y-105414267D01*
X180572839Y-105308657D01*
X180541131Y-105149250D01*
X180519000Y-105037988D01*
X180519000Y-104762012D01*
X180564273Y-104534409D01*
X180572839Y-104491343D01*
X180616585Y-104385733D01*
X180678449Y-104236379D01*
X180831774Y-104006911D01*
X181026911Y-103811774D01*
X181256379Y-103658449D01*
X181405733Y-103596585D01*
X181511343Y-103552839D01*
X181601567Y-103534893D01*
X181782012Y-103499000D01*
X182057988Y-103499000D01*
X182238433Y-103534893D01*
X182238433Y-103534893D01*
G37*
G36*
X194887502Y-104016102D02*
X195035462Y-104077390D01*
X195102490Y-104122177D01*
X195168617Y-104166361D01*
X195281859Y-104279603D01*
X195326043Y-104345730D01*
X195370830Y-104412758D01*
X195432118Y-104560718D01*
X195463360Y-104717785D01*
X195463360Y-104877935D01*
X195432118Y-105035002D01*
X195430881Y-105037988D01*
X195370831Y-105182960D01*
X195285052Y-105311339D01*
X195281858Y-105316118D01*
X195168618Y-105429358D01*
X195035462Y-105518330D01*
X194887502Y-105579618D01*
X194730435Y-105610860D01*
X194570285Y-105610860D01*
X194413218Y-105579618D01*
X194265258Y-105518330D01*
X194132102Y-105429358D01*
X194018862Y-105316118D01*
X194015669Y-105311339D01*
X193929889Y-105182960D01*
X193869839Y-105037988D01*
X193868602Y-105035002D01*
X193837360Y-104877935D01*
X193837360Y-104717785D01*
X193868602Y-104560718D01*
X193929890Y-104412758D01*
X193974677Y-104345730D01*
X194018861Y-104279603D01*
X194132103Y-104166361D01*
X194198230Y-104122177D01*
X194265258Y-104077390D01*
X194413218Y-104016102D01*
X194570285Y-103984860D01*
X194730435Y-103984860D01*
X194887502Y-104016102D01*
X194887502Y-104016102D01*
G37*
G36*
X189807502Y-104016102D02*
X189955462Y-104077390D01*
X190022490Y-104122177D01*
X190088617Y-104166361D01*
X190201859Y-104279603D01*
X190246043Y-104345730D01*
X190290830Y-104412758D01*
X190352118Y-104560718D01*
X190383360Y-104717785D01*
X190383360Y-104877935D01*
X190352118Y-105035002D01*
X190350881Y-105037988D01*
X190290831Y-105182960D01*
X190205052Y-105311339D01*
X190201858Y-105316118D01*
X190088618Y-105429358D01*
X189955462Y-105518330D01*
X189807502Y-105579618D01*
X189650435Y-105610860D01*
X189490285Y-105610860D01*
X189333218Y-105579618D01*
X189185258Y-105518330D01*
X189052102Y-105429358D01*
X188938862Y-105316118D01*
X188935669Y-105311339D01*
X188849889Y-105182960D01*
X188789839Y-105037988D01*
X188788602Y-105035002D01*
X188757360Y-104877935D01*
X188757360Y-104717785D01*
X188788602Y-104560718D01*
X188849890Y-104412758D01*
X188894677Y-104345730D01*
X188938861Y-104279603D01*
X189052103Y-104166361D01*
X189118230Y-104122177D01*
X189185258Y-104077390D01*
X189333218Y-104016102D01*
X189490285Y-103984860D01*
X189650435Y-103984860D01*
X189807502Y-104016102D01*
X189807502Y-104016102D01*
G37*
G36*
X192347502Y-104016102D02*
X192495462Y-104077390D01*
X192562490Y-104122177D01*
X192628617Y-104166361D01*
X192741859Y-104279603D01*
X192786043Y-104345730D01*
X192830830Y-104412758D01*
X192892118Y-104560718D01*
X192923360Y-104717785D01*
X192923360Y-104877935D01*
X192892118Y-105035002D01*
X192890881Y-105037988D01*
X192830831Y-105182960D01*
X192745052Y-105311339D01*
X192741858Y-105316118D01*
X192628618Y-105429358D01*
X192495462Y-105518330D01*
X192347502Y-105579618D01*
X192190435Y-105610860D01*
X192030285Y-105610860D01*
X191873218Y-105579618D01*
X191725258Y-105518330D01*
X191592102Y-105429358D01*
X191478862Y-105316118D01*
X191475669Y-105311339D01*
X191389889Y-105182960D01*
X191329839Y-105037988D01*
X191328602Y-105035002D01*
X191297360Y-104877935D01*
X191297360Y-104717785D01*
X191328602Y-104560718D01*
X191389890Y-104412758D01*
X191434677Y-104345730D01*
X191478861Y-104279603D01*
X191592103Y-104166361D01*
X191658230Y-104122177D01*
X191725258Y-104077390D01*
X191873218Y-104016102D01*
X192030285Y-103984860D01*
X192190435Y-103984860D01*
X192347502Y-104016102D01*
X192347502Y-104016102D01*
G37*
G36*
X197427502Y-104016102D02*
X197575462Y-104077390D01*
X197642490Y-104122177D01*
X197708617Y-104166361D01*
X197821859Y-104279603D01*
X197866043Y-104345730D01*
X197910830Y-104412758D01*
X197972118Y-104560718D01*
X198003360Y-104717785D01*
X198003360Y-104877935D01*
X197972118Y-105035002D01*
X197970881Y-105037988D01*
X197910831Y-105182960D01*
X197825052Y-105311339D01*
X197821858Y-105316118D01*
X197708618Y-105429358D01*
X197575462Y-105518330D01*
X197427502Y-105579618D01*
X197270435Y-105610860D01*
X197110285Y-105610860D01*
X196953218Y-105579618D01*
X196805258Y-105518330D01*
X196672102Y-105429358D01*
X196558862Y-105316118D01*
X196555669Y-105311339D01*
X196469889Y-105182960D01*
X196409839Y-105037988D01*
X196408602Y-105035002D01*
X196377360Y-104877935D01*
X196377360Y-104717785D01*
X196408602Y-104560718D01*
X196469890Y-104412758D01*
X196514677Y-104345730D01*
X196558861Y-104279603D01*
X196672103Y-104166361D01*
X196738230Y-104122177D01*
X196805258Y-104077390D01*
X196953218Y-104016102D01*
X197110285Y-103984860D01*
X197270435Y-103984860D01*
X197427502Y-104016102D01*
X197427502Y-104016102D01*
G37*
G36*
X187279591Y-104420585D02*
X187313569Y-104430893D01*
X187344887Y-104447633D01*
X187372339Y-104470161D01*
X187394867Y-104497613D01*
X187411607Y-104528931D01*
X187421915Y-104562909D01*
X187426000Y-104604390D01*
X187426000Y-105205610D01*
X187421915Y-105247091D01*
X187411607Y-105281069D01*
X187394867Y-105312387D01*
X187372339Y-105339839D01*
X187344887Y-105362367D01*
X187313569Y-105379107D01*
X187279591Y-105389415D01*
X187238110Y-105393500D01*
X186561890Y-105393500D01*
X186520409Y-105389415D01*
X186486431Y-105379107D01*
X186455113Y-105362367D01*
X186427661Y-105339839D01*
X186405133Y-105312387D01*
X186388393Y-105281069D01*
X186378085Y-105247091D01*
X186374000Y-105205610D01*
X186374000Y-104604390D01*
X186378085Y-104562909D01*
X186388393Y-104528931D01*
X186405133Y-104497613D01*
X186427661Y-104470161D01*
X186455113Y-104447633D01*
X186486431Y-104430893D01*
X186520409Y-104420585D01*
X186561890Y-104416500D01*
X187238110Y-104416500D01*
X187279591Y-104420585D01*
X187279591Y-104420585D01*
G37*
G36*
X185545591Y-104392085D02*
X185579569Y-104402393D01*
X185610887Y-104419133D01*
X185638339Y-104441661D01*
X185660867Y-104469113D01*
X185677607Y-104500431D01*
X185687915Y-104534409D01*
X185692000Y-104575890D01*
X185692000Y-105177110D01*
X185687915Y-105218591D01*
X185677607Y-105252569D01*
X185660867Y-105283887D01*
X185638339Y-105311339D01*
X185610887Y-105333867D01*
X185579569Y-105350607D01*
X185545591Y-105360915D01*
X185504110Y-105365000D01*
X184827890Y-105365000D01*
X184786409Y-105360915D01*
X184752431Y-105350607D01*
X184721113Y-105333867D01*
X184693661Y-105311339D01*
X184671133Y-105283887D01*
X184654393Y-105252569D01*
X184644085Y-105218591D01*
X184640000Y-105177110D01*
X184640000Y-104575890D01*
X184644085Y-104534409D01*
X184654393Y-104500431D01*
X184671133Y-104469113D01*
X184693661Y-104441661D01*
X184721113Y-104419133D01*
X184752431Y-104402393D01*
X184786409Y-104392085D01*
X184827890Y-104388000D01*
X185504110Y-104388000D01*
X185545591Y-104392085D01*
X185545591Y-104392085D01*
G37*
G36*
X201775180Y-104621760D02*
X201023180Y-104621760D01*
X201023180Y-103459760D01*
X201775180Y-103459760D01*
X201775180Y-104621760D01*
X201775180Y-104621760D01*
G37*
G36*
X199875180Y-104621760D02*
X199123180Y-104621760D01*
X199123180Y-103459760D01*
X199875180Y-103459760D01*
X199875180Y-104621760D01*
X199875180Y-104621760D01*
G37*
M02*
