G04 #@! TF.GenerationSoftware,KiCad,Pcbnew,(5.0.1)-rc2*
G04 #@! TF.CreationDate,2019-05-10T17:14:01-07:00*
G04 #@! TF.ProjectId,bullercounter,62756C6C6572636F756E7465722E6B69,rev?*
G04 #@! TF.SameCoordinates,Original*
G04 #@! TF.FileFunction,Paste,Bot*
G04 #@! TF.FilePolarity,Positive*
%FSLAX46Y46*%
G04 Gerber Fmt 4.6, Leading zero omitted, Abs format (unit mm)*
G04 Created by KiCad (PCBNEW (5.0.1)-rc2) date 5/10/2019 5:14:01 PM*
%MOMM*%
%LPD*%
G01*
G04 APERTURE LIST*
%ADD10C,0.100000*%
%ADD11C,0.975000*%
%ADD12R,1.000000X1.000000*%
%ADD13C,0.875000*%
%ADD14R,1.250000X0.350000*%
%ADD15R,0.350000X1.250000*%
%ADD16C,0.400000*%
%ADD17R,0.675000X0.400000*%
%ADD18R,0.400000X0.675000*%
%ADD19R,1.800000X1.300000*%
G04 APERTURE END LIST*
D10*
G04 #@! TO.C,C16*
G36*
X196198642Y-107251174D02*
X196222303Y-107254684D01*
X196245507Y-107260496D01*
X196268029Y-107268554D01*
X196289653Y-107278782D01*
X196310170Y-107291079D01*
X196329383Y-107305329D01*
X196347107Y-107321393D01*
X196363171Y-107339117D01*
X196377421Y-107358330D01*
X196389718Y-107378847D01*
X196399946Y-107400471D01*
X196408004Y-107422993D01*
X196413816Y-107446197D01*
X196417326Y-107469858D01*
X196418500Y-107493750D01*
X196418500Y-108406250D01*
X196417326Y-108430142D01*
X196413816Y-108453803D01*
X196408004Y-108477007D01*
X196399946Y-108499529D01*
X196389718Y-108521153D01*
X196377421Y-108541670D01*
X196363171Y-108560883D01*
X196347107Y-108578607D01*
X196329383Y-108594671D01*
X196310170Y-108608921D01*
X196289653Y-108621218D01*
X196268029Y-108631446D01*
X196245507Y-108639504D01*
X196222303Y-108645316D01*
X196198642Y-108648826D01*
X196174750Y-108650000D01*
X195687250Y-108650000D01*
X195663358Y-108648826D01*
X195639697Y-108645316D01*
X195616493Y-108639504D01*
X195593971Y-108631446D01*
X195572347Y-108621218D01*
X195551830Y-108608921D01*
X195532617Y-108594671D01*
X195514893Y-108578607D01*
X195498829Y-108560883D01*
X195484579Y-108541670D01*
X195472282Y-108521153D01*
X195462054Y-108499529D01*
X195453996Y-108477007D01*
X195448184Y-108453803D01*
X195444674Y-108430142D01*
X195443500Y-108406250D01*
X195443500Y-107493750D01*
X195444674Y-107469858D01*
X195448184Y-107446197D01*
X195453996Y-107422993D01*
X195462054Y-107400471D01*
X195472282Y-107378847D01*
X195484579Y-107358330D01*
X195498829Y-107339117D01*
X195514893Y-107321393D01*
X195532617Y-107305329D01*
X195551830Y-107291079D01*
X195572347Y-107278782D01*
X195593971Y-107268554D01*
X195616493Y-107260496D01*
X195639697Y-107254684D01*
X195663358Y-107251174D01*
X195687250Y-107250000D01*
X196174750Y-107250000D01*
X196198642Y-107251174D01*
X196198642Y-107251174D01*
G37*
D11*
X195931000Y-107950000D03*
D10*
G36*
X194323642Y-107251174D02*
X194347303Y-107254684D01*
X194370507Y-107260496D01*
X194393029Y-107268554D01*
X194414653Y-107278782D01*
X194435170Y-107291079D01*
X194454383Y-107305329D01*
X194472107Y-107321393D01*
X194488171Y-107339117D01*
X194502421Y-107358330D01*
X194514718Y-107378847D01*
X194524946Y-107400471D01*
X194533004Y-107422993D01*
X194538816Y-107446197D01*
X194542326Y-107469858D01*
X194543500Y-107493750D01*
X194543500Y-108406250D01*
X194542326Y-108430142D01*
X194538816Y-108453803D01*
X194533004Y-108477007D01*
X194524946Y-108499529D01*
X194514718Y-108521153D01*
X194502421Y-108541670D01*
X194488171Y-108560883D01*
X194472107Y-108578607D01*
X194454383Y-108594671D01*
X194435170Y-108608921D01*
X194414653Y-108621218D01*
X194393029Y-108631446D01*
X194370507Y-108639504D01*
X194347303Y-108645316D01*
X194323642Y-108648826D01*
X194299750Y-108650000D01*
X193812250Y-108650000D01*
X193788358Y-108648826D01*
X193764697Y-108645316D01*
X193741493Y-108639504D01*
X193718971Y-108631446D01*
X193697347Y-108621218D01*
X193676830Y-108608921D01*
X193657617Y-108594671D01*
X193639893Y-108578607D01*
X193623829Y-108560883D01*
X193609579Y-108541670D01*
X193597282Y-108521153D01*
X193587054Y-108499529D01*
X193578996Y-108477007D01*
X193573184Y-108453803D01*
X193569674Y-108430142D01*
X193568500Y-108406250D01*
X193568500Y-107493750D01*
X193569674Y-107469858D01*
X193573184Y-107446197D01*
X193578996Y-107422993D01*
X193587054Y-107400471D01*
X193597282Y-107378847D01*
X193609579Y-107358330D01*
X193623829Y-107339117D01*
X193639893Y-107321393D01*
X193657617Y-107305329D01*
X193676830Y-107291079D01*
X193697347Y-107278782D01*
X193718971Y-107268554D01*
X193741493Y-107260496D01*
X193764697Y-107254684D01*
X193788358Y-107251174D01*
X193812250Y-107250000D01*
X194299750Y-107250000D01*
X194323642Y-107251174D01*
X194323642Y-107251174D01*
G37*
D11*
X194056000Y-107950000D03*
G04 #@! TD*
D10*
G04 #@! TO.C,C1*
G36*
X201680142Y-103438674D02*
X201703803Y-103442184D01*
X201727007Y-103447996D01*
X201749529Y-103456054D01*
X201771153Y-103466282D01*
X201791670Y-103478579D01*
X201810883Y-103492829D01*
X201828607Y-103508893D01*
X201844671Y-103526617D01*
X201858921Y-103545830D01*
X201871218Y-103566347D01*
X201881446Y-103587971D01*
X201889504Y-103610493D01*
X201895316Y-103633697D01*
X201898826Y-103657358D01*
X201900000Y-103681250D01*
X201900000Y-104168750D01*
X201898826Y-104192642D01*
X201895316Y-104216303D01*
X201889504Y-104239507D01*
X201881446Y-104262029D01*
X201871218Y-104283653D01*
X201858921Y-104304170D01*
X201844671Y-104323383D01*
X201828607Y-104341107D01*
X201810883Y-104357171D01*
X201791670Y-104371421D01*
X201771153Y-104383718D01*
X201749529Y-104393946D01*
X201727007Y-104402004D01*
X201703803Y-104407816D01*
X201680142Y-104411326D01*
X201656250Y-104412500D01*
X200743750Y-104412500D01*
X200719858Y-104411326D01*
X200696197Y-104407816D01*
X200672993Y-104402004D01*
X200650471Y-104393946D01*
X200628847Y-104383718D01*
X200608330Y-104371421D01*
X200589117Y-104357171D01*
X200571393Y-104341107D01*
X200555329Y-104323383D01*
X200541079Y-104304170D01*
X200528782Y-104283653D01*
X200518554Y-104262029D01*
X200510496Y-104239507D01*
X200504684Y-104216303D01*
X200501174Y-104192642D01*
X200500000Y-104168750D01*
X200500000Y-103681250D01*
X200501174Y-103657358D01*
X200504684Y-103633697D01*
X200510496Y-103610493D01*
X200518554Y-103587971D01*
X200528782Y-103566347D01*
X200541079Y-103545830D01*
X200555329Y-103526617D01*
X200571393Y-103508893D01*
X200589117Y-103492829D01*
X200608330Y-103478579D01*
X200628847Y-103466282D01*
X200650471Y-103456054D01*
X200672993Y-103447996D01*
X200696197Y-103442184D01*
X200719858Y-103438674D01*
X200743750Y-103437500D01*
X201656250Y-103437500D01*
X201680142Y-103438674D01*
X201680142Y-103438674D01*
G37*
D11*
X201200000Y-103925000D03*
D10*
G36*
X201680142Y-105313674D02*
X201703803Y-105317184D01*
X201727007Y-105322996D01*
X201749529Y-105331054D01*
X201771153Y-105341282D01*
X201791670Y-105353579D01*
X201810883Y-105367829D01*
X201828607Y-105383893D01*
X201844671Y-105401617D01*
X201858921Y-105420830D01*
X201871218Y-105441347D01*
X201881446Y-105462971D01*
X201889504Y-105485493D01*
X201895316Y-105508697D01*
X201898826Y-105532358D01*
X201900000Y-105556250D01*
X201900000Y-106043750D01*
X201898826Y-106067642D01*
X201895316Y-106091303D01*
X201889504Y-106114507D01*
X201881446Y-106137029D01*
X201871218Y-106158653D01*
X201858921Y-106179170D01*
X201844671Y-106198383D01*
X201828607Y-106216107D01*
X201810883Y-106232171D01*
X201791670Y-106246421D01*
X201771153Y-106258718D01*
X201749529Y-106268946D01*
X201727007Y-106277004D01*
X201703803Y-106282816D01*
X201680142Y-106286326D01*
X201656250Y-106287500D01*
X200743750Y-106287500D01*
X200719858Y-106286326D01*
X200696197Y-106282816D01*
X200672993Y-106277004D01*
X200650471Y-106268946D01*
X200628847Y-106258718D01*
X200608330Y-106246421D01*
X200589117Y-106232171D01*
X200571393Y-106216107D01*
X200555329Y-106198383D01*
X200541079Y-106179170D01*
X200528782Y-106158653D01*
X200518554Y-106137029D01*
X200510496Y-106114507D01*
X200504684Y-106091303D01*
X200501174Y-106067642D01*
X200500000Y-106043750D01*
X200500000Y-105556250D01*
X200501174Y-105532358D01*
X200504684Y-105508697D01*
X200510496Y-105485493D01*
X200518554Y-105462971D01*
X200528782Y-105441347D01*
X200541079Y-105420830D01*
X200555329Y-105401617D01*
X200571393Y-105383893D01*
X200589117Y-105367829D01*
X200608330Y-105353579D01*
X200628847Y-105341282D01*
X200650471Y-105331054D01*
X200672993Y-105322996D01*
X200696197Y-105317184D01*
X200719858Y-105313674D01*
X200743750Y-105312500D01*
X201656250Y-105312500D01*
X201680142Y-105313674D01*
X201680142Y-105313674D01*
G37*
D11*
X201200000Y-105800000D03*
G04 #@! TD*
D10*
G04 #@! TO.C,C2*
G36*
X185798542Y-105655674D02*
X185822203Y-105659184D01*
X185845407Y-105664996D01*
X185867929Y-105673054D01*
X185889553Y-105683282D01*
X185910070Y-105695579D01*
X185929283Y-105709829D01*
X185947007Y-105725893D01*
X185963071Y-105743617D01*
X185977321Y-105762830D01*
X185989618Y-105783347D01*
X185999846Y-105804971D01*
X186007904Y-105827493D01*
X186013716Y-105850697D01*
X186017226Y-105874358D01*
X186018400Y-105898250D01*
X186018400Y-106385750D01*
X186017226Y-106409642D01*
X186013716Y-106433303D01*
X186007904Y-106456507D01*
X185999846Y-106479029D01*
X185989618Y-106500653D01*
X185977321Y-106521170D01*
X185963071Y-106540383D01*
X185947007Y-106558107D01*
X185929283Y-106574171D01*
X185910070Y-106588421D01*
X185889553Y-106600718D01*
X185867929Y-106610946D01*
X185845407Y-106619004D01*
X185822203Y-106624816D01*
X185798542Y-106628326D01*
X185774650Y-106629500D01*
X184862150Y-106629500D01*
X184838258Y-106628326D01*
X184814597Y-106624816D01*
X184791393Y-106619004D01*
X184768871Y-106610946D01*
X184747247Y-106600718D01*
X184726730Y-106588421D01*
X184707517Y-106574171D01*
X184689793Y-106558107D01*
X184673729Y-106540383D01*
X184659479Y-106521170D01*
X184647182Y-106500653D01*
X184636954Y-106479029D01*
X184628896Y-106456507D01*
X184623084Y-106433303D01*
X184619574Y-106409642D01*
X184618400Y-106385750D01*
X184618400Y-105898250D01*
X184619574Y-105874358D01*
X184623084Y-105850697D01*
X184628896Y-105827493D01*
X184636954Y-105804971D01*
X184647182Y-105783347D01*
X184659479Y-105762830D01*
X184673729Y-105743617D01*
X184689793Y-105725893D01*
X184707517Y-105709829D01*
X184726730Y-105695579D01*
X184747247Y-105683282D01*
X184768871Y-105673054D01*
X184791393Y-105664996D01*
X184814597Y-105659184D01*
X184838258Y-105655674D01*
X184862150Y-105654500D01*
X185774650Y-105654500D01*
X185798542Y-105655674D01*
X185798542Y-105655674D01*
G37*
D11*
X185318400Y-106142000D03*
D10*
G36*
X185798542Y-103780674D02*
X185822203Y-103784184D01*
X185845407Y-103789996D01*
X185867929Y-103798054D01*
X185889553Y-103808282D01*
X185910070Y-103820579D01*
X185929283Y-103834829D01*
X185947007Y-103850893D01*
X185963071Y-103868617D01*
X185977321Y-103887830D01*
X185989618Y-103908347D01*
X185999846Y-103929971D01*
X186007904Y-103952493D01*
X186013716Y-103975697D01*
X186017226Y-103999358D01*
X186018400Y-104023250D01*
X186018400Y-104510750D01*
X186017226Y-104534642D01*
X186013716Y-104558303D01*
X186007904Y-104581507D01*
X185999846Y-104604029D01*
X185989618Y-104625653D01*
X185977321Y-104646170D01*
X185963071Y-104665383D01*
X185947007Y-104683107D01*
X185929283Y-104699171D01*
X185910070Y-104713421D01*
X185889553Y-104725718D01*
X185867929Y-104735946D01*
X185845407Y-104744004D01*
X185822203Y-104749816D01*
X185798542Y-104753326D01*
X185774650Y-104754500D01*
X184862150Y-104754500D01*
X184838258Y-104753326D01*
X184814597Y-104749816D01*
X184791393Y-104744004D01*
X184768871Y-104735946D01*
X184747247Y-104725718D01*
X184726730Y-104713421D01*
X184707517Y-104699171D01*
X184689793Y-104683107D01*
X184673729Y-104665383D01*
X184659479Y-104646170D01*
X184647182Y-104625653D01*
X184636954Y-104604029D01*
X184628896Y-104581507D01*
X184623084Y-104558303D01*
X184619574Y-104534642D01*
X184618400Y-104510750D01*
X184618400Y-104023250D01*
X184619574Y-103999358D01*
X184623084Y-103975697D01*
X184628896Y-103952493D01*
X184636954Y-103929971D01*
X184647182Y-103908347D01*
X184659479Y-103887830D01*
X184673729Y-103868617D01*
X184689793Y-103850893D01*
X184707517Y-103834829D01*
X184726730Y-103820579D01*
X184747247Y-103808282D01*
X184768871Y-103798054D01*
X184791393Y-103789996D01*
X184814597Y-103784184D01*
X184838258Y-103780674D01*
X184862150Y-103779500D01*
X185774650Y-103779500D01*
X185798542Y-103780674D01*
X185798542Y-103780674D01*
G37*
D11*
X185318400Y-104267000D03*
G04 #@! TD*
D10*
G04 #@! TO.C,C15*
G36*
X200530142Y-120063674D02*
X200553803Y-120067184D01*
X200577007Y-120072996D01*
X200599529Y-120081054D01*
X200621153Y-120091282D01*
X200641670Y-120103579D01*
X200660883Y-120117829D01*
X200678607Y-120133893D01*
X200694671Y-120151617D01*
X200708921Y-120170830D01*
X200721218Y-120191347D01*
X200731446Y-120212971D01*
X200739504Y-120235493D01*
X200745316Y-120258697D01*
X200748826Y-120282358D01*
X200750000Y-120306250D01*
X200750000Y-120793750D01*
X200748826Y-120817642D01*
X200745316Y-120841303D01*
X200739504Y-120864507D01*
X200731446Y-120887029D01*
X200721218Y-120908653D01*
X200708921Y-120929170D01*
X200694671Y-120948383D01*
X200678607Y-120966107D01*
X200660883Y-120982171D01*
X200641670Y-120996421D01*
X200621153Y-121008718D01*
X200599529Y-121018946D01*
X200577007Y-121027004D01*
X200553803Y-121032816D01*
X200530142Y-121036326D01*
X200506250Y-121037500D01*
X199593750Y-121037500D01*
X199569858Y-121036326D01*
X199546197Y-121032816D01*
X199522993Y-121027004D01*
X199500471Y-121018946D01*
X199478847Y-121008718D01*
X199458330Y-120996421D01*
X199439117Y-120982171D01*
X199421393Y-120966107D01*
X199405329Y-120948383D01*
X199391079Y-120929170D01*
X199378782Y-120908653D01*
X199368554Y-120887029D01*
X199360496Y-120864507D01*
X199354684Y-120841303D01*
X199351174Y-120817642D01*
X199350000Y-120793750D01*
X199350000Y-120306250D01*
X199351174Y-120282358D01*
X199354684Y-120258697D01*
X199360496Y-120235493D01*
X199368554Y-120212971D01*
X199378782Y-120191347D01*
X199391079Y-120170830D01*
X199405329Y-120151617D01*
X199421393Y-120133893D01*
X199439117Y-120117829D01*
X199458330Y-120103579D01*
X199478847Y-120091282D01*
X199500471Y-120081054D01*
X199522993Y-120072996D01*
X199546197Y-120067184D01*
X199569858Y-120063674D01*
X199593750Y-120062500D01*
X200506250Y-120062500D01*
X200530142Y-120063674D01*
X200530142Y-120063674D01*
G37*
D11*
X200050000Y-120550000D03*
D10*
G36*
X200530142Y-121938674D02*
X200553803Y-121942184D01*
X200577007Y-121947996D01*
X200599529Y-121956054D01*
X200621153Y-121966282D01*
X200641670Y-121978579D01*
X200660883Y-121992829D01*
X200678607Y-122008893D01*
X200694671Y-122026617D01*
X200708921Y-122045830D01*
X200721218Y-122066347D01*
X200731446Y-122087971D01*
X200739504Y-122110493D01*
X200745316Y-122133697D01*
X200748826Y-122157358D01*
X200750000Y-122181250D01*
X200750000Y-122668750D01*
X200748826Y-122692642D01*
X200745316Y-122716303D01*
X200739504Y-122739507D01*
X200731446Y-122762029D01*
X200721218Y-122783653D01*
X200708921Y-122804170D01*
X200694671Y-122823383D01*
X200678607Y-122841107D01*
X200660883Y-122857171D01*
X200641670Y-122871421D01*
X200621153Y-122883718D01*
X200599529Y-122893946D01*
X200577007Y-122902004D01*
X200553803Y-122907816D01*
X200530142Y-122911326D01*
X200506250Y-122912500D01*
X199593750Y-122912500D01*
X199569858Y-122911326D01*
X199546197Y-122907816D01*
X199522993Y-122902004D01*
X199500471Y-122893946D01*
X199478847Y-122883718D01*
X199458330Y-122871421D01*
X199439117Y-122857171D01*
X199421393Y-122841107D01*
X199405329Y-122823383D01*
X199391079Y-122804170D01*
X199378782Y-122783653D01*
X199368554Y-122762029D01*
X199360496Y-122739507D01*
X199354684Y-122716303D01*
X199351174Y-122692642D01*
X199350000Y-122668750D01*
X199350000Y-122181250D01*
X199351174Y-122157358D01*
X199354684Y-122133697D01*
X199360496Y-122110493D01*
X199368554Y-122087971D01*
X199378782Y-122066347D01*
X199391079Y-122045830D01*
X199405329Y-122026617D01*
X199421393Y-122008893D01*
X199439117Y-121992829D01*
X199458330Y-121978579D01*
X199478847Y-121966282D01*
X199500471Y-121956054D01*
X199522993Y-121947996D01*
X199546197Y-121942184D01*
X199569858Y-121938674D01*
X199593750Y-121937500D01*
X200506250Y-121937500D01*
X200530142Y-121938674D01*
X200530142Y-121938674D01*
G37*
D11*
X200050000Y-122425000D03*
G04 #@! TD*
D10*
G04 #@! TO.C,C19*
G36*
X188998942Y-120953374D02*
X189022603Y-120956884D01*
X189045807Y-120962696D01*
X189068329Y-120970754D01*
X189089953Y-120980982D01*
X189110470Y-120993279D01*
X189129683Y-121007529D01*
X189147407Y-121023593D01*
X189163471Y-121041317D01*
X189177721Y-121060530D01*
X189190018Y-121081047D01*
X189200246Y-121102671D01*
X189208304Y-121125193D01*
X189214116Y-121148397D01*
X189217626Y-121172058D01*
X189218800Y-121195950D01*
X189218800Y-121683450D01*
X189217626Y-121707342D01*
X189214116Y-121731003D01*
X189208304Y-121754207D01*
X189200246Y-121776729D01*
X189190018Y-121798353D01*
X189177721Y-121818870D01*
X189163471Y-121838083D01*
X189147407Y-121855807D01*
X189129683Y-121871871D01*
X189110470Y-121886121D01*
X189089953Y-121898418D01*
X189068329Y-121908646D01*
X189045807Y-121916704D01*
X189022603Y-121922516D01*
X188998942Y-121926026D01*
X188975050Y-121927200D01*
X188062550Y-121927200D01*
X188038658Y-121926026D01*
X188014997Y-121922516D01*
X187991793Y-121916704D01*
X187969271Y-121908646D01*
X187947647Y-121898418D01*
X187927130Y-121886121D01*
X187907917Y-121871871D01*
X187890193Y-121855807D01*
X187874129Y-121838083D01*
X187859879Y-121818870D01*
X187847582Y-121798353D01*
X187837354Y-121776729D01*
X187829296Y-121754207D01*
X187823484Y-121731003D01*
X187819974Y-121707342D01*
X187818800Y-121683450D01*
X187818800Y-121195950D01*
X187819974Y-121172058D01*
X187823484Y-121148397D01*
X187829296Y-121125193D01*
X187837354Y-121102671D01*
X187847582Y-121081047D01*
X187859879Y-121060530D01*
X187874129Y-121041317D01*
X187890193Y-121023593D01*
X187907917Y-121007529D01*
X187927130Y-120993279D01*
X187947647Y-120980982D01*
X187969271Y-120970754D01*
X187991793Y-120962696D01*
X188014997Y-120956884D01*
X188038658Y-120953374D01*
X188062550Y-120952200D01*
X188975050Y-120952200D01*
X188998942Y-120953374D01*
X188998942Y-120953374D01*
G37*
D11*
X188518800Y-121439700D03*
D10*
G36*
X188998942Y-122828374D02*
X189022603Y-122831884D01*
X189045807Y-122837696D01*
X189068329Y-122845754D01*
X189089953Y-122855982D01*
X189110470Y-122868279D01*
X189129683Y-122882529D01*
X189147407Y-122898593D01*
X189163471Y-122916317D01*
X189177721Y-122935530D01*
X189190018Y-122956047D01*
X189200246Y-122977671D01*
X189208304Y-123000193D01*
X189214116Y-123023397D01*
X189217626Y-123047058D01*
X189218800Y-123070950D01*
X189218800Y-123558450D01*
X189217626Y-123582342D01*
X189214116Y-123606003D01*
X189208304Y-123629207D01*
X189200246Y-123651729D01*
X189190018Y-123673353D01*
X189177721Y-123693870D01*
X189163471Y-123713083D01*
X189147407Y-123730807D01*
X189129683Y-123746871D01*
X189110470Y-123761121D01*
X189089953Y-123773418D01*
X189068329Y-123783646D01*
X189045807Y-123791704D01*
X189022603Y-123797516D01*
X188998942Y-123801026D01*
X188975050Y-123802200D01*
X188062550Y-123802200D01*
X188038658Y-123801026D01*
X188014997Y-123797516D01*
X187991793Y-123791704D01*
X187969271Y-123783646D01*
X187947647Y-123773418D01*
X187927130Y-123761121D01*
X187907917Y-123746871D01*
X187890193Y-123730807D01*
X187874129Y-123713083D01*
X187859879Y-123693870D01*
X187847582Y-123673353D01*
X187837354Y-123651729D01*
X187829296Y-123629207D01*
X187823484Y-123606003D01*
X187819974Y-123582342D01*
X187818800Y-123558450D01*
X187818800Y-123070950D01*
X187819974Y-123047058D01*
X187823484Y-123023397D01*
X187829296Y-123000193D01*
X187837354Y-122977671D01*
X187847582Y-122956047D01*
X187859879Y-122935530D01*
X187874129Y-122916317D01*
X187890193Y-122898593D01*
X187907917Y-122882529D01*
X187927130Y-122868279D01*
X187947647Y-122855982D01*
X187969271Y-122845754D01*
X187991793Y-122837696D01*
X188014997Y-122831884D01*
X188038658Y-122828374D01*
X188062550Y-122827200D01*
X188975050Y-122827200D01*
X188998942Y-122828374D01*
X188998942Y-122828374D01*
G37*
D11*
X188518800Y-123314700D03*
G04 #@! TD*
D10*
G04 #@! TO.C,C21*
G36*
X182892642Y-122351174D02*
X182916303Y-122354684D01*
X182939507Y-122360496D01*
X182962029Y-122368554D01*
X182983653Y-122378782D01*
X183004170Y-122391079D01*
X183023383Y-122405329D01*
X183041107Y-122421393D01*
X183057171Y-122439117D01*
X183071421Y-122458330D01*
X183083718Y-122478847D01*
X183093946Y-122500471D01*
X183102004Y-122522993D01*
X183107816Y-122546197D01*
X183111326Y-122569858D01*
X183112500Y-122593750D01*
X183112500Y-123506250D01*
X183111326Y-123530142D01*
X183107816Y-123553803D01*
X183102004Y-123577007D01*
X183093946Y-123599529D01*
X183083718Y-123621153D01*
X183071421Y-123641670D01*
X183057171Y-123660883D01*
X183041107Y-123678607D01*
X183023383Y-123694671D01*
X183004170Y-123708921D01*
X182983653Y-123721218D01*
X182962029Y-123731446D01*
X182939507Y-123739504D01*
X182916303Y-123745316D01*
X182892642Y-123748826D01*
X182868750Y-123750000D01*
X182381250Y-123750000D01*
X182357358Y-123748826D01*
X182333697Y-123745316D01*
X182310493Y-123739504D01*
X182287971Y-123731446D01*
X182266347Y-123721218D01*
X182245830Y-123708921D01*
X182226617Y-123694671D01*
X182208893Y-123678607D01*
X182192829Y-123660883D01*
X182178579Y-123641670D01*
X182166282Y-123621153D01*
X182156054Y-123599529D01*
X182147996Y-123577007D01*
X182142184Y-123553803D01*
X182138674Y-123530142D01*
X182137500Y-123506250D01*
X182137500Y-122593750D01*
X182138674Y-122569858D01*
X182142184Y-122546197D01*
X182147996Y-122522993D01*
X182156054Y-122500471D01*
X182166282Y-122478847D01*
X182178579Y-122458330D01*
X182192829Y-122439117D01*
X182208893Y-122421393D01*
X182226617Y-122405329D01*
X182245830Y-122391079D01*
X182266347Y-122378782D01*
X182287971Y-122368554D01*
X182310493Y-122360496D01*
X182333697Y-122354684D01*
X182357358Y-122351174D01*
X182381250Y-122350000D01*
X182868750Y-122350000D01*
X182892642Y-122351174D01*
X182892642Y-122351174D01*
G37*
D11*
X182625000Y-123050000D03*
D10*
G36*
X184767642Y-122351174D02*
X184791303Y-122354684D01*
X184814507Y-122360496D01*
X184837029Y-122368554D01*
X184858653Y-122378782D01*
X184879170Y-122391079D01*
X184898383Y-122405329D01*
X184916107Y-122421393D01*
X184932171Y-122439117D01*
X184946421Y-122458330D01*
X184958718Y-122478847D01*
X184968946Y-122500471D01*
X184977004Y-122522993D01*
X184982816Y-122546197D01*
X184986326Y-122569858D01*
X184987500Y-122593750D01*
X184987500Y-123506250D01*
X184986326Y-123530142D01*
X184982816Y-123553803D01*
X184977004Y-123577007D01*
X184968946Y-123599529D01*
X184958718Y-123621153D01*
X184946421Y-123641670D01*
X184932171Y-123660883D01*
X184916107Y-123678607D01*
X184898383Y-123694671D01*
X184879170Y-123708921D01*
X184858653Y-123721218D01*
X184837029Y-123731446D01*
X184814507Y-123739504D01*
X184791303Y-123745316D01*
X184767642Y-123748826D01*
X184743750Y-123750000D01*
X184256250Y-123750000D01*
X184232358Y-123748826D01*
X184208697Y-123745316D01*
X184185493Y-123739504D01*
X184162971Y-123731446D01*
X184141347Y-123721218D01*
X184120830Y-123708921D01*
X184101617Y-123694671D01*
X184083893Y-123678607D01*
X184067829Y-123660883D01*
X184053579Y-123641670D01*
X184041282Y-123621153D01*
X184031054Y-123599529D01*
X184022996Y-123577007D01*
X184017184Y-123553803D01*
X184013674Y-123530142D01*
X184012500Y-123506250D01*
X184012500Y-122593750D01*
X184013674Y-122569858D01*
X184017184Y-122546197D01*
X184022996Y-122522993D01*
X184031054Y-122500471D01*
X184041282Y-122478847D01*
X184053579Y-122458330D01*
X184067829Y-122439117D01*
X184083893Y-122421393D01*
X184101617Y-122405329D01*
X184120830Y-122391079D01*
X184141347Y-122378782D01*
X184162971Y-122368554D01*
X184185493Y-122360496D01*
X184208697Y-122354684D01*
X184232358Y-122351174D01*
X184256250Y-122350000D01*
X184743750Y-122350000D01*
X184767642Y-122351174D01*
X184767642Y-122351174D01*
G37*
D11*
X184500000Y-123050000D03*
G04 #@! TD*
D12*
G04 #@! TO.C,D3*
X188289560Y-128516380D03*
X190789560Y-128516380D03*
G04 #@! TD*
D10*
G04 #@! TO.C,R1*
G36*
X190943191Y-107730053D02*
X190964426Y-107733203D01*
X190985250Y-107738419D01*
X191005462Y-107745651D01*
X191024868Y-107754830D01*
X191043281Y-107765866D01*
X191060524Y-107778654D01*
X191076430Y-107793070D01*
X191090846Y-107808976D01*
X191103634Y-107826219D01*
X191114670Y-107844632D01*
X191123849Y-107864038D01*
X191131081Y-107884250D01*
X191136297Y-107905074D01*
X191139447Y-107926309D01*
X191140500Y-107947750D01*
X191140500Y-108460250D01*
X191139447Y-108481691D01*
X191136297Y-108502926D01*
X191131081Y-108523750D01*
X191123849Y-108543962D01*
X191114670Y-108563368D01*
X191103634Y-108581781D01*
X191090846Y-108599024D01*
X191076430Y-108614930D01*
X191060524Y-108629346D01*
X191043281Y-108642134D01*
X191024868Y-108653170D01*
X191005462Y-108662349D01*
X190985250Y-108669581D01*
X190964426Y-108674797D01*
X190943191Y-108677947D01*
X190921750Y-108679000D01*
X190484250Y-108679000D01*
X190462809Y-108677947D01*
X190441574Y-108674797D01*
X190420750Y-108669581D01*
X190400538Y-108662349D01*
X190381132Y-108653170D01*
X190362719Y-108642134D01*
X190345476Y-108629346D01*
X190329570Y-108614930D01*
X190315154Y-108599024D01*
X190302366Y-108581781D01*
X190291330Y-108563368D01*
X190282151Y-108543962D01*
X190274919Y-108523750D01*
X190269703Y-108502926D01*
X190266553Y-108481691D01*
X190265500Y-108460250D01*
X190265500Y-107947750D01*
X190266553Y-107926309D01*
X190269703Y-107905074D01*
X190274919Y-107884250D01*
X190282151Y-107864038D01*
X190291330Y-107844632D01*
X190302366Y-107826219D01*
X190315154Y-107808976D01*
X190329570Y-107793070D01*
X190345476Y-107778654D01*
X190362719Y-107765866D01*
X190381132Y-107754830D01*
X190400538Y-107745651D01*
X190420750Y-107738419D01*
X190441574Y-107733203D01*
X190462809Y-107730053D01*
X190484250Y-107729000D01*
X190921750Y-107729000D01*
X190943191Y-107730053D01*
X190943191Y-107730053D01*
G37*
D13*
X190703000Y-108204000D03*
D10*
G36*
X192518191Y-107730053D02*
X192539426Y-107733203D01*
X192560250Y-107738419D01*
X192580462Y-107745651D01*
X192599868Y-107754830D01*
X192618281Y-107765866D01*
X192635524Y-107778654D01*
X192651430Y-107793070D01*
X192665846Y-107808976D01*
X192678634Y-107826219D01*
X192689670Y-107844632D01*
X192698849Y-107864038D01*
X192706081Y-107884250D01*
X192711297Y-107905074D01*
X192714447Y-107926309D01*
X192715500Y-107947750D01*
X192715500Y-108460250D01*
X192714447Y-108481691D01*
X192711297Y-108502926D01*
X192706081Y-108523750D01*
X192698849Y-108543962D01*
X192689670Y-108563368D01*
X192678634Y-108581781D01*
X192665846Y-108599024D01*
X192651430Y-108614930D01*
X192635524Y-108629346D01*
X192618281Y-108642134D01*
X192599868Y-108653170D01*
X192580462Y-108662349D01*
X192560250Y-108669581D01*
X192539426Y-108674797D01*
X192518191Y-108677947D01*
X192496750Y-108679000D01*
X192059250Y-108679000D01*
X192037809Y-108677947D01*
X192016574Y-108674797D01*
X191995750Y-108669581D01*
X191975538Y-108662349D01*
X191956132Y-108653170D01*
X191937719Y-108642134D01*
X191920476Y-108629346D01*
X191904570Y-108614930D01*
X191890154Y-108599024D01*
X191877366Y-108581781D01*
X191866330Y-108563368D01*
X191857151Y-108543962D01*
X191849919Y-108523750D01*
X191844703Y-108502926D01*
X191841553Y-108481691D01*
X191840500Y-108460250D01*
X191840500Y-107947750D01*
X191841553Y-107926309D01*
X191844703Y-107905074D01*
X191849919Y-107884250D01*
X191857151Y-107864038D01*
X191866330Y-107844632D01*
X191877366Y-107826219D01*
X191890154Y-107808976D01*
X191904570Y-107793070D01*
X191920476Y-107778654D01*
X191937719Y-107765866D01*
X191956132Y-107754830D01*
X191975538Y-107745651D01*
X191995750Y-107738419D01*
X192016574Y-107733203D01*
X192037809Y-107730053D01*
X192059250Y-107729000D01*
X192496750Y-107729000D01*
X192518191Y-107730053D01*
X192518191Y-107730053D01*
G37*
D13*
X192278000Y-108204000D03*
G04 #@! TD*
D10*
G04 #@! TO.C,R6*
G36*
X191539691Y-120721553D02*
X191560926Y-120724703D01*
X191581750Y-120729919D01*
X191601962Y-120737151D01*
X191621368Y-120746330D01*
X191639781Y-120757366D01*
X191657024Y-120770154D01*
X191672930Y-120784570D01*
X191687346Y-120800476D01*
X191700134Y-120817719D01*
X191711170Y-120836132D01*
X191720349Y-120855538D01*
X191727581Y-120875750D01*
X191732797Y-120896574D01*
X191735947Y-120917809D01*
X191737000Y-120939250D01*
X191737000Y-121376750D01*
X191735947Y-121398191D01*
X191732797Y-121419426D01*
X191727581Y-121440250D01*
X191720349Y-121460462D01*
X191711170Y-121479868D01*
X191700134Y-121498281D01*
X191687346Y-121515524D01*
X191672930Y-121531430D01*
X191657024Y-121545846D01*
X191639781Y-121558634D01*
X191621368Y-121569670D01*
X191601962Y-121578849D01*
X191581750Y-121586081D01*
X191560926Y-121591297D01*
X191539691Y-121594447D01*
X191518250Y-121595500D01*
X191005750Y-121595500D01*
X190984309Y-121594447D01*
X190963074Y-121591297D01*
X190942250Y-121586081D01*
X190922038Y-121578849D01*
X190902632Y-121569670D01*
X190884219Y-121558634D01*
X190866976Y-121545846D01*
X190851070Y-121531430D01*
X190836654Y-121515524D01*
X190823866Y-121498281D01*
X190812830Y-121479868D01*
X190803651Y-121460462D01*
X190796419Y-121440250D01*
X190791203Y-121419426D01*
X190788053Y-121398191D01*
X190787000Y-121376750D01*
X190787000Y-120939250D01*
X190788053Y-120917809D01*
X190791203Y-120896574D01*
X190796419Y-120875750D01*
X190803651Y-120855538D01*
X190812830Y-120836132D01*
X190823866Y-120817719D01*
X190836654Y-120800476D01*
X190851070Y-120784570D01*
X190866976Y-120770154D01*
X190884219Y-120757366D01*
X190902632Y-120746330D01*
X190922038Y-120737151D01*
X190942250Y-120729919D01*
X190963074Y-120724703D01*
X190984309Y-120721553D01*
X191005750Y-120720500D01*
X191518250Y-120720500D01*
X191539691Y-120721553D01*
X191539691Y-120721553D01*
G37*
D13*
X191262000Y-121158000D03*
D10*
G36*
X191539691Y-119146553D02*
X191560926Y-119149703D01*
X191581750Y-119154919D01*
X191601962Y-119162151D01*
X191621368Y-119171330D01*
X191639781Y-119182366D01*
X191657024Y-119195154D01*
X191672930Y-119209570D01*
X191687346Y-119225476D01*
X191700134Y-119242719D01*
X191711170Y-119261132D01*
X191720349Y-119280538D01*
X191727581Y-119300750D01*
X191732797Y-119321574D01*
X191735947Y-119342809D01*
X191737000Y-119364250D01*
X191737000Y-119801750D01*
X191735947Y-119823191D01*
X191732797Y-119844426D01*
X191727581Y-119865250D01*
X191720349Y-119885462D01*
X191711170Y-119904868D01*
X191700134Y-119923281D01*
X191687346Y-119940524D01*
X191672930Y-119956430D01*
X191657024Y-119970846D01*
X191639781Y-119983634D01*
X191621368Y-119994670D01*
X191601962Y-120003849D01*
X191581750Y-120011081D01*
X191560926Y-120016297D01*
X191539691Y-120019447D01*
X191518250Y-120020500D01*
X191005750Y-120020500D01*
X190984309Y-120019447D01*
X190963074Y-120016297D01*
X190942250Y-120011081D01*
X190922038Y-120003849D01*
X190902632Y-119994670D01*
X190884219Y-119983634D01*
X190866976Y-119970846D01*
X190851070Y-119956430D01*
X190836654Y-119940524D01*
X190823866Y-119923281D01*
X190812830Y-119904868D01*
X190803651Y-119885462D01*
X190796419Y-119865250D01*
X190791203Y-119844426D01*
X190788053Y-119823191D01*
X190787000Y-119801750D01*
X190787000Y-119364250D01*
X190788053Y-119342809D01*
X190791203Y-119321574D01*
X190796419Y-119300750D01*
X190803651Y-119280538D01*
X190812830Y-119261132D01*
X190823866Y-119242719D01*
X190836654Y-119225476D01*
X190851070Y-119209570D01*
X190866976Y-119195154D01*
X190884219Y-119182366D01*
X190902632Y-119171330D01*
X190922038Y-119162151D01*
X190942250Y-119154919D01*
X190963074Y-119149703D01*
X190984309Y-119146553D01*
X191005750Y-119145500D01*
X191518250Y-119145500D01*
X191539691Y-119146553D01*
X191539691Y-119146553D01*
G37*
D13*
X191262000Y-119583000D03*
G04 #@! TD*
D10*
G04 #@! TO.C,R8*
G36*
X199527991Y-105415513D02*
X199549226Y-105418663D01*
X199570050Y-105423879D01*
X199590262Y-105431111D01*
X199609668Y-105440290D01*
X199628081Y-105451326D01*
X199645324Y-105464114D01*
X199661230Y-105478530D01*
X199675646Y-105494436D01*
X199688434Y-105511679D01*
X199699470Y-105530092D01*
X199708649Y-105549498D01*
X199715881Y-105569710D01*
X199721097Y-105590534D01*
X199724247Y-105611769D01*
X199725300Y-105633210D01*
X199725300Y-106070710D01*
X199724247Y-106092151D01*
X199721097Y-106113386D01*
X199715881Y-106134210D01*
X199708649Y-106154422D01*
X199699470Y-106173828D01*
X199688434Y-106192241D01*
X199675646Y-106209484D01*
X199661230Y-106225390D01*
X199645324Y-106239806D01*
X199628081Y-106252594D01*
X199609668Y-106263630D01*
X199590262Y-106272809D01*
X199570050Y-106280041D01*
X199549226Y-106285257D01*
X199527991Y-106288407D01*
X199506550Y-106289460D01*
X198994050Y-106289460D01*
X198972609Y-106288407D01*
X198951374Y-106285257D01*
X198930550Y-106280041D01*
X198910338Y-106272809D01*
X198890932Y-106263630D01*
X198872519Y-106252594D01*
X198855276Y-106239806D01*
X198839370Y-106225390D01*
X198824954Y-106209484D01*
X198812166Y-106192241D01*
X198801130Y-106173828D01*
X198791951Y-106154422D01*
X198784719Y-106134210D01*
X198779503Y-106113386D01*
X198776353Y-106092151D01*
X198775300Y-106070710D01*
X198775300Y-105633210D01*
X198776353Y-105611769D01*
X198779503Y-105590534D01*
X198784719Y-105569710D01*
X198791951Y-105549498D01*
X198801130Y-105530092D01*
X198812166Y-105511679D01*
X198824954Y-105494436D01*
X198839370Y-105478530D01*
X198855276Y-105464114D01*
X198872519Y-105451326D01*
X198890932Y-105440290D01*
X198910338Y-105431111D01*
X198930550Y-105423879D01*
X198951374Y-105418663D01*
X198972609Y-105415513D01*
X198994050Y-105414460D01*
X199506550Y-105414460D01*
X199527991Y-105415513D01*
X199527991Y-105415513D01*
G37*
D13*
X199250300Y-105851960D03*
D10*
G36*
X199527991Y-103840513D02*
X199549226Y-103843663D01*
X199570050Y-103848879D01*
X199590262Y-103856111D01*
X199609668Y-103865290D01*
X199628081Y-103876326D01*
X199645324Y-103889114D01*
X199661230Y-103903530D01*
X199675646Y-103919436D01*
X199688434Y-103936679D01*
X199699470Y-103955092D01*
X199708649Y-103974498D01*
X199715881Y-103994710D01*
X199721097Y-104015534D01*
X199724247Y-104036769D01*
X199725300Y-104058210D01*
X199725300Y-104495710D01*
X199724247Y-104517151D01*
X199721097Y-104538386D01*
X199715881Y-104559210D01*
X199708649Y-104579422D01*
X199699470Y-104598828D01*
X199688434Y-104617241D01*
X199675646Y-104634484D01*
X199661230Y-104650390D01*
X199645324Y-104664806D01*
X199628081Y-104677594D01*
X199609668Y-104688630D01*
X199590262Y-104697809D01*
X199570050Y-104705041D01*
X199549226Y-104710257D01*
X199527991Y-104713407D01*
X199506550Y-104714460D01*
X198994050Y-104714460D01*
X198972609Y-104713407D01*
X198951374Y-104710257D01*
X198930550Y-104705041D01*
X198910338Y-104697809D01*
X198890932Y-104688630D01*
X198872519Y-104677594D01*
X198855276Y-104664806D01*
X198839370Y-104650390D01*
X198824954Y-104634484D01*
X198812166Y-104617241D01*
X198801130Y-104598828D01*
X198791951Y-104579422D01*
X198784719Y-104559210D01*
X198779503Y-104538386D01*
X198776353Y-104517151D01*
X198775300Y-104495710D01*
X198775300Y-104058210D01*
X198776353Y-104036769D01*
X198779503Y-104015534D01*
X198784719Y-103994710D01*
X198791951Y-103974498D01*
X198801130Y-103955092D01*
X198812166Y-103936679D01*
X198824954Y-103919436D01*
X198839370Y-103903530D01*
X198855276Y-103889114D01*
X198872519Y-103876326D01*
X198890932Y-103865290D01*
X198910338Y-103856111D01*
X198930550Y-103848879D01*
X198951374Y-103843663D01*
X198972609Y-103840513D01*
X198994050Y-103839460D01*
X199506550Y-103839460D01*
X199527991Y-103840513D01*
X199527991Y-103840513D01*
G37*
D13*
X199250300Y-104276960D03*
G04 #@! TD*
D10*
G04 #@! TO.C,R9*
G36*
X199858691Y-106968053D02*
X199879926Y-106971203D01*
X199900750Y-106976419D01*
X199920962Y-106983651D01*
X199940368Y-106992830D01*
X199958781Y-107003866D01*
X199976024Y-107016654D01*
X199991930Y-107031070D01*
X200006346Y-107046976D01*
X200019134Y-107064219D01*
X200030170Y-107082632D01*
X200039349Y-107102038D01*
X200046581Y-107122250D01*
X200051797Y-107143074D01*
X200054947Y-107164309D01*
X200056000Y-107185750D01*
X200056000Y-107698250D01*
X200054947Y-107719691D01*
X200051797Y-107740926D01*
X200046581Y-107761750D01*
X200039349Y-107781962D01*
X200030170Y-107801368D01*
X200019134Y-107819781D01*
X200006346Y-107837024D01*
X199991930Y-107852930D01*
X199976024Y-107867346D01*
X199958781Y-107880134D01*
X199940368Y-107891170D01*
X199920962Y-107900349D01*
X199900750Y-107907581D01*
X199879926Y-107912797D01*
X199858691Y-107915947D01*
X199837250Y-107917000D01*
X199399750Y-107917000D01*
X199378309Y-107915947D01*
X199357074Y-107912797D01*
X199336250Y-107907581D01*
X199316038Y-107900349D01*
X199296632Y-107891170D01*
X199278219Y-107880134D01*
X199260976Y-107867346D01*
X199245070Y-107852930D01*
X199230654Y-107837024D01*
X199217866Y-107819781D01*
X199206830Y-107801368D01*
X199197651Y-107781962D01*
X199190419Y-107761750D01*
X199185203Y-107740926D01*
X199182053Y-107719691D01*
X199181000Y-107698250D01*
X199181000Y-107185750D01*
X199182053Y-107164309D01*
X199185203Y-107143074D01*
X199190419Y-107122250D01*
X199197651Y-107102038D01*
X199206830Y-107082632D01*
X199217866Y-107064219D01*
X199230654Y-107046976D01*
X199245070Y-107031070D01*
X199260976Y-107016654D01*
X199278219Y-107003866D01*
X199296632Y-106992830D01*
X199316038Y-106983651D01*
X199336250Y-106976419D01*
X199357074Y-106971203D01*
X199378309Y-106968053D01*
X199399750Y-106967000D01*
X199837250Y-106967000D01*
X199858691Y-106968053D01*
X199858691Y-106968053D01*
G37*
D13*
X199618500Y-107442000D03*
D10*
G36*
X201433691Y-106968053D02*
X201454926Y-106971203D01*
X201475750Y-106976419D01*
X201495962Y-106983651D01*
X201515368Y-106992830D01*
X201533781Y-107003866D01*
X201551024Y-107016654D01*
X201566930Y-107031070D01*
X201581346Y-107046976D01*
X201594134Y-107064219D01*
X201605170Y-107082632D01*
X201614349Y-107102038D01*
X201621581Y-107122250D01*
X201626797Y-107143074D01*
X201629947Y-107164309D01*
X201631000Y-107185750D01*
X201631000Y-107698250D01*
X201629947Y-107719691D01*
X201626797Y-107740926D01*
X201621581Y-107761750D01*
X201614349Y-107781962D01*
X201605170Y-107801368D01*
X201594134Y-107819781D01*
X201581346Y-107837024D01*
X201566930Y-107852930D01*
X201551024Y-107867346D01*
X201533781Y-107880134D01*
X201515368Y-107891170D01*
X201495962Y-107900349D01*
X201475750Y-107907581D01*
X201454926Y-107912797D01*
X201433691Y-107915947D01*
X201412250Y-107917000D01*
X200974750Y-107917000D01*
X200953309Y-107915947D01*
X200932074Y-107912797D01*
X200911250Y-107907581D01*
X200891038Y-107900349D01*
X200871632Y-107891170D01*
X200853219Y-107880134D01*
X200835976Y-107867346D01*
X200820070Y-107852930D01*
X200805654Y-107837024D01*
X200792866Y-107819781D01*
X200781830Y-107801368D01*
X200772651Y-107781962D01*
X200765419Y-107761750D01*
X200760203Y-107740926D01*
X200757053Y-107719691D01*
X200756000Y-107698250D01*
X200756000Y-107185750D01*
X200757053Y-107164309D01*
X200760203Y-107143074D01*
X200765419Y-107122250D01*
X200772651Y-107102038D01*
X200781830Y-107082632D01*
X200792866Y-107064219D01*
X200805654Y-107046976D01*
X200820070Y-107031070D01*
X200835976Y-107016654D01*
X200853219Y-107003866D01*
X200871632Y-106992830D01*
X200891038Y-106983651D01*
X200911250Y-106976419D01*
X200932074Y-106971203D01*
X200953309Y-106968053D01*
X200974750Y-106967000D01*
X201412250Y-106967000D01*
X201433691Y-106968053D01*
X201433691Y-106968053D01*
G37*
D13*
X201193500Y-107442000D03*
G04 #@! TD*
D14*
G04 #@! TO.C,U2*
X197675000Y-113550000D03*
X197675000Y-113050000D03*
X197675000Y-112550000D03*
X197675000Y-112050000D03*
X197675000Y-111550000D03*
X197675000Y-111050000D03*
X197675000Y-114050000D03*
X197675000Y-114550000D03*
X197675000Y-115050000D03*
X197675000Y-115550000D03*
X197675000Y-116050000D03*
X197675000Y-116550000D03*
D15*
X194050000Y-117675000D03*
X194550000Y-117675000D03*
X195050000Y-117675000D03*
X195550000Y-117675000D03*
X196050000Y-117675000D03*
X196550000Y-117675000D03*
X193550000Y-117675000D03*
X193050000Y-117675000D03*
X192550000Y-117675000D03*
X192050000Y-117675000D03*
X191550000Y-117675000D03*
X191050000Y-117675000D03*
D14*
X189925000Y-116550000D03*
X189925000Y-116050000D03*
X189925000Y-115550000D03*
X189925000Y-115050000D03*
X189925000Y-114550000D03*
X189925000Y-114050000D03*
X189925000Y-113550000D03*
X189925000Y-113050000D03*
X189925000Y-112550000D03*
X189925000Y-112050000D03*
X189925000Y-111550000D03*
X189925000Y-111050000D03*
D15*
X191050000Y-109925000D03*
X191550000Y-109925000D03*
X192050000Y-109925000D03*
X192550000Y-109925000D03*
X193050000Y-109925000D03*
X193550000Y-109925000D03*
X194050000Y-109925000D03*
X194550000Y-109925000D03*
X195050000Y-109925000D03*
X195550000Y-109925000D03*
X196050000Y-109925000D03*
X196550000Y-109925000D03*
G04 #@! TD*
D16*
G04 #@! TO.C,U3*
X180462500Y-112350000D03*
D10*
G36*
X180800000Y-112300000D02*
X180550000Y-112550000D01*
X180125000Y-112550000D01*
X180125000Y-112150000D01*
X180800000Y-112150000D01*
X180800000Y-112300000D01*
X180800000Y-112300000D01*
G37*
D17*
X180462500Y-111850000D03*
X180462500Y-111350000D03*
D16*
X180462500Y-110850000D03*
D10*
G36*
X180800000Y-110900000D02*
X180800000Y-111050000D01*
X180125000Y-111050000D01*
X180125000Y-110650000D01*
X180550000Y-110650000D01*
X180800000Y-110900000D01*
X180800000Y-110900000D01*
G37*
D16*
X181100000Y-110712500D03*
D10*
G36*
X181300000Y-111050000D02*
X181150000Y-111050000D01*
X180900000Y-110800000D01*
X180900000Y-110375000D01*
X181300000Y-110375000D01*
X181300000Y-111050000D01*
X181300000Y-111050000D01*
G37*
D18*
X181600000Y-110712500D03*
D16*
X182100000Y-110712500D03*
D10*
G36*
X182300000Y-110800000D02*
X182050000Y-111050000D01*
X181900000Y-111050000D01*
X181900000Y-110375000D01*
X182300000Y-110375000D01*
X182300000Y-110800000D01*
X182300000Y-110800000D01*
G37*
D16*
X182737500Y-110850000D03*
D10*
G36*
X183075000Y-111050000D02*
X182400000Y-111050000D01*
X182400000Y-110900000D01*
X182650000Y-110650000D01*
X183075000Y-110650000D01*
X183075000Y-111050000D01*
X183075000Y-111050000D01*
G37*
D17*
X182737500Y-111350000D03*
X182737500Y-111850000D03*
D16*
X182737500Y-112350000D03*
D10*
G36*
X183075000Y-112550000D02*
X182650000Y-112550000D01*
X182400000Y-112300000D01*
X182400000Y-112150000D01*
X183075000Y-112150000D01*
X183075000Y-112550000D01*
X183075000Y-112550000D01*
G37*
D16*
X182100000Y-112487500D03*
D10*
G36*
X182300000Y-112400000D02*
X182300000Y-112825000D01*
X181900000Y-112825000D01*
X181900000Y-112150000D01*
X182050000Y-112150000D01*
X182300000Y-112400000D01*
X182300000Y-112400000D01*
G37*
D18*
X181600000Y-112487500D03*
D16*
X181100000Y-112487500D03*
D10*
G36*
X181300000Y-112825000D02*
X180900000Y-112825000D01*
X180900000Y-112400000D01*
X181150000Y-112150000D01*
X181300000Y-112150000D01*
X181300000Y-112825000D01*
X181300000Y-112825000D01*
G37*
G04 #@! TD*
D19*
G04 #@! TO.C,Y1*
X200200000Y-109976000D03*
X200200000Y-112776000D03*
G04 #@! TD*
D10*
G04 #@! TO.C,L3*
G36*
X200880142Y-117788674D02*
X200903803Y-117792184D01*
X200927007Y-117797996D01*
X200949529Y-117806054D01*
X200971153Y-117816282D01*
X200991670Y-117828579D01*
X201010883Y-117842829D01*
X201028607Y-117858893D01*
X201044671Y-117876617D01*
X201058921Y-117895830D01*
X201071218Y-117916347D01*
X201081446Y-117937971D01*
X201089504Y-117960493D01*
X201095316Y-117983697D01*
X201098826Y-118007358D01*
X201100000Y-118031250D01*
X201100000Y-118518750D01*
X201098826Y-118542642D01*
X201095316Y-118566303D01*
X201089504Y-118589507D01*
X201081446Y-118612029D01*
X201071218Y-118633653D01*
X201058921Y-118654170D01*
X201044671Y-118673383D01*
X201028607Y-118691107D01*
X201010883Y-118707171D01*
X200991670Y-118721421D01*
X200971153Y-118733718D01*
X200949529Y-118743946D01*
X200927007Y-118752004D01*
X200903803Y-118757816D01*
X200880142Y-118761326D01*
X200856250Y-118762500D01*
X199943750Y-118762500D01*
X199919858Y-118761326D01*
X199896197Y-118757816D01*
X199872993Y-118752004D01*
X199850471Y-118743946D01*
X199828847Y-118733718D01*
X199808330Y-118721421D01*
X199789117Y-118707171D01*
X199771393Y-118691107D01*
X199755329Y-118673383D01*
X199741079Y-118654170D01*
X199728782Y-118633653D01*
X199718554Y-118612029D01*
X199710496Y-118589507D01*
X199704684Y-118566303D01*
X199701174Y-118542642D01*
X199700000Y-118518750D01*
X199700000Y-118031250D01*
X199701174Y-118007358D01*
X199704684Y-117983697D01*
X199710496Y-117960493D01*
X199718554Y-117937971D01*
X199728782Y-117916347D01*
X199741079Y-117895830D01*
X199755329Y-117876617D01*
X199771393Y-117858893D01*
X199789117Y-117842829D01*
X199808330Y-117828579D01*
X199828847Y-117816282D01*
X199850471Y-117806054D01*
X199872993Y-117797996D01*
X199896197Y-117792184D01*
X199919858Y-117788674D01*
X199943750Y-117787500D01*
X200856250Y-117787500D01*
X200880142Y-117788674D01*
X200880142Y-117788674D01*
G37*
D11*
X200400000Y-118275000D03*
D10*
G36*
X200880142Y-115913674D02*
X200903803Y-115917184D01*
X200927007Y-115922996D01*
X200949529Y-115931054D01*
X200971153Y-115941282D01*
X200991670Y-115953579D01*
X201010883Y-115967829D01*
X201028607Y-115983893D01*
X201044671Y-116001617D01*
X201058921Y-116020830D01*
X201071218Y-116041347D01*
X201081446Y-116062971D01*
X201089504Y-116085493D01*
X201095316Y-116108697D01*
X201098826Y-116132358D01*
X201100000Y-116156250D01*
X201100000Y-116643750D01*
X201098826Y-116667642D01*
X201095316Y-116691303D01*
X201089504Y-116714507D01*
X201081446Y-116737029D01*
X201071218Y-116758653D01*
X201058921Y-116779170D01*
X201044671Y-116798383D01*
X201028607Y-116816107D01*
X201010883Y-116832171D01*
X200991670Y-116846421D01*
X200971153Y-116858718D01*
X200949529Y-116868946D01*
X200927007Y-116877004D01*
X200903803Y-116882816D01*
X200880142Y-116886326D01*
X200856250Y-116887500D01*
X199943750Y-116887500D01*
X199919858Y-116886326D01*
X199896197Y-116882816D01*
X199872993Y-116877004D01*
X199850471Y-116868946D01*
X199828847Y-116858718D01*
X199808330Y-116846421D01*
X199789117Y-116832171D01*
X199771393Y-116816107D01*
X199755329Y-116798383D01*
X199741079Y-116779170D01*
X199728782Y-116758653D01*
X199718554Y-116737029D01*
X199710496Y-116714507D01*
X199704684Y-116691303D01*
X199701174Y-116667642D01*
X199700000Y-116643750D01*
X199700000Y-116156250D01*
X199701174Y-116132358D01*
X199704684Y-116108697D01*
X199710496Y-116085493D01*
X199718554Y-116062971D01*
X199728782Y-116041347D01*
X199741079Y-116020830D01*
X199755329Y-116001617D01*
X199771393Y-115983893D01*
X199789117Y-115967829D01*
X199808330Y-115953579D01*
X199828847Y-115941282D01*
X199850471Y-115931054D01*
X199872993Y-115922996D01*
X199896197Y-115917184D01*
X199919858Y-115913674D01*
X199943750Y-115912500D01*
X200856250Y-115912500D01*
X200880142Y-115913674D01*
X200880142Y-115913674D01*
G37*
D11*
X200400000Y-116400000D03*
G04 #@! TD*
D10*
G04 #@! TO.C,C4*
G36*
X198480142Y-109338674D02*
X198503803Y-109342184D01*
X198527007Y-109347996D01*
X198549529Y-109356054D01*
X198571153Y-109366282D01*
X198591670Y-109378579D01*
X198610883Y-109392829D01*
X198628607Y-109408893D01*
X198644671Y-109426617D01*
X198658921Y-109445830D01*
X198671218Y-109466347D01*
X198681446Y-109487971D01*
X198689504Y-109510493D01*
X198695316Y-109533697D01*
X198698826Y-109557358D01*
X198700000Y-109581250D01*
X198700000Y-110068750D01*
X198698826Y-110092642D01*
X198695316Y-110116303D01*
X198689504Y-110139507D01*
X198681446Y-110162029D01*
X198671218Y-110183653D01*
X198658921Y-110204170D01*
X198644671Y-110223383D01*
X198628607Y-110241107D01*
X198610883Y-110257171D01*
X198591670Y-110271421D01*
X198571153Y-110283718D01*
X198549529Y-110293946D01*
X198527007Y-110302004D01*
X198503803Y-110307816D01*
X198480142Y-110311326D01*
X198456250Y-110312500D01*
X197543750Y-110312500D01*
X197519858Y-110311326D01*
X197496197Y-110307816D01*
X197472993Y-110302004D01*
X197450471Y-110293946D01*
X197428847Y-110283718D01*
X197408330Y-110271421D01*
X197389117Y-110257171D01*
X197371393Y-110241107D01*
X197355329Y-110223383D01*
X197341079Y-110204170D01*
X197328782Y-110183653D01*
X197318554Y-110162029D01*
X197310496Y-110139507D01*
X197304684Y-110116303D01*
X197301174Y-110092642D01*
X197300000Y-110068750D01*
X197300000Y-109581250D01*
X197301174Y-109557358D01*
X197304684Y-109533697D01*
X197310496Y-109510493D01*
X197318554Y-109487971D01*
X197328782Y-109466347D01*
X197341079Y-109445830D01*
X197355329Y-109426617D01*
X197371393Y-109408893D01*
X197389117Y-109392829D01*
X197408330Y-109378579D01*
X197428847Y-109366282D01*
X197450471Y-109356054D01*
X197472993Y-109347996D01*
X197496197Y-109342184D01*
X197519858Y-109338674D01*
X197543750Y-109337500D01*
X198456250Y-109337500D01*
X198480142Y-109338674D01*
X198480142Y-109338674D01*
G37*
D11*
X198000000Y-109825000D03*
D10*
G36*
X198480142Y-107463674D02*
X198503803Y-107467184D01*
X198527007Y-107472996D01*
X198549529Y-107481054D01*
X198571153Y-107491282D01*
X198591670Y-107503579D01*
X198610883Y-107517829D01*
X198628607Y-107533893D01*
X198644671Y-107551617D01*
X198658921Y-107570830D01*
X198671218Y-107591347D01*
X198681446Y-107612971D01*
X198689504Y-107635493D01*
X198695316Y-107658697D01*
X198698826Y-107682358D01*
X198700000Y-107706250D01*
X198700000Y-108193750D01*
X198698826Y-108217642D01*
X198695316Y-108241303D01*
X198689504Y-108264507D01*
X198681446Y-108287029D01*
X198671218Y-108308653D01*
X198658921Y-108329170D01*
X198644671Y-108348383D01*
X198628607Y-108366107D01*
X198610883Y-108382171D01*
X198591670Y-108396421D01*
X198571153Y-108408718D01*
X198549529Y-108418946D01*
X198527007Y-108427004D01*
X198503803Y-108432816D01*
X198480142Y-108436326D01*
X198456250Y-108437500D01*
X197543750Y-108437500D01*
X197519858Y-108436326D01*
X197496197Y-108432816D01*
X197472993Y-108427004D01*
X197450471Y-108418946D01*
X197428847Y-108408718D01*
X197408330Y-108396421D01*
X197389117Y-108382171D01*
X197371393Y-108366107D01*
X197355329Y-108348383D01*
X197341079Y-108329170D01*
X197328782Y-108308653D01*
X197318554Y-108287029D01*
X197310496Y-108264507D01*
X197304684Y-108241303D01*
X197301174Y-108217642D01*
X197300000Y-108193750D01*
X197300000Y-107706250D01*
X197301174Y-107682358D01*
X197304684Y-107658697D01*
X197310496Y-107635493D01*
X197318554Y-107612971D01*
X197328782Y-107591347D01*
X197341079Y-107570830D01*
X197355329Y-107551617D01*
X197371393Y-107533893D01*
X197389117Y-107517829D01*
X197408330Y-107503579D01*
X197428847Y-107491282D01*
X197450471Y-107481054D01*
X197472993Y-107472996D01*
X197496197Y-107467184D01*
X197519858Y-107463674D01*
X197543750Y-107462500D01*
X198456250Y-107462500D01*
X198480142Y-107463674D01*
X198480142Y-107463674D01*
G37*
D11*
X198000000Y-107950000D03*
G04 #@! TD*
D10*
G04 #@! TO.C,C5*
G36*
X203172142Y-110922674D02*
X203195803Y-110926184D01*
X203219007Y-110931996D01*
X203241529Y-110940054D01*
X203263153Y-110950282D01*
X203283670Y-110962579D01*
X203302883Y-110976829D01*
X203320607Y-110992893D01*
X203336671Y-111010617D01*
X203350921Y-111029830D01*
X203363218Y-111050347D01*
X203373446Y-111071971D01*
X203381504Y-111094493D01*
X203387316Y-111117697D01*
X203390826Y-111141358D01*
X203392000Y-111165250D01*
X203392000Y-111652750D01*
X203390826Y-111676642D01*
X203387316Y-111700303D01*
X203381504Y-111723507D01*
X203373446Y-111746029D01*
X203363218Y-111767653D01*
X203350921Y-111788170D01*
X203336671Y-111807383D01*
X203320607Y-111825107D01*
X203302883Y-111841171D01*
X203283670Y-111855421D01*
X203263153Y-111867718D01*
X203241529Y-111877946D01*
X203219007Y-111886004D01*
X203195803Y-111891816D01*
X203172142Y-111895326D01*
X203148250Y-111896500D01*
X202235750Y-111896500D01*
X202211858Y-111895326D01*
X202188197Y-111891816D01*
X202164993Y-111886004D01*
X202142471Y-111877946D01*
X202120847Y-111867718D01*
X202100330Y-111855421D01*
X202081117Y-111841171D01*
X202063393Y-111825107D01*
X202047329Y-111807383D01*
X202033079Y-111788170D01*
X202020782Y-111767653D01*
X202010554Y-111746029D01*
X202002496Y-111723507D01*
X201996684Y-111700303D01*
X201993174Y-111676642D01*
X201992000Y-111652750D01*
X201992000Y-111165250D01*
X201993174Y-111141358D01*
X201996684Y-111117697D01*
X202002496Y-111094493D01*
X202010554Y-111071971D01*
X202020782Y-111050347D01*
X202033079Y-111029830D01*
X202047329Y-111010617D01*
X202063393Y-110992893D01*
X202081117Y-110976829D01*
X202100330Y-110962579D01*
X202120847Y-110950282D01*
X202142471Y-110940054D01*
X202164993Y-110931996D01*
X202188197Y-110926184D01*
X202211858Y-110922674D01*
X202235750Y-110921500D01*
X203148250Y-110921500D01*
X203172142Y-110922674D01*
X203172142Y-110922674D01*
G37*
D11*
X202692000Y-111409000D03*
D10*
G36*
X203172142Y-112797674D02*
X203195803Y-112801184D01*
X203219007Y-112806996D01*
X203241529Y-112815054D01*
X203263153Y-112825282D01*
X203283670Y-112837579D01*
X203302883Y-112851829D01*
X203320607Y-112867893D01*
X203336671Y-112885617D01*
X203350921Y-112904830D01*
X203363218Y-112925347D01*
X203373446Y-112946971D01*
X203381504Y-112969493D01*
X203387316Y-112992697D01*
X203390826Y-113016358D01*
X203392000Y-113040250D01*
X203392000Y-113527750D01*
X203390826Y-113551642D01*
X203387316Y-113575303D01*
X203381504Y-113598507D01*
X203373446Y-113621029D01*
X203363218Y-113642653D01*
X203350921Y-113663170D01*
X203336671Y-113682383D01*
X203320607Y-113700107D01*
X203302883Y-113716171D01*
X203283670Y-113730421D01*
X203263153Y-113742718D01*
X203241529Y-113752946D01*
X203219007Y-113761004D01*
X203195803Y-113766816D01*
X203172142Y-113770326D01*
X203148250Y-113771500D01*
X202235750Y-113771500D01*
X202211858Y-113770326D01*
X202188197Y-113766816D01*
X202164993Y-113761004D01*
X202142471Y-113752946D01*
X202120847Y-113742718D01*
X202100330Y-113730421D01*
X202081117Y-113716171D01*
X202063393Y-113700107D01*
X202047329Y-113682383D01*
X202033079Y-113663170D01*
X202020782Y-113642653D01*
X202010554Y-113621029D01*
X202002496Y-113598507D01*
X201996684Y-113575303D01*
X201993174Y-113551642D01*
X201992000Y-113527750D01*
X201992000Y-113040250D01*
X201993174Y-113016358D01*
X201996684Y-112992697D01*
X202002496Y-112969493D01*
X202010554Y-112946971D01*
X202020782Y-112925347D01*
X202033079Y-112904830D01*
X202047329Y-112885617D01*
X202063393Y-112867893D01*
X202081117Y-112851829D01*
X202100330Y-112837579D01*
X202120847Y-112825282D01*
X202142471Y-112815054D01*
X202164993Y-112806996D01*
X202188197Y-112801184D01*
X202211858Y-112797674D01*
X202235750Y-112796500D01*
X203148250Y-112796500D01*
X203172142Y-112797674D01*
X203172142Y-112797674D01*
G37*
D11*
X202692000Y-113284000D03*
G04 #@! TD*
D10*
G04 #@! TO.C,C8*
G36*
X183617642Y-117051174D02*
X183641303Y-117054684D01*
X183664507Y-117060496D01*
X183687029Y-117068554D01*
X183708653Y-117078782D01*
X183729170Y-117091079D01*
X183748383Y-117105329D01*
X183766107Y-117121393D01*
X183782171Y-117139117D01*
X183796421Y-117158330D01*
X183808718Y-117178847D01*
X183818946Y-117200471D01*
X183827004Y-117222993D01*
X183832816Y-117246197D01*
X183836326Y-117269858D01*
X183837500Y-117293750D01*
X183837500Y-118206250D01*
X183836326Y-118230142D01*
X183832816Y-118253803D01*
X183827004Y-118277007D01*
X183818946Y-118299529D01*
X183808718Y-118321153D01*
X183796421Y-118341670D01*
X183782171Y-118360883D01*
X183766107Y-118378607D01*
X183748383Y-118394671D01*
X183729170Y-118408921D01*
X183708653Y-118421218D01*
X183687029Y-118431446D01*
X183664507Y-118439504D01*
X183641303Y-118445316D01*
X183617642Y-118448826D01*
X183593750Y-118450000D01*
X183106250Y-118450000D01*
X183082358Y-118448826D01*
X183058697Y-118445316D01*
X183035493Y-118439504D01*
X183012971Y-118431446D01*
X182991347Y-118421218D01*
X182970830Y-118408921D01*
X182951617Y-118394671D01*
X182933893Y-118378607D01*
X182917829Y-118360883D01*
X182903579Y-118341670D01*
X182891282Y-118321153D01*
X182881054Y-118299529D01*
X182872996Y-118277007D01*
X182867184Y-118253803D01*
X182863674Y-118230142D01*
X182862500Y-118206250D01*
X182862500Y-117293750D01*
X182863674Y-117269858D01*
X182867184Y-117246197D01*
X182872996Y-117222993D01*
X182881054Y-117200471D01*
X182891282Y-117178847D01*
X182903579Y-117158330D01*
X182917829Y-117139117D01*
X182933893Y-117121393D01*
X182951617Y-117105329D01*
X182970830Y-117091079D01*
X182991347Y-117078782D01*
X183012971Y-117068554D01*
X183035493Y-117060496D01*
X183058697Y-117054684D01*
X183082358Y-117051174D01*
X183106250Y-117050000D01*
X183593750Y-117050000D01*
X183617642Y-117051174D01*
X183617642Y-117051174D01*
G37*
D11*
X183350000Y-117750000D03*
D10*
G36*
X181742642Y-117051174D02*
X181766303Y-117054684D01*
X181789507Y-117060496D01*
X181812029Y-117068554D01*
X181833653Y-117078782D01*
X181854170Y-117091079D01*
X181873383Y-117105329D01*
X181891107Y-117121393D01*
X181907171Y-117139117D01*
X181921421Y-117158330D01*
X181933718Y-117178847D01*
X181943946Y-117200471D01*
X181952004Y-117222993D01*
X181957816Y-117246197D01*
X181961326Y-117269858D01*
X181962500Y-117293750D01*
X181962500Y-118206250D01*
X181961326Y-118230142D01*
X181957816Y-118253803D01*
X181952004Y-118277007D01*
X181943946Y-118299529D01*
X181933718Y-118321153D01*
X181921421Y-118341670D01*
X181907171Y-118360883D01*
X181891107Y-118378607D01*
X181873383Y-118394671D01*
X181854170Y-118408921D01*
X181833653Y-118421218D01*
X181812029Y-118431446D01*
X181789507Y-118439504D01*
X181766303Y-118445316D01*
X181742642Y-118448826D01*
X181718750Y-118450000D01*
X181231250Y-118450000D01*
X181207358Y-118448826D01*
X181183697Y-118445316D01*
X181160493Y-118439504D01*
X181137971Y-118431446D01*
X181116347Y-118421218D01*
X181095830Y-118408921D01*
X181076617Y-118394671D01*
X181058893Y-118378607D01*
X181042829Y-118360883D01*
X181028579Y-118341670D01*
X181016282Y-118321153D01*
X181006054Y-118299529D01*
X180997996Y-118277007D01*
X180992184Y-118253803D01*
X180988674Y-118230142D01*
X180987500Y-118206250D01*
X180987500Y-117293750D01*
X180988674Y-117269858D01*
X180992184Y-117246197D01*
X180997996Y-117222993D01*
X181006054Y-117200471D01*
X181016282Y-117178847D01*
X181028579Y-117158330D01*
X181042829Y-117139117D01*
X181058893Y-117121393D01*
X181076617Y-117105329D01*
X181095830Y-117091079D01*
X181116347Y-117078782D01*
X181137971Y-117068554D01*
X181160493Y-117060496D01*
X181183697Y-117054684D01*
X181207358Y-117051174D01*
X181231250Y-117050000D01*
X181718750Y-117050000D01*
X181742642Y-117051174D01*
X181742642Y-117051174D01*
G37*
D11*
X181475000Y-117750000D03*
G04 #@! TD*
D10*
G04 #@! TO.C,C9*
G36*
X187960082Y-106064374D02*
X187983743Y-106067884D01*
X188006947Y-106073696D01*
X188029469Y-106081754D01*
X188051093Y-106091982D01*
X188071610Y-106104279D01*
X188090823Y-106118529D01*
X188108547Y-106134593D01*
X188124611Y-106152317D01*
X188138861Y-106171530D01*
X188151158Y-106192047D01*
X188161386Y-106213671D01*
X188169444Y-106236193D01*
X188175256Y-106259397D01*
X188178766Y-106283058D01*
X188179940Y-106306950D01*
X188179940Y-106794450D01*
X188178766Y-106818342D01*
X188175256Y-106842003D01*
X188169444Y-106865207D01*
X188161386Y-106887729D01*
X188151158Y-106909353D01*
X188138861Y-106929870D01*
X188124611Y-106949083D01*
X188108547Y-106966807D01*
X188090823Y-106982871D01*
X188071610Y-106997121D01*
X188051093Y-107009418D01*
X188029469Y-107019646D01*
X188006947Y-107027704D01*
X187983743Y-107033516D01*
X187960082Y-107037026D01*
X187936190Y-107038200D01*
X187023690Y-107038200D01*
X186999798Y-107037026D01*
X186976137Y-107033516D01*
X186952933Y-107027704D01*
X186930411Y-107019646D01*
X186908787Y-107009418D01*
X186888270Y-106997121D01*
X186869057Y-106982871D01*
X186851333Y-106966807D01*
X186835269Y-106949083D01*
X186821019Y-106929870D01*
X186808722Y-106909353D01*
X186798494Y-106887729D01*
X186790436Y-106865207D01*
X186784624Y-106842003D01*
X186781114Y-106818342D01*
X186779940Y-106794450D01*
X186779940Y-106306950D01*
X186781114Y-106283058D01*
X186784624Y-106259397D01*
X186790436Y-106236193D01*
X186798494Y-106213671D01*
X186808722Y-106192047D01*
X186821019Y-106171530D01*
X186835269Y-106152317D01*
X186851333Y-106134593D01*
X186869057Y-106118529D01*
X186888270Y-106104279D01*
X186908787Y-106091982D01*
X186930411Y-106081754D01*
X186952933Y-106073696D01*
X186976137Y-106067884D01*
X186999798Y-106064374D01*
X187023690Y-106063200D01*
X187936190Y-106063200D01*
X187960082Y-106064374D01*
X187960082Y-106064374D01*
G37*
D11*
X187479940Y-106550700D03*
D10*
G36*
X187960082Y-104189374D02*
X187983743Y-104192884D01*
X188006947Y-104198696D01*
X188029469Y-104206754D01*
X188051093Y-104216982D01*
X188071610Y-104229279D01*
X188090823Y-104243529D01*
X188108547Y-104259593D01*
X188124611Y-104277317D01*
X188138861Y-104296530D01*
X188151158Y-104317047D01*
X188161386Y-104338671D01*
X188169444Y-104361193D01*
X188175256Y-104384397D01*
X188178766Y-104408058D01*
X188179940Y-104431950D01*
X188179940Y-104919450D01*
X188178766Y-104943342D01*
X188175256Y-104967003D01*
X188169444Y-104990207D01*
X188161386Y-105012729D01*
X188151158Y-105034353D01*
X188138861Y-105054870D01*
X188124611Y-105074083D01*
X188108547Y-105091807D01*
X188090823Y-105107871D01*
X188071610Y-105122121D01*
X188051093Y-105134418D01*
X188029469Y-105144646D01*
X188006947Y-105152704D01*
X187983743Y-105158516D01*
X187960082Y-105162026D01*
X187936190Y-105163200D01*
X187023690Y-105163200D01*
X186999798Y-105162026D01*
X186976137Y-105158516D01*
X186952933Y-105152704D01*
X186930411Y-105144646D01*
X186908787Y-105134418D01*
X186888270Y-105122121D01*
X186869057Y-105107871D01*
X186851333Y-105091807D01*
X186835269Y-105074083D01*
X186821019Y-105054870D01*
X186808722Y-105034353D01*
X186798494Y-105012729D01*
X186790436Y-104990207D01*
X186784624Y-104967003D01*
X186781114Y-104943342D01*
X186779940Y-104919450D01*
X186779940Y-104431950D01*
X186781114Y-104408058D01*
X186784624Y-104384397D01*
X186790436Y-104361193D01*
X186798494Y-104338671D01*
X186808722Y-104317047D01*
X186821019Y-104296530D01*
X186835269Y-104277317D01*
X186851333Y-104259593D01*
X186869057Y-104243529D01*
X186888270Y-104229279D01*
X186908787Y-104216982D01*
X186930411Y-104206754D01*
X186952933Y-104198696D01*
X186976137Y-104192884D01*
X186999798Y-104189374D01*
X187023690Y-104188200D01*
X187936190Y-104188200D01*
X187960082Y-104189374D01*
X187960082Y-104189374D01*
G37*
D11*
X187479940Y-104675700D03*
G04 #@! TD*
D10*
G04 #@! TO.C,C13*
G36*
X196961842Y-122492374D02*
X196985503Y-122495884D01*
X197008707Y-122501696D01*
X197031229Y-122509754D01*
X197052853Y-122519982D01*
X197073370Y-122532279D01*
X197092583Y-122546529D01*
X197110307Y-122562593D01*
X197126371Y-122580317D01*
X197140621Y-122599530D01*
X197152918Y-122620047D01*
X197163146Y-122641671D01*
X197171204Y-122664193D01*
X197177016Y-122687397D01*
X197180526Y-122711058D01*
X197181700Y-122734950D01*
X197181700Y-123222450D01*
X197180526Y-123246342D01*
X197177016Y-123270003D01*
X197171204Y-123293207D01*
X197163146Y-123315729D01*
X197152918Y-123337353D01*
X197140621Y-123357870D01*
X197126371Y-123377083D01*
X197110307Y-123394807D01*
X197092583Y-123410871D01*
X197073370Y-123425121D01*
X197052853Y-123437418D01*
X197031229Y-123447646D01*
X197008707Y-123455704D01*
X196985503Y-123461516D01*
X196961842Y-123465026D01*
X196937950Y-123466200D01*
X196025450Y-123466200D01*
X196001558Y-123465026D01*
X195977897Y-123461516D01*
X195954693Y-123455704D01*
X195932171Y-123447646D01*
X195910547Y-123437418D01*
X195890030Y-123425121D01*
X195870817Y-123410871D01*
X195853093Y-123394807D01*
X195837029Y-123377083D01*
X195822779Y-123357870D01*
X195810482Y-123337353D01*
X195800254Y-123315729D01*
X195792196Y-123293207D01*
X195786384Y-123270003D01*
X195782874Y-123246342D01*
X195781700Y-123222450D01*
X195781700Y-122734950D01*
X195782874Y-122711058D01*
X195786384Y-122687397D01*
X195792196Y-122664193D01*
X195800254Y-122641671D01*
X195810482Y-122620047D01*
X195822779Y-122599530D01*
X195837029Y-122580317D01*
X195853093Y-122562593D01*
X195870817Y-122546529D01*
X195890030Y-122532279D01*
X195910547Y-122519982D01*
X195932171Y-122509754D01*
X195954693Y-122501696D01*
X195977897Y-122495884D01*
X196001558Y-122492374D01*
X196025450Y-122491200D01*
X196937950Y-122491200D01*
X196961842Y-122492374D01*
X196961842Y-122492374D01*
G37*
D11*
X196481700Y-122978700D03*
D10*
G36*
X196961842Y-124367374D02*
X196985503Y-124370884D01*
X197008707Y-124376696D01*
X197031229Y-124384754D01*
X197052853Y-124394982D01*
X197073370Y-124407279D01*
X197092583Y-124421529D01*
X197110307Y-124437593D01*
X197126371Y-124455317D01*
X197140621Y-124474530D01*
X197152918Y-124495047D01*
X197163146Y-124516671D01*
X197171204Y-124539193D01*
X197177016Y-124562397D01*
X197180526Y-124586058D01*
X197181700Y-124609950D01*
X197181700Y-125097450D01*
X197180526Y-125121342D01*
X197177016Y-125145003D01*
X197171204Y-125168207D01*
X197163146Y-125190729D01*
X197152918Y-125212353D01*
X197140621Y-125232870D01*
X197126371Y-125252083D01*
X197110307Y-125269807D01*
X197092583Y-125285871D01*
X197073370Y-125300121D01*
X197052853Y-125312418D01*
X197031229Y-125322646D01*
X197008707Y-125330704D01*
X196985503Y-125336516D01*
X196961842Y-125340026D01*
X196937950Y-125341200D01*
X196025450Y-125341200D01*
X196001558Y-125340026D01*
X195977897Y-125336516D01*
X195954693Y-125330704D01*
X195932171Y-125322646D01*
X195910547Y-125312418D01*
X195890030Y-125300121D01*
X195870817Y-125285871D01*
X195853093Y-125269807D01*
X195837029Y-125252083D01*
X195822779Y-125232870D01*
X195810482Y-125212353D01*
X195800254Y-125190729D01*
X195792196Y-125168207D01*
X195786384Y-125145003D01*
X195782874Y-125121342D01*
X195781700Y-125097450D01*
X195781700Y-124609950D01*
X195782874Y-124586058D01*
X195786384Y-124562397D01*
X195792196Y-124539193D01*
X195800254Y-124516671D01*
X195810482Y-124495047D01*
X195822779Y-124474530D01*
X195837029Y-124455317D01*
X195853093Y-124437593D01*
X195870817Y-124421529D01*
X195890030Y-124407279D01*
X195910547Y-124394982D01*
X195932171Y-124384754D01*
X195954693Y-124376696D01*
X195977897Y-124370884D01*
X196001558Y-124367374D01*
X196025450Y-124366200D01*
X196937950Y-124366200D01*
X196961842Y-124367374D01*
X196961842Y-124367374D01*
G37*
D11*
X196481700Y-124853700D03*
G04 #@! TD*
D10*
G04 #@! TO.C,C14*
G36*
X194651542Y-122287974D02*
X194675203Y-122291484D01*
X194698407Y-122297296D01*
X194720929Y-122305354D01*
X194742553Y-122315582D01*
X194763070Y-122327879D01*
X194782283Y-122342129D01*
X194800007Y-122358193D01*
X194816071Y-122375917D01*
X194830321Y-122395130D01*
X194842618Y-122415647D01*
X194852846Y-122437271D01*
X194860904Y-122459793D01*
X194866716Y-122482997D01*
X194870226Y-122506658D01*
X194871400Y-122530550D01*
X194871400Y-123443050D01*
X194870226Y-123466942D01*
X194866716Y-123490603D01*
X194860904Y-123513807D01*
X194852846Y-123536329D01*
X194842618Y-123557953D01*
X194830321Y-123578470D01*
X194816071Y-123597683D01*
X194800007Y-123615407D01*
X194782283Y-123631471D01*
X194763070Y-123645721D01*
X194742553Y-123658018D01*
X194720929Y-123668246D01*
X194698407Y-123676304D01*
X194675203Y-123682116D01*
X194651542Y-123685626D01*
X194627650Y-123686800D01*
X194140150Y-123686800D01*
X194116258Y-123685626D01*
X194092597Y-123682116D01*
X194069393Y-123676304D01*
X194046871Y-123668246D01*
X194025247Y-123658018D01*
X194004730Y-123645721D01*
X193985517Y-123631471D01*
X193967793Y-123615407D01*
X193951729Y-123597683D01*
X193937479Y-123578470D01*
X193925182Y-123557953D01*
X193914954Y-123536329D01*
X193906896Y-123513807D01*
X193901084Y-123490603D01*
X193897574Y-123466942D01*
X193896400Y-123443050D01*
X193896400Y-122530550D01*
X193897574Y-122506658D01*
X193901084Y-122482997D01*
X193906896Y-122459793D01*
X193914954Y-122437271D01*
X193925182Y-122415647D01*
X193937479Y-122395130D01*
X193951729Y-122375917D01*
X193967793Y-122358193D01*
X193985517Y-122342129D01*
X194004730Y-122327879D01*
X194025247Y-122315582D01*
X194046871Y-122305354D01*
X194069393Y-122297296D01*
X194092597Y-122291484D01*
X194116258Y-122287974D01*
X194140150Y-122286800D01*
X194627650Y-122286800D01*
X194651542Y-122287974D01*
X194651542Y-122287974D01*
G37*
D11*
X194383900Y-122986800D03*
D10*
G36*
X192776542Y-122287974D02*
X192800203Y-122291484D01*
X192823407Y-122297296D01*
X192845929Y-122305354D01*
X192867553Y-122315582D01*
X192888070Y-122327879D01*
X192907283Y-122342129D01*
X192925007Y-122358193D01*
X192941071Y-122375917D01*
X192955321Y-122395130D01*
X192967618Y-122415647D01*
X192977846Y-122437271D01*
X192985904Y-122459793D01*
X192991716Y-122482997D01*
X192995226Y-122506658D01*
X192996400Y-122530550D01*
X192996400Y-123443050D01*
X192995226Y-123466942D01*
X192991716Y-123490603D01*
X192985904Y-123513807D01*
X192977846Y-123536329D01*
X192967618Y-123557953D01*
X192955321Y-123578470D01*
X192941071Y-123597683D01*
X192925007Y-123615407D01*
X192907283Y-123631471D01*
X192888070Y-123645721D01*
X192867553Y-123658018D01*
X192845929Y-123668246D01*
X192823407Y-123676304D01*
X192800203Y-123682116D01*
X192776542Y-123685626D01*
X192752650Y-123686800D01*
X192265150Y-123686800D01*
X192241258Y-123685626D01*
X192217597Y-123682116D01*
X192194393Y-123676304D01*
X192171871Y-123668246D01*
X192150247Y-123658018D01*
X192129730Y-123645721D01*
X192110517Y-123631471D01*
X192092793Y-123615407D01*
X192076729Y-123597683D01*
X192062479Y-123578470D01*
X192050182Y-123557953D01*
X192039954Y-123536329D01*
X192031896Y-123513807D01*
X192026084Y-123490603D01*
X192022574Y-123466942D01*
X192021400Y-123443050D01*
X192021400Y-122530550D01*
X192022574Y-122506658D01*
X192026084Y-122482997D01*
X192031896Y-122459793D01*
X192039954Y-122437271D01*
X192050182Y-122415647D01*
X192062479Y-122395130D01*
X192076729Y-122375917D01*
X192092793Y-122358193D01*
X192110517Y-122342129D01*
X192129730Y-122327879D01*
X192150247Y-122315582D01*
X192171871Y-122305354D01*
X192194393Y-122297296D01*
X192217597Y-122291484D01*
X192241258Y-122287974D01*
X192265150Y-122286800D01*
X192752650Y-122286800D01*
X192776542Y-122287974D01*
X192776542Y-122287974D01*
G37*
D11*
X192508900Y-122986800D03*
G04 #@! TD*
D10*
G04 #@! TO.C,R2*
G36*
X204747691Y-111069553D02*
X204768926Y-111072703D01*
X204789750Y-111077919D01*
X204809962Y-111085151D01*
X204829368Y-111094330D01*
X204847781Y-111105366D01*
X204865024Y-111118154D01*
X204880930Y-111132570D01*
X204895346Y-111148476D01*
X204908134Y-111165719D01*
X204919170Y-111184132D01*
X204928349Y-111203538D01*
X204935581Y-111223750D01*
X204940797Y-111244574D01*
X204943947Y-111265809D01*
X204945000Y-111287250D01*
X204945000Y-111724750D01*
X204943947Y-111746191D01*
X204940797Y-111767426D01*
X204935581Y-111788250D01*
X204928349Y-111808462D01*
X204919170Y-111827868D01*
X204908134Y-111846281D01*
X204895346Y-111863524D01*
X204880930Y-111879430D01*
X204865024Y-111893846D01*
X204847781Y-111906634D01*
X204829368Y-111917670D01*
X204809962Y-111926849D01*
X204789750Y-111934081D01*
X204768926Y-111939297D01*
X204747691Y-111942447D01*
X204726250Y-111943500D01*
X204213750Y-111943500D01*
X204192309Y-111942447D01*
X204171074Y-111939297D01*
X204150250Y-111934081D01*
X204130038Y-111926849D01*
X204110632Y-111917670D01*
X204092219Y-111906634D01*
X204074976Y-111893846D01*
X204059070Y-111879430D01*
X204044654Y-111863524D01*
X204031866Y-111846281D01*
X204020830Y-111827868D01*
X204011651Y-111808462D01*
X204004419Y-111788250D01*
X203999203Y-111767426D01*
X203996053Y-111746191D01*
X203995000Y-111724750D01*
X203995000Y-111287250D01*
X203996053Y-111265809D01*
X203999203Y-111244574D01*
X204004419Y-111223750D01*
X204011651Y-111203538D01*
X204020830Y-111184132D01*
X204031866Y-111165719D01*
X204044654Y-111148476D01*
X204059070Y-111132570D01*
X204074976Y-111118154D01*
X204092219Y-111105366D01*
X204110632Y-111094330D01*
X204130038Y-111085151D01*
X204150250Y-111077919D01*
X204171074Y-111072703D01*
X204192309Y-111069553D01*
X204213750Y-111068500D01*
X204726250Y-111068500D01*
X204747691Y-111069553D01*
X204747691Y-111069553D01*
G37*
D13*
X204470000Y-111506000D03*
D10*
G36*
X204747691Y-112644553D02*
X204768926Y-112647703D01*
X204789750Y-112652919D01*
X204809962Y-112660151D01*
X204829368Y-112669330D01*
X204847781Y-112680366D01*
X204865024Y-112693154D01*
X204880930Y-112707570D01*
X204895346Y-112723476D01*
X204908134Y-112740719D01*
X204919170Y-112759132D01*
X204928349Y-112778538D01*
X204935581Y-112798750D01*
X204940797Y-112819574D01*
X204943947Y-112840809D01*
X204945000Y-112862250D01*
X204945000Y-113299750D01*
X204943947Y-113321191D01*
X204940797Y-113342426D01*
X204935581Y-113363250D01*
X204928349Y-113383462D01*
X204919170Y-113402868D01*
X204908134Y-113421281D01*
X204895346Y-113438524D01*
X204880930Y-113454430D01*
X204865024Y-113468846D01*
X204847781Y-113481634D01*
X204829368Y-113492670D01*
X204809962Y-113501849D01*
X204789750Y-113509081D01*
X204768926Y-113514297D01*
X204747691Y-113517447D01*
X204726250Y-113518500D01*
X204213750Y-113518500D01*
X204192309Y-113517447D01*
X204171074Y-113514297D01*
X204150250Y-113509081D01*
X204130038Y-113501849D01*
X204110632Y-113492670D01*
X204092219Y-113481634D01*
X204074976Y-113468846D01*
X204059070Y-113454430D01*
X204044654Y-113438524D01*
X204031866Y-113421281D01*
X204020830Y-113402868D01*
X204011651Y-113383462D01*
X204004419Y-113363250D01*
X203999203Y-113342426D01*
X203996053Y-113321191D01*
X203995000Y-113299750D01*
X203995000Y-112862250D01*
X203996053Y-112840809D01*
X203999203Y-112819574D01*
X204004419Y-112798750D01*
X204011651Y-112778538D01*
X204020830Y-112759132D01*
X204031866Y-112740719D01*
X204044654Y-112723476D01*
X204059070Y-112707570D01*
X204074976Y-112693154D01*
X204092219Y-112680366D01*
X204110632Y-112669330D01*
X204130038Y-112660151D01*
X204150250Y-112652919D01*
X204171074Y-112647703D01*
X204192309Y-112644553D01*
X204213750Y-112643500D01*
X204726250Y-112643500D01*
X204747691Y-112644553D01*
X204747691Y-112644553D01*
G37*
D13*
X204470000Y-113081000D03*
G04 #@! TD*
D10*
G04 #@! TO.C,R11*
G36*
X196837691Y-127813553D02*
X196858926Y-127816703D01*
X196879750Y-127821919D01*
X196899962Y-127829151D01*
X196919368Y-127838330D01*
X196937781Y-127849366D01*
X196955024Y-127862154D01*
X196970930Y-127876570D01*
X196985346Y-127892476D01*
X196998134Y-127909719D01*
X197009170Y-127928132D01*
X197018349Y-127947538D01*
X197025581Y-127967750D01*
X197030797Y-127988574D01*
X197033947Y-128009809D01*
X197035000Y-128031250D01*
X197035000Y-128468750D01*
X197033947Y-128490191D01*
X197030797Y-128511426D01*
X197025581Y-128532250D01*
X197018349Y-128552462D01*
X197009170Y-128571868D01*
X196998134Y-128590281D01*
X196985346Y-128607524D01*
X196970930Y-128623430D01*
X196955024Y-128637846D01*
X196937781Y-128650634D01*
X196919368Y-128661670D01*
X196899962Y-128670849D01*
X196879750Y-128678081D01*
X196858926Y-128683297D01*
X196837691Y-128686447D01*
X196816250Y-128687500D01*
X196303750Y-128687500D01*
X196282309Y-128686447D01*
X196261074Y-128683297D01*
X196240250Y-128678081D01*
X196220038Y-128670849D01*
X196200632Y-128661670D01*
X196182219Y-128650634D01*
X196164976Y-128637846D01*
X196149070Y-128623430D01*
X196134654Y-128607524D01*
X196121866Y-128590281D01*
X196110830Y-128571868D01*
X196101651Y-128552462D01*
X196094419Y-128532250D01*
X196089203Y-128511426D01*
X196086053Y-128490191D01*
X196085000Y-128468750D01*
X196085000Y-128031250D01*
X196086053Y-128009809D01*
X196089203Y-127988574D01*
X196094419Y-127967750D01*
X196101651Y-127947538D01*
X196110830Y-127928132D01*
X196121866Y-127909719D01*
X196134654Y-127892476D01*
X196149070Y-127876570D01*
X196164976Y-127862154D01*
X196182219Y-127849366D01*
X196200632Y-127838330D01*
X196220038Y-127829151D01*
X196240250Y-127821919D01*
X196261074Y-127816703D01*
X196282309Y-127813553D01*
X196303750Y-127812500D01*
X196816250Y-127812500D01*
X196837691Y-127813553D01*
X196837691Y-127813553D01*
G37*
D13*
X196560000Y-128250000D03*
D10*
G36*
X196837691Y-126238553D02*
X196858926Y-126241703D01*
X196879750Y-126246919D01*
X196899962Y-126254151D01*
X196919368Y-126263330D01*
X196937781Y-126274366D01*
X196955024Y-126287154D01*
X196970930Y-126301570D01*
X196985346Y-126317476D01*
X196998134Y-126334719D01*
X197009170Y-126353132D01*
X197018349Y-126372538D01*
X197025581Y-126392750D01*
X197030797Y-126413574D01*
X197033947Y-126434809D01*
X197035000Y-126456250D01*
X197035000Y-126893750D01*
X197033947Y-126915191D01*
X197030797Y-126936426D01*
X197025581Y-126957250D01*
X197018349Y-126977462D01*
X197009170Y-126996868D01*
X196998134Y-127015281D01*
X196985346Y-127032524D01*
X196970930Y-127048430D01*
X196955024Y-127062846D01*
X196937781Y-127075634D01*
X196919368Y-127086670D01*
X196899962Y-127095849D01*
X196879750Y-127103081D01*
X196858926Y-127108297D01*
X196837691Y-127111447D01*
X196816250Y-127112500D01*
X196303750Y-127112500D01*
X196282309Y-127111447D01*
X196261074Y-127108297D01*
X196240250Y-127103081D01*
X196220038Y-127095849D01*
X196200632Y-127086670D01*
X196182219Y-127075634D01*
X196164976Y-127062846D01*
X196149070Y-127048430D01*
X196134654Y-127032524D01*
X196121866Y-127015281D01*
X196110830Y-126996868D01*
X196101651Y-126977462D01*
X196094419Y-126957250D01*
X196089203Y-126936426D01*
X196086053Y-126915191D01*
X196085000Y-126893750D01*
X196085000Y-126456250D01*
X196086053Y-126434809D01*
X196089203Y-126413574D01*
X196094419Y-126392750D01*
X196101651Y-126372538D01*
X196110830Y-126353132D01*
X196121866Y-126334719D01*
X196134654Y-126317476D01*
X196149070Y-126301570D01*
X196164976Y-126287154D01*
X196182219Y-126274366D01*
X196200632Y-126263330D01*
X196220038Y-126254151D01*
X196240250Y-126246919D01*
X196261074Y-126241703D01*
X196282309Y-126238553D01*
X196303750Y-126237500D01*
X196816250Y-126237500D01*
X196837691Y-126238553D01*
X196837691Y-126238553D01*
G37*
D13*
X196560000Y-126675000D03*
G04 #@! TD*
D10*
G04 #@! TO.C,R12*
G36*
X203389191Y-121700053D02*
X203410426Y-121703203D01*
X203431250Y-121708419D01*
X203451462Y-121715651D01*
X203470868Y-121724830D01*
X203489281Y-121735866D01*
X203506524Y-121748654D01*
X203522430Y-121763070D01*
X203536846Y-121778976D01*
X203549634Y-121796219D01*
X203560670Y-121814632D01*
X203569849Y-121834038D01*
X203577081Y-121854250D01*
X203582297Y-121875074D01*
X203585447Y-121896309D01*
X203586500Y-121917750D01*
X203586500Y-122430250D01*
X203585447Y-122451691D01*
X203582297Y-122472926D01*
X203577081Y-122493750D01*
X203569849Y-122513962D01*
X203560670Y-122533368D01*
X203549634Y-122551781D01*
X203536846Y-122569024D01*
X203522430Y-122584930D01*
X203506524Y-122599346D01*
X203489281Y-122612134D01*
X203470868Y-122623170D01*
X203451462Y-122632349D01*
X203431250Y-122639581D01*
X203410426Y-122644797D01*
X203389191Y-122647947D01*
X203367750Y-122649000D01*
X202930250Y-122649000D01*
X202908809Y-122647947D01*
X202887574Y-122644797D01*
X202866750Y-122639581D01*
X202846538Y-122632349D01*
X202827132Y-122623170D01*
X202808719Y-122612134D01*
X202791476Y-122599346D01*
X202775570Y-122584930D01*
X202761154Y-122569024D01*
X202748366Y-122551781D01*
X202737330Y-122533368D01*
X202728151Y-122513962D01*
X202720919Y-122493750D01*
X202715703Y-122472926D01*
X202712553Y-122451691D01*
X202711500Y-122430250D01*
X202711500Y-121917750D01*
X202712553Y-121896309D01*
X202715703Y-121875074D01*
X202720919Y-121854250D01*
X202728151Y-121834038D01*
X202737330Y-121814632D01*
X202748366Y-121796219D01*
X202761154Y-121778976D01*
X202775570Y-121763070D01*
X202791476Y-121748654D01*
X202808719Y-121735866D01*
X202827132Y-121724830D01*
X202846538Y-121715651D01*
X202866750Y-121708419D01*
X202887574Y-121703203D01*
X202908809Y-121700053D01*
X202930250Y-121699000D01*
X203367750Y-121699000D01*
X203389191Y-121700053D01*
X203389191Y-121700053D01*
G37*
D13*
X203149000Y-122174000D03*
D10*
G36*
X204964191Y-121700053D02*
X204985426Y-121703203D01*
X205006250Y-121708419D01*
X205026462Y-121715651D01*
X205045868Y-121724830D01*
X205064281Y-121735866D01*
X205081524Y-121748654D01*
X205097430Y-121763070D01*
X205111846Y-121778976D01*
X205124634Y-121796219D01*
X205135670Y-121814632D01*
X205144849Y-121834038D01*
X205152081Y-121854250D01*
X205157297Y-121875074D01*
X205160447Y-121896309D01*
X205161500Y-121917750D01*
X205161500Y-122430250D01*
X205160447Y-122451691D01*
X205157297Y-122472926D01*
X205152081Y-122493750D01*
X205144849Y-122513962D01*
X205135670Y-122533368D01*
X205124634Y-122551781D01*
X205111846Y-122569024D01*
X205097430Y-122584930D01*
X205081524Y-122599346D01*
X205064281Y-122612134D01*
X205045868Y-122623170D01*
X205026462Y-122632349D01*
X205006250Y-122639581D01*
X204985426Y-122644797D01*
X204964191Y-122647947D01*
X204942750Y-122649000D01*
X204505250Y-122649000D01*
X204483809Y-122647947D01*
X204462574Y-122644797D01*
X204441750Y-122639581D01*
X204421538Y-122632349D01*
X204402132Y-122623170D01*
X204383719Y-122612134D01*
X204366476Y-122599346D01*
X204350570Y-122584930D01*
X204336154Y-122569024D01*
X204323366Y-122551781D01*
X204312330Y-122533368D01*
X204303151Y-122513962D01*
X204295919Y-122493750D01*
X204290703Y-122472926D01*
X204287553Y-122451691D01*
X204286500Y-122430250D01*
X204286500Y-121917750D01*
X204287553Y-121896309D01*
X204290703Y-121875074D01*
X204295919Y-121854250D01*
X204303151Y-121834038D01*
X204312330Y-121814632D01*
X204323366Y-121796219D01*
X204336154Y-121778976D01*
X204350570Y-121763070D01*
X204366476Y-121748654D01*
X204383719Y-121735866D01*
X204402132Y-121724830D01*
X204421538Y-121715651D01*
X204441750Y-121708419D01*
X204462574Y-121703203D01*
X204483809Y-121700053D01*
X204505250Y-121699000D01*
X204942750Y-121699000D01*
X204964191Y-121700053D01*
X204964191Y-121700053D01*
G37*
D13*
X204724000Y-122174000D03*
G04 #@! TD*
D10*
G04 #@! TO.C,R13*
G36*
X187387191Y-108746053D02*
X187408426Y-108749203D01*
X187429250Y-108754419D01*
X187449462Y-108761651D01*
X187468868Y-108770830D01*
X187487281Y-108781866D01*
X187504524Y-108794654D01*
X187520430Y-108809070D01*
X187534846Y-108824976D01*
X187547634Y-108842219D01*
X187558670Y-108860632D01*
X187567849Y-108880038D01*
X187575081Y-108900250D01*
X187580297Y-108921074D01*
X187583447Y-108942309D01*
X187584500Y-108963750D01*
X187584500Y-109476250D01*
X187583447Y-109497691D01*
X187580297Y-109518926D01*
X187575081Y-109539750D01*
X187567849Y-109559962D01*
X187558670Y-109579368D01*
X187547634Y-109597781D01*
X187534846Y-109615024D01*
X187520430Y-109630930D01*
X187504524Y-109645346D01*
X187487281Y-109658134D01*
X187468868Y-109669170D01*
X187449462Y-109678349D01*
X187429250Y-109685581D01*
X187408426Y-109690797D01*
X187387191Y-109693947D01*
X187365750Y-109695000D01*
X186928250Y-109695000D01*
X186906809Y-109693947D01*
X186885574Y-109690797D01*
X186864750Y-109685581D01*
X186844538Y-109678349D01*
X186825132Y-109669170D01*
X186806719Y-109658134D01*
X186789476Y-109645346D01*
X186773570Y-109630930D01*
X186759154Y-109615024D01*
X186746366Y-109597781D01*
X186735330Y-109579368D01*
X186726151Y-109559962D01*
X186718919Y-109539750D01*
X186713703Y-109518926D01*
X186710553Y-109497691D01*
X186709500Y-109476250D01*
X186709500Y-108963750D01*
X186710553Y-108942309D01*
X186713703Y-108921074D01*
X186718919Y-108900250D01*
X186726151Y-108880038D01*
X186735330Y-108860632D01*
X186746366Y-108842219D01*
X186759154Y-108824976D01*
X186773570Y-108809070D01*
X186789476Y-108794654D01*
X186806719Y-108781866D01*
X186825132Y-108770830D01*
X186844538Y-108761651D01*
X186864750Y-108754419D01*
X186885574Y-108749203D01*
X186906809Y-108746053D01*
X186928250Y-108745000D01*
X187365750Y-108745000D01*
X187387191Y-108746053D01*
X187387191Y-108746053D01*
G37*
D13*
X187147000Y-109220000D03*
D10*
G36*
X188962191Y-108746053D02*
X188983426Y-108749203D01*
X189004250Y-108754419D01*
X189024462Y-108761651D01*
X189043868Y-108770830D01*
X189062281Y-108781866D01*
X189079524Y-108794654D01*
X189095430Y-108809070D01*
X189109846Y-108824976D01*
X189122634Y-108842219D01*
X189133670Y-108860632D01*
X189142849Y-108880038D01*
X189150081Y-108900250D01*
X189155297Y-108921074D01*
X189158447Y-108942309D01*
X189159500Y-108963750D01*
X189159500Y-109476250D01*
X189158447Y-109497691D01*
X189155297Y-109518926D01*
X189150081Y-109539750D01*
X189142849Y-109559962D01*
X189133670Y-109579368D01*
X189122634Y-109597781D01*
X189109846Y-109615024D01*
X189095430Y-109630930D01*
X189079524Y-109645346D01*
X189062281Y-109658134D01*
X189043868Y-109669170D01*
X189024462Y-109678349D01*
X189004250Y-109685581D01*
X188983426Y-109690797D01*
X188962191Y-109693947D01*
X188940750Y-109695000D01*
X188503250Y-109695000D01*
X188481809Y-109693947D01*
X188460574Y-109690797D01*
X188439750Y-109685581D01*
X188419538Y-109678349D01*
X188400132Y-109669170D01*
X188381719Y-109658134D01*
X188364476Y-109645346D01*
X188348570Y-109630930D01*
X188334154Y-109615024D01*
X188321366Y-109597781D01*
X188310330Y-109579368D01*
X188301151Y-109559962D01*
X188293919Y-109539750D01*
X188288703Y-109518926D01*
X188285553Y-109497691D01*
X188284500Y-109476250D01*
X188284500Y-108963750D01*
X188285553Y-108942309D01*
X188288703Y-108921074D01*
X188293919Y-108900250D01*
X188301151Y-108880038D01*
X188310330Y-108860632D01*
X188321366Y-108842219D01*
X188334154Y-108824976D01*
X188348570Y-108809070D01*
X188364476Y-108794654D01*
X188381719Y-108781866D01*
X188400132Y-108770830D01*
X188419538Y-108761651D01*
X188439750Y-108754419D01*
X188460574Y-108749203D01*
X188481809Y-108746053D01*
X188503250Y-108745000D01*
X188940750Y-108745000D01*
X188962191Y-108746053D01*
X188962191Y-108746053D01*
G37*
D13*
X188722000Y-109220000D03*
G04 #@! TD*
D10*
G04 #@! TO.C,C6*
G36*
X199108142Y-125243674D02*
X199131803Y-125247184D01*
X199155007Y-125252996D01*
X199177529Y-125261054D01*
X199199153Y-125271282D01*
X199219670Y-125283579D01*
X199238883Y-125297829D01*
X199256607Y-125313893D01*
X199272671Y-125331617D01*
X199286921Y-125350830D01*
X199299218Y-125371347D01*
X199309446Y-125392971D01*
X199317504Y-125415493D01*
X199323316Y-125438697D01*
X199326826Y-125462358D01*
X199328000Y-125486250D01*
X199328000Y-125973750D01*
X199326826Y-125997642D01*
X199323316Y-126021303D01*
X199317504Y-126044507D01*
X199309446Y-126067029D01*
X199299218Y-126088653D01*
X199286921Y-126109170D01*
X199272671Y-126128383D01*
X199256607Y-126146107D01*
X199238883Y-126162171D01*
X199219670Y-126176421D01*
X199199153Y-126188718D01*
X199177529Y-126198946D01*
X199155007Y-126207004D01*
X199131803Y-126212816D01*
X199108142Y-126216326D01*
X199084250Y-126217500D01*
X198171750Y-126217500D01*
X198147858Y-126216326D01*
X198124197Y-126212816D01*
X198100993Y-126207004D01*
X198078471Y-126198946D01*
X198056847Y-126188718D01*
X198036330Y-126176421D01*
X198017117Y-126162171D01*
X197999393Y-126146107D01*
X197983329Y-126128383D01*
X197969079Y-126109170D01*
X197956782Y-126088653D01*
X197946554Y-126067029D01*
X197938496Y-126044507D01*
X197932684Y-126021303D01*
X197929174Y-125997642D01*
X197928000Y-125973750D01*
X197928000Y-125486250D01*
X197929174Y-125462358D01*
X197932684Y-125438697D01*
X197938496Y-125415493D01*
X197946554Y-125392971D01*
X197956782Y-125371347D01*
X197969079Y-125350830D01*
X197983329Y-125331617D01*
X197999393Y-125313893D01*
X198017117Y-125297829D01*
X198036330Y-125283579D01*
X198056847Y-125271282D01*
X198078471Y-125261054D01*
X198100993Y-125252996D01*
X198124197Y-125247184D01*
X198147858Y-125243674D01*
X198171750Y-125242500D01*
X199084250Y-125242500D01*
X199108142Y-125243674D01*
X199108142Y-125243674D01*
G37*
D11*
X198628000Y-125730000D03*
D10*
G36*
X199108142Y-123368674D02*
X199131803Y-123372184D01*
X199155007Y-123377996D01*
X199177529Y-123386054D01*
X199199153Y-123396282D01*
X199219670Y-123408579D01*
X199238883Y-123422829D01*
X199256607Y-123438893D01*
X199272671Y-123456617D01*
X199286921Y-123475830D01*
X199299218Y-123496347D01*
X199309446Y-123517971D01*
X199317504Y-123540493D01*
X199323316Y-123563697D01*
X199326826Y-123587358D01*
X199328000Y-123611250D01*
X199328000Y-124098750D01*
X199326826Y-124122642D01*
X199323316Y-124146303D01*
X199317504Y-124169507D01*
X199309446Y-124192029D01*
X199299218Y-124213653D01*
X199286921Y-124234170D01*
X199272671Y-124253383D01*
X199256607Y-124271107D01*
X199238883Y-124287171D01*
X199219670Y-124301421D01*
X199199153Y-124313718D01*
X199177529Y-124323946D01*
X199155007Y-124332004D01*
X199131803Y-124337816D01*
X199108142Y-124341326D01*
X199084250Y-124342500D01*
X198171750Y-124342500D01*
X198147858Y-124341326D01*
X198124197Y-124337816D01*
X198100993Y-124332004D01*
X198078471Y-124323946D01*
X198056847Y-124313718D01*
X198036330Y-124301421D01*
X198017117Y-124287171D01*
X197999393Y-124271107D01*
X197983329Y-124253383D01*
X197969079Y-124234170D01*
X197956782Y-124213653D01*
X197946554Y-124192029D01*
X197938496Y-124169507D01*
X197932684Y-124146303D01*
X197929174Y-124122642D01*
X197928000Y-124098750D01*
X197928000Y-123611250D01*
X197929174Y-123587358D01*
X197932684Y-123563697D01*
X197938496Y-123540493D01*
X197946554Y-123517971D01*
X197956782Y-123496347D01*
X197969079Y-123475830D01*
X197983329Y-123456617D01*
X197999393Y-123438893D01*
X198017117Y-123422829D01*
X198036330Y-123408579D01*
X198056847Y-123396282D01*
X198078471Y-123386054D01*
X198100993Y-123377996D01*
X198124197Y-123372184D01*
X198147858Y-123368674D01*
X198171750Y-123367500D01*
X199084250Y-123367500D01*
X199108142Y-123368674D01*
X199108142Y-123368674D01*
G37*
D11*
X198628000Y-123855000D03*
G04 #@! TD*
D10*
G04 #@! TO.C,C7*
G36*
X201006142Y-123253174D02*
X201029803Y-123256684D01*
X201053007Y-123262496D01*
X201075529Y-123270554D01*
X201097153Y-123280782D01*
X201117670Y-123293079D01*
X201136883Y-123307329D01*
X201154607Y-123323393D01*
X201170671Y-123341117D01*
X201184921Y-123360330D01*
X201197218Y-123380847D01*
X201207446Y-123402471D01*
X201215504Y-123424993D01*
X201221316Y-123448197D01*
X201224826Y-123471858D01*
X201226000Y-123495750D01*
X201226000Y-124408250D01*
X201224826Y-124432142D01*
X201221316Y-124455803D01*
X201215504Y-124479007D01*
X201207446Y-124501529D01*
X201197218Y-124523153D01*
X201184921Y-124543670D01*
X201170671Y-124562883D01*
X201154607Y-124580607D01*
X201136883Y-124596671D01*
X201117670Y-124610921D01*
X201097153Y-124623218D01*
X201075529Y-124633446D01*
X201053007Y-124641504D01*
X201029803Y-124647316D01*
X201006142Y-124650826D01*
X200982250Y-124652000D01*
X200494750Y-124652000D01*
X200470858Y-124650826D01*
X200447197Y-124647316D01*
X200423993Y-124641504D01*
X200401471Y-124633446D01*
X200379847Y-124623218D01*
X200359330Y-124610921D01*
X200340117Y-124596671D01*
X200322393Y-124580607D01*
X200306329Y-124562883D01*
X200292079Y-124543670D01*
X200279782Y-124523153D01*
X200269554Y-124501529D01*
X200261496Y-124479007D01*
X200255684Y-124455803D01*
X200252174Y-124432142D01*
X200251000Y-124408250D01*
X200251000Y-123495750D01*
X200252174Y-123471858D01*
X200255684Y-123448197D01*
X200261496Y-123424993D01*
X200269554Y-123402471D01*
X200279782Y-123380847D01*
X200292079Y-123360330D01*
X200306329Y-123341117D01*
X200322393Y-123323393D01*
X200340117Y-123307329D01*
X200359330Y-123293079D01*
X200379847Y-123280782D01*
X200401471Y-123270554D01*
X200423993Y-123262496D01*
X200447197Y-123256684D01*
X200470858Y-123253174D01*
X200494750Y-123252000D01*
X200982250Y-123252000D01*
X201006142Y-123253174D01*
X201006142Y-123253174D01*
G37*
D11*
X200738500Y-123952000D03*
D10*
G36*
X202881142Y-123253174D02*
X202904803Y-123256684D01*
X202928007Y-123262496D01*
X202950529Y-123270554D01*
X202972153Y-123280782D01*
X202992670Y-123293079D01*
X203011883Y-123307329D01*
X203029607Y-123323393D01*
X203045671Y-123341117D01*
X203059921Y-123360330D01*
X203072218Y-123380847D01*
X203082446Y-123402471D01*
X203090504Y-123424993D01*
X203096316Y-123448197D01*
X203099826Y-123471858D01*
X203101000Y-123495750D01*
X203101000Y-124408250D01*
X203099826Y-124432142D01*
X203096316Y-124455803D01*
X203090504Y-124479007D01*
X203082446Y-124501529D01*
X203072218Y-124523153D01*
X203059921Y-124543670D01*
X203045671Y-124562883D01*
X203029607Y-124580607D01*
X203011883Y-124596671D01*
X202992670Y-124610921D01*
X202972153Y-124623218D01*
X202950529Y-124633446D01*
X202928007Y-124641504D01*
X202904803Y-124647316D01*
X202881142Y-124650826D01*
X202857250Y-124652000D01*
X202369750Y-124652000D01*
X202345858Y-124650826D01*
X202322197Y-124647316D01*
X202298993Y-124641504D01*
X202276471Y-124633446D01*
X202254847Y-124623218D01*
X202234330Y-124610921D01*
X202215117Y-124596671D01*
X202197393Y-124580607D01*
X202181329Y-124562883D01*
X202167079Y-124543670D01*
X202154782Y-124523153D01*
X202144554Y-124501529D01*
X202136496Y-124479007D01*
X202130684Y-124455803D01*
X202127174Y-124432142D01*
X202126000Y-124408250D01*
X202126000Y-123495750D01*
X202127174Y-123471858D01*
X202130684Y-123448197D01*
X202136496Y-123424993D01*
X202144554Y-123402471D01*
X202154782Y-123380847D01*
X202167079Y-123360330D01*
X202181329Y-123341117D01*
X202197393Y-123323393D01*
X202215117Y-123307329D01*
X202234330Y-123293079D01*
X202254847Y-123280782D01*
X202276471Y-123270554D01*
X202298993Y-123262496D01*
X202322197Y-123256684D01*
X202345858Y-123253174D01*
X202369750Y-123252000D01*
X202857250Y-123252000D01*
X202881142Y-123253174D01*
X202881142Y-123253174D01*
G37*
D11*
X202613500Y-123952000D03*
G04 #@! TD*
D10*
G04 #@! TO.C,R14*
G36*
X185355191Y-128050053D02*
X185376426Y-128053203D01*
X185397250Y-128058419D01*
X185417462Y-128065651D01*
X185436868Y-128074830D01*
X185455281Y-128085866D01*
X185472524Y-128098654D01*
X185488430Y-128113070D01*
X185502846Y-128128976D01*
X185515634Y-128146219D01*
X185526670Y-128164632D01*
X185535849Y-128184038D01*
X185543081Y-128204250D01*
X185548297Y-128225074D01*
X185551447Y-128246309D01*
X185552500Y-128267750D01*
X185552500Y-128780250D01*
X185551447Y-128801691D01*
X185548297Y-128822926D01*
X185543081Y-128843750D01*
X185535849Y-128863962D01*
X185526670Y-128883368D01*
X185515634Y-128901781D01*
X185502846Y-128919024D01*
X185488430Y-128934930D01*
X185472524Y-128949346D01*
X185455281Y-128962134D01*
X185436868Y-128973170D01*
X185417462Y-128982349D01*
X185397250Y-128989581D01*
X185376426Y-128994797D01*
X185355191Y-128997947D01*
X185333750Y-128999000D01*
X184896250Y-128999000D01*
X184874809Y-128997947D01*
X184853574Y-128994797D01*
X184832750Y-128989581D01*
X184812538Y-128982349D01*
X184793132Y-128973170D01*
X184774719Y-128962134D01*
X184757476Y-128949346D01*
X184741570Y-128934930D01*
X184727154Y-128919024D01*
X184714366Y-128901781D01*
X184703330Y-128883368D01*
X184694151Y-128863962D01*
X184686919Y-128843750D01*
X184681703Y-128822926D01*
X184678553Y-128801691D01*
X184677500Y-128780250D01*
X184677500Y-128267750D01*
X184678553Y-128246309D01*
X184681703Y-128225074D01*
X184686919Y-128204250D01*
X184694151Y-128184038D01*
X184703330Y-128164632D01*
X184714366Y-128146219D01*
X184727154Y-128128976D01*
X184741570Y-128113070D01*
X184757476Y-128098654D01*
X184774719Y-128085866D01*
X184793132Y-128074830D01*
X184812538Y-128065651D01*
X184832750Y-128058419D01*
X184853574Y-128053203D01*
X184874809Y-128050053D01*
X184896250Y-128049000D01*
X185333750Y-128049000D01*
X185355191Y-128050053D01*
X185355191Y-128050053D01*
G37*
D13*
X185115000Y-128524000D03*
D10*
G36*
X186930191Y-128050053D02*
X186951426Y-128053203D01*
X186972250Y-128058419D01*
X186992462Y-128065651D01*
X187011868Y-128074830D01*
X187030281Y-128085866D01*
X187047524Y-128098654D01*
X187063430Y-128113070D01*
X187077846Y-128128976D01*
X187090634Y-128146219D01*
X187101670Y-128164632D01*
X187110849Y-128184038D01*
X187118081Y-128204250D01*
X187123297Y-128225074D01*
X187126447Y-128246309D01*
X187127500Y-128267750D01*
X187127500Y-128780250D01*
X187126447Y-128801691D01*
X187123297Y-128822926D01*
X187118081Y-128843750D01*
X187110849Y-128863962D01*
X187101670Y-128883368D01*
X187090634Y-128901781D01*
X187077846Y-128919024D01*
X187063430Y-128934930D01*
X187047524Y-128949346D01*
X187030281Y-128962134D01*
X187011868Y-128973170D01*
X186992462Y-128982349D01*
X186972250Y-128989581D01*
X186951426Y-128994797D01*
X186930191Y-128997947D01*
X186908750Y-128999000D01*
X186471250Y-128999000D01*
X186449809Y-128997947D01*
X186428574Y-128994797D01*
X186407750Y-128989581D01*
X186387538Y-128982349D01*
X186368132Y-128973170D01*
X186349719Y-128962134D01*
X186332476Y-128949346D01*
X186316570Y-128934930D01*
X186302154Y-128919024D01*
X186289366Y-128901781D01*
X186278330Y-128883368D01*
X186269151Y-128863962D01*
X186261919Y-128843750D01*
X186256703Y-128822926D01*
X186253553Y-128801691D01*
X186252500Y-128780250D01*
X186252500Y-128267750D01*
X186253553Y-128246309D01*
X186256703Y-128225074D01*
X186261919Y-128204250D01*
X186269151Y-128184038D01*
X186278330Y-128164632D01*
X186289366Y-128146219D01*
X186302154Y-128128976D01*
X186316570Y-128113070D01*
X186332476Y-128098654D01*
X186349719Y-128085866D01*
X186368132Y-128074830D01*
X186387538Y-128065651D01*
X186407750Y-128058419D01*
X186428574Y-128053203D01*
X186449809Y-128050053D01*
X186471250Y-128049000D01*
X186908750Y-128049000D01*
X186930191Y-128050053D01*
X186930191Y-128050053D01*
G37*
D13*
X186690000Y-128524000D03*
G04 #@! TD*
D10*
G04 #@! TO.C,R15*
G36*
X181379691Y-122194553D02*
X181400926Y-122197703D01*
X181421750Y-122202919D01*
X181441962Y-122210151D01*
X181461368Y-122219330D01*
X181479781Y-122230366D01*
X181497024Y-122243154D01*
X181512930Y-122257570D01*
X181527346Y-122273476D01*
X181540134Y-122290719D01*
X181551170Y-122309132D01*
X181560349Y-122328538D01*
X181567581Y-122348750D01*
X181572797Y-122369574D01*
X181575947Y-122390809D01*
X181577000Y-122412250D01*
X181577000Y-122849750D01*
X181575947Y-122871191D01*
X181572797Y-122892426D01*
X181567581Y-122913250D01*
X181560349Y-122933462D01*
X181551170Y-122952868D01*
X181540134Y-122971281D01*
X181527346Y-122988524D01*
X181512930Y-123004430D01*
X181497024Y-123018846D01*
X181479781Y-123031634D01*
X181461368Y-123042670D01*
X181441962Y-123051849D01*
X181421750Y-123059081D01*
X181400926Y-123064297D01*
X181379691Y-123067447D01*
X181358250Y-123068500D01*
X180845750Y-123068500D01*
X180824309Y-123067447D01*
X180803074Y-123064297D01*
X180782250Y-123059081D01*
X180762038Y-123051849D01*
X180742632Y-123042670D01*
X180724219Y-123031634D01*
X180706976Y-123018846D01*
X180691070Y-123004430D01*
X180676654Y-122988524D01*
X180663866Y-122971281D01*
X180652830Y-122952868D01*
X180643651Y-122933462D01*
X180636419Y-122913250D01*
X180631203Y-122892426D01*
X180628053Y-122871191D01*
X180627000Y-122849750D01*
X180627000Y-122412250D01*
X180628053Y-122390809D01*
X180631203Y-122369574D01*
X180636419Y-122348750D01*
X180643651Y-122328538D01*
X180652830Y-122309132D01*
X180663866Y-122290719D01*
X180676654Y-122273476D01*
X180691070Y-122257570D01*
X180706976Y-122243154D01*
X180724219Y-122230366D01*
X180742632Y-122219330D01*
X180762038Y-122210151D01*
X180782250Y-122202919D01*
X180803074Y-122197703D01*
X180824309Y-122194553D01*
X180845750Y-122193500D01*
X181358250Y-122193500D01*
X181379691Y-122194553D01*
X181379691Y-122194553D01*
G37*
D13*
X181102000Y-122631000D03*
D10*
G36*
X181379691Y-123769553D02*
X181400926Y-123772703D01*
X181421750Y-123777919D01*
X181441962Y-123785151D01*
X181461368Y-123794330D01*
X181479781Y-123805366D01*
X181497024Y-123818154D01*
X181512930Y-123832570D01*
X181527346Y-123848476D01*
X181540134Y-123865719D01*
X181551170Y-123884132D01*
X181560349Y-123903538D01*
X181567581Y-123923750D01*
X181572797Y-123944574D01*
X181575947Y-123965809D01*
X181577000Y-123987250D01*
X181577000Y-124424750D01*
X181575947Y-124446191D01*
X181572797Y-124467426D01*
X181567581Y-124488250D01*
X181560349Y-124508462D01*
X181551170Y-124527868D01*
X181540134Y-124546281D01*
X181527346Y-124563524D01*
X181512930Y-124579430D01*
X181497024Y-124593846D01*
X181479781Y-124606634D01*
X181461368Y-124617670D01*
X181441962Y-124626849D01*
X181421750Y-124634081D01*
X181400926Y-124639297D01*
X181379691Y-124642447D01*
X181358250Y-124643500D01*
X180845750Y-124643500D01*
X180824309Y-124642447D01*
X180803074Y-124639297D01*
X180782250Y-124634081D01*
X180762038Y-124626849D01*
X180742632Y-124617670D01*
X180724219Y-124606634D01*
X180706976Y-124593846D01*
X180691070Y-124579430D01*
X180676654Y-124563524D01*
X180663866Y-124546281D01*
X180652830Y-124527868D01*
X180643651Y-124508462D01*
X180636419Y-124488250D01*
X180631203Y-124467426D01*
X180628053Y-124446191D01*
X180627000Y-124424750D01*
X180627000Y-123987250D01*
X180628053Y-123965809D01*
X180631203Y-123944574D01*
X180636419Y-123923750D01*
X180643651Y-123903538D01*
X180652830Y-123884132D01*
X180663866Y-123865719D01*
X180676654Y-123848476D01*
X180691070Y-123832570D01*
X180706976Y-123818154D01*
X180724219Y-123805366D01*
X180742632Y-123794330D01*
X180762038Y-123785151D01*
X180782250Y-123777919D01*
X180803074Y-123772703D01*
X180824309Y-123769553D01*
X180845750Y-123768500D01*
X181358250Y-123768500D01*
X181379691Y-123769553D01*
X181379691Y-123769553D01*
G37*
D13*
X181102000Y-124206000D03*
G04 #@! TD*
M02*
