G04 #@! TF.GenerationSoftware,KiCad,Pcbnew,(5.0.1)-rc2*
G04 #@! TF.CreationDate,2019-05-10T17:14:01-07:00*
G04 #@! TF.ProjectId,bullercounter,62756C6C6572636F756E7465722E6B69,rev?*
G04 #@! TF.SameCoordinates,Original*
G04 #@! TF.FileFunction,Paste,Top*
G04 #@! TF.FilePolarity,Positive*
%FSLAX46Y46*%
G04 Gerber Fmt 4.6, Leading zero omitted, Abs format (unit mm)*
G04 Created by KiCad (PCBNEW (5.0.1)-rc2) date 5/10/2019 5:14:01 PM*
%MOMM*%
%LPD*%
G01*
G04 APERTURE LIST*
%ADD10R,2.500000X1.430000*%
%ADD11R,2.000000X0.400000*%
%ADD12C,0.100000*%
%ADD13C,0.975000*%
%ADD14R,1.000000X1.000000*%
%ADD15R,0.740000X2.400000*%
%ADD16C,0.875000*%
%ADD17R,0.650000X1.060000*%
%ADD18R,1.060000X0.650000*%
%ADD19R,1.000000X1.500000*%
%ADD20R,1.500000X1.000000*%
G04 APERTURE END LIST*
D10*
G04 #@! TO.C,J1*
X182003000Y-113952000D03*
D11*
X185403000Y-110802000D03*
X185403000Y-111452000D03*
X185403000Y-112102000D03*
X185403000Y-112752000D03*
X185403000Y-113402000D03*
D10*
X182003000Y-110267000D03*
G04 #@! TD*
D12*
G04 #@! TO.C,D1*
G36*
X193067642Y-107301174D02*
X193091303Y-107304684D01*
X193114507Y-107310496D01*
X193137029Y-107318554D01*
X193158653Y-107328782D01*
X193179170Y-107341079D01*
X193198383Y-107355329D01*
X193216107Y-107371393D01*
X193232171Y-107389117D01*
X193246421Y-107408330D01*
X193258718Y-107428847D01*
X193268946Y-107450471D01*
X193277004Y-107472993D01*
X193282816Y-107496197D01*
X193286326Y-107519858D01*
X193287500Y-107543750D01*
X193287500Y-108456250D01*
X193286326Y-108480142D01*
X193282816Y-108503803D01*
X193277004Y-108527007D01*
X193268946Y-108549529D01*
X193258718Y-108571153D01*
X193246421Y-108591670D01*
X193232171Y-108610883D01*
X193216107Y-108628607D01*
X193198383Y-108644671D01*
X193179170Y-108658921D01*
X193158653Y-108671218D01*
X193137029Y-108681446D01*
X193114507Y-108689504D01*
X193091303Y-108695316D01*
X193067642Y-108698826D01*
X193043750Y-108700000D01*
X192556250Y-108700000D01*
X192532358Y-108698826D01*
X192508697Y-108695316D01*
X192485493Y-108689504D01*
X192462971Y-108681446D01*
X192441347Y-108671218D01*
X192420830Y-108658921D01*
X192401617Y-108644671D01*
X192383893Y-108628607D01*
X192367829Y-108610883D01*
X192353579Y-108591670D01*
X192341282Y-108571153D01*
X192331054Y-108549529D01*
X192322996Y-108527007D01*
X192317184Y-108503803D01*
X192313674Y-108480142D01*
X192312500Y-108456250D01*
X192312500Y-107543750D01*
X192313674Y-107519858D01*
X192317184Y-107496197D01*
X192322996Y-107472993D01*
X192331054Y-107450471D01*
X192341282Y-107428847D01*
X192353579Y-107408330D01*
X192367829Y-107389117D01*
X192383893Y-107371393D01*
X192401617Y-107355329D01*
X192420830Y-107341079D01*
X192441347Y-107328782D01*
X192462971Y-107318554D01*
X192485493Y-107310496D01*
X192508697Y-107304684D01*
X192532358Y-107301174D01*
X192556250Y-107300000D01*
X193043750Y-107300000D01*
X193067642Y-107301174D01*
X193067642Y-107301174D01*
G37*
D13*
X192800000Y-108000000D03*
D12*
G36*
X191192642Y-107301174D02*
X191216303Y-107304684D01*
X191239507Y-107310496D01*
X191262029Y-107318554D01*
X191283653Y-107328782D01*
X191304170Y-107341079D01*
X191323383Y-107355329D01*
X191341107Y-107371393D01*
X191357171Y-107389117D01*
X191371421Y-107408330D01*
X191383718Y-107428847D01*
X191393946Y-107450471D01*
X191402004Y-107472993D01*
X191407816Y-107496197D01*
X191411326Y-107519858D01*
X191412500Y-107543750D01*
X191412500Y-108456250D01*
X191411326Y-108480142D01*
X191407816Y-108503803D01*
X191402004Y-108527007D01*
X191393946Y-108549529D01*
X191383718Y-108571153D01*
X191371421Y-108591670D01*
X191357171Y-108610883D01*
X191341107Y-108628607D01*
X191323383Y-108644671D01*
X191304170Y-108658921D01*
X191283653Y-108671218D01*
X191262029Y-108681446D01*
X191239507Y-108689504D01*
X191216303Y-108695316D01*
X191192642Y-108698826D01*
X191168750Y-108700000D01*
X190681250Y-108700000D01*
X190657358Y-108698826D01*
X190633697Y-108695316D01*
X190610493Y-108689504D01*
X190587971Y-108681446D01*
X190566347Y-108671218D01*
X190545830Y-108658921D01*
X190526617Y-108644671D01*
X190508893Y-108628607D01*
X190492829Y-108610883D01*
X190478579Y-108591670D01*
X190466282Y-108571153D01*
X190456054Y-108549529D01*
X190447996Y-108527007D01*
X190442184Y-108503803D01*
X190438674Y-108480142D01*
X190437500Y-108456250D01*
X190437500Y-107543750D01*
X190438674Y-107519858D01*
X190442184Y-107496197D01*
X190447996Y-107472993D01*
X190456054Y-107450471D01*
X190466282Y-107428847D01*
X190478579Y-107408330D01*
X190492829Y-107389117D01*
X190508893Y-107371393D01*
X190526617Y-107355329D01*
X190545830Y-107341079D01*
X190566347Y-107328782D01*
X190587971Y-107318554D01*
X190610493Y-107310496D01*
X190633697Y-107304684D01*
X190657358Y-107301174D01*
X190681250Y-107300000D01*
X191168750Y-107300000D01*
X191192642Y-107301174D01*
X191192642Y-107301174D01*
G37*
D13*
X190925000Y-108000000D03*
G04 #@! TD*
D14*
G04 #@! TO.C,D2*
X186250000Y-117400000D03*
X183750000Y-117400000D03*
G04 #@! TD*
D15*
G04 #@! TO.C,J2*
X199540000Y-109650000D03*
X199540000Y-113550000D03*
X198270000Y-109650000D03*
X198270000Y-113550000D03*
X197000000Y-109650000D03*
X197000000Y-113550000D03*
X195730000Y-109650000D03*
X195730000Y-113550000D03*
X194460000Y-109650000D03*
X194460000Y-113550000D03*
G04 #@! TD*
D12*
G04 #@! TO.C,L4*
G36*
X192680142Y-113038674D02*
X192703803Y-113042184D01*
X192727007Y-113047996D01*
X192749529Y-113056054D01*
X192771153Y-113066282D01*
X192791670Y-113078579D01*
X192810883Y-113092829D01*
X192828607Y-113108893D01*
X192844671Y-113126617D01*
X192858921Y-113145830D01*
X192871218Y-113166347D01*
X192881446Y-113187971D01*
X192889504Y-113210493D01*
X192895316Y-113233697D01*
X192898826Y-113257358D01*
X192900000Y-113281250D01*
X192900000Y-113768750D01*
X192898826Y-113792642D01*
X192895316Y-113816303D01*
X192889504Y-113839507D01*
X192881446Y-113862029D01*
X192871218Y-113883653D01*
X192858921Y-113904170D01*
X192844671Y-113923383D01*
X192828607Y-113941107D01*
X192810883Y-113957171D01*
X192791670Y-113971421D01*
X192771153Y-113983718D01*
X192749529Y-113993946D01*
X192727007Y-114002004D01*
X192703803Y-114007816D01*
X192680142Y-114011326D01*
X192656250Y-114012500D01*
X191743750Y-114012500D01*
X191719858Y-114011326D01*
X191696197Y-114007816D01*
X191672993Y-114002004D01*
X191650471Y-113993946D01*
X191628847Y-113983718D01*
X191608330Y-113971421D01*
X191589117Y-113957171D01*
X191571393Y-113941107D01*
X191555329Y-113923383D01*
X191541079Y-113904170D01*
X191528782Y-113883653D01*
X191518554Y-113862029D01*
X191510496Y-113839507D01*
X191504684Y-113816303D01*
X191501174Y-113792642D01*
X191500000Y-113768750D01*
X191500000Y-113281250D01*
X191501174Y-113257358D01*
X191504684Y-113233697D01*
X191510496Y-113210493D01*
X191518554Y-113187971D01*
X191528782Y-113166347D01*
X191541079Y-113145830D01*
X191555329Y-113126617D01*
X191571393Y-113108893D01*
X191589117Y-113092829D01*
X191608330Y-113078579D01*
X191628847Y-113066282D01*
X191650471Y-113056054D01*
X191672993Y-113047996D01*
X191696197Y-113042184D01*
X191719858Y-113038674D01*
X191743750Y-113037500D01*
X192656250Y-113037500D01*
X192680142Y-113038674D01*
X192680142Y-113038674D01*
G37*
D13*
X192200000Y-113525000D03*
D12*
G36*
X192680142Y-114913674D02*
X192703803Y-114917184D01*
X192727007Y-114922996D01*
X192749529Y-114931054D01*
X192771153Y-114941282D01*
X192791670Y-114953579D01*
X192810883Y-114967829D01*
X192828607Y-114983893D01*
X192844671Y-115001617D01*
X192858921Y-115020830D01*
X192871218Y-115041347D01*
X192881446Y-115062971D01*
X192889504Y-115085493D01*
X192895316Y-115108697D01*
X192898826Y-115132358D01*
X192900000Y-115156250D01*
X192900000Y-115643750D01*
X192898826Y-115667642D01*
X192895316Y-115691303D01*
X192889504Y-115714507D01*
X192881446Y-115737029D01*
X192871218Y-115758653D01*
X192858921Y-115779170D01*
X192844671Y-115798383D01*
X192828607Y-115816107D01*
X192810883Y-115832171D01*
X192791670Y-115846421D01*
X192771153Y-115858718D01*
X192749529Y-115868946D01*
X192727007Y-115877004D01*
X192703803Y-115882816D01*
X192680142Y-115886326D01*
X192656250Y-115887500D01*
X191743750Y-115887500D01*
X191719858Y-115886326D01*
X191696197Y-115882816D01*
X191672993Y-115877004D01*
X191650471Y-115868946D01*
X191628847Y-115858718D01*
X191608330Y-115846421D01*
X191589117Y-115832171D01*
X191571393Y-115816107D01*
X191555329Y-115798383D01*
X191541079Y-115779170D01*
X191528782Y-115758653D01*
X191518554Y-115737029D01*
X191510496Y-115714507D01*
X191504684Y-115691303D01*
X191501174Y-115667642D01*
X191500000Y-115643750D01*
X191500000Y-115156250D01*
X191501174Y-115132358D01*
X191504684Y-115108697D01*
X191510496Y-115085493D01*
X191518554Y-115062971D01*
X191528782Y-115041347D01*
X191541079Y-115020830D01*
X191555329Y-115001617D01*
X191571393Y-114983893D01*
X191589117Y-114967829D01*
X191608330Y-114953579D01*
X191628847Y-114941282D01*
X191650471Y-114931054D01*
X191672993Y-114922996D01*
X191696197Y-114917184D01*
X191719858Y-114913674D01*
X191743750Y-114912500D01*
X192656250Y-114912500D01*
X192680142Y-114913674D01*
X192680142Y-114913674D01*
G37*
D13*
X192200000Y-115400000D03*
G04 #@! TD*
D12*
G04 #@! TO.C,R7*
G36*
X201445691Y-108783553D02*
X201466926Y-108786703D01*
X201487750Y-108791919D01*
X201507962Y-108799151D01*
X201527368Y-108808330D01*
X201545781Y-108819366D01*
X201563024Y-108832154D01*
X201578930Y-108846570D01*
X201593346Y-108862476D01*
X201606134Y-108879719D01*
X201617170Y-108898132D01*
X201626349Y-108917538D01*
X201633581Y-108937750D01*
X201638797Y-108958574D01*
X201641947Y-108979809D01*
X201643000Y-109001250D01*
X201643000Y-109438750D01*
X201641947Y-109460191D01*
X201638797Y-109481426D01*
X201633581Y-109502250D01*
X201626349Y-109522462D01*
X201617170Y-109541868D01*
X201606134Y-109560281D01*
X201593346Y-109577524D01*
X201578930Y-109593430D01*
X201563024Y-109607846D01*
X201545781Y-109620634D01*
X201527368Y-109631670D01*
X201507962Y-109640849D01*
X201487750Y-109648081D01*
X201466926Y-109653297D01*
X201445691Y-109656447D01*
X201424250Y-109657500D01*
X200911750Y-109657500D01*
X200890309Y-109656447D01*
X200869074Y-109653297D01*
X200848250Y-109648081D01*
X200828038Y-109640849D01*
X200808632Y-109631670D01*
X200790219Y-109620634D01*
X200772976Y-109607846D01*
X200757070Y-109593430D01*
X200742654Y-109577524D01*
X200729866Y-109560281D01*
X200718830Y-109541868D01*
X200709651Y-109522462D01*
X200702419Y-109502250D01*
X200697203Y-109481426D01*
X200694053Y-109460191D01*
X200693000Y-109438750D01*
X200693000Y-109001250D01*
X200694053Y-108979809D01*
X200697203Y-108958574D01*
X200702419Y-108937750D01*
X200709651Y-108917538D01*
X200718830Y-108898132D01*
X200729866Y-108879719D01*
X200742654Y-108862476D01*
X200757070Y-108846570D01*
X200772976Y-108832154D01*
X200790219Y-108819366D01*
X200808632Y-108808330D01*
X200828038Y-108799151D01*
X200848250Y-108791919D01*
X200869074Y-108786703D01*
X200890309Y-108783553D01*
X200911750Y-108782500D01*
X201424250Y-108782500D01*
X201445691Y-108783553D01*
X201445691Y-108783553D01*
G37*
D16*
X201168000Y-109220000D03*
D12*
G36*
X201445691Y-107208553D02*
X201466926Y-107211703D01*
X201487750Y-107216919D01*
X201507962Y-107224151D01*
X201527368Y-107233330D01*
X201545781Y-107244366D01*
X201563024Y-107257154D01*
X201578930Y-107271570D01*
X201593346Y-107287476D01*
X201606134Y-107304719D01*
X201617170Y-107323132D01*
X201626349Y-107342538D01*
X201633581Y-107362750D01*
X201638797Y-107383574D01*
X201641947Y-107404809D01*
X201643000Y-107426250D01*
X201643000Y-107863750D01*
X201641947Y-107885191D01*
X201638797Y-107906426D01*
X201633581Y-107927250D01*
X201626349Y-107947462D01*
X201617170Y-107966868D01*
X201606134Y-107985281D01*
X201593346Y-108002524D01*
X201578930Y-108018430D01*
X201563024Y-108032846D01*
X201545781Y-108045634D01*
X201527368Y-108056670D01*
X201507962Y-108065849D01*
X201487750Y-108073081D01*
X201466926Y-108078297D01*
X201445691Y-108081447D01*
X201424250Y-108082500D01*
X200911750Y-108082500D01*
X200890309Y-108081447D01*
X200869074Y-108078297D01*
X200848250Y-108073081D01*
X200828038Y-108065849D01*
X200808632Y-108056670D01*
X200790219Y-108045634D01*
X200772976Y-108032846D01*
X200757070Y-108018430D01*
X200742654Y-108002524D01*
X200729866Y-107985281D01*
X200718830Y-107966868D01*
X200709651Y-107947462D01*
X200702419Y-107927250D01*
X200697203Y-107906426D01*
X200694053Y-107885191D01*
X200693000Y-107863750D01*
X200693000Y-107426250D01*
X200694053Y-107404809D01*
X200697203Y-107383574D01*
X200702419Y-107362750D01*
X200709651Y-107342538D01*
X200718830Y-107323132D01*
X200729866Y-107304719D01*
X200742654Y-107287476D01*
X200757070Y-107271570D01*
X200772976Y-107257154D01*
X200790219Y-107244366D01*
X200808632Y-107233330D01*
X200828038Y-107224151D01*
X200848250Y-107216919D01*
X200869074Y-107211703D01*
X200890309Y-107208553D01*
X200911750Y-107207500D01*
X201424250Y-107207500D01*
X201445691Y-107208553D01*
X201445691Y-107208553D01*
G37*
D16*
X201168000Y-107645000D03*
G04 #@! TD*
D12*
G04 #@! TO.C,R10*
G36*
X199579191Y-115350053D02*
X199600426Y-115353203D01*
X199621250Y-115358419D01*
X199641462Y-115365651D01*
X199660868Y-115374830D01*
X199679281Y-115385866D01*
X199696524Y-115398654D01*
X199712430Y-115413070D01*
X199726846Y-115428976D01*
X199739634Y-115446219D01*
X199750670Y-115464632D01*
X199759849Y-115484038D01*
X199767081Y-115504250D01*
X199772297Y-115525074D01*
X199775447Y-115546309D01*
X199776500Y-115567750D01*
X199776500Y-116080250D01*
X199775447Y-116101691D01*
X199772297Y-116122926D01*
X199767081Y-116143750D01*
X199759849Y-116163962D01*
X199750670Y-116183368D01*
X199739634Y-116201781D01*
X199726846Y-116219024D01*
X199712430Y-116234930D01*
X199696524Y-116249346D01*
X199679281Y-116262134D01*
X199660868Y-116273170D01*
X199641462Y-116282349D01*
X199621250Y-116289581D01*
X199600426Y-116294797D01*
X199579191Y-116297947D01*
X199557750Y-116299000D01*
X199120250Y-116299000D01*
X199098809Y-116297947D01*
X199077574Y-116294797D01*
X199056750Y-116289581D01*
X199036538Y-116282349D01*
X199017132Y-116273170D01*
X198998719Y-116262134D01*
X198981476Y-116249346D01*
X198965570Y-116234930D01*
X198951154Y-116219024D01*
X198938366Y-116201781D01*
X198927330Y-116183368D01*
X198918151Y-116163962D01*
X198910919Y-116143750D01*
X198905703Y-116122926D01*
X198902553Y-116101691D01*
X198901500Y-116080250D01*
X198901500Y-115567750D01*
X198902553Y-115546309D01*
X198905703Y-115525074D01*
X198910919Y-115504250D01*
X198918151Y-115484038D01*
X198927330Y-115464632D01*
X198938366Y-115446219D01*
X198951154Y-115428976D01*
X198965570Y-115413070D01*
X198981476Y-115398654D01*
X198998719Y-115385866D01*
X199017132Y-115374830D01*
X199036538Y-115365651D01*
X199056750Y-115358419D01*
X199077574Y-115353203D01*
X199098809Y-115350053D01*
X199120250Y-115349000D01*
X199557750Y-115349000D01*
X199579191Y-115350053D01*
X199579191Y-115350053D01*
G37*
D16*
X199339000Y-115824000D03*
D12*
G36*
X201154191Y-115350053D02*
X201175426Y-115353203D01*
X201196250Y-115358419D01*
X201216462Y-115365651D01*
X201235868Y-115374830D01*
X201254281Y-115385866D01*
X201271524Y-115398654D01*
X201287430Y-115413070D01*
X201301846Y-115428976D01*
X201314634Y-115446219D01*
X201325670Y-115464632D01*
X201334849Y-115484038D01*
X201342081Y-115504250D01*
X201347297Y-115525074D01*
X201350447Y-115546309D01*
X201351500Y-115567750D01*
X201351500Y-116080250D01*
X201350447Y-116101691D01*
X201347297Y-116122926D01*
X201342081Y-116143750D01*
X201334849Y-116163962D01*
X201325670Y-116183368D01*
X201314634Y-116201781D01*
X201301846Y-116219024D01*
X201287430Y-116234930D01*
X201271524Y-116249346D01*
X201254281Y-116262134D01*
X201235868Y-116273170D01*
X201216462Y-116282349D01*
X201196250Y-116289581D01*
X201175426Y-116294797D01*
X201154191Y-116297947D01*
X201132750Y-116299000D01*
X200695250Y-116299000D01*
X200673809Y-116297947D01*
X200652574Y-116294797D01*
X200631750Y-116289581D01*
X200611538Y-116282349D01*
X200592132Y-116273170D01*
X200573719Y-116262134D01*
X200556476Y-116249346D01*
X200540570Y-116234930D01*
X200526154Y-116219024D01*
X200513366Y-116201781D01*
X200502330Y-116183368D01*
X200493151Y-116163962D01*
X200485919Y-116143750D01*
X200480703Y-116122926D01*
X200477553Y-116101691D01*
X200476500Y-116080250D01*
X200476500Y-115567750D01*
X200477553Y-115546309D01*
X200480703Y-115525074D01*
X200485919Y-115504250D01*
X200493151Y-115484038D01*
X200502330Y-115464632D01*
X200513366Y-115446219D01*
X200526154Y-115428976D01*
X200540570Y-115413070D01*
X200556476Y-115398654D01*
X200573719Y-115385866D01*
X200592132Y-115374830D01*
X200611538Y-115365651D01*
X200631750Y-115358419D01*
X200652574Y-115353203D01*
X200673809Y-115350053D01*
X200695250Y-115349000D01*
X201132750Y-115349000D01*
X201154191Y-115350053D01*
X201154191Y-115350053D01*
G37*
D16*
X200914000Y-115824000D03*
G04 #@! TD*
D17*
G04 #@! TO.C,U1*
X199499180Y-104040760D03*
X201399180Y-104040760D03*
X201399180Y-106240760D03*
X200449180Y-106240760D03*
X199499180Y-106240760D03*
G04 #@! TD*
D18*
G04 #@! TO.C,U7*
X187800000Y-114300000D03*
X187800000Y-115250000D03*
X187800000Y-116200000D03*
X190000000Y-116200000D03*
X190000000Y-114300000D03*
G04 #@! TD*
D12*
G04 #@! TO.C,C3*
G36*
X202410142Y-110922674D02*
X202433803Y-110926184D01*
X202457007Y-110931996D01*
X202479529Y-110940054D01*
X202501153Y-110950282D01*
X202521670Y-110962579D01*
X202540883Y-110976829D01*
X202558607Y-110992893D01*
X202574671Y-111010617D01*
X202588921Y-111029830D01*
X202601218Y-111050347D01*
X202611446Y-111071971D01*
X202619504Y-111094493D01*
X202625316Y-111117697D01*
X202628826Y-111141358D01*
X202630000Y-111165250D01*
X202630000Y-111652750D01*
X202628826Y-111676642D01*
X202625316Y-111700303D01*
X202619504Y-111723507D01*
X202611446Y-111746029D01*
X202601218Y-111767653D01*
X202588921Y-111788170D01*
X202574671Y-111807383D01*
X202558607Y-111825107D01*
X202540883Y-111841171D01*
X202521670Y-111855421D01*
X202501153Y-111867718D01*
X202479529Y-111877946D01*
X202457007Y-111886004D01*
X202433803Y-111891816D01*
X202410142Y-111895326D01*
X202386250Y-111896500D01*
X201473750Y-111896500D01*
X201449858Y-111895326D01*
X201426197Y-111891816D01*
X201402993Y-111886004D01*
X201380471Y-111877946D01*
X201358847Y-111867718D01*
X201338330Y-111855421D01*
X201319117Y-111841171D01*
X201301393Y-111825107D01*
X201285329Y-111807383D01*
X201271079Y-111788170D01*
X201258782Y-111767653D01*
X201248554Y-111746029D01*
X201240496Y-111723507D01*
X201234684Y-111700303D01*
X201231174Y-111676642D01*
X201230000Y-111652750D01*
X201230000Y-111165250D01*
X201231174Y-111141358D01*
X201234684Y-111117697D01*
X201240496Y-111094493D01*
X201248554Y-111071971D01*
X201258782Y-111050347D01*
X201271079Y-111029830D01*
X201285329Y-111010617D01*
X201301393Y-110992893D01*
X201319117Y-110976829D01*
X201338330Y-110962579D01*
X201358847Y-110950282D01*
X201380471Y-110940054D01*
X201402993Y-110931996D01*
X201426197Y-110926184D01*
X201449858Y-110922674D01*
X201473750Y-110921500D01*
X202386250Y-110921500D01*
X202410142Y-110922674D01*
X202410142Y-110922674D01*
G37*
D13*
X201930000Y-111409000D03*
D12*
G36*
X202410142Y-112797674D02*
X202433803Y-112801184D01*
X202457007Y-112806996D01*
X202479529Y-112815054D01*
X202501153Y-112825282D01*
X202521670Y-112837579D01*
X202540883Y-112851829D01*
X202558607Y-112867893D01*
X202574671Y-112885617D01*
X202588921Y-112904830D01*
X202601218Y-112925347D01*
X202611446Y-112946971D01*
X202619504Y-112969493D01*
X202625316Y-112992697D01*
X202628826Y-113016358D01*
X202630000Y-113040250D01*
X202630000Y-113527750D01*
X202628826Y-113551642D01*
X202625316Y-113575303D01*
X202619504Y-113598507D01*
X202611446Y-113621029D01*
X202601218Y-113642653D01*
X202588921Y-113663170D01*
X202574671Y-113682383D01*
X202558607Y-113700107D01*
X202540883Y-113716171D01*
X202521670Y-113730421D01*
X202501153Y-113742718D01*
X202479529Y-113752946D01*
X202457007Y-113761004D01*
X202433803Y-113766816D01*
X202410142Y-113770326D01*
X202386250Y-113771500D01*
X201473750Y-113771500D01*
X201449858Y-113770326D01*
X201426197Y-113766816D01*
X201402993Y-113761004D01*
X201380471Y-113752946D01*
X201358847Y-113742718D01*
X201338330Y-113730421D01*
X201319117Y-113716171D01*
X201301393Y-113700107D01*
X201285329Y-113682383D01*
X201271079Y-113663170D01*
X201258782Y-113642653D01*
X201248554Y-113621029D01*
X201240496Y-113598507D01*
X201234684Y-113575303D01*
X201231174Y-113551642D01*
X201230000Y-113527750D01*
X201230000Y-113040250D01*
X201231174Y-113016358D01*
X201234684Y-112992697D01*
X201240496Y-112969493D01*
X201248554Y-112946971D01*
X201258782Y-112925347D01*
X201271079Y-112904830D01*
X201285329Y-112885617D01*
X201301393Y-112867893D01*
X201319117Y-112851829D01*
X201338330Y-112837579D01*
X201358847Y-112825282D01*
X201380471Y-112815054D01*
X201402993Y-112806996D01*
X201426197Y-112801184D01*
X201449858Y-112797674D01*
X201473750Y-112796500D01*
X202386250Y-112796500D01*
X202410142Y-112797674D01*
X202410142Y-112797674D01*
G37*
D13*
X201930000Y-113284000D03*
G04 #@! TD*
D12*
G04 #@! TO.C,C12*
G36*
X190417642Y-110151174D02*
X190441303Y-110154684D01*
X190464507Y-110160496D01*
X190487029Y-110168554D01*
X190508653Y-110178782D01*
X190529170Y-110191079D01*
X190548383Y-110205329D01*
X190566107Y-110221393D01*
X190582171Y-110239117D01*
X190596421Y-110258330D01*
X190608718Y-110278847D01*
X190618946Y-110300471D01*
X190627004Y-110322993D01*
X190632816Y-110346197D01*
X190636326Y-110369858D01*
X190637500Y-110393750D01*
X190637500Y-111306250D01*
X190636326Y-111330142D01*
X190632816Y-111353803D01*
X190627004Y-111377007D01*
X190618946Y-111399529D01*
X190608718Y-111421153D01*
X190596421Y-111441670D01*
X190582171Y-111460883D01*
X190566107Y-111478607D01*
X190548383Y-111494671D01*
X190529170Y-111508921D01*
X190508653Y-111521218D01*
X190487029Y-111531446D01*
X190464507Y-111539504D01*
X190441303Y-111545316D01*
X190417642Y-111548826D01*
X190393750Y-111550000D01*
X189906250Y-111550000D01*
X189882358Y-111548826D01*
X189858697Y-111545316D01*
X189835493Y-111539504D01*
X189812971Y-111531446D01*
X189791347Y-111521218D01*
X189770830Y-111508921D01*
X189751617Y-111494671D01*
X189733893Y-111478607D01*
X189717829Y-111460883D01*
X189703579Y-111441670D01*
X189691282Y-111421153D01*
X189681054Y-111399529D01*
X189672996Y-111377007D01*
X189667184Y-111353803D01*
X189663674Y-111330142D01*
X189662500Y-111306250D01*
X189662500Y-110393750D01*
X189663674Y-110369858D01*
X189667184Y-110346197D01*
X189672996Y-110322993D01*
X189681054Y-110300471D01*
X189691282Y-110278847D01*
X189703579Y-110258330D01*
X189717829Y-110239117D01*
X189733893Y-110221393D01*
X189751617Y-110205329D01*
X189770830Y-110191079D01*
X189791347Y-110178782D01*
X189812971Y-110168554D01*
X189835493Y-110160496D01*
X189858697Y-110154684D01*
X189882358Y-110151174D01*
X189906250Y-110150000D01*
X190393750Y-110150000D01*
X190417642Y-110151174D01*
X190417642Y-110151174D01*
G37*
D13*
X190150000Y-110850000D03*
D12*
G36*
X188542642Y-110151174D02*
X188566303Y-110154684D01*
X188589507Y-110160496D01*
X188612029Y-110168554D01*
X188633653Y-110178782D01*
X188654170Y-110191079D01*
X188673383Y-110205329D01*
X188691107Y-110221393D01*
X188707171Y-110239117D01*
X188721421Y-110258330D01*
X188733718Y-110278847D01*
X188743946Y-110300471D01*
X188752004Y-110322993D01*
X188757816Y-110346197D01*
X188761326Y-110369858D01*
X188762500Y-110393750D01*
X188762500Y-111306250D01*
X188761326Y-111330142D01*
X188757816Y-111353803D01*
X188752004Y-111377007D01*
X188743946Y-111399529D01*
X188733718Y-111421153D01*
X188721421Y-111441670D01*
X188707171Y-111460883D01*
X188691107Y-111478607D01*
X188673383Y-111494671D01*
X188654170Y-111508921D01*
X188633653Y-111521218D01*
X188612029Y-111531446D01*
X188589507Y-111539504D01*
X188566303Y-111545316D01*
X188542642Y-111548826D01*
X188518750Y-111550000D01*
X188031250Y-111550000D01*
X188007358Y-111548826D01*
X187983697Y-111545316D01*
X187960493Y-111539504D01*
X187937971Y-111531446D01*
X187916347Y-111521218D01*
X187895830Y-111508921D01*
X187876617Y-111494671D01*
X187858893Y-111478607D01*
X187842829Y-111460883D01*
X187828579Y-111441670D01*
X187816282Y-111421153D01*
X187806054Y-111399529D01*
X187797996Y-111377007D01*
X187792184Y-111353803D01*
X187788674Y-111330142D01*
X187787500Y-111306250D01*
X187787500Y-110393750D01*
X187788674Y-110369858D01*
X187792184Y-110346197D01*
X187797996Y-110322993D01*
X187806054Y-110300471D01*
X187816282Y-110278847D01*
X187828579Y-110258330D01*
X187842829Y-110239117D01*
X187858893Y-110221393D01*
X187876617Y-110205329D01*
X187895830Y-110191079D01*
X187916347Y-110178782D01*
X187937971Y-110168554D01*
X187960493Y-110160496D01*
X187983697Y-110154684D01*
X188007358Y-110151174D01*
X188031250Y-110150000D01*
X188518750Y-110150000D01*
X188542642Y-110151174D01*
X188542642Y-110151174D01*
G37*
D13*
X188275000Y-110850000D03*
G04 #@! TD*
D12*
G04 #@! TO.C,R3*
G36*
X187177691Y-104468553D02*
X187198926Y-104471703D01*
X187219750Y-104476919D01*
X187239962Y-104484151D01*
X187259368Y-104493330D01*
X187277781Y-104504366D01*
X187295024Y-104517154D01*
X187310930Y-104531570D01*
X187325346Y-104547476D01*
X187338134Y-104564719D01*
X187349170Y-104583132D01*
X187358349Y-104602538D01*
X187365581Y-104622750D01*
X187370797Y-104643574D01*
X187373947Y-104664809D01*
X187375000Y-104686250D01*
X187375000Y-105123750D01*
X187373947Y-105145191D01*
X187370797Y-105166426D01*
X187365581Y-105187250D01*
X187358349Y-105207462D01*
X187349170Y-105226868D01*
X187338134Y-105245281D01*
X187325346Y-105262524D01*
X187310930Y-105278430D01*
X187295024Y-105292846D01*
X187277781Y-105305634D01*
X187259368Y-105316670D01*
X187239962Y-105325849D01*
X187219750Y-105333081D01*
X187198926Y-105338297D01*
X187177691Y-105341447D01*
X187156250Y-105342500D01*
X186643750Y-105342500D01*
X186622309Y-105341447D01*
X186601074Y-105338297D01*
X186580250Y-105333081D01*
X186560038Y-105325849D01*
X186540632Y-105316670D01*
X186522219Y-105305634D01*
X186504976Y-105292846D01*
X186489070Y-105278430D01*
X186474654Y-105262524D01*
X186461866Y-105245281D01*
X186450830Y-105226868D01*
X186441651Y-105207462D01*
X186434419Y-105187250D01*
X186429203Y-105166426D01*
X186426053Y-105145191D01*
X186425000Y-105123750D01*
X186425000Y-104686250D01*
X186426053Y-104664809D01*
X186429203Y-104643574D01*
X186434419Y-104622750D01*
X186441651Y-104602538D01*
X186450830Y-104583132D01*
X186461866Y-104564719D01*
X186474654Y-104547476D01*
X186489070Y-104531570D01*
X186504976Y-104517154D01*
X186522219Y-104504366D01*
X186540632Y-104493330D01*
X186560038Y-104484151D01*
X186580250Y-104476919D01*
X186601074Y-104471703D01*
X186622309Y-104468553D01*
X186643750Y-104467500D01*
X187156250Y-104467500D01*
X187177691Y-104468553D01*
X187177691Y-104468553D01*
G37*
D16*
X186900000Y-104905000D03*
D12*
G36*
X187177691Y-106043553D02*
X187198926Y-106046703D01*
X187219750Y-106051919D01*
X187239962Y-106059151D01*
X187259368Y-106068330D01*
X187277781Y-106079366D01*
X187295024Y-106092154D01*
X187310930Y-106106570D01*
X187325346Y-106122476D01*
X187338134Y-106139719D01*
X187349170Y-106158132D01*
X187358349Y-106177538D01*
X187365581Y-106197750D01*
X187370797Y-106218574D01*
X187373947Y-106239809D01*
X187375000Y-106261250D01*
X187375000Y-106698750D01*
X187373947Y-106720191D01*
X187370797Y-106741426D01*
X187365581Y-106762250D01*
X187358349Y-106782462D01*
X187349170Y-106801868D01*
X187338134Y-106820281D01*
X187325346Y-106837524D01*
X187310930Y-106853430D01*
X187295024Y-106867846D01*
X187277781Y-106880634D01*
X187259368Y-106891670D01*
X187239962Y-106900849D01*
X187219750Y-106908081D01*
X187198926Y-106913297D01*
X187177691Y-106916447D01*
X187156250Y-106917500D01*
X186643750Y-106917500D01*
X186622309Y-106916447D01*
X186601074Y-106913297D01*
X186580250Y-106908081D01*
X186560038Y-106900849D01*
X186540632Y-106891670D01*
X186522219Y-106880634D01*
X186504976Y-106867846D01*
X186489070Y-106853430D01*
X186474654Y-106837524D01*
X186461866Y-106820281D01*
X186450830Y-106801868D01*
X186441651Y-106782462D01*
X186434419Y-106762250D01*
X186429203Y-106741426D01*
X186426053Y-106720191D01*
X186425000Y-106698750D01*
X186425000Y-106261250D01*
X186426053Y-106239809D01*
X186429203Y-106218574D01*
X186434419Y-106197750D01*
X186441651Y-106177538D01*
X186450830Y-106158132D01*
X186461866Y-106139719D01*
X186474654Y-106122476D01*
X186489070Y-106106570D01*
X186504976Y-106092154D01*
X186522219Y-106079366D01*
X186540632Y-106068330D01*
X186560038Y-106059151D01*
X186580250Y-106051919D01*
X186601074Y-106046703D01*
X186622309Y-106043553D01*
X186643750Y-106042500D01*
X187156250Y-106042500D01*
X187177691Y-106043553D01*
X187177691Y-106043553D01*
G37*
D16*
X186900000Y-106480000D03*
G04 #@! TD*
D12*
G04 #@! TO.C,R4*
G36*
X185443691Y-106015053D02*
X185464926Y-106018203D01*
X185485750Y-106023419D01*
X185505962Y-106030651D01*
X185525368Y-106039830D01*
X185543781Y-106050866D01*
X185561024Y-106063654D01*
X185576930Y-106078070D01*
X185591346Y-106093976D01*
X185604134Y-106111219D01*
X185615170Y-106129632D01*
X185624349Y-106149038D01*
X185631581Y-106169250D01*
X185636797Y-106190074D01*
X185639947Y-106211309D01*
X185641000Y-106232750D01*
X185641000Y-106670250D01*
X185639947Y-106691691D01*
X185636797Y-106712926D01*
X185631581Y-106733750D01*
X185624349Y-106753962D01*
X185615170Y-106773368D01*
X185604134Y-106791781D01*
X185591346Y-106809024D01*
X185576930Y-106824930D01*
X185561024Y-106839346D01*
X185543781Y-106852134D01*
X185525368Y-106863170D01*
X185505962Y-106872349D01*
X185485750Y-106879581D01*
X185464926Y-106884797D01*
X185443691Y-106887947D01*
X185422250Y-106889000D01*
X184909750Y-106889000D01*
X184888309Y-106887947D01*
X184867074Y-106884797D01*
X184846250Y-106879581D01*
X184826038Y-106872349D01*
X184806632Y-106863170D01*
X184788219Y-106852134D01*
X184770976Y-106839346D01*
X184755070Y-106824930D01*
X184740654Y-106809024D01*
X184727866Y-106791781D01*
X184716830Y-106773368D01*
X184707651Y-106753962D01*
X184700419Y-106733750D01*
X184695203Y-106712926D01*
X184692053Y-106691691D01*
X184691000Y-106670250D01*
X184691000Y-106232750D01*
X184692053Y-106211309D01*
X184695203Y-106190074D01*
X184700419Y-106169250D01*
X184707651Y-106149038D01*
X184716830Y-106129632D01*
X184727866Y-106111219D01*
X184740654Y-106093976D01*
X184755070Y-106078070D01*
X184770976Y-106063654D01*
X184788219Y-106050866D01*
X184806632Y-106039830D01*
X184826038Y-106030651D01*
X184846250Y-106023419D01*
X184867074Y-106018203D01*
X184888309Y-106015053D01*
X184909750Y-106014000D01*
X185422250Y-106014000D01*
X185443691Y-106015053D01*
X185443691Y-106015053D01*
G37*
D16*
X185166000Y-106451500D03*
D12*
G36*
X185443691Y-104440053D02*
X185464926Y-104443203D01*
X185485750Y-104448419D01*
X185505962Y-104455651D01*
X185525368Y-104464830D01*
X185543781Y-104475866D01*
X185561024Y-104488654D01*
X185576930Y-104503070D01*
X185591346Y-104518976D01*
X185604134Y-104536219D01*
X185615170Y-104554632D01*
X185624349Y-104574038D01*
X185631581Y-104594250D01*
X185636797Y-104615074D01*
X185639947Y-104636309D01*
X185641000Y-104657750D01*
X185641000Y-105095250D01*
X185639947Y-105116691D01*
X185636797Y-105137926D01*
X185631581Y-105158750D01*
X185624349Y-105178962D01*
X185615170Y-105198368D01*
X185604134Y-105216781D01*
X185591346Y-105234024D01*
X185576930Y-105249930D01*
X185561024Y-105264346D01*
X185543781Y-105277134D01*
X185525368Y-105288170D01*
X185505962Y-105297349D01*
X185485750Y-105304581D01*
X185464926Y-105309797D01*
X185443691Y-105312947D01*
X185422250Y-105314000D01*
X184909750Y-105314000D01*
X184888309Y-105312947D01*
X184867074Y-105309797D01*
X184846250Y-105304581D01*
X184826038Y-105297349D01*
X184806632Y-105288170D01*
X184788219Y-105277134D01*
X184770976Y-105264346D01*
X184755070Y-105249930D01*
X184740654Y-105234024D01*
X184727866Y-105216781D01*
X184716830Y-105198368D01*
X184707651Y-105178962D01*
X184700419Y-105158750D01*
X184695203Y-105137926D01*
X184692053Y-105116691D01*
X184691000Y-105095250D01*
X184691000Y-104657750D01*
X184692053Y-104636309D01*
X184695203Y-104615074D01*
X184700419Y-104594250D01*
X184707651Y-104574038D01*
X184716830Y-104554632D01*
X184727866Y-104536219D01*
X184740654Y-104518976D01*
X184755070Y-104503070D01*
X184770976Y-104488654D01*
X184788219Y-104475866D01*
X184806632Y-104464830D01*
X184826038Y-104455651D01*
X184846250Y-104448419D01*
X184867074Y-104443203D01*
X184888309Y-104440053D01*
X184909750Y-104439000D01*
X185422250Y-104439000D01*
X185443691Y-104440053D01*
X185443691Y-104440053D01*
G37*
D16*
X185166000Y-104876500D03*
G04 #@! TD*
D12*
G04 #@! TO.C,R5*
G36*
X188115191Y-107426053D02*
X188136426Y-107429203D01*
X188157250Y-107434419D01*
X188177462Y-107441651D01*
X188196868Y-107450830D01*
X188215281Y-107461866D01*
X188232524Y-107474654D01*
X188248430Y-107489070D01*
X188262846Y-107504976D01*
X188275634Y-107522219D01*
X188286670Y-107540632D01*
X188295849Y-107560038D01*
X188303081Y-107580250D01*
X188308297Y-107601074D01*
X188311447Y-107622309D01*
X188312500Y-107643750D01*
X188312500Y-108156250D01*
X188311447Y-108177691D01*
X188308297Y-108198926D01*
X188303081Y-108219750D01*
X188295849Y-108239962D01*
X188286670Y-108259368D01*
X188275634Y-108277781D01*
X188262846Y-108295024D01*
X188248430Y-108310930D01*
X188232524Y-108325346D01*
X188215281Y-108338134D01*
X188196868Y-108349170D01*
X188177462Y-108358349D01*
X188157250Y-108365581D01*
X188136426Y-108370797D01*
X188115191Y-108373947D01*
X188093750Y-108375000D01*
X187656250Y-108375000D01*
X187634809Y-108373947D01*
X187613574Y-108370797D01*
X187592750Y-108365581D01*
X187572538Y-108358349D01*
X187553132Y-108349170D01*
X187534719Y-108338134D01*
X187517476Y-108325346D01*
X187501570Y-108310930D01*
X187487154Y-108295024D01*
X187474366Y-108277781D01*
X187463330Y-108259368D01*
X187454151Y-108239962D01*
X187446919Y-108219750D01*
X187441703Y-108198926D01*
X187438553Y-108177691D01*
X187437500Y-108156250D01*
X187437500Y-107643750D01*
X187438553Y-107622309D01*
X187441703Y-107601074D01*
X187446919Y-107580250D01*
X187454151Y-107560038D01*
X187463330Y-107540632D01*
X187474366Y-107522219D01*
X187487154Y-107504976D01*
X187501570Y-107489070D01*
X187517476Y-107474654D01*
X187534719Y-107461866D01*
X187553132Y-107450830D01*
X187572538Y-107441651D01*
X187592750Y-107434419D01*
X187613574Y-107429203D01*
X187634809Y-107426053D01*
X187656250Y-107425000D01*
X188093750Y-107425000D01*
X188115191Y-107426053D01*
X188115191Y-107426053D01*
G37*
D16*
X187875000Y-107900000D03*
D12*
G36*
X189690191Y-107426053D02*
X189711426Y-107429203D01*
X189732250Y-107434419D01*
X189752462Y-107441651D01*
X189771868Y-107450830D01*
X189790281Y-107461866D01*
X189807524Y-107474654D01*
X189823430Y-107489070D01*
X189837846Y-107504976D01*
X189850634Y-107522219D01*
X189861670Y-107540632D01*
X189870849Y-107560038D01*
X189878081Y-107580250D01*
X189883297Y-107601074D01*
X189886447Y-107622309D01*
X189887500Y-107643750D01*
X189887500Y-108156250D01*
X189886447Y-108177691D01*
X189883297Y-108198926D01*
X189878081Y-108219750D01*
X189870849Y-108239962D01*
X189861670Y-108259368D01*
X189850634Y-108277781D01*
X189837846Y-108295024D01*
X189823430Y-108310930D01*
X189807524Y-108325346D01*
X189790281Y-108338134D01*
X189771868Y-108349170D01*
X189752462Y-108358349D01*
X189732250Y-108365581D01*
X189711426Y-108370797D01*
X189690191Y-108373947D01*
X189668750Y-108375000D01*
X189231250Y-108375000D01*
X189209809Y-108373947D01*
X189188574Y-108370797D01*
X189167750Y-108365581D01*
X189147538Y-108358349D01*
X189128132Y-108349170D01*
X189109719Y-108338134D01*
X189092476Y-108325346D01*
X189076570Y-108310930D01*
X189062154Y-108295024D01*
X189049366Y-108277781D01*
X189038330Y-108259368D01*
X189029151Y-108239962D01*
X189021919Y-108219750D01*
X189016703Y-108198926D01*
X189013553Y-108177691D01*
X189012500Y-108156250D01*
X189012500Y-107643750D01*
X189013553Y-107622309D01*
X189016703Y-107601074D01*
X189021919Y-107580250D01*
X189029151Y-107560038D01*
X189038330Y-107540632D01*
X189049366Y-107522219D01*
X189062154Y-107504976D01*
X189076570Y-107489070D01*
X189092476Y-107474654D01*
X189109719Y-107461866D01*
X189128132Y-107450830D01*
X189147538Y-107441651D01*
X189167750Y-107434419D01*
X189188574Y-107429203D01*
X189209809Y-107426053D01*
X189231250Y-107425000D01*
X189668750Y-107425000D01*
X189690191Y-107426053D01*
X189690191Y-107426053D01*
G37*
D16*
X189450000Y-107900000D03*
G04 #@! TD*
D19*
G04 #@! TO.C,J5*
X189381000Y-122682000D03*
X190881000Y-122682000D03*
G04 #@! TD*
D20*
G04 #@! TO.C,J3*
X181102000Y-123214000D03*
X181102000Y-124714000D03*
G04 #@! TD*
D12*
G04 #@! TO.C,C10*
G36*
X202410142Y-123054674D02*
X202433803Y-123058184D01*
X202457007Y-123063996D01*
X202479529Y-123072054D01*
X202501153Y-123082282D01*
X202521670Y-123094579D01*
X202540883Y-123108829D01*
X202558607Y-123124893D01*
X202574671Y-123142617D01*
X202588921Y-123161830D01*
X202601218Y-123182347D01*
X202611446Y-123203971D01*
X202619504Y-123226493D01*
X202625316Y-123249697D01*
X202628826Y-123273358D01*
X202630000Y-123297250D01*
X202630000Y-123784750D01*
X202628826Y-123808642D01*
X202625316Y-123832303D01*
X202619504Y-123855507D01*
X202611446Y-123878029D01*
X202601218Y-123899653D01*
X202588921Y-123920170D01*
X202574671Y-123939383D01*
X202558607Y-123957107D01*
X202540883Y-123973171D01*
X202521670Y-123987421D01*
X202501153Y-123999718D01*
X202479529Y-124009946D01*
X202457007Y-124018004D01*
X202433803Y-124023816D01*
X202410142Y-124027326D01*
X202386250Y-124028500D01*
X201473750Y-124028500D01*
X201449858Y-124027326D01*
X201426197Y-124023816D01*
X201402993Y-124018004D01*
X201380471Y-124009946D01*
X201358847Y-123999718D01*
X201338330Y-123987421D01*
X201319117Y-123973171D01*
X201301393Y-123957107D01*
X201285329Y-123939383D01*
X201271079Y-123920170D01*
X201258782Y-123899653D01*
X201248554Y-123878029D01*
X201240496Y-123855507D01*
X201234684Y-123832303D01*
X201231174Y-123808642D01*
X201230000Y-123784750D01*
X201230000Y-123297250D01*
X201231174Y-123273358D01*
X201234684Y-123249697D01*
X201240496Y-123226493D01*
X201248554Y-123203971D01*
X201258782Y-123182347D01*
X201271079Y-123161830D01*
X201285329Y-123142617D01*
X201301393Y-123124893D01*
X201319117Y-123108829D01*
X201338330Y-123094579D01*
X201358847Y-123082282D01*
X201380471Y-123072054D01*
X201402993Y-123063996D01*
X201426197Y-123058184D01*
X201449858Y-123054674D01*
X201473750Y-123053500D01*
X202386250Y-123053500D01*
X202410142Y-123054674D01*
X202410142Y-123054674D01*
G37*
D13*
X201930000Y-123541000D03*
D12*
G36*
X202410142Y-121179674D02*
X202433803Y-121183184D01*
X202457007Y-121188996D01*
X202479529Y-121197054D01*
X202501153Y-121207282D01*
X202521670Y-121219579D01*
X202540883Y-121233829D01*
X202558607Y-121249893D01*
X202574671Y-121267617D01*
X202588921Y-121286830D01*
X202601218Y-121307347D01*
X202611446Y-121328971D01*
X202619504Y-121351493D01*
X202625316Y-121374697D01*
X202628826Y-121398358D01*
X202630000Y-121422250D01*
X202630000Y-121909750D01*
X202628826Y-121933642D01*
X202625316Y-121957303D01*
X202619504Y-121980507D01*
X202611446Y-122003029D01*
X202601218Y-122024653D01*
X202588921Y-122045170D01*
X202574671Y-122064383D01*
X202558607Y-122082107D01*
X202540883Y-122098171D01*
X202521670Y-122112421D01*
X202501153Y-122124718D01*
X202479529Y-122134946D01*
X202457007Y-122143004D01*
X202433803Y-122148816D01*
X202410142Y-122152326D01*
X202386250Y-122153500D01*
X201473750Y-122153500D01*
X201449858Y-122152326D01*
X201426197Y-122148816D01*
X201402993Y-122143004D01*
X201380471Y-122134946D01*
X201358847Y-122124718D01*
X201338330Y-122112421D01*
X201319117Y-122098171D01*
X201301393Y-122082107D01*
X201285329Y-122064383D01*
X201271079Y-122045170D01*
X201258782Y-122024653D01*
X201248554Y-122003029D01*
X201240496Y-121980507D01*
X201234684Y-121957303D01*
X201231174Y-121933642D01*
X201230000Y-121909750D01*
X201230000Y-121422250D01*
X201231174Y-121398358D01*
X201234684Y-121374697D01*
X201240496Y-121351493D01*
X201248554Y-121328971D01*
X201258782Y-121307347D01*
X201271079Y-121286830D01*
X201285329Y-121267617D01*
X201301393Y-121249893D01*
X201319117Y-121233829D01*
X201338330Y-121219579D01*
X201358847Y-121207282D01*
X201380471Y-121197054D01*
X201402993Y-121188996D01*
X201426197Y-121183184D01*
X201449858Y-121179674D01*
X201473750Y-121178500D01*
X202386250Y-121178500D01*
X202410142Y-121179674D01*
X202410142Y-121179674D01*
G37*
D13*
X201930000Y-121666000D03*
G04 #@! TD*
M02*
